<svg xmlns="http://www.w3.org/2000/svg" viewBox="0 0 888.072 546.884">
  <g id="Group_2" data-name="Group 2" transform="translate(-122.234 30.761)">
    <g id="Group_25" data-name="Group 25" transform="translate(2633.568 596.802) rotate(178)">
      <g id="Group_18" data-name="Group 18" transform="translate(1618.465 167.645)">
        <g id="Group_17" data-name="Group 17" transform="translate(0 0)">
          <g id="undraw_social_networking_nqk4" transform="translate(0)">
            <path id="Path_121" data-name="Path 121" d="M868.189,358.377c-30.6,35.326-20.5,85.751-2.813,125.923,5.925,13.449,12.656,27.671,9.583,42.3-3.752,17.887-21.389,31.288-39.72,38.588-33.419,13.3-72.9,11.179-102.789-5.583-25.8-14.467-43.956-38.509-70.253-52.287-44.011-23.049-101.148-12.751-150.132,4.847-34.654,12.448-72.614,28.48-106.385,16.985-23.762-8.089-39.767-28.678-48.186-50.687-4.065-10.627-6.91-22.161-15.009-30.48-4.815-4.945-11.179-8.391-17.722-11.271-59.715-26.3-136.529-9.864-194.424-39.212-39.086-19.819-63.414-58.281-73.521-98.717s-7.606-83.121-3.58-125.075c2.861-29.816,7.387-61.676,28.7-85.106,22.537-24.778,60.31-34.63,94.089-30.743s64.055,19.687,90.555,38.5C299.7,119.868,330.2,149.373,371.418,158.29c28.072,6.076,57.9,1.776,87.078-.125,48.78-3.17,97.388.48,145.7,4.6,46.248,3.945,92.814,8.351,136.614,21.286,30.995,9.154,55.567,26.455,84.747,38.279,19.02,7.707,39.948,9.5,57.848,19.452,22.091,12.264,42.057,33.991,35.577,60.065C912.858,326.628,884.434,339.629,868.189,358.377Z" transform="translate(-49.721 -57.041)" fill="#00beff" opacity="0.118"/>
            <path id="Path_177" data-name="Path 177" d="M38.147,25.69Z" transform="translate(151.939 248.955)" fill="#b96b6b"/>
          </g>
        </g>
      </g>
    </g>
    <g id="undraw_Code_typing_re_p8b9" transform="translate(57 66.617)">
      <path id="Path_1" data-name="Path 1" d="M643.457,221.721l61.933-61.744L643.457,98.233l18.882-18.819,80.815,80.563L662.339,240.54l-18.882-18.819Z" fill="#e6e6e6" style="isolation: isolate"/>
      <rect id="Rectangle_1" data-name="Rectangle 1" width="25.176" height="25.176" transform="translate(466.595 135.207)" fill="#e6e6e6" style="isolation: isolate"/>
      <rect id="Rectangle_2" data-name="Rectangle 2" width="25.176" height="25.176" transform="translate(567.803 135.207)" fill="#e6e6e6" style="isolation: isolate"/>
      <path id="Path_2" data-name="Path 2" d="M432.482,221.092l-62-61.744L432.419,97.6,413.537,78.785l-80.752,80.563L413.6,239.911Z" fill="#e6e6e6" style="isolation: isolate"/>
      <path id="Path_3" data-name="Path 3" d="M643.457,209.763l61.933-61.744L643.457,86.274l18.882-18.819,80.815,80.564-80.815,80.563-18.882-18.819Z" fill="#00beff"/>
      <path id="Path_4" data-name="Path 4" d="M537.6,385.051h25.176V359.875H537.595Zm126.384-25.176H638.8v25.176h25.176ZM588.2,385.051h25.176V359.875H588.2Z" transform="translate(-71 -232.627)" fill="#00beff"/>
      <path id="Path_5" data-name="Path 5" d="M432.482,209.133l-62-61.744,61.933-61.744L413.537,66.826l-80.752,80.563L413.6,227.952Z" fill="#00beff"/>
      <path id="Path_6" data-name="Path 6" d="M129.3,410.449l14.094,3.407,19.849-52.739-20.8-5.029Z" fill="#a0616a"/>
      <path id="Path_7" data-name="Path 7" d="M193.632,655.732l4.328-17.9,27.574,6.666a18.032,18.032,0,0,1,13.275,21.74l-.1.394Z" transform="translate(-71 -232.627)" fill="#2f2e41"/>
      <path id="Path_8" data-name="Path 8" d="M191.7,420.05h14.5l6.9-55.927h-21.4Z" fill="#a0616a"/>
      <path id="Path_9" data-name="Path 9" d="M259.183,648.129h28.37a18.012,18.012,0,0,1,18.012,18.011v.405l-46.381,0Z" transform="translate(-71 -232.627)" fill="#2f2e41"/>
      <path id="Path_10" data-name="Path 10" d="M259.294,633.325l2.384-87.007-3.211-35.281L252.2,538.187l-27.379,89.285-23.6-6.211,27.336-96.27-5.937-61.748,17.058-10.965.23.042,58.279,10.742L284.1,630.844Z" transform="translate(-71 -232.627)" fill="#2f2e41"/>
      <path id="Path_11" data-name="Path 11" d="M282.359,475.175c-4.693,0-10.182-1.512-16.292-5.825-19.551-13.8-42.863,1.045-43.1,1.2l-.947.616.033-1.128c.024-.8,2.365-80.712,2.365-106.425,0-26.565,17.332-45.962,22.644-51.274,5.214-5.215,9.6-5.1,15.155-4.955.957.024,1.954.051,3,.051,7.258,0,14.314,6.973,14.61,7.269l.142.142.026.2,20.139,151.631-.154.2C299.895,466.986,293.282,475.175,282.359,475.175Z" transform="translate(-71 -232.627)" fill="#9f9f9f"/>
      <circle id="Ellipse_1" data-name="Ellipse 1" cx="29.048" cy="29.048" r="29.048" transform="translate(157.885 48.36) rotate(-61.337)" fill="#a0616a"/>
      <path id="Path_12" data-name="Path 12" d="M312.775,499.454a11.893,11.893,0,0,1-.69-18.223l-16.5-38.911,21.6,3.975,12.354,36.341a11.957,11.957,0,0,1-16.767,16.818Z" transform="translate(-71 -232.627)" fill="#a0616a"/>
      <path id="Path_13" data-name="Path 13" d="M308.1,477.3,278.3,416.5l-13.07-45.766.01-39.758c.029-.157,3.1-15.622,14.49-14.553,10.327,1,15.888,6.05,18.6,16.884,2.3,9.2-.846,36.51-1.151,39.086,2,4.738,31.976,76.164,27.013,84.766a2.185,2.185,0,0,1-.785.813l5.312,11.215Z" transform="translate(-71 -232.627)" fill="#9f9f9f"/>
      <path id="Path_14" data-name="Path 14" d="M264.593,280.374c3.482.453,6.109-3.11,7.327-6.4s2.147-7.128,5.174-8.907c4.136-2.43,9.428.493,14.158-.309,5.342-.906,8.815-6.567,9.087-11.978s-1.881-10.615-3.994-15.6l-.738,6.2a12.3,12.3,0,0,0-5.373-10.747l.951,9.1a9.656,9.656,0,0,0-11.108-7.99l.15,5.421c-6.169-.734-12.393-1.468-18.581-.909s-12.419,2.517-17.109,6.592c-7.015,6.1-9.577,16.133-8.717,25.387s4.68,17.947,8.661,26.345c1,2.113,2.387,4.5,4.71,4.766,2.087.242,4-1.5,4.645-3.5a12.69,12.69,0,0,0-.056-6.234c-.587-3.119-1.327-6.307-.775-9.433s2.8-6.214,5.951-6.6,6.375,3.218,4.86,6.007Z" transform="translate(-71 -232.627)" fill="#2f2e41"/>
      <path id="Path_15" data-name="Path 15" d="M983.591,495.58a10.056,10.056,0,0,1,2.359-15.238l-7.434-34.953,17.29,6.774,4.409,32.153a10.11,10.11,0,0,1-16.623,11.263Z" transform="translate(-71 -232.627)" fill="#ffb8b8"/>
      <path id="Path_16" data-name="Path 16" d="M981.628,468.308l-.093-.343c-9.347-34.571-19.008-70.308-30.8-109.219l-.077-.255.26-.152c6.575-3.837,16.457-3.581,22.986.594a17.15,17.15,0,0,1,7.444,18.191l8.6,44.857c3.5,14.663,7.118,29.84,10.577,44.806l.1.424-.536.034c-6.3.4-12.807.815-18.021,1.044Z" transform="translate(-71 -232.627)" fill="#f7af2b"/>
      <path id="Path_17" data-name="Path 17" d="M831.194,421.744h-12.26L813.1,374.457h18.094Z" fill="#ffb8b8"/>
      <path id="Path_18" data-name="Path 18" d="M905.321,666.256H865.79v-.5a15.4,15.4,0,0,1,15.387-15.387h24.144Z" transform="translate(-71 -232.627)" fill="#2f2e41"/>
      <path id="Path_19" data-name="Path 19" d="M946.719,411.631l-11.682,3.722-19.916-43.284,17.241-5.494Z" fill="#ffb8b8"/>
      <path id="Path_20" data-name="Path 20" d="M986.641,666.633l-.152-.477a15.4,15.4,0,0,1,9.989-19.332l23-7.33,4.823,15.137Z" transform="translate(-71 -232.627)" fill="#2f2e41"/>
      <circle id="Ellipse_2" data-name="Ellipse 2" cx="24.561" cy="24.561" r="24.561" transform="translate(860.106 45.315)" fill="#ffb8b8"/>
      <path id="Path_21" data-name="Path 21" d="M966.694,297.952c.14-9.906-4.006-19.717-10.417-24.65a16.649,16.649,0,0,0-21.132.373c-6.311,5.157-10.263,15.112-9.928,25.009C939.358,298.725,953.5,298.765,966.694,297.952Z" transform="translate(-71 -232.627)" fill="#2f2e41"/>
      <path id="Path_22" data-name="Path 22" d="M909.193,639.15l-.492-.048c-10.666-1.047-21.695-2.128-32.118-2.252l-.567-.007.077-.562c2.469-17.886,3.516-36.479,4.529-54.462,1-17.756,2.033-36.116,4.441-53.553,1.019-4.669,2.011-9.283,3-13.88,8.186-38.043,15.917-73.977,31.877-109.546l.151-.336.365.044c14.974,1.812,29.363,7.275,40.515,15.383l.216.157-.01.267c-.215,5.525-.438,11.236-.108,16.439a55.8,55.8,0,0,1,7.954,49.283c4.391,14.675,8.931,29.845,13.563,44.81,11.249,30.838,22.888,62.751,34.82,95.1l.2.53-.551.129c-8.585,2.016-17.44,4.094-26.177,4.9l-.33.03-.157-.292A712.852,712.852,0,0,1,936.3,501.23c-2.981,9.092-7.276,17.3-11.437,25.249a189.035,189.035,0,0,0-10.482,22.4c-1.842,15.121-2.33,31.5-2.8,47.347-.447,14.979-.868,29.128-2.331,42.432Z" transform="translate(-71 -232.627)" fill="#2f2e41"/>
      <path id="Path_23" data-name="Path 23" d="M947.282,273.756c10.646-2.294,22.422-.112,30.783,7.071s12.606,19.609,9.172,30.266-15.1,18.155-25.64,15.4c3.02-8.512-.379-18.964-7.762-23.867C945.078,296.815,942.668,282.933,947.282,273.756Z" transform="translate(-71 -232.627)" fill="#2f2e41"/>
      <path id="Path_24" data-name="Path 24" d="M960.207,421l-.389-.177c-13.581-6.2-26.9-10.951-39.376-15.289l-.383-.083v-1.109l.248.086.17-.376c.17-.377.287-.634.385-.8h0c1.04-2.12,1.867-4.168,2.667-6.149.825-2.044,1.677-4.155,2.778-6.389a19.356,19.356,0,0,1-4.276-20.829c2.756-6.533,9.784-11.621,17.169-12.465,2.706-7.449,8.735-23.1,8.735-23.1s12.678-.348,17.777-1l.086-.011.084.019c11.131,2.439,20.424,12.972,22.6,25.614,1.835,10.67-.952,22.875-7.847,34.366A148.043,148.043,0,0,1,968.919,409.4c-3.106,3.884-6.04,7.552-8.476,11.246Z" transform="translate(-71 -232.627)" fill="#f7af2b"/>
      <path id="Path_25" data-name="Path 25" d="M984.292,290.493Z" transform="translate(-71 -232.627)" fill="#2f2e41"/>
      <path id="Path_26" data-name="Path 26" d="M984.791,288.311c-7.452-1.112-13.3-8.73-12.457-16.218s8.253-13.605,15.765-13.025,13.89,7.764,13.576,15.293S994.306,289.731,984.791,288.311Z" transform="translate(-71 -232.627)" fill="#2f2e41"/>
      <path id="Path_27" data-name="Path 27" d="M983.627,283.456c-7.452-1.112-13.3-8.73-12.457-16.218a15.241,15.241,0,0,1,8.882-11.734c-6.01,1.315-11.182,6.553-11.882,12.734-.847,7.487,5,15.105,12.457,16.218a14.208,14.208,0,0,0,8.172-1.143,14.5,14.5,0,0,1-5.172.143Z" transform="translate(-71 -232.627)" fill="#2f2e41"/>
      <path id="Path_28" data-name="Path 28" d="M839.069,415.434a10.056,10.056,0,0,1,15.153-2.853L884.7,393.925l-.627,18.559-28.847,14.87a10.11,10.11,0,0,1-16.158-11.921Z" transform="translate(-71 -232.627)" fill="#ffb8b8"/>
      <path id="Path_29" data-name="Path 29" d="M864.128,404.5l.293-.2c29.481-20.331,59.957-41.348,92.715-65.434l.215-.158.23.195c5.808,4.921,8.859,14.323,7.1,21.87a17.15,17.15,0,0,1-14.672,13.079L910.58,396.9c-12.66,8.183-25.764,16.653-38.721,24.9l-.367.234-.211-.494c-2.477-5.806-5.036-11.8-6.988-16.644Z" transform="translate(-71 -232.627)" fill="#f7af2b"/>
    </g>
    <g id="Group_1" data-name="Group 1" transform="translate(-4.559 4)">
      <ellipse id="Ellipse_31" data-name="Ellipse 31" cx="20.569" cy="21.171" rx="20.569" ry="21.171" transform="translate(570.795 186.828)" fill="#e6e6e6"/>
      <ellipse id="Ellipse_31-2" data-name="Ellipse 31" cx="20.569" cy="21.171" rx="20.569" ry="21.171" transform="translate(570.795 181.828)" fill="#00beff"/>
      <g id="Group_4" data-name="Group 4" transform="translate(582.158 193.885)">
        <rect id="Rectangle_5" data-name="Rectangle 5" width="19.627" height="5.446" fill="#fff"/>
        <rect id="Rectangle_6" data-name="Rectangle 6" width="13.539" height="5.446" transform="translate(0 7.262)" fill="#fff"/>
        <rect id="Rectangle_7" data-name="Rectangle 7" width="6.844" height="5.446" transform="translate(0 14.524)" fill="#fff"/>
      </g>
    </g>
  </g>
</svg>
