<svg xmlns="http://www.w3.org/2000/svg" width="155.825" height="31.284" viewBox="0 0 155.825 31.284">
  <g id="Group_3" data-name="Group 3" transform="translate(-46 -33.024)">
    <path id="Path_4" data-name="Path 4" d="M279.7,51.73V45.6a5.092,5.092,0,0,1,3.942-2.007c2.616,0,4.372,2.043,4.372,5.017,0,3.01-1.756,5.053-4.372,5.053A5.138,5.138,0,0,1,279.7,51.73Zm0,5.554V55.062a6.719,6.719,0,0,0,5.339,2.652c4.372,0,7.669-3.3,7.669-9.1,0-5.626-3.261-9.066-7.669-9.066A6.565,6.565,0,0,0,279.7,42.2V33.382h-4.551v23.9Zm21,0v-23.9h-4.551v23.9Zm20.746,0V39.976h-4.551V51.694a5.1,5.1,0,0,1-3.942,1.971c-1.935,0-3.189-.788-3.189-3.189v-10.5H305.2V52.267c0,3.368,1.792,5.447,5.59,5.447a8.231,8.231,0,0,0,6.092-2.616v2.186Zm12.653.43a10.788,10.788,0,0,0,7.131-2.4L339.18,52.3a7.239,7.239,0,0,1-4.587,1.684c-2.938,0-4.659-1.756-4.981-3.87h12.865V49.042c0-5.626-3.476-9.5-8.672-9.5a8.83,8.83,0,0,0-8.959,9.066C324.846,54.167,328.824,57.714,334.091,57.714Zm4.013-10.75h-8.529a4.309,4.309,0,0,1,8.529,0Zm13.249,10.32V43.954h3.512V39.976h-3.512v-.717c0-1.684.86-2.508,2.15-2.508a2.551,2.551,0,0,1,1.469.358l.932-3.368a7.246,7.246,0,0,0-3.3-.717c-3.333,0-5.805,2.186-5.805,6.235v.717h-2.867v3.978H346.8V57.284Zm10.679,0v-23.9h-4.551v23.9Zm19.5,0V46.1c0-4.981-3.618-6.558-7.6-6.558a11.174,11.174,0,0,0-7.561,2.723l1.792,3.189a7.274,7.274,0,0,1,4.981-2.043c2.293,0,3.8,1.147,3.8,2.9V48.5a7.067,7.067,0,0,0-5.482-2.114c-2.76,0-5.985,1.505-5.985,5.59a5.737,5.737,0,0,0,5.985,5.734,7.06,7.06,0,0,0,5.482-2.258v1.828Zm-8.242-2.652c-1.792,0-3.26-.932-3.26-2.58s1.468-2.616,3.26-2.616a4.576,4.576,0,0,1,3.656,1.541v2.15A4.553,4.553,0,0,1,373.288,54.632ZM393.1,64.308c4.264,0,9.353-1.613,9.353-8.17V39.976h-4.552V42.2a6.631,6.631,0,0,0-5.375-2.652c-4.372,0-7.632,3.153-7.632,8.815,0,5.769,3.332,8.78,7.632,8.78a6.72,6.72,0,0,0,5.375-2.688v1.684c0,3.512-2.615,4.444-4.8,4.444a7.026,7.026,0,0,1-5.411-2.114l-2.043,3.261A10.544,10.544,0,0,0,393.1,64.308Zm.9-11.18c-2.617,0-4.408-1.792-4.408-4.766S391.383,43.6,394,43.6a5.122,5.122,0,0,1,3.906,1.935v5.626A5.156,5.156,0,0,1,394,53.127Z" transform="translate(-200.632 0)" fill="#00beff"/>
    <g id="Group_4" data-name="Group 4" transform="translate(46 35.12)">
      <rect id="Rectangle_5" data-name="Rectangle 5" width="21.171" height="5.708" fill="#00beff"/>
      <rect id="Rectangle_6" data-name="Rectangle 6" width="14.605" height="5.708" transform="translate(0 7.611)" fill="#00beff"/>
      <rect id="Rectangle_7" data-name="Rectangle 7" width="7.383" height="5.708" transform="translate(0 15.222)" fill="#00beff"/>
    </g>
  </g>
</svg>
