<svg xmlns="http://www.w3.org/2000/svg" width="30" height="30" viewBox="0 0 30 30">
  <g id="Group_61" data-name="Group 61" transform="translate(-317.532 -3100.96)">
    <ellipse id="Ellipse_291" data-name="Ellipse 291" cx="15" cy="15" rx="15" ry="15" transform="translate(317.532 3100.96)" fill="#a9d59f"/>
    <path id="Path_1326" data-name="Path 1326" d="M298.934,397.62a1.633,1.633,0,0,1-.983-.326l-.018-.013-3.7-2.833a1.644,1.644,0,0,1,2-2.61l2.4,1.838,5.664-7.387a1.644,1.644,0,0,1,2.305-.3l-.035.048.036-.047a1.646,1.646,0,0,1,.3,2.305l-6.662,8.689A1.645,1.645,0,0,1,298.934,397.62Z" transform="translate(32.057 2724.342)" fill="#239617"/>
  </g>
</svg>
