<svg xmlns="http://www.w3.org/2000/svg" width="751.729" height="599.144" viewBox="0 0 751.729 599.144">
  <g id="undraw_code_review_re_woeb" transform="translate(-55.716)">
    <circle id="Ellipse_14" data-name="Ellipse 14" cx="24.561" cy="24.561" r="24.561" transform="translate(125.973 230.311)" fill="#ffb8b8"/>
    <path id="Path_86" data-name="Path 86" d="M67.543,549.2l6.219,10.566,43.712-18.96-9.179-15.593Z" fill="#ffb8b8"/>
    <path id="Path_87" data-name="Path 87" d="M206.1,694.43l12.247,20.807h0a15.386,15.386,0,0,1-5.456,21.065l-.431.254L192.4,702.489Z" transform="translate(-136.689 -149.958)" fill="#2f2e41"/>
    <path id="Path_88" data-name="Path 88" d="M139.6,587.26h12.26l5.832-47.288H139.6Z" fill="#ffb8b8"/>
    <path id="Path_89" data-name="Path 89" d="M273.162,733.215h24.145A15.386,15.386,0,0,1,312.694,748.6v.5H273.163Z" transform="translate(-136.689 -149.958)" fill="#2f2e41"/>
    <path id="Path_90" data-name="Path 90" d="M227,708.567a4.494,4.494,0,0,1-3.624-1.833l-11.824-16.059a4.5,4.5,0,0,1,1.125-6.41l52.614-35.142-31.747-83.475,67.889,5.6,2.287,71.733a36.046,36.046,0,0,1-18.045,32.424l-56.427,32.554A4.486,4.486,0,0,1,227,708.567Z" transform="translate(-136.689 -149.958)" fill="#2f2e41"/>
    <path id="Path_91" data-name="Path 91" d="M276.659,727.617a4.5,4.5,0,0,1-4.489-4.34L269.683,653.4l30.808-1.623-2.453,70.384a4.487,4.487,0,0,1-4.2,4.333l-16.873,1.118C276.863,727.614,276.761,727.617,276.659,727.617Z" transform="translate(-136.689 -149.958)" fill="#2f2e41"/>
    <path id="Path_92" data-name="Path 92" d="M309.291,585.129c-7.838,0-35.217-8.816-44.721-11.959-1.422,1.138-9.233,6.979-18.351,5.911-5.626-.66-10.579-3.845-14.721-9.466-9.147-12.414,2.151-65.651,13.239-108.126a34.268,34.268,0,0,1,40.529-24.88h0a34.571,34.571,0,0,1,26.088,25.378c2.088,8.5.292,18.494-1.02,25.794-.616,3.432-1.1,6.143-.937,7.475.644,5.148,4.219,85.892,1.92,89.34C311.071,584.963,310.363,585.129,309.291,585.129Z" transform="translate(-136.689 -149.958)" fill="#053440"/>
    <path id="Path_93" data-name="Path 93" d="M280.616,585.272a10.743,10.743,0,0,0,.942-16.446l.485-97.844L259,474.82l6.769,94.97a10.8,10.8,0,0,0,14.849,15.481Z" transform="translate(-136.689 -149.958)" fill="#ffb8b8"/>
    <path id="Path_94" data-name="Path 94" d="M285.946,533.818H261.124a4.514,4.514,0,0,1-4.5-4.459l-.609-67.292a17.6,17.6,0,1,1,35.205.043l-.774,67.26A4.515,4.515,0,0,1,285.946,533.818Z" transform="translate(-136.689 -149.958)" fill="#053440"/>
    <path id="Path_95" data-name="Path 95" d="M280.969,429.289c-11.245.021-21.854-8.868-23.8-19.943a28.671,28.671,0,0,1,.919-13.014,34.954,34.954,0,0,1,47.935-21.953c3.008,1.361,5.971,3.316,7.349,6.317s.515,7.2-2.5,8.546c-1.969.882-4.44.449-6.187,1.716-2.509,1.819-1.863,5.691-.743,8.581s2.388,6.387.509,8.852c-1.75,2.3-5.249,2.226-8,1.361s-5.476-2.313-8.349-2.018c-4.19.43-7.2,4.6-7.759,8.773s.755,8.349,2.05,12.357Z" transform="translate(-136.689 -149.958)" fill="#2f2e41"/>
    <path id="Path_97" data-name="Path 97" d="M930.552,584.505h-527.5c-7.5-.01-13.573-7.392-13.582-16.5V172.852c.006-6.673,4.457-12.081,9.95-12.088H934.011c5.588.008,10.116,5.509,10.122,12.3V568.005C944.125,577.114,938.049,584.5,930.552,584.505Z" transform="translate(-136.689 -149.958)" fill="#f2f2f2"/>
    <path id="Path_98" data-name="Path 98" d="M907.79,563.673H425.783c-7.066,0-12.814-6.67-12.814-14.868V204.7c0-6.08,4.26-11.027,9.5-11.027H910.952c5.323,0,9.653,5.028,9.653,11.208V548.8C920.6,557,914.856,563.673,907.79,563.673Z" transform="translate(-136.689 -149.958)" fill="#fff"/>
    <path id="Path_99" data-name="Path 99" d="M944.134,174.908H389.241v-8.4c.011-9.139,6.111-16.542,13.637-16.55H930.5c7.526.008,13.626,7.411,13.637,16.55Z" transform="translate(-136.689 -149.958)" fill="#ccc"/>
    <circle id="Ellipse_15" data-name="Ellipse 15" cx="4.283" cy="4.283" r="4.283" transform="translate(278.364 8.217)" fill="#fff"/>
    <circle id="Ellipse_16" data-name="Ellipse 16" cx="4.283" cy="4.283" r="4.283" transform="translate(294.622 8.217)" fill="#fff"/>
    <circle id="Ellipse_17" data-name="Ellipse 17" cx="4.283" cy="4.283" r="4.283" transform="translate(310.881 8.217)" fill="#fff"/>
    <path id="Path_100" data-name="Path 100" d="M713.3,268.912H596.492a6.566,6.566,0,1,1,0-13.132H713.3a6.566,6.566,0,1,1,0,13.132Z" transform="translate(-197.471 -149.958)" fill="#ccc"/>
    <path id="Path_101" data-name="Path 101" d="M858.446,268.912H741.638a6.566,6.566,0,1,1,0-13.132H858.446a6.566,6.566,0,1,1,0,13.132Z" transform="translate(-197.471 -149.958)" fill="#ccc"/>
    <path id="Path_102" data-name="Path 102" d="M858.446,293.794h-203.2a6.566,6.566,0,0,1,0-13.132h203.2a6.566,6.566,0,0,1,0,13.132Z" transform="translate(-197.471 -149.958)" fill="#ccc"/>
    <path id="Path_103" data-name="Path 103" d="M713.3,243.684H596.492a6.566,6.566,0,1,1,0-13.132H713.3a6.566,6.566,0,1,1,0,13.132Z" transform="translate(-197.471 -149.958)" fill="#ccc"/>
    <path id="Path_104" data-name="Path 104" d="M777.579,244.03H744.4a6.566,6.566,0,1,1,0-13.132h33.176a6.566,6.566,0,0,1,0,13.132Z" transform="translate(-197.471 -149.958)" fill="#ccc"/>
    <path id="Path_105" data-name="Path 105" d="M629.668,293.794H596.492a6.566,6.566,0,1,1,0-13.132h33.176a6.566,6.566,0,0,1,0,13.132Z" transform="translate(-197.471 -149.958)" fill="#ccc"/>
    <path id="Path_106" data-name="Path 106" d="M713.3,501.912H596.492a6.566,6.566,0,1,1,0-13.132H713.3a6.566,6.566,0,1,1,0,13.132Z" transform="translate(-197.471 -149.958)" fill="#ccc"/>
    <path id="Path_107" data-name="Path 107" d="M858.446,501.912H741.638a6.566,6.566,0,0,1,0-13.132H858.446a6.566,6.566,0,1,1,0,13.132Z" transform="translate(-197.471 -149.958)" fill="#ccc"/>
    <path id="Path_108" data-name="Path 108" d="M858.446,526.794h-203.2a6.566,6.566,0,0,1,0-13.132h203.2a6.566,6.566,0,1,1,0,13.132Z" transform="translate(-197.471 -149.958)" fill="#ccc"/>
    <path id="Path_109" data-name="Path 109" d="M713.3,476.684H596.492a6.566,6.566,0,0,1,0-13.132H713.3a6.566,6.566,0,0,1,0,13.132Z" transform="translate(-197.471 -149.958)" fill="#ccc"/>
    <path id="Path_110" data-name="Path 110" d="M777.579,477.03H744.4a6.566,6.566,0,1,1,0-13.132h33.176a6.566,6.566,0,1,1,0,13.132Z" transform="translate(-197.471 -149.958)" fill="#ccc"/>
    <path id="Path_111" data-name="Path 111" d="M629.668,526.794H596.492a6.566,6.566,0,0,1,0-13.132h33.176a6.566,6.566,0,1,1,0,13.132Z" transform="translate(-197.471 -149.958)" fill="#ccc"/>
    <path id="Path_112" data-name="Path 112" d="M682.793,431.419a9.4,9.4,0,0,1-6.624-2.71L632.261,385.35a9.152,9.152,0,0,1,0-13.023l43.731-43.184a9.7,9.7,0,0,1,13.644.043h0a9.689,9.689,0,0,1,0,13.687l-32.5,32.5a5.413,5.413,0,0,0,0,7.646l32.32,32.32a9.418,9.418,0,0,1-6.667,16.084Z" transform="translate(-197.471 -149.958)" fill="#0cbeff"/>
    <path id="Path_113" data-name="Path 113" d="M752.759,431.419a9.418,9.418,0,0,1-6.667-16.084l32.32-32.32a5.413,5.413,0,0,0,0-7.647l-32.5-32.5a9.678,9.678,0,0,1,0-13.687h0a9.7,9.7,0,0,1,13.644-.043l43.731,43.184a9.152,9.152,0,0,1,0,13.023l-43.909,43.359a9.4,9.4,0,0,1-6.624,2.71Z" transform="translate(-197.471 -149.958)" fill="#0cbeff"/>
  </g>
</svg>
