<svg xmlns="http://www.w3.org/2000/svg" width="1201.342" height="958.495" viewBox="0 0 1201.342 958.495">
  <g id="Group_47" data-name="Group 47" transform="translate(-454.744 -2226.764)">
    <path id="Path_793" data-name="Path 793" d="M540.826,119.813c-66.044,10.883-131.995,6.217-195.438-.569s-126.73-15.647-192.8-12.976c-42.5,1.715-89.835,9.926-119.512,33.794C4.509,163.019.058,194,0,221.962c-.074,21.034,1.8,42.8,17.082,59.557,10.623,11.623,26.975,19.952,39.291,30.681,42.854,37.268,29.825,95.95,1.7,145.843-13.2,23.408-29.334,46.427-38.32,70.386S9.58,578.059,25.663,597.6c15.9,19.266,46.722,30.221,78.906,35.879,65.276,11.5,138,4.359,208.366-5.315,155.721-21.413,309.842-54.91,463.629-88.325,56.9-12.372,114.052-24.8,168.871-42.628,30.445-9.926,61.445-22.28,81.109-41.51,24.985-24.364,25.614-57.689,1.536-77.6-40.4-33.388-131.847-25.98-163.1-64.15-17.193-21.016-9.707-49.559,3.979-74.771,29.344-54.071,86.06-107.492,78.712-161.4-5.071-37-43.761-67.615-95.619-75.592C797.7-6.178,727.89,9.668,696.594,46.9,664.418,85.261,599.143,110.211,540.826,119.813Z" transform="translate(673.431 2226.764) rotate(20)" fill="#beeefe"/>
    <g id="undraw_booking_re_gw4j" transform="translate(656.729 2401)">
      <path id="Path_1132" data-name="Path 1132" d="M846.441,200.547v76.109h-2v-.811h-669v.811h-2V200.547a33.056,33.056,0,0,1,33-33.047h607a33.056,33.056,0,0,1,33,33.047Z" transform="translate(-173.17 -167.5)" fill="#1db0fc"/>
      <rect id="Rectangle_258" data-name="Rectangle 258" width="673" height="384" transform="translate(0.271 107)" fill="#fff"/>
      <path id="Path_1122" data-name="Path 1122" d="M879.3,480.95a1.692,1.692,0,0,1-1.25,1.13,65.223,65.223,0,0,0-14.08,5.5,68.4,68.4,0,0,0-17.53,13.25c-.27.27-.53.54-.78.82-.42.44-.82.89-1.22,1.35v-4.36c.64-.68,1.31-1.35,2-1.99a71.914,71.914,0,0,1,13.27-10.04Q869.371,483.31,879.3,480.95Z" transform="translate(-173.441 -166.5)" fill="#fff"/>
      <g id="Group_46" data-name="Group 46" transform="translate(2)">
        <path id="Path_1119" data-name="Path 1119" d="M993.211,545.61c-6.16,6.73-13.8,11.74-22.09,15.63h-.01c-.78.37-1.56.73-2.35,1.07h-.01l-.01.01-.01-.01h-.01a.01.01,0,0,1,0,.007.01.01,0,0,1-.007,0h-.01l-.01-.01c-.01.01-.01.01-.02,0l-.01.01-.01-.01h-.01c-.01.01-.01.01-.02,0h-.01a139.77,139.77,0,0,1-17.06,6.1,236.651,236.651,0,0,1-105.11,5.49l-2-.36V492.43c.66-.28,1.33-.56,2-.83q6.555-2.715,13.27-4.99,9.66-3.3,19.59-5.66a212.166,212.166,0,0,1,66.04-5.34q6.045.45,12.06,1.3c8.39,1.17,17.19,3.21,24.93,6.75h.01c1.13.53,2.24,1.08,3.34,1.67,6.88,3.73,12.68,8.86,16.22,15.89a30.571,30.571,0,0,1,2.72,7.99v.02c.2.96.34,1.93.45,2.89C1006.331,523.96,1001.421,536.63,993.211,545.61Z" transform="translate(-173.441 -167.5)" fill="#a9d59f"/>
        <path id="Path_1120" data-name="Path 1120" d="M1005.071,512.12a1.361,1.361,0,0,1-.3.04q-25.695,1.125-51.32,3.34h-.03c-.07.01-.13.01-.2.02q-26.31,2.28-52.51,5.71c-.74.1-1.47.2-2.2.29q-18.119,2.415-36.17,5.36-7.965,1.3-15.9,2.72c-.67.12-1.33.23-2,.36v-3.03c.67-.13,1.34-.24,2-.36q26.43-4.68,53.04-8.17,6.69-.9,13.4-1.7,19.38-2.34,38.82-4.04l2.84-.24q24.885-2.115,49.84-3.21a.94.94,0,0,1,.24.02C1006.222,509.37,1006.561,511.77,1005.071,512.12Z" transform="translate(-173.441 -167.5)" fill="#fff"/>
        <path id="Path_1121" data-name="Path 1121" d="M969.5,559.363c-21.34.157-42.364-8.892-57.458-23.869a77.824,77.824,0,0,1-11.184-14.07c-1.017-1.632-3.4.168-2.389,1.785,11.723,18.8,31.25,32.193,52.778,37.117a80.812,80.812,0,0,0,18.636,1.994c1.914-.014,1.517-2.972-.383-2.958Z" transform="translate(-173.441 -167.5)" fill="#fff"/>
        <path id="Path_1123" data-name="Path 1123" d="M984.1,482.872a69.4,69.4,0,0,0-32.422,28.586,1.5,1.5,0,0,0,.793,1.954,1.527,1.527,0,0,0,1.954-.793,66.049,66.049,0,0,1,30.8-26.984c1.765-.754.648-3.519-1.121-2.763Z" transform="translate(-173.441 -167.5)" fill="#fff"/>
        <path id="Path_1124" data-name="Path 1124" d="M1025.021,397.94c-2.32,8.82-6.77,16.81-12.3,24.1l-.01.01c-.51.68-1.04,1.37-1.59,2.03v.01a139.263,139.263,0,0,1-12.41,13.39,233.429,233.429,0,0,1-53.37,38.13c-30.67,16.02-64.95,25.49-98.9,26.03-.26.01-.52.01-.78.01-.41.01-.82.01-1.22.01V456.21c.65-1.24,1.32-2.48,2-3.71a219.526,219.526,0,0,1,32.03-43.82c.3-.33.61-.66.92-.98q7.02-7.41,14.72-14.11a210.819,210.819,0,0,1,67.29-39.85c7.97-2.86,16.71-5.15,25.21-5.6,1.25-.07,2.49-.1,3.74-.09,7.83.11,15.34,1.96,21.75,6.54a31,31,0,0,1,6.12,5.81c.62.77,1.19,1.56,1.74,2.37v.01C1026.581,372.68,1028.121,386.17,1025.021,397.94Z" transform="translate(-173.441 -167.5)" fill="#a9d59f"/>
        <path id="Path_1125" data-name="Path 1125" d="M1019.961,362.77v.01a1.459,1.459,0,0,1-.24.17q-22.2,12.915-43.84,26.77c-.02.01-.03.02-.05.03a1.728,1.728,0,0,1-.18.11q-22.245,14.25-43.86,29.46c-.6.42-1.21.85-1.82,1.28q-14.925,10.545-29.54,21.54-27.6,20.79-53.99,43.12c-.67.56-1.33,1.13-2,1.7v-3.89c.66-.57,1.33-1.14,2-1.7q10.11-8.535,20.4-16.83c2.05-1.65,4.11-3.3,6.17-4.93q27.45-21.855,56.13-42.08h.01q5.64-3.975,11.3-7.88,16.08-11.07,32.521-21.61c.79-.51,1.59-1.02,2.39-1.53q21.045-13.44,42.64-26a1.486,1.486,0,0,1,.22-.11C1019.722,359.8,1021.131,361.78,1019.961,362.77Z" transform="translate(-173.441 -167.5)" fill="#fff"/>
        <path id="Path_1126" data-name="Path 1126" d="M1010.409,421.133c-18.825,10.052-41.646,11.8-61.97,5.553A77.828,77.828,0,0,1,932,419.421c-1.659-.972-2.931,1.727-1.286,2.691,19.114,11.2,42.628,13.993,63.98,8.353a80.813,80.813,0,0,0,17.43-6.891c1.688-.9-.037-3.336-1.713-2.441Z" transform="translate(-173.441 -167.5)" fill="#fff"/>
        <path id="Path_1127" data-name="Path 1127" d="M869.563,457.722a68.551,68.551,0,0,1-.952-15.869A72.32,72.32,0,0,1,879.391,407.7q7.028-7.407,14.723-14.112a1.7,1.7,0,0,1-.586,1.585,65.451,65.451,0,0,0-9.912,11.408,69.122,69.122,0,0,0-11.082,50.892,1.212,1.212,0,0,1-.314,1.143,1.624,1.624,0,0,1-2.658-.9Z" transform="translate(-173.441 -167.5)" fill="#fff"/>
        <path id="Path_1128" data-name="Path 1128" d="M987.809,346.612a69.4,69.4,0,0,0-15.433,40.375,1.5,1.5,0,0,0,1.609,1.362,1.528,1.528,0,0,0,1.362-1.609,66.048,66.048,0,0,1,14.737-38.2c1.213-1.488-1.061-3.417-2.276-1.926Z" transform="translate(-173.441 -167.5)" fill="#fff"/>
        <path id="Path_1129" data-name="Path 1129" d="M884.251,379.47v.01c-.07.86-.15,1.71-.24,2.56v.02a141.278,141.278,0,0,1-3.25,17.96c-.7,2.9-1.46,5.78-2.29,8.66-.1.37-.21.74-.32,1.1v.01a229.527,229.527,0,0,1-8.74,24.65,238.915,238.915,0,0,1-22.97,42.22c-.65.97-1.32,1.94-2,2.9V322.96c.67-.04,1.33-.04,2-.02q.48,0,.96.03a30.322,30.322,0,0,1,8.28,1.61c.94.31,1.85.66,2.75,1.05,10.91,4.78,19.48,15.32,23.2,26.91C884.421,361.22,884.981,370.35,884.251,379.47Z" transform="translate(-173.441 -167.5)" fill="#a9d59f"/>
        <path id="Path_1130" data-name="Path 1130" d="M858.432,325.63a1.076,1.076,0,0,1-.11.28q-6.075,11.805-11.88,23.73c-.67,1.37-1.34,2.75-2,4.12v-6.8q.99-2.04,2-4.08,4.485-9.09,9.12-18.1a1.307,1.307,0,0,1,.12-.2C856.6,323.26,858.881,324.16,858.432,325.63Z" transform="translate(-173.441 -167.5)" fill="#fff"/>
        <path id="Path_1131" data-name="Path 1131" d="M884.571,381.08c-.18.32-.36.64-.56.96a79.817,79.817,0,0,1-10.42,14.24,85.915,85.915,0,0,1-27.15,19.77c-.66.32-1.33.62-2,.9V413.7c.67-.3,1.34-.61,2-.93a80.866,80.866,0,0,0,35.37-32.82,1.645,1.645,0,0,1,2.44-.47,1.153,1.153,0,0,1,.32,1.6Z" transform="translate(-173.441 -167.5)" fill="#fff"/>
      </g>
      <circle id="Ellipse_233" data-name="Ellipse 233" cx="20" cy="20" r="20" transform="translate(116 34.5)" fill="#fff"/>
      <circle id="Ellipse_234" data-name="Ellipse 234" cx="20" cy="20" r="20" transform="translate(517 34.5)" fill="#fff"/>
      <path id="Path_1134" data-name="Path 1134" d="M367.226,445H248.25a19.033,19.033,0,0,1-19.011-19.011V369.758a19.033,19.033,0,0,1,19.011-19.012H367.226a19.033,19.033,0,0,1,19.011,19.011V425.99A19.033,19.033,0,0,1,367.226,445Z" transform="translate(-173.441 -167.5)" fill="#ccc"/>
      <path id="Path_1135" data-name="Path 1135" d="M569.624,445H450.648a19.033,19.033,0,0,1-19.011-19.011V369.758a19.033,19.033,0,0,1,19.011-19.012H569.624a19.033,19.033,0,0,1,19.011,19.011V425.99A19.033,19.033,0,0,1,569.624,445Z" transform="translate(-173.441 -167.5)" fill="#ccc"/>
      <path id="Path_1136" data-name="Path 1136" d="M569.624,590.293H450.648a19.61,19.61,0,0,1-19.588-19.588V514.473a19.61,19.61,0,0,1,19.588-19.588H569.624a19.61,19.61,0,0,1,19.588,19.588v56.233A19.61,19.61,0,0,1,569.624,590.293Z" transform="translate(-173.441 -167.5)" fill="#f2f2f2"/>
      <path id="Path_1137" data-name="Path 1137" d="M366.836,590.293H247.86a19.61,19.61,0,0,1-19.587-19.588V514.473a19.61,19.61,0,0,1,19.588-19.588H366.836a19.61,19.61,0,0,1,19.588,19.588v56.233a19.61,19.61,0,0,1-19.588,19.588Z" transform="translate(-173.441 -167.5)" fill="#f2f2f2"/>
      <path id="Path_1138" data-name="Path 1138" d="M772.023,590.293H653.047a19.61,19.61,0,0,1-19.588-19.588V514.473a19.61,19.61,0,0,1,19.588-19.588H772.023a19.61,19.61,0,0,1,19.588,19.588v56.233A19.61,19.61,0,0,1,772.023,590.293Z" transform="translate(-173.441 -167.5)" fill="#f2f2f2"/>
      <path id="Path_1139" data-name="Path 1139" d="M772.023,445.115H653.047a19.61,19.61,0,0,1-19.588-19.588V369.294a19.61,19.61,0,0,1,19.588-19.588H772.023a19.61,19.61,0,0,1,19.588,19.588v56.233A19.61,19.61,0,0,1,772.023,445.115Z" transform="translate(-173.441 -167.5)" fill="#f2f2f2"/>
      <circle id="Ellipse_235" data-name="Ellipse 235" cx="32.262" cy="32.262" r="32.262" transform="translate(102.035 198.112)" fill="#fff"/>
      <path id="Path_1140" data-name="Path 1140" d="M304.54,410.181a3.346,3.346,0,0,1-2.013-.669l-.036-.027-7.582-5.8a3.368,3.368,0,0,1,4.1-5.348l4.911,3.766,11.605-15.135a3.368,3.368,0,0,1,4.723-.623l-.072.1.074-.1a3.372,3.372,0,0,1,.623,4.723l-13.651,17.8A3.37,3.37,0,0,1,304.54,410.181Z" transform="translate(-173.441 -167.5)" fill="#239617"/>
      <circle id="Ellipse_236" data-name="Ellipse 236" cx="32.262" cy="32.262" r="32.262" transform="translate(305.009 197.649)" fill="#fff"/>
      <path id="Path_678" data-name="Path 678" d="M604.291,739.838c0,.887-.811,1.747-2.329,2.564-7.786,4.19-34.19,7.274-65.567,7.274q-1.852,0-3.678-.015c-35.788-.277-64.217-4.569-64.217-9.823,0-5.434,30.4-9.838,67.9-9.838,10.269,0,20,.331,28.728.921q3.289.224,6.379.5,1.284.11,2.532.233c3.92.378,7.553.815,10.839,1.3q2.394.354,4.534.74a69.983,69.983,0,0,1,9.244,2.214C602.278,737.112,604.291,738.441,604.291,739.838Z" transform="translate(-52.957 -175.105)" fill="#94d6eb"/>
      <path id="Path_1141" data-name="Path 1141" d="M507.515,409.718a3.346,3.346,0,0,1-2.013-.669l-.036-.027-7.582-5.8a3.368,3.368,0,0,1,4.1-5.348l4.911,3.766L518.5,386.5a3.368,3.368,0,0,1,4.723-.623l-.072.1.074-.1a3.372,3.372,0,0,1,.623,4.723l-13.65,17.8a3.37,3.37,0,0,1-2.68,1.314Z" transform="translate(-173.441 -167.5)" fill="#239617"/>
      <path id="Path_1142" data-name="Path 1142" d="M728.754,549.65a10.743,10.743,0,0,0-2.183-16.327L708.56,437.15l-21.9,8.123,24.592,91.981a10.8,10.8,0,0,0,17.506,12.4Z" transform="translate(-173.441 -167.5)" fill="#a0616a"/>
      <path id="Path_1143" data-name="Path 1143" d="M553.969,402.9a11.4,11.4,0,0,1,.022,1.8l42.59,32.78,12.078-4.96,9.867,17.249L598,460.623A8.67,8.67,0,0,1,587.721,459L545.15,415.107a11.376,11.376,0,1,1,8.819-12.206Z" transform="translate(-173.441 -167.5)" fill="#a0616a"/>
      <path id="Path_1144" data-name="Path 1144" d="M480.028,552.849H467.769l-5.833-37.288h18.1Z" fill="#a0616a"/>
      <path id="Path_1145" data-name="Path 1145" d="M656.6,732.233H617.066v-.5a15.386,15.386,0,0,1,15.387-15.386H656.6Z" transform="translate(-173.441 -167.5)" fill="#2f2e41"/>
      <path id="Path_1146" data-name="Path 1146" d="M526.028,552.849H513.769l-5.833-37.288h18.1Z" fill="#a0616a"/>
      <path id="Path_1147" data-name="Path 1147" d="M702.6,732.233H663.066v-.5a15.386,15.386,0,0,1,15.387-15.386H702.6Z" transform="translate(-173.441 -167.5)" fill="#2f2e41"/>
      <path id="Path_1148" data-name="Path 1148" d="M638.664,712.979a4.49,4.49,0,0,1-4.475-4.072L623.506,565.218l.5-.041,73.521-6.043.02.522L703.4,708.507a4.5,4.5,0,0,1-4.5,4.668H684.483a4.475,4.475,0,0,1-4.448-3.815L660.46,589.114a.5.5,0,0,0-.994.072l-.888,118.724a4.5,4.5,0,0,1-4.263,4.462l-15.409.6C638.825,712.977,638.744,712.979,638.664,712.979Z" transform="translate(-173.441 -167.5)" fill="#2f2e41"/>
      <circle id="Ellipse_237" data-name="Ellipse 237" cx="24.561" cy="24.561" r="24.561" transform="translate(453.211 167.003)" fill="#a0616a"/>
      <path id="Path_1149" data-name="Path 1149" d="M655.968,574.382A121.04,121.04,0,0,1,624.2,570.04a4.51,4.51,0,0,1-3.236-4.686c3.306-49.693,4.084-88.257-2.869-114.939-2.963-11.372-1.618-23.349,3.691-32.86,7.99-14.313,22.675-23.024,38.34-22.724h0q1.123.021,2.268.08c23.773,1.224,42.3,22.73,41.294,47.942l-4.782,120.168a4.44,4.44,0,0,1-2.815,4.044A114.245,114.245,0,0,1,655.968,574.382Z" transform="translate(-173.441 -167.5)" fill="#083d4b"/>
      <path id="Path_1150" data-name="Path 1150" d="M622.136,459.641l-18.4-22.544a5.762,5.762,0,0,1,1.514-8.592l24.922-14.85a16,16,0,0,1,20.16,24.853L630.857,459.88a5.762,5.762,0,0,1-8.721-.239Z" transform="translate(-173.441 -167.5)" fill="#083d4b"/>
      <path id="Path_1151" data-name="Path 1151" d="M680.011,456.812a5.755,5.755,0,0,1-3.164-3.606L668.565,425.5a16,16,0,1,1,28.943-13.652l16.016,24.188a5.761,5.761,0,0,1-2.361,8.4l-26.354,12.336a5.755,5.755,0,0,1-4.8.04Z" transform="translate(-173.441 -167.5)" fill="#083d4b"/>
      <path id="Path_1152" data-name="Path 1152" d="M663.35,379.217l-18.206-4.167c-1.878-.43-4.134-1.25-4.395-3.159-.35-2.565,3.341-4.352,3-6.919-.33-2.486-3.693-2.806-6.09-3.54a9.111,9.111,0,0,1-5.672-11.34c-2.594,3.656-8.522,3.969-11.887,1.007s-4.01-8.336-1.99-12.338a14.288,14.288,0,0,1,10.724-7.241,22.616,22.616,0,0,1,13.023,2.428c.267-2.833,3.8-3.982,6.65-4.007a28.431,28.431,0,0,1,26.643,19.446c3.492,11.252,1.156,23.586-8.614,30.17Z" transform="translate(-173.441 -167.5)" fill="#2f2e41"/>
    </g>
  </g>
</svg>
