<svg xmlns="http://www.w3.org/2000/svg" width="1484.253" height="353.713" viewBox="0 0 1484.253 353.713">
  <g id="Group_25" data-name="Group 25" transform="translate(-230.569 -182.706)">
    <g id="Group_20" data-name="Group 20" transform="translate(341.197 -120.294)">
      <g id="Group_17" data-name="Group 17" transform="translate(879.375 462.453)">
        <path id="Path_709" data-name="Path 709" d="M898.4,581.884a5.332,5.332,0,0,1,8.123-.924l16.837-8.689-1.047,9.79-15.828,6.751a5.36,5.36,0,0,1-8.085-6.927Z" transform="translate(-854.469 -497.844)" fill="#ffb8b8"/>
        <path id="Path_710" data-name="Path 710" d="M924.528,554.043a2.389,2.389,0,0,1-.808-1.173l-1.339-4.326a2.394,2.394,0,0,1,.841-2.609l13.646-10.307,14.78-27.418a7.686,7.686,0,1,1,12.142,9.428l-8.408,17.746a24.587,24.587,0,0,1-12.44,12.034l-15.992,6.937a2.389,2.389,0,0,1-1.945-.021A2.36,2.36,0,0,1,924.528,554.043Z" transform="translate(-866.113 -466.352)" fill="#3f3d56"/>
        <circle id="Ellipse_186" data-name="Ellipse 186" cx="13.022" cy="13.022" r="13.022" transform="translate(85.026 4.37)" fill="#ffb8b8"/>
        <path id="Path_711" data-name="Path 711" d="M880.313,663.521h-6.5l-3.092-25.072h9.594Z" transform="translate(-787.547 -475.299)" fill="#ffb8b8"/>
        <path id="Path_712" data-name="Path 712" d="M860.8,682.233h12.536v7.893H852.908A7.893,7.893,0,0,1,860.8,682.233Z" transform="translate(-779.179 -495.868)" fill="#2f2e41"/>
        <path id="Path_713" data-name="Path 713" d="M920.313,663.522h-6.5l-3.092-25.073h9.594Z" transform="translate(-806.339 -475.299)" fill="#ffb8b8"/>
        <path id="Path_714" data-name="Path 714" d="M900.8,682.234h12.536v7.893H892.908A7.893,7.893,0,0,1,900.8,682.234Z" transform="translate(-797.97 -495.869)" fill="#2f2e41"/>
        <path id="Path_715" data-name="Path 715" d="M996.5,696.875h-7.617a2.39,2.39,0,0,1-2.3-1.765L975.61,654.442a.265.265,0,0,0-.521.085L977.3,693.1a2.386,2.386,0,0,1-2.58,2.514l-8.562-.714a2.392,2.392,0,0,1-2.172-2.1l-7.8-80.986,3.018,1.811,28.275-4.8,11.377,85.356a2.386,2.386,0,0,1-2.365,2.7Z" transform="translate(-882.047 -515.014)" fill="#2f2e41"/>
        <path id="Path_716" data-name="Path 716" d="M965.153,568.177a17.464,17.464,0,0,1-8.85-2.491,2.375,2.375,0,0,1-1.133-2.433c.994-6.09,6.195-37.331,10.926-54.362,1.927-6.937,6.188-10.673,12.665-11.1,9.474-.621,17.894,6.79,18.771,16.542,1.547,17.2-4.736,41.648-7.51,51.359a2.384,2.384,0,0,1-3.758,1.223l-5.653-4.4a1.873,1.873,0,0,0-2.394.1C973.454,566.863,968.928,568.177,965.153,568.177Z" transform="translate(-881.552 -462.835)" fill="#3f3d56"/>
        <path id="Path_717" data-name="Path 717" d="M904.906,443.738l4.771,20.148-6.894,16.966,4.773-16.436Z" transform="translate(-802.61 -383.825)" opacity="0.2"/>
        <path id="Path_718" data-name="Path 718" d="M997.528,460a8.769,8.769,0,0,0,3.387-.613c.474-.183.966-.333,1.439-.516a11.675,11.675,0,0,0,7.031-10.544,15.184,15.184,0,0,0-5.665-11.691,21.922,21.922,0,0,0-12.372-4.676c-4.812-.367-10.23.853-12.919,4.86a4.221,4.221,0,0,0-.792,3.649,2.335,2.335,0,0,0,.658,1.011c1.2,1.068,2.4.265,3.622.194a4,4,0,0,1,3.737,2.86,8.618,8.618,0,0,1-.135,4.979,12.438,12.438,0,0,0-.627,3.027,3.044,3.044,0,0,0,1.261,2.68,3.474,3.474,0,0,0,3.484-.367,24.194,24.194,0,0,1,3.1-1.983,2.739,2.739,0,0,1,3.324.672,3.677,3.677,0,0,1,.42,1.213c.593,2.7.456,2.542,1.049,5.244Z" transform="translate(-892.048 -431.898)" fill="#2f2e41"/>
        <path id="Path_719" data-name="Path 719" d="M901.644,664.773l-81.543-28.4a5.6,5.6,0,0,1-3.441-7.118l21.19-60.846a4.1,4.1,0,0,1,5.215-2.521l84.3,29.358a4.171,4.171,0,0,1,2.564,5.305l-21.167,60.779A5.6,5.6,0,0,1,901.644,664.773Z" transform="translate(-816.349 -494.739)" fill="#e6e6e6"/>
        <path id="Path_720" data-name="Path 720" d="M833.324,639.56l71.3,24.832a5.421,5.421,0,0,0,6.9-3.337l17.111-49.132a5.421,5.421,0,0,0-3.337-6.9L854,580.188a5.421,5.421,0,0,0-6.9,3.337l-17.111,49.132a5.421,5.421,0,0,0,3.337,6.9Z" transform="translate(-822.614 -501.421)" fill="#fff"/>
        <path id="Path_721" data-name="Path 721" d="M866.736,621.792l-3.531-1.23a.766.766,0,0,1-.471-.974l1.23-3.531a.766.766,0,0,1,.974-.471l3.531,1.23a.766.766,0,0,1,.471.974l-1.23,3.531a.766.766,0,0,1-.974.471Z" transform="translate(-838.121 -518.174)" fill="#00b0ff"/>
        <path id="Path_722" data-name="Path 722" d="M860.727,639.049l-3.531-1.23a.766.766,0,0,1-.471-.974l1.23-3.531a.766.766,0,0,1,.974-.471l3.531,1.23a.766.766,0,0,1,.471.974l-1.23,3.531A.766.766,0,0,1,860.727,639.049Z" transform="translate(-835.297 -526.281)" fill="#3f3d56"/>
        <path id="Path_723" data-name="Path 723" d="M854.717,656.3l-3.531-1.23a.766.766,0,0,1-.471-.974l1.23-3.531a.766.766,0,0,1,.974-.471l3.531,1.23a.766.766,0,0,1,.471.974l-1.23,3.531A.766.766,0,0,1,854.717,656.3Z" transform="translate(-832.474 -534.388)" fill="#ccc"/>
        <path id="Path_724" data-name="Path 724" d="M899.543,632.613l-17.015-5.925a.765.765,0,1,1,.5-1.445l17.015,5.926a.765.765,0,0,1-.5,1.445Z" transform="translate(-847.199 -522.71)" fill="#ccc"/>
        <path id="Path_725" data-name="Path 725" d="M893.534,649.869l-17.015-5.925a.765.765,0,0,1,.5-1.445l17.015,5.925a.765.765,0,0,1-.5,1.445Z" transform="translate(-844.376 -530.817)" fill="#ccc"/>
        <path id="Path_726" data-name="Path 726" d="M887.524,667.125,870.51,661.2a.765.765,0,1,1,.5-1.445l17.014,5.925a.765.765,0,1,1-.5,1.445Z" transform="translate(-841.552 -538.924)" fill="#ccc"/>
        <path id="Path_727" data-name="Path 727" d="M975.063,664.151c.124-.3.241-.6.348-.908a16.033,16.033,0,0,0-9.868-20.414l-5.592,16.058Z" transform="translate(-883.813 -530.992)" fill="#00b0ff"/>
        <path id="Path_728" data-name="Path 728" d="M942.957,659.936l5.592-16.058a16.033,16.033,0,1,0,9.52,21.321Z" transform="translate(-868.445 -531.064)" fill="#3f3d56"/>
        <path id="Path_729" data-name="Path 729" d="M994.629,611.161a5.332,5.332,0,0,1,5.821-5.74l7.886-17.228,5.218,8.35-8.289,15.08a5.361,5.361,0,0,1-10.636-.461Z" transform="translate(-900.096 -505.325)" fill="#ffb8b8"/>
        <path id="Path_730" data-name="Path 730" d="M1014.241,566.441a2.389,2.389,0,0,1-1.36-.424l-3.723-2.577a2.394,2.394,0,0,1-.948-2.572l4.377-16.532-5.291-30.7a7.686,7.686,0,1,1,15.372-.074L1027,532.718a24.587,24.587,0,0,1-2.363,17.146l-8.3,15.327a2.389,2.389,0,0,1-1.544,1.184A2.363,2.363,0,0,1,1014.241,566.441Z" transform="translate(-906.055 -466.671)" fill="#3f3d56"/>
      </g>
      <g id="Group_19" data-name="Group 19" transform="translate(450.582 303)">
        <path id="Path_695" data-name="Path 695" d="M606.374,309.689H266.6c-4.829,0-8.743-3.4-8.748-7.582V120.52c0-3.066,2.871-5.551,6.409-5.555H608.6c3.6,0,6.516,2.532,6.52,5.651v181.49C615.117,306.292,611.2,309.684,606.374,309.689Z" transform="translate(-257.727 -108.578)" fill="#f2f2f2"/>
        <path id="Path_696" data-name="Path 696" d="M603.769,307.233H287.107c-4.642,0-8.418-2.918-8.418-6.505V150.165c0-2.66,2.8-4.825,6.238-4.825H605.846c3.5,0,6.342,2.2,6.342,4.9V300.727C612.188,304.314,608.411,307.233,603.769,307.233Z" transform="translate(-267.517 -120.68)" fill="#fff"/>
        <path id="Path_697" data-name="Path 697" d="M614.892,114.388H257.619v-4.454a8.787,8.787,0,0,1,8.78-8.775H606.112a8.787,8.787,0,0,1,8.78,8.775Z" transform="translate(-257.619 -101.159)" fill="#ccc"/>
        <circle id="Ellipse_179" data-name="Ellipse 179" cx="2.271" cy="2.271" r="2.271" transform="translate(13.686 4.356)" fill="#fff"/>
        <circle id="Ellipse_180" data-name="Ellipse 180" cx="2.271" cy="2.271" r="2.271" transform="translate(22.306 4.356)" fill="#fff"/>
        <circle id="Ellipse_181" data-name="Ellipse 181" cx="2.271" cy="2.271" r="2.271" transform="translate(30.927 4.356)" fill="#fff"/>
        <path id="Path_698" data-name="Path 698" d="M600.412,338.422h-245.4a9.289,9.289,0,0,1-9.279-9.279V210.826a6.947,6.947,0,0,1,6.939-6.94H602.64a7.058,7.058,0,0,1,7.05,7.05V329.143a9.289,9.289,0,0,1-9.279,9.279ZM352.674,204.947a5.886,5.886,0,0,0-5.879,5.879V329.143a8.227,8.227,0,0,0,8.218,8.218h245.4a8.227,8.227,0,0,0,8.218-8.218V210.937a6,6,0,0,0-5.99-5.99Z" transform="translate(-299.015 -165.326)" fill="#ccc"/>
        <path id="Path_699" data-name="Path 699" d="M371.718,337.456H600.15a8.483,8.483,0,0,0,8.483-8.483V230.064a8.483,8.483,0,0,0-8.483-8.483H371.718a8.483,8.483,0,0,0-8.483,8.483v98.909A8.483,8.483,0,0,0,371.718,337.456Z" transform="translate(-307.236 -173.639)" fill="#f2f2f2"/>
        <circle id="Ellipse_182" data-name="Ellipse 182" cx="4.772" cy="4.772" r="4.772" transform="translate(85.647 67.174)" fill="#ccc"/>
        <circle id="Ellipse_183" data-name="Ellipse 183" cx="4.772" cy="4.772" r="4.772" transform="translate(85.647 85.201)" fill="#ccc"/>
        <circle id="Ellipse_184" data-name="Ellipse 184" cx="4.772" cy="4.772" r="4.772" transform="translate(85.647 103.228)" fill="#ccc"/>
        <circle id="Ellipse_185" data-name="Ellipse 185" cx="4.772" cy="4.772" r="4.772" transform="translate(85.647 121.255)" fill="#ccc"/>
        <path id="Path_700" data-name="Path 700" d="M629.624,266.915H472.684a.53.53,0,1,1,0-1.06H629.624a.53.53,0,1,1,0,1.06Z" transform="translate(-358.406 -194.439)" fill="#ccc"/>
        <path id="Path_701" data-name="Path 701" d="M629.624,300.915H472.684a.53.53,0,1,1,0-1.06H629.624a.53.53,0,1,1,0,1.06Z" transform="translate(-358.406 -210.412)" fill="#ccc"/>
        <path id="Path_702" data-name="Path 702" d="M629.624,334.915H472.684a.53.53,0,1,1,0-1.06H629.624a.53.53,0,1,1,0,1.06Z" transform="translate(-358.406 -226.385)" fill="#ccc"/>
        <path id="Path_703" data-name="Path 703" d="M629.624,368.915H472.684a.53.53,0,1,1,0-1.06H629.624a.53.53,0,1,1,0,1.06Z" transform="translate(-358.406 -242.358)" fill="#ccc"/>
        <path id="Path_704" data-name="Path 704" d="M513.181,386.472H497.8a2.654,2.654,0,0,1-2.651-2.651V369.506a2.654,2.654,0,0,1,2.651-2.651h15.376a2.654,2.654,0,0,1,2.651,2.651v14.316a2.654,2.654,0,0,1-2.651,2.651Z" transform="translate(-369.211 -241.888)" fill="#00b0ff"/>
        <path id="Path_705" data-name="Path 705" d="M578.181,370.5H562.8a2.654,2.654,0,0,1-2.651-2.651V335.506a2.654,2.654,0,0,1,2.651-2.651h15.376a2.654,2.654,0,0,1,2.651,2.651v32.343A2.654,2.654,0,0,1,578.181,370.5Z" transform="translate(-399.748 -225.915)" fill="#00b0ff"/>
        <path id="Path_706" data-name="Path 706" d="M644.181,354.526H628.8a2.654,2.654,0,0,1-2.651-2.651V301.506a2.654,2.654,0,0,1,2.651-2.651h15.376a2.654,2.654,0,0,1,2.651,2.651v50.369A2.654,2.654,0,0,1,644.181,354.526Z" transform="translate(-430.754 -209.942)" fill="#00b0ff"/>
        <path id="Path_707" data-name="Path 707" d="M712.181,339.023H696.8a2.654,2.654,0,0,1-2.651-2.651V268.506a2.654,2.654,0,0,1,2.651-2.651h15.376a2.654,2.654,0,0,1,2.651,2.651v67.866A2.654,2.654,0,0,1,712.181,339.023Z" transform="translate(-462.701 -194.439)" fill="#00b0ff"/>
        <path id="Path_708" data-name="Path 708" d="M629.624,402.915H472.684a.53.53,0,1,1,0-1.06H629.624a.53.53,0,1,1,0,1.06Z" transform="translate(-358.406 -258.331)" fill="#3f3d56"/>
        <path id="Path_732" data-name="Path 732" d="M490.54,663.023h6.5l3.092-25.072h-9.594Z" transform="translate(-312.697 -315.612)" fill="#a0616a"/>
        <path id="Path_733" data-name="Path 733" d="M589.914,782.4h12.8a8.158,8.158,0,0,1,8.158,8.158v.265H589.914Z" transform="translate(-413.729 -437.107)" fill="#2f2e41"/>
        <path id="Path_734" data-name="Path 734" d="M441.54,663.023h6.5l3.092-25.072h-9.594Z" transform="translate(-289.677 -315.612)" fill="#a0616a"/>
        <path id="Path_735" data-name="Path 735" d="M540.914,782.4h12.8a8.158,8.158,0,0,1,8.158,8.158v.265H540.914Z" transform="translate(-390.709 -437.107)" fill="#2f2e41"/>
        <circle id="Ellipse_187" data-name="Ellipse 187" cx="13.022" cy="13.022" r="13.022" transform="translate(166.118 147.787)" fill="#a0616a"/>
        <path id="Path_736" data-name="Path 736" d="M577.2,679.032H565.133a2.386,2.386,0,0,1-2.386-2.415l.7-57.279a.8.8,0,0,0-1.585-.106l-7.02,57.7a2.388,2.388,0,0,1-2.368,2.1H540.3a2.386,2.386,0,0,1-2.379-2.572l8.042-102.9.219-.024,38.508-4.159-5.107,107.382A2.383,2.383,0,0,1,577.2,679.032Z" transform="translate(-389.298 -337.032)" fill="#2f2e41"/>
        <path id="Path_737" data-name="Path 737" d="M551.769,532.258a2.384,2.384,0,0,1-2.377-2.311c-.21-6.506-.57-29.019,3.617-45.547a21.7,21.7,0,0,1,20.038-16.351h0a21.834,21.834,0,0,1,21.5,13.8c7.039,17.87,13.689,39.9,5.4,43.35-10.867,4.527-39.513,6.546-48.034,7.056Q551.842,532.258,551.769,532.258Z" transform="translate(-394.639 -289.413)" fill="#3f3d56"/>
        <path id="Path_738" data-name="Path 738" d="M642.183,401.285a5.582,5.582,0,0,0,.661.58l-1.367,26.259-5.686,2.911,3.272,9.155,10.567-4.175a4.242,4.242,0,0,0,2.665-4.337l-2.768-29.787a5.566,5.566,0,1,0-7.343-.606Z" transform="translate(-435.282 -253.637)" fill="#a0616a"/>
        <path id="Path_739" data-name="Path 739" d="M630.414,460.683l4,11.367a2.386,2.386,0,0,1-1.8,3.134l-11.795,2.284a6.626,6.626,0,1,1-4.362-12.514l10.59-5.59a2.386,2.386,0,0,1,3.364,1.318Z" transform="translate(-424.111 -285.219)" fill="#3f3d56"/>
        <path id="Path_740" data-name="Path 740" d="M532.485,401.285a5.582,5.582,0,0,1-.661.58l1.367,26.259,5.686,2.911-3.272,9.155-10.567-4.175a4.242,4.242,0,0,1-2.665-4.337l2.768-29.787a5.566,5.566,0,1,1,7.343-.606Z" transform="translate(-381.991 -253.637)" fill="#a0616a"/>
        <path id="Path_741" data-name="Path 741" d="M540.305,459.253a2.383,2.383,0,0,1,1.984.111l10.59,5.59a6.626,6.626,0,1,1-4.362,12.514l-11.795-2.284a2.386,2.386,0,0,1-1.8-3.134l4-11.367a2.383,2.383,0,0,1,1.38-1.429Z" transform="translate(-387.832 -285.219)" fill="#3f3d56"/>
        <path id="Path_742" data-name="Path 742" d="M585.108,416.009a8.559,8.559,0,0,1,4.793-8.042c3.958-2.043,6.445-6.4,5.356-10.383-1.395-5.095-8.329-8.4-13.947-6.646a25.747,25.747,0,0,0-4.38,2.036l-3.671,1.968a38.028,38.028,0,0,0-4.525,2.671,15.013,15.013,0,0,0-5.976,14.066c.723,5.179,4.115,9.929,8.758,13.181a14.812,14.812,0,0,0,6,2.667,7.974,7.974,0,0,0,6.33-1.434c2.543-2.163,2.28-5.785,1.458-8.81A6.406,6.406,0,0,1,585.108,416.009Z" transform="translate(-400.91 -252.98)" fill="#2f2e41"/>
      </g>
      <g id="Group_18" data-name="Group 18" transform="translate(262.066 460.302)">
        <path id="Path_744" data-name="Path 744" d="M275.2,552.407l-83.124,34.1a5.824,5.824,0,0,1-7.59-3.174l-25.446-62.025a4.267,4.267,0,0,1,2.325-5.561L247.3,480.494a4.34,4.34,0,0,1,5.657,2.366l25.418,61.957a5.824,5.824,0,0,1-3.174,7.59Z" transform="translate(-136.637 -452.425)" fill="#e6e6e6"/>
        <path id="Path_745" data-name="Path 745" d="M202.209,586.117,274.895,556.3a5.641,5.641,0,0,0,3.078-7.36l-20.547-50.085a5.641,5.641,0,0,0-7.36-3.078l-72.686,29.819a5.641,5.641,0,0,0-3.078,7.36l20.547,50.085a5.641,5.641,0,0,0,7.36,3.078Z" transform="translate(-143.756 -459.557)" fill="#fff"/>
        <rect id="Rectangle_214" data-name="Rectangle 214" width="1.155" height="0.193" transform="translate(112.199 53.393) rotate(-22.306)" fill="#e6e6e6"/>
        <path id="Path_746" data-name="Path 746" d="M265.383,530.393l-2.159.886-.073-.178,2.159-.886Zm-4.318,1.771-2.159.886-.073-.178,2.159-.886Zm-4.318,1.771-2.159.886-.073-.178,2.159-.886Zm-4.318,1.771-2.159.886-.073-.178,2.159-.886Zm-4.318,1.771-2.159.886-.073-.178,2.159-.886Zm-4.318,1.771-2.159.886-.073-.178,2.159-.886Zm-4.318,1.771-2.159.886-.073-.178,2.159-.886Zm-4.318,1.771-2.159.886-.073-.178,2.159-.886Zm-4.318,1.771-2.159.886-.073-.178,2.159-.886Zm-4.318,1.771-2.159.886-.073-.178,2.159-.886Zm-4.318,1.771-2.159.886-.073-.178,2.159-.886Zm-4.318,1.771-2.159.886-.073-.178,2.159-.886Zm-4.318,1.771-2.159.886-.073-.178,2.159-.886Zm-4.318,1.771-2.159.886-.073-.178,2.159-.886Zm-4.318,1.771-2.159.886-.073-.178,2.159-.886Zm-4.318,1.771-2.159.886-.073-.178,2.159-.886Z" transform="translate(-155.269 -475.935)" fill="#e6e6e6"/>
        <rect id="Rectangle_215" data-name="Rectangle 215" width="1.155" height="0.193" transform="translate(39.888 83.059) rotate(-22.306)" fill="#e6e6e6"/>
        <rect id="Rectangle_216" data-name="Rectangle 216" width="1.155" height="0.193" transform="translate(83.908 84.351) rotate(-22.306)" fill="#e6e6e6"/>
        <path id="Path_747" data-name="Path 747" d="M243.116,588.757l-2.127.873-.073-.178,2.127-.873Zm-4.254,1.745-2.127.872-.073-.178,2.127-.872Zm-4.254,1.745-2.127.873-.073-.178,2.127-.873Zm-4.254,1.745-2.127.872-.073-.178,2.127-.872Zm-4.254,1.745-2.127.873-.073-.178,2.127-.873Zm-4.254,1.745-2.127.872-.073-.178,2.127-.872Zm-4.254,1.745-2.127.873-.073-.178,2.127-.872Zm-4.254,1.745-2.127.872-.073-.178,2.127-.872Z" transform="translate(-161.262 -503.355)" fill="#e6e6e6"/>
        <rect id="Rectangle_217" data-name="Rectangle 217" width="1.155" height="0.193" transform="translate(46.683 99.622) rotate(-22.306)" fill="#e6e6e6"/>
        <rect id="Rectangle_218" data-name="Rectangle 218" width="1.155" height="0.193" transform="translate(66.284 100.737) rotate(-22.306)" fill="#e6e6e6"/>
        <path id="Path_748" data-name="Path 748" d="M228.334,619.709l-2.188.9-.073-.178,2.188-.9Zm-4.376,1.8-2.188.9-.073-.178,2.188-.9Zm-4.376,1.8-2.188.9-.073-.178,2.188-.9Z" transform="translate(-164.165 -517.896)" fill="#e6e6e6"/>
        <rect id="Rectangle_219" data-name="Rectangle 219" width="1.155" height="0.193" transform="translate(49.898 107.459) rotate(-22.306)" fill="#e6e6e6"/>
        <rect id="Rectangle_220" data-name="Rectangle 220" width="1.155" height="0.193" transform="translate(71.771 114.11) rotate(-22.306)" fill="#e6e6e6"/>
        <path id="Path_749" data-name="Path 749" d="M238.682,644.932l-2.188.9-.073-.178,2.188-.9Zm-4.376,1.8-2.188.9-.073-.178,2.188-.9Zm-4.376,1.8-2.188.9-.073-.178,2.188-.9Z" transform="translate(-169.026 -529.746)" fill="#e6e6e6"/>
        <rect id="Rectangle_221" data-name="Rectangle 221" width="1.155" height="0.193" transform="translate(55.385 120.833) rotate(-22.306)" fill="#e6e6e6"/>
        <path id="Path_750" data-name="Path 750" d="M233.132,595.372l61.6-25.27a6.087,6.087,0,0,0,3.318-7.933L285.6,531.833l-.12.053-15.116,36.142-11.211-4.687a1.454,1.454,0,0,0-1.291.081,1.549,1.549,0,0,0-.643.76l-7.922,18.94-8.2-3.426a1.459,1.459,0,0,0-1.91.784C239.139,580.608,234.085,593.008,233.132,595.372Z" transform="translate(-171.594 -476.695)" fill="#00b0ff"/>
        <path id="Path_751" data-name="Path 751" d="M232.617,595.348l-.178-.074,6.338-15.157a1.638,1.638,0,0,1,2.141-.878l8.035,3.36,7.877-18.835a1.638,1.638,0,0,1,2.141-.878l11.049,4.621,15.193-36.331.178.074-15.268,36.509L258.9,563.063a1.444,1.444,0,0,0-1.889.775l-7.951,19.013-8.213-3.434a1.446,1.446,0,0,0-1.889.775Z" transform="translate(-171.268 -476.386)" fill="#3f3d56"/>
        <circle id="Ellipse_188" data-name="Ellipse 188" cx="1.348" cy="1.348" r="1.348" transform="translate(66.042 99.041)" fill="#3f3d56"/>
        <circle id="Ellipse_189" data-name="Ellipse 189" cx="1.348" cy="1.348" r="1.348" transform="translate(83.665 82.655)" fill="#3f3d56"/>
        <circle id="Ellipse_190" data-name="Ellipse 190" cx="1.348" cy="1.348" r="1.348" transform="translate(111.107 51.649)" fill="#3f3d56"/>
        <path id="Path_752" data-name="Path 752" d="M179.981,572.55a5.352,5.352,0,0,0,1.914-7.981l4-39.131h-8.649l-3.181,38.21a5.381,5.381,0,0,0,5.914,8.9Z" transform="translate(-142.954 -473.691)" fill="#ffb8b8"/>
        <circle id="Ellipse_191" data-name="Ellipse 191" cx="12.237" cy="12.237" r="12.237" transform="translate(32.731 5.677)" fill="#ffb8b8"/>
        <path id="Path_753" data-name="Path 753" d="M196.274,532.212a2.238,2.238,0,0,1-2.157-1.644c-.98-3.562-3.531-9.585-7.581-17.9a14.828,14.828,0,0,1,8.421-20.473h0A14.822,14.822,0,0,1,214,501.636c3.139,9.842,2.988,20.385,2.777,24.46a2.248,2.248,0,0,1-1.761,2.075l-18.264,3.988A2.235,2.235,0,0,1,196.274,532.212Z" transform="translate(-149.002 -457.676)" fill="#ff6584"/>
        <path id="Path_754" data-name="Path 754" d="M137.081,665.549h6.108l2.906-23.561H137.08Z" transform="translate(-72.123 -474.811)" fill="#ffb8b8"/>
        <path id="Path_755" data-name="Path 755" d="M0,0H19.2V7.417H7.417A7.417,7.417,0,0,1,0,0Z" transform="translate(82.845 196.41) rotate(179.997)" fill="#2f2e41"/>
        <path id="Path_756" data-name="Path 756" d="M21.882,653.2l5.353,2.943,13.9-19.245-7.9-4.343Z" transform="translate(-18.003 -470.379)" fill="#ffb8b8"/>
        <path id="Path_757" data-name="Path 757" d="M0,0H19.2V7.417H7.417A7.417,7.417,0,0,1,0,0Z" transform="translate(16.823 196.41) rotate(-151.199)" fill="#2f2e41"/>
        <path id="Path_758" data-name="Path 758" d="M190.161,664.673a2.242,2.242,0,0,1-2.221-1.953L180.3,603.854a1.246,1.246,0,0,0-2.326-.441l-31.837,57.761a2.254,2.254,0,0,1-2.762,1.013l-6.939-2.644a2.242,2.242,0,0,1-1.278-2.94l22.054-54.177a1.726,1.726,0,0,0,.113-.429c2.987-23.12,10.587-34.877,12.845-37.93a1.736,1.736,0,0,0,.247-1.581l-.31-.931a2.241,2.241,0,0,1,.431-2.181c8.137-9.268,22.319-4.211,22.461-4.159l.071.026.045.061c15.9,21.809,10.023,92.644,8.683,106.622a2.236,2.236,0,0,1-2.06,2.018l-9.4.724C190.277,664.671,190.219,664.673,190.161,664.673Z" transform="translate(-125.489 -487.012)" fill="#2f2e41"/>
        <path id="Path_759" data-name="Path 759" d="M263.013,484.861a5.247,5.247,0,0,0-.119.817l-21.4,12.347-5.2-2.995-5.546,7.26,8.694,6.2a3.986,3.986,0,0,0,4.782-.117l22.07-17.411a5.23,5.23,0,1,0-3.276-6.1Z" transform="translate(-170.471 -452.732)" fill="#ffb8b8"/>
        <path id="Path_760" data-name="Path 760" d="M231.459,505.4l-6.917,8.965a2.242,2.242,0,0,1-3.39.186l-7.831-8.132a6.227,6.227,0,0,1,7.636-9.837l9.822,5.492a2.242,2.242,0,0,1,.68,3.326Z" transform="translate(-161.154 -459.518)" fill="#ff6584"/>
        <path id="Path_761" data-name="Path 761" d="M187.59,525.374l-11.143-2.012a2.242,2.242,0,0,1-1.726-2.924l3.613-10.7a6.227,6.227,0,0,1,12.249,2.249l-.352,11.247a2.242,2.242,0,0,1-2.639,2.135Z" transform="translate(-144.097 -463.92)" fill="#ff6584"/>
        <path id="Path_762" data-name="Path 762" d="M166.511,442.94c3.145,2.153,7.275,4.365,10.487,2.073a5.846,5.846,0,0,0,1.919-6.739c-1.538-4.4-5.764-6.335-9.806-7.82-5.254-1.93-10.974-3.465-16.4-2.083S142.5,435,143.476,440.515c.787,4.431,4.967,8.119,4.374,12.58-.6,4.49-5.647,6.854-10.1,7.656s-9.447,1.06-12.651,4.262c-4.087,4.085-3.066,11.386.779,15.7s9.649,6.268,15.273,7.6c7.451,1.761,15.51,2.686,22.586-.236s12.583-10.789,10.533-18.166c-.866-3.116-2.906-5.749-4.877-8.313s-3.967-5.244-4.719-8.39a8.722,8.722,0,0,1,1.575-7.63,2.211,2.211,0,0,0,.3-2.584Z" transform="translate(-119.606 -427.841)" fill="#2f2e41"/>
      </g>
    </g>
    <g id="Group_21" data-name="Group 21" transform="translate(-96 -975.281)">
      <g id="Group_22" data-name="Group 22" transform="translate(-40.583 0.883)">
        <path id="Path_767" data-name="Path 767" d="M440.656,428.927c0-28.057,22.76-94.636,50.837-94.636s50.837,66.579,50.837,94.636a50.837,50.837,0,0,1-101.673,0Z" transform="translate(17.056 958.293)" fill="#94d6eb"/>
        <path id="Path_768" data-name="Path 768" d="M527.8,582.949a.418.418,0,0,1-.418-.418V407.381a.418.418,0,1,1,.836,0v175.15A.418.418,0,0,1,527.8,582.949Z" transform="translate(-19.255 927.868)" fill="#008dcc"/>
        <path id="Path_769" data-name="Path 769" d="M513.312,450.766a.417.417,0,0,1-.3-.122L492.9,430.536a.418.418,0,0,1,.591-.591l20.121,20.107a.418.418,0,0,1-.3.713Z" transform="translate(-4.764 918.298)" fill="#008dcc"/>
        <path id="Path_770" data-name="Path 770" d="M527.8,500.875a.418.418,0,0,1-.3-.713l33.7-33.674a.418.418,0,0,1,.591.591l-33.7,33.674A.417.417,0,0,1,527.8,500.875Z" transform="translate(-19.255 902.998)" fill="#008dcc"/>
      </g>
      <g id="Group_23" data-name="Group 23" transform="translate(3.569 0)">
        <path id="Path_763" data-name="Path 763" d="M208.927,320.49c0-39.046,31.653-131.7,70.7-131.7s70.7,92.653,70.7,131.7a70.7,70.7,0,0,1-141.4,0Z" transform="translate(114.073 1019.209)" fill="#00b0ff"/>
        <path id="Path_764" data-name="Path 764" d="M330.122,534.832a.581.581,0,0,1-.581-.581V290.506a.581.581,0,0,1,1.163,0V534.251A.581.581,0,0,1,330.122,534.832Z" transform="translate(63.576 976.868)" fill="#008dcc"/>
        <path id="Path_765" data-name="Path 765" d="M309.97,350.881a.58.58,0,0,1-.411-.17l-27.982-27.982a.581.581,0,0,1,.822-.822l27.982,27.982a.581.581,0,0,1-.411.992Z" transform="translate(83.728 963.549)" fill="#008dcc"/>
        <path id="Path_766" data-name="Path 766" d="M330.122,420.615a.581.581,0,0,1-.411-.992l46.861-46.862a.581.581,0,0,1,.822.822l-46.861,46.862a.579.579,0,0,1-.411.17Z" transform="translate(63.576 942.259)" fill="#008dcc"/>
      </g>
    </g>
    <g id="Group_24" data-name="Group 24" transform="translate(1522.589 232.719)">
      <g id="Group_22-2" data-name="Group 22" transform="translate(0 85.467)">
        <path id="Path_767-2" data-name="Path 767" d="M542.329,428.927c0-28.057-22.76-94.636-50.837-94.636s-50.837,66.579-50.837,94.636a50.837,50.837,0,0,0,101.674,0Z" transform="translate(-440.656 -334.291)" fill="#94d6eb"/>
        <path id="Path_768-2" data-name="Path 768" d="M527.8,582.949a.418.418,0,0,0,.418-.418V407.381a.418.418,0,1,0-.836,0v175.15A.418.418,0,0,0,527.8,582.949Z" transform="translate(-476.966 -364.716)" fill="#008dcc"/>
        <path id="Path_769-2" data-name="Path 769" d="M493.191,450.766a.417.417,0,0,0,.3-.122l20.121-20.107a.418.418,0,0,0-.591-.591L492.9,450.052a.418.418,0,0,0,.3.713Z" transform="translate(-442.355 -374.287)" fill="#008dcc"/>
        <path id="Path_770-2" data-name="Path 770" d="M561.5,500.875a.418.418,0,0,0,.3-.713l-33.7-33.674a.418.418,0,0,0-.591.591l33.7,33.674A.417.417,0,0,0,561.5,500.875Z" transform="translate(-510.663 -389.586)" fill="#008dcc"/>
      </g>
      <g id="Group_23-2" data-name="Group 23" transform="translate(50.837 0)">
        <path id="Path_763-2" data-name="Path 763" d="M350.324,320.49c0-39.046-31.653-131.7-70.7-131.7s-70.7,92.653-70.7,131.7a70.7,70.7,0,0,0,141.4,0Z" transform="translate(-208.927 -188.791)" fill="#00b0ff"/>
        <path id="Path_764-2" data-name="Path 764" d="M330.122,534.832a.581.581,0,0,0,.581-.581V290.506a.581.581,0,0,0-1.163,0V534.251A.581.581,0,0,0,330.122,534.832Z" transform="translate(-259.424 -231.132)" fill="#008dcc"/>
        <path id="Path_765-2" data-name="Path 765" d="M281.988,350.881a.58.58,0,0,0,.411-.17l27.982-27.982a.581.581,0,0,0-.822-.822l-27.982,27.982a.581.581,0,0,0,.411.992Z" transform="translate(-211.29 -244.451)" fill="#008dcc"/>
        <path id="Path_766-2" data-name="Path 766" d="M376.984,420.615a.581.581,0,0,0,.411-.992l-46.861-46.862a.581.581,0,0,0-.822.822l46.861,46.862a.579.579,0,0,0,.411.17Z" transform="translate(-306.286 -265.741)" fill="#008dcc"/>
      </g>
    </g>
  </g>
</svg>
