<svg xmlns="http://www.w3.org/2000/svg" width="751.729" height="567.214" viewBox="0 0 751.729 567.214">
  <g id="undraw_online_connection_6778" transform="translate(0 -0.355)">
    <rect id="Rectangle_279" data-name="Rectangle 279" width="90" height="55" rx="10" transform="translate(316.583 289.355)" fill="#fff"/>
    <rect id="Rectangle_278" data-name="Rectangle 278" width="89" height="93" rx="10" transform="translate(397.583 0.355)" fill="#fff"/>
    <rect id="Rectangle_277" data-name="Rectangle 277" width="89" height="93" rx="10" transform="translate(180.583 192.355)" fill="#fff"/>
    <rect id="Rectangle_276" data-name="Rectangle 276" width="193" height="53" rx="10" transform="translate(157.583 68.355)" fill="#fff"/>
    <rect id="Rectangle_275" data-name="Rectangle 275" width="170" height="91" rx="10" transform="translate(416.583 161.355)" fill="#fff"/>
    <circle id="Ellipse_298" data-name="Ellipse 298" cx="13.989" cy="13.989" r="13.989" transform="translate(176.046 78.893)" fill="#0cbeff"/>
    <path id="Path_1344" data-name="Path 1344" d="M402.089,192.745a2.331,2.331,0,0,0,0,4.663H512a2.331,2.331,0,0,0,0-4.663Z" transform="translate(-179.747 -109.19)" fill="#e6e6e6"/>
    <path id="Path_1345" data-name="Path 1345" d="M402.089,210.718a2.331,2.331,0,0,0,0,4.663h47.3a2.331,2.331,0,1,0,0-4.663Z" transform="translate(-179.747 -113.174)" fill="#e6e6e6"/>
    <path id="Path_1347" data-name="Path 1347" d="M375.051,355.263a2.331,2.331,0,0,0,0,4.663h47.3a2.331,2.331,0,0,0,0-4.663Z" transform="translate(-173.753 -145.215)" fill="#e6e6e6"/>
    <path id="Path_1348" data-name="Path 1348" d="M375.051,372.911a2.331,2.331,0,0,0,0,4.663h47.3a2.331,2.331,0,0,0,0-4.663Z" transform="translate(-173.753 -149.127)" fill="#e6e6e6"/>
    <path id="Path_1349" data-name="Path 1349" d="M401.918,420.526a14.675,14.675,0,1,1,14.675-14.676A14.676,14.676,0,0,1,401.918,420.526Z" transform="translate(-176.973 -153.176)" fill="#0cbeff"/>
    <path id="Path_1351" data-name="Path 1351" d="M701.708,180.43a2.331,2.331,0,1,0,0-4.663h-47.3a2.331,2.331,0,1,0,0,4.663Z" transform="translate(-235.68 -105.426)" fill="#e6e6e6"/>
    <path id="Path_1352" data-name="Path 1352" d="M701.708,162.781a2.331,2.331,0,1,0,0-4.663h-47.3a2.331,2.331,0,1,0,0,4.663Z" transform="translate(-235.68 -101.514)" fill="#e6e6e6"/>
    <path id="Path_1353" data-name="Path 1353" d="M681.279,108.135A14.675,14.675,0,1,1,666.6,122.811,14.675,14.675,0,0,1,681.279,108.135Z" transform="translate(-238.899 -90.434)" fill="#0cbeff"/>
    <path id="Path_1354" data-name="Path 1354" d="M320.688,306.014a117.491,117.491,0,0,1,49.739-22.485,115.792,115.792,0,0,1,54.894,2.821,117.1,117.1,0,0,1,25.617,11.1,149.071,149.071,0,0,1,22.789,16.98c7.238,6.343,14.238,12.969,21.794,18.941A122.1,122.1,0,0,0,571.489,360.1q3.422.005,6.84-.188c1.235-.068,1.243-2,0-1.93a120.13,120.13,0,0,1-78.53-23.73c-7.831-5.856-14.982-12.552-22.282-19.04-7.077-6.291-14.344-12.41-22.374-17.464a118.2,118.2,0,0,0-130.5,2.974c-1.812,1.26-3.582,2.577-5.323,3.932-.979.762.4,2.119,1.365,1.365Z" transform="translate(-161.842 -128.432)" fill="#0cbeff"/>
    <circle id="Ellipse_299" data-name="Ellipse 299" cx="10.029" cy="10.029" r="10.029" transform="translate(147.791 166.851)" fill="#0cbeff"/>
    <circle id="Ellipse_300" data-name="Ellipse 300" cx="10.029" cy="10.029" r="10.029" transform="translate(520.905 300.014)" fill="#0cbeff"/>
    <circle id="Ellipse_301" data-name="Ellipse 301" cx="13.989" cy="13.989" r="13.989" transform="translate(433.278 177.069)" fill="#0cbeff"/>
    <path id="Path_1356" data-name="Path 1356" d="M732.582,318.883a2.331,2.331,0,0,0,0,4.663H820.7a2.331,2.331,0,0,0,0-4.663Z" transform="translate(-253.007 -137.151)" fill="#e6e6e6"/>
    <path id="Path_1357" data-name="Path 1357" d="M732.582,336.856a2.331,2.331,0,0,0,0,4.663h47.3a2.331,2.331,0,1,0,0-4.663Z" transform="translate(-253.007 -141.135)" fill="#e6e6e6"/>
    <path id="Path_1358" data-name="Path 1358" d="M677.036,365.589c-1.773,0-3.217,1.046-3.217,2.331s1.443,2.331,3.217,2.331H806.887c1.773,0,3.217-1.046,3.217-2.331s-1.443-2.331-3.217-2.331Z" transform="translate(-240.498 -147.504)" fill="#e6e6e6"/>
    <path id="Path_1359" data-name="Path 1359" d="M677.036,383.562c-1.773,0-3.217,1.046-3.217,2.331s1.443,2.331,3.217,2.331H806.887c1.773,0,3.217-1.046,3.217-2.331s-1.443-2.331-3.217-2.331Z" transform="translate(-240.498 -151.488)" fill="#e6e6e6"/>
    <path id="Path_1360" data-name="Path 1360" d="M639.159,492.175c9.232-4.005,19.54-.513,28.242,3.178,4.482,1.9,8.915,3.93,13.554,5.432a77.252,77.252,0,0,0,11.95,2.832,84.448,84.448,0,0,0,24.548.15,85.711,85.711,0,0,0,23.69-6.889,80.108,80.108,0,0,0,20.5-13.4q1.165-1.053,2.285-2.154c.889-.871-.476-2.235-1.365-1.365a77.828,77.828,0,0,1-20,14.12,83.787,83.787,0,0,1-23.238,7.465,82.068,82.068,0,0,1-24.488.423,77.1,77.1,0,0,1-11.99-2.606,126.862,126.862,0,0,1-13.233-5.14c-8.783-3.772-18.542-7.466-28.193-4.864a23.53,23.53,0,0,0-3.238,1.156c-1.137.493-.155,2.156.974,1.666Z" transform="translate(-232.487 -172.794)" fill="#0cbeff"/>
    <path id="Path_1361" data-name="Path 1361" d="M607.455,510.732H535.661l16.9-29.264a3.45,3.45,0,0,1,5.976,0l7.218,12.5,12.272-21.256a4.32,4.32,0,0,1,7.482,0Z" transform="translate(-209.873 -167.681)" fill="#0cbeff"/>
    <path id="Path_1363" data-name="Path 1363" d="M834.96,457.952l-14.691,7.46c-5.243,2.663-10.3,2.208-12.242-3.345h0a9.714,9.714,0,0,1,7.389-12.75l13.963-2.607,59.8-19.84L925.4,401.185l13.279,21.156-41.856,22.585Z" transform="translate(-270.128 -155.395)" fill="#ffb8b8"/>
    <path id="Path_1364" data-name="Path 1364" d="M810.607,700.292l-11.241-1.873,1.249-21.231H812.48Z" transform="translate(-177.196 -150.112)" fill="#ffb8b8"/>
    <path id="Path_1365" data-name="Path 1365" d="M948.462,674.115l-10.878,3.393-8.453-19.515,10.591-5.347Z" transform="translate(-205.961 -144.672)" fill="#ffb8b8"/>
    <path id="Path_1366" data-name="Path 1366" d="M1027.715,684.1l-13.738,5.62L948.41,603.546,927.8,704.706l-13.738-2.5c-8.813-87.213-16-176.17-7.181-218.243l50.892-2.186,23.1,73.685,11.24,49.955Z" transform="translate(-291.271 -173.26)" fill="#2f2e41"/>
    <path id="Path_1367" data-name="Path 1367" d="M922.418,806.978h0a9.863,9.863,0,0,1-6.114-.65l-6.677-3c-5.6-.287-9.411.828-12.528-3.24a8.17,8.17,0,0,1-.954-8.236h0a8.226,8.226,0,0,1,6.718-4.888l9.171-5.779.481,4.332c4.191,2.375,9.168,1.349,14.441-.963l2.879,10.074a9.863,9.863,0,0,1-7.417,12.354Z" transform="translate(-289.626 -239.629)" fill="#2f2e41"/>
    <path id="Path_1368" data-name="Path 1368" d="M1068.289,781.313h0a9.862,9.862,0,0,1-5.994,1.371L1055,782.01c-5.389,1.546-8.632,3.839-12.9,1a8.17,8.17,0,0,1-3.577-7.48h0a8.226,8.226,0,0,1,4.766-6.8l6.8-8.444,1.862,3.941c4.735.885,9.109-1.7,13.346-5.6l5.994,8.594a9.863,9.863,0,0,1-3,14.093Z" transform="translate(-321.336 -234.629)" fill="#2f2e41"/>
    <circle id="Ellipse_302" data-name="Ellipse 302" cx="22.48" cy="22.48" r="22.48" transform="translate(625.293 174.888)" fill="#ffb8b8"/>
    <path id="Path_1369" data-name="Path 1369" d="M858.135,304.594l-29.349-6.245L825.04,274l20.606-4.371Z" transform="translate(-182.887 -59.768)" fill="#ffb8b8"/>
    <path id="Path_1370" data-name="Path 1370" d="M959.28,463.178H906.826l11.823-29.684c-.859-10.214,3.47-17.726,9.665-24.266l7.86-19.734c12.7-8.359,22.275-7.734,32.471,3.122C980.735,409.732,972.367,435.461,959.28,463.178Z" transform="translate(-292.149 -151.537)" fill="#053440"/>
    <path id="Path_1371" data-name="Path 1371" d="M938.5,536.41,937,552.819c-.533,5.857-3.608,9.9-9.341,8.59h0a9.714,9.714,0,0,1-6.871-13.037l5.215-13.212,14.987-61.2-2.5-44.336h24.978l-3.122,47.458Z" transform="translate(-295.094 -161.7)" fill="#ffb8b8"/>
    <path id="Path_1372" data-name="Path 1372" d="M970.049,422.347H941.325l2.014-18.738a13,13,0,0,1,12.339-12.452h0a13,13,0,0,1,13.638,12.473Z" transform="translate(-299.796 -153.168)" fill="#043340"/>
    <circle id="Ellipse_303" data-name="Ellipse 303" cx="8.45" cy="8.45" r="8.45" transform="translate(667.145 157.354)" fill="#2f2e41"/>
    <path id="Path_1373" data-name="Path 1373" d="M973.6,293.489a8.443,8.443,0,0,1,8.446-7.9c-.175-.022-.348-.049-.525-.06a8.45,8.45,0,1,0-1.084,16.864c.178.011.353.007.529.007A8.443,8.443,0,0,1,973.6,293.489Z" transform="translate(-306.714 -129.754)" fill="#2f2e41"/>
    <path id="Path_1374" data-name="Path 1374" d="M960.047,299.738c-7.536-6.251-29.15,1.694-30.545,5.9-10.19,1.389-17.906,7.334-17.906,17.906h0c6.058,2.482,12.949,2.176,20.4,0,11.874,9.676,12.688,21.84,5.467,35.812l8.884.178,11.012-16.094.527,16.325,20.364-.408V335.958a48.913,48.913,0,0,0-5.222-22.408C969.85,307.384,964.926,303.785,960.047,299.738Z" transform="translate(-293.207 -132.394)" fill="#2f2e41"/>
    <ellipse id="Ellipse_304" data-name="Ellipse 304" cx="4.041" cy="5.657" rx="4.041" ry="5.657" transform="translate(643.838 197.362)" fill="#ffb8b8"/>
    <path id="Path_1375" data-name="Path 1375" d="M296.282,345.787s2.432-42.1,15.06-32.534-5.514,36.438-5.514,36.438Z" transform="translate(-156.809 -135.59)" fill="#ffb9b9"/>
    <path id="Path_1376" data-name="Path 1376" d="M233.215,515.9s28.049,31.489,12.356,33.654S223.7,519.889,223.7,519.889Z" transform="translate(-140.721 -180.824)" fill="#ffb9b9"/>
    <path id="Path_1377" data-name="Path 1377" d="M182.841,324.348h0a18.473,18.473,0,0,1,13.592,15.294l8.922,63.5L217.863,453.8s6.254,5.629,3.752,8.756,3.127,16.26,3.127,16.26l-15.635,5s-1.876-13.133-5-13.759c-2.748-.55-33.511-82.728-40.926-102.636-1.022-2.745-1.6-4.306-1.6-4.306S162.829,321.221,182.841,324.348Z" transform="translate(-126.95 -138.325)" fill="#053440"/>
    <path id="Path_1378" data-name="Path 1378" d="M189.16,749.885l9.6,17.018c7.437,15.878.828,18.762-17.406,10.891L177.2,757.7Z" transform="translate(-130.413 -232.691)" fill="#ffb9b9"/>
    <path id="Path_1379" data-name="Path 1379" d="M192.722,777.145s4.559-7.422,6.208-6.18,8.45,6.626,8.45,6.626l8.859,8.485s29.929,3.164,10.912,13.651-29.528,1.792-29.528,1.792-26.636,1.385-26.207-6.046,9.02-19.189,9.02-19.189S191.262,783.542,192.722,777.145Z" transform="translate(-129.129 -237.333)" fill="#2f2e41"/>
    <path id="Path_1380" data-name="Path 1380" d="M137.815,498.715l9,108.938s.3,65.122,9.9,77.727,9.9,18.906,9.9,18.906l19.807-10.2s-10.2-17-8.1-19.6a14.507,14.507,0,0,0,2.7-5.6l-5.4-67.223,10.2-117.04Z" transform="translate(-121.682 -173.888)" fill="#2f2e41"/>
    <path id="Path_1381" data-name="Path 1381" d="M155.551,766.85" transform="translate(-125.614 -236.452)" fill="none" stroke="#3f3d56" stroke-miterlimit="10" stroke-width="1"/>
    <path id="Path_1382" data-name="Path 1382" d="M44.523,663.808l-8.4,22.207-19.057-7.967,10.054-16.641Z" transform="translate(-3.783 -146.614)" fill="#ffb9b9"/>
    <path id="Path_1383" data-name="Path 1383" d="M143.81,767.087s7.147-4.467,8.041-2.68,4.467,9.381,4.467,9.381l4.02,11.168s24.569,15.635,3.574,16.528-26.355-11.168-26.355-11.168-23.675-10.274-20.1-16.528,16.081-12.74,16.081-12.74S139.79,772,143.81,767.087Z" transform="translate(-117.087 -235.166)" fill="#2f2e41"/>
    <path id="Path_1384" data-name="Path 1384" d="M214.041,502.263l4.8,100.235s-43.815,90.631-48.617,93.032a12.054,12.054,0,0,0-6,7.2l-26.409-6.6,12-19.207L176.228,612.7s4.2-1.8,5.4-7.8,3.6-6-2.4-7.2-6-7.2-6-7.2L153.42,499.262Z" transform="translate(-121.682 -177.136)" fill="#2f2e41"/>
    <circle id="Ellipse_305" data-name="Ellipse 305" cx="24.008" cy="24.008" r="24.008" transform="translate(43.208 163.716) rotate(-80.783)" fill="#ffb9b9"/>
    <path id="Path_1385" data-name="Path 1385" d="M179.375,272.159s-1.8,30.611-4.2,33.612,25.209,2.4,25.209,2.4-1.8-25.809,0-28.21S179.375,272.159,179.375,272.159Z" transform="translate(-129.93 -126.794)" fill="#ffb9b9"/>
    <path id="Path_1386" data-name="Path 1386" d="M215.156,465.337s-67.824-6-80.425,0c0,0,4.639-17.209,3.44-19.007-.872-1.315,1.533-50.335.778-78.611-.428-15.956-4.11-31.538,6.592-43.384,3.643-4.024,7.705-7.4,11.994-9.052,0,0-1.2-11.4,4.8-12,0,0,22.813-2.405,31.211,4.8,2.685,2.288,4.374,9.262,4.553,15.271-4.156,20.439-2.685,43.119,1.129,66.648.234,1.494.49,3,.747,4.5C204.026,417.836,210.144,441.894,215.156,465.337Z" transform="translate(-120.998 -133.607)" fill="#053440"/>
    <path id="Path_1387" data-name="Path 1387" d="M187.408,266.884c2.03-.121,4.013.565,6.029.833a15.26,15.26,0,0,0,16.311-11.378,8.73,8.73,0,0,1,.834-2.718c1.11-1.813,3.639-2.158,5.723-1.741s4.06,1.392,6.183,1.5a9.467,9.467,0,0,0,8.171-4.624,15.682,15.682,0,0,0,2.005-9.471l-1.571,1.649a7.981,7.981,0,0,1-.711-4.337,5.033,5.033,0,0,0-4.767,1.22c-1.385.147-.34-2.57-1.369-3.509A2.381,2.381,0,0,0,222.57,234c-2.947.028-5.332-2.226-7.654-4.041a32.526,32.526,0,0,0-13.737-6.266,18.073,18.073,0,0,0-10.023.486,21.412,21.412,0,0,0-6.769,4.8c-4.941,4.752-9.317,10.334-11.373,16.874a28.406,28.406,0,0,0-.136,16.472c.828,2.8,3.325,12.371,6.98,12.594C184.449,275.2,181.692,267.225,187.408,266.884Z" transform="translate(-129.199 -115.945)" fill="#2f2e41"/>
    <path id="Path_1388" data-name="Path 1388" d="M199.858,328.181l8.6.921s8.443,16.381,7.83,19.8-1.949,1.342,1.852,6.809,14.584,19.6,15.919,21.671,37.74-25.7,35.477-34.024c0,0,11.5,8.248,16.424,9.346,0,0-37.518,49.2-42.746,55.5s-9.436,5-16.621,1.27S183.06,368.5,183.06,368.5Z" transform="translate(-131.712 -139.212)" fill="#053440"/>
    <path id="Path_1389" data-name="Path 1389" d="M210.047,411.374l-29.9-29.9,7.565-2.467L209.3,406.875C209.533,408.37,209.79,409.872,210.047,411.374Z" transform="translate(-131.067 -150.48)" opacity="0.1" style="isolation: isolate"/>
  </g>
</svg>
