<svg xmlns="http://www.w3.org/2000/svg" width="835.345" height="650.345" viewBox="0 0 835.345 650.345">
  <g id="undraw_photo_session_clqr" transform="translate(-157.655 -91.655)">
    <path id="Path_678" data-name="Path 678" d="M1096.5,775.5c0,4.1-3.75,8.08-10.77,11.86C1049.72,806.74,927.61,821,782.5,821q-8.565,0-17.01-.07C599.98,819.65,468.5,799.8,468.5,775.5c0-25.13,140.58-45.5,314-45.5,47.49,0,92.51,1.53,132.86,4.26q15.21,1.035,29.5,2.29,5.94.51,11.71,1.08c18.13,1.75,34.93,3.77,50.13,6.02q11.07,1.635,20.97,3.42c17.19,3.11,31.61,6.55,42.75,10.24C1087.19,762.89,1096.5,769.04,1096.5,775.5Z" transform="translate(-103.5 -79)" fill="#f0f0f0"/>
    <path id="Path_679" data-name="Path 679" d="M370.88,527.773c0,7.055-59.854,12.773-133.69,12.773-12.2,0-24.022-.158-35.253-.451-43.317-1.124-77.877-4.283-91.795-8.336-4.309-1.252-6.642-2.593-6.642-3.985,0-1.592,3.057-3.121,8.639-4.526,3.257-.822,7.374-1.6,12.245-2.333.038,0,.081-.009.123-.017,11.155-1.665,26.248-3.07,44.024-4.083C188.6,515.66,212.087,515,237.19,515,311.026,515,370.88,520.718,370.88,527.773Z" transform="translate(76.81 -61.773)" fill="#f0f0f0"/>
    <path id="Path_680" data-name="Path 680" d="M717.233,397.706l-22.928-6.384s-8.981-1.793-3.493-19.332,16.371-12.631,16.371-12.631l20.339,5.909,8.03,2.48-11.3,15.851-.947,10.565Z" transform="translate(-103.5 -79)" fill="#3f3d56"/>
    <path id="Path_681" data-name="Path 681" d="M658.036,272.364,665.23,301.1l-36.858,35.722-3.169.794-8.453-2.375-7.194-28.733,7.287-7.662-7.449-1.952,15.9-15.43,8.294,1.74,6.653-6.6-4.491-1.8-.423-1.69,5.44-4.281Z" fill="#3f3d56"/>
    <path id="Path_682" data-name="Path 682" d="M623.5,312.892l4.761,19.014,21.967-20.767-5.5-19.279Z" fill="#00beff"/>
    <path id="Path_683" data-name="Path 683" d="M658.036,272.364l1.009,4.029-36.651,35.654-3.169.793-8.188-2.215-.452-.011-1.029-4.109,7.287-7.662-7.449-1.952,15.9-15.43,8.294,1.74,6.653-6.6-4.491-1.8-.423-1.69,5.44-4.281Z" fill="none" stroke="#3f3d56" stroke-miterlimit="10" stroke-width="1"/>
    <ellipse id="Ellipse_175" data-name="Ellipse 175" cx="3.049" cy="2.069" rx="3.049" ry="2.069" transform="translate(637.648 270.734) rotate(-14.057)" fill="#6c63ff"/>
    <ellipse id="Ellipse_176" data-name="Ellipse 176" cx="3.049" cy="2.069" rx="3.049" ry="2.069" transform="translate(614.364 301.485) rotate(-14.057)" fill="#6c63ff"/>
    <path id="Path_684" data-name="Path 684" d="M702,433.5l5-17s-13-31,2-34,16,29,16,29l-6,19Z" transform="translate(-103.5 -79)" fill="#ffb6b6"/>
    <circle id="Ellipse_177" data-name="Ellipse 177" cx="39.723" cy="39.723" r="39.723" transform="translate(651.609 242)" fill="#ffb6b6"/>
    <path id="Path_685" data-name="Path 685" d="M781.98,388.762s-2.337,29.208-8.178,31.545S836.891,439,836.891,439l-17.525-19.861s-3.505-30.376,4.673-37.386Z" transform="translate(-103.5 -79)" fill="#ffb6b6"/>
    <path id="Path_686" data-name="Path 686" d="M726,424.5l-16-2s-19,10-19,23-11,34-11,34-8,28,10,30,34-30,34-30Z" transform="translate(-103.5 -79)" fill="#f0f0f0"/>
    <path id="Path_687" data-name="Path 687" d="M717,583.5s-35-33-45-31-30,5-30,20,33,50,33,50,25,55,49,57a414.14,414.14,0,0,1,47,7s-11,40-5,51,29,24,31,23,30-27,42-64,20-65,9-67S717,583.5,717,583.5Z" transform="translate(-103.5 -79)" fill="#2f2e41"/>
    <path id="Path_688" data-name="Path 688" d="M645,569.5s-7-1-6,16,4,78,9,90,6,26,4,31-6,13,1,14,36-3,39-4,6-18,4-18-7-1-5-8,3-7,0-9-11-5-9-7,4-49,4-49Z" transform="translate(-103.5 -79)" fill="#2f2e41"/>
    <path id="Path_689" data-name="Path 689" d="M655,717.5s-17-5-19,6c0,0-3,17,10,23a160.659,160.659,0,0,1,24,14s21,8,22-2-4-46-4-46Z" transform="translate(-103.5 -79)" fill="#2f2e41"/>
    <path id="Path_690" data-name="Path 690" d="M768,729.5l32-26s-6,32,2,38l3.654,10.684-10.233,8.371S764,755.5,768,729.5Z" transform="translate(-103.5 -79)" fill="#2f2e41"/>
    <path id="Path_691" data-name="Path 691" d="M813,685.5s-21,6-18,27,6.846,43.815,6.846,43.815S803,812.5,818,816.5s19-4,19-4,17.051-43.9,12-57c-6.114-15.851-14.923-33.649-12-39C839.876,711.234,835,682.5,813,685.5Z" transform="translate(-103.5 -79)" fill="#2f2e41"/>
    <path id="Path_692" data-name="Path 692" d="M825,409.5s-8,1-21,3-22-8-29-6-65,16-65,16l9,69s-11,80-9,94-24,12-9,29,41,32,94,27,60-4,60-12-12-76-8-82,12-13,8-20-8-11-2-17,9-12,9-15,14-52,14-52-6-24-13-25-13-6-18-6-8,1-11,0Z" transform="translate(-103.5 -79)" fill="#f0f0f0"/>
    <path id="Path_693" data-name="Path 693" d="M737.744,353.584c4.608-.606,9.36-3.368,11.912-5.06,2.9,2.805,20.775,18.983,51.488,23.677,0,0,.068-.608.244-1.638l10.525,1.8,19.467-1.895c-.1.331-.158.512-.158.512s2.784-.751,3.749-7.042q.278-1.808.672-3.6c1.566-7.143,5.364-32.886-16.189-50.089-15.692-12.525-33.778-8.573-45.212-3.793a37.354,37.354,0,0,0-20.494,20.891,28.853,28.853,0,0,0-1.856,7.3l-.448,1.272c-3.472.483-10.442-2.431-14.188-1.052-5.12,1.885-7.639,9.613-8.153,11.924S731,354.472,737.744,353.584Zm66.3,7.265c2.773-7.135,8-14.928,17.589-14.539,9.941.4,11.685,8.3,11.334,15.048l-24.732.9Z" transform="translate(-103.5 -79)" fill="#2f2e41"/>
    <ellipse id="Ellipse_178" data-name="Ellipse 178" cx="1.656" cy="4.375" rx="1.656" ry="4.375" transform="translate(693.962 224.793) rotate(-80.315)" fill="#2f2e41"/>
    <path id="Path_694" data-name="Path 694" d="M753.1,110.05h-.75c-29.84,0-56.23,15.79-71.41,39.09-15.18-23.3-41.57-39.09-71.41-39.09h-.75A85,85,0,0,0,524.59,195c0,27.81,12.18,67.27,35.93,99.74,45.25,61.87,120.42,116,120.42,116s75.17-54.12,120.41-116c23.76-32.47,35.93-71.93,35.93-99.74a85,85,0,0,0-84.18-84.95ZM742.37,299.5a16.85,16.85,0,0,1-15.67-10.82H708.86a5.64,5.64,0,0,1-5.31-3.84l-5.48-16.51-17.34,60.59a5.61,5.61,0,0,1-5.38,4.05H675a5.54,5.54,0,0,1-5.2-4.64L651.93,220.85l-13.06,63.6a5.57,5.57,0,0,1-5.41,4.23H608.33a5.59,5.59,0,1,1,0-11.17h20.73L647.56,192a5.61,5.61,0,0,1,11,.46L676.81,302.1l15.54-54.21a5.5,5.5,0,0,1,5.23-4h.11a5.58,5.58,0,0,1,5.3,3.84l9.91,29.81h13.58a16.76,16.76,0,1,1,15.92,22Z" transform="translate(-366.935 -18.395)" fill="#00beff"/>
  </g>
</svg>
