<svg xmlns="http://www.w3.org/2000/svg" width="1191.385" height="557.612" viewBox="0 0 1191.385 557.612">
  <g id="Group_5" data-name="Group 5" transform="translate(-366 -258.482)">
    <g id="undraw_page_not_found_su7k" transform="translate(366 103)">
      <ellipse id="Ellipse_2" data-name="Ellipse 2" cx="527.5" cy="34.922" rx="527.5" ry="34.922" transform="translate(13.143 514.388)" fill="#f2f2f2" />
      <path id="Path_5" data-name="Path 5" d="M583.48,324.894c-85.944,0-147.651,55.139-147.651,183.8,0,145.813,61.707,184.411,147.651,184.411s151.327-42.273,151.327-184.411C734.807,356.753,669.424,324.894,583.48,324.894Zm.565,319.808c-59.527,0-90.626-34.923-90.626-135.916,0-89.112,32.372-136.1,91.9-136.1s91.9,30.868,91.9,136.1C677.217,607.234,643.571,644.7,584.045,644.7Z" transform="translate(-63.054 -157.885)" fill="#002028" />
      <path id="Path_6" data-name="Path 6" d="M384.365,591.4H348.831V486.762a20.956,20.956,0,0,0-20.956-20.956h-8.326a20.956,20.956,0,0,0-20.956,20.956V591.4H198.363a11.963,11.963,0,0,1-10.578-17.552l106.082-200.78a20.956,20.956,0,0,0-9.58-28.739l-6.262-2.957a20.956,20.956,0,0,0-27.429,9.07L121.214,592.475a28.416,28.416,0,0,0-3.356,13.4h0a28.416,28.416,0,0,0,28.416,28.416H298.593v66.167a25.119,25.119,0,0,0,25.119,25.119h0a25.119,25.119,0,0,0,25.119-25.119V634.287h35.534a21.443,21.443,0,0,0,21.443-21.443h0A21.443,21.443,0,0,0,384.365,591.4Z" transform="translate(-63.054 -157.885)" fill="#00beff" />
      <path id="Path_7" data-name="Path 7" d="M1042.362,591.4h-35.534V486.762a20.956,20.956,0,0,0-20.956-20.956h-8.326a20.956,20.956,0,0,0-20.956,20.956V591.4H856.359a11.963,11.963,0,0,1-10.578-17.552l106.082-200.78a20.956,20.956,0,0,0-9.58-28.739l-6.262-2.957a20.956,20.956,0,0,0-27.429,9.07L779.211,592.475a28.416,28.416,0,0,0-3.356,13.4h0a28.416,28.416,0,0,0,28.416,28.416H956.589v66.167a25.119,25.119,0,0,0,25.119,25.119h0a25.119,25.119,0,0,0,25.119-25.119V634.287h35.534a21.443,21.443,0,0,0,21.443-21.443h0a21.443,21.443,0,0,0-21.443-21.443Z" transform="translate(-63.054 -157.885)" fill="#00beff" />
      <path id="Path_8" data-name="Path 8" d="M394.168,579.148H358.634V474.509a20.956,20.956,0,0,0-20.956-20.956h-8.326A20.956,20.956,0,0,0,308.4,474.509V579.148H208.165A11.963,11.963,0,0,1,197.588,561.6L303.67,360.816a20.956,20.956,0,0,0-9.58-28.739l-6.262-2.957a20.956,20.956,0,0,0-27.429,9.07L131.017,580.222a28.416,28.416,0,0,0-3.356,13.4h0a28.416,28.416,0,0,0,28.416,28.416H308.4V688.2a25.119,25.119,0,0,0,25.119,25.119h0A25.119,25.119,0,0,0,358.633,688.2V622.034h35.534a21.443,21.443,0,0,0,21.443-21.443h0a21.443,21.443,0,0,0-21.443-21.443Z" transform="translate(-63.054 -157.885)" fill="none" stroke="#3f3d56" stroke-miterlimit="10" stroke-width="1" />
      <path id="Path_9" data-name="Path 9" d="M1060.742,579.148h-35.534V474.509a20.956,20.956,0,0,0-20.956-20.956h-8.326a20.956,20.956,0,0,0-20.956,20.956V579.148H874.739A11.963,11.963,0,0,1,864.161,561.6l106.083-200.78a20.956,20.956,0,0,0-9.58-28.739L954.4,329.12a20.956,20.956,0,0,0-27.429,9.07L797.59,580.222a28.415,28.415,0,0,0-3.356,13.4h0a28.416,28.416,0,0,0,28.416,28.416H974.969V688.2a25.119,25.119,0,0,0,25.119,25.119h0a25.119,25.119,0,0,0,25.119-25.119V622.034h35.534a21.443,21.443,0,0,0,21.443-21.443h0A21.443,21.443,0,0,0,1060.742,579.148Z" transform="translate(-63.054 -157.885)" fill="none" stroke="#3f3d56" stroke-miterlimit="10" stroke-width="1" />
      <path id="Path_10" data-name="Path 10" d="M603.085,313.866c-85.944,0-147.651,55.139-147.651,183.8,0,145.813,61.707,184.411,147.651,184.411S754.412,639.8,754.412,497.664C754.412,345.725,689.029,313.866,603.085,313.866Zm.565,319.808c-59.527,0-90.626-34.923-90.626-135.916,0-89.112,32.372-136.1,91.9-136.1s91.9,30.868,91.9,136.1c0,98.447-33.645,135.916-93.172,135.916Z" transform="translate(-63.054 -157.885)" fill="none" stroke="#3f3d56" stroke-miterlimit="10" stroke-width="1" />
      <path id="Path_26" data-name="Path 26" d="M1069.918,577.434a20.813,20.813,0,1,0,2.772-39.915l.521,10.712-5.068-9.18a20.734,20.734,0,0,0-10.684,11.723,20.406,20.406,0,0,0-1.2,5.63A20.809,20.809,0,0,0,1069.918,577.434Z" transform="translate(-63.054 -157.885)" fill="#57b894" />
      <path id="Path_27" data-name="Path 27" d="M1095,701.678c-1.789-9.11,5.963-17.187,13.621-22.437s16.6-10.408,19.218-19.317c3.755-12.8-7.43-24.53-16.136-34.642a125.292,125.292,0,0,1-16.524-24.557c-1.811-3.533-3.476-7.225-3.952-11.166-.686-5.675,1.137-11.323,2.974-16.737q9.179-27.052,19.628-53.65" transform="translate(-63.054 -157.885)" fill="none" stroke="#3f3d56" stroke-miterlimit="10" stroke-width="1" />
      <path id="Path_28" data-name="Path 28" d="M1070.775,574.676a20.813,20.813,0,1,0,2.772-39.915l.521,10.712-5.068-9.18a20.734,20.734,0,0,0-10.684,11.723,20.411,20.411,0,0,0-1.2,5.63A20.808,20.808,0,0,0,1070.775,574.676Z" transform="translate(-63.054 -157.885)" fill="none" stroke="#3f3d56" stroke-miterlimit="10" stroke-width="1" />
      <path id="Path_29" data-name="Path 29" d="M1092.451,515.473a20.788,20.788,0,0,1,14.98-13.2l1.714,10.184,3.177-10.7a20.81,20.81,0,1,1-19.871,13.71Z" transform="translate(-63.054 -157.885)" fill="#57b894" />
      <path id="Path_30" data-name="Path 30" d="M1093.594,511.8a20.788,20.788,0,0,1,14.98-13.2l1.714,10.184,3.177-10.7a20.81,20.81,0,1,1-19.871,13.71Z" transform="translate(-63.054 -157.885)" fill="none" stroke="#3f3d56" stroke-miterlimit="10" stroke-width="1" />
      <path id="Path_31" data-name="Path 31" d="M1108.045,625.489a20.81,20.81,0,0,0,18.419-37.023l-2.441,8.219-1.731-10.3a.362.362,0,0,0-.053-.02,20.811,20.811,0,1,0-14.194,39.127Z" transform="translate(-63.054 -157.885)" fill="#57b894" />
      <path id="Path_32" data-name="Path 32" d="M1109.035,621.764a20.81,20.81,0,0,0,18.419-37.023l-2.441,8.219-1.731-10.3a.359.359,0,0,0-.053-.02,20.811,20.811,0,0,0-14.194,39.127Z" transform="translate(-63.054 -157.885)" fill="none" stroke="#3f3d56" stroke-miterlimit="10" stroke-width="1" />
      <path id="Path_33" data-name="Path 33" d="M1086.378,660.051a20.8,20.8,0,1,0,4.011-16.3l9.273,13.957-12.67-7.408a20.617,20.617,0,0,0-.613,9.749Z" transform="translate(-63.054 -157.885)" fill="#57b894" />
      <path id="Path_34" data-name="Path 34" d="M1087.235,657.294a20.8,20.8,0,1,0,4.011-16.3l9.273,13.957-12.67-7.408a20.617,20.617,0,0,0-.613,9.749Z" transform="translate(-63.054 -157.885)" fill="none" stroke="#3f3d56" stroke-miterlimit="10" stroke-width="1" />
      <path id="Path_35" data-name="Path 35" d="M72.061,628.133a13.674,13.674,0,1,0,1.821-26.225l.342,7.038-3.33-6.032a13.623,13.623,0,0,0-7.019,7.7,13.41,13.41,0,0,0-.787,3.7,13.672,13.672,0,0,0,8.972,13.818Z" transform="translate(-63.054 -157.885)" fill="#57b894" />
      <path id="Path_36" data-name="Path 36" d="M88.538,709.763c-1.175-5.986,3.918-11.292,8.949-14.741s10.91-6.838,12.626-12.692c2.467-8.412-4.882-16.117-10.6-22.76a82.324,82.324,0,0,1-10.856-16.135,22.21,22.21,0,0,1-2.6-7.336c-.451-3.729.747-7.439,1.954-11q6.031-17.773,12.9-35.249" transform="translate(-63.054 -157.885)" fill="none" stroke="#3f3d56" stroke-miterlimit="10" stroke-width="1" />
      <path id="Path_37" data-name="Path 37" d="M72.625,626.321A13.674,13.674,0,1,0,74.446,600.1l.342,7.038-3.33-6.032a13.623,13.623,0,0,0-7.019,7.7,13.41,13.41,0,0,0-.787,3.7,13.672,13.672,0,0,0,8.973,13.818Z" transform="translate(-63.054 -157.885)" fill="none" stroke="#3f3d56" stroke-miterlimit="10" stroke-width="1" />
      <path id="Path_38" data-name="Path 38" d="M86.866,587.423a13.658,13.658,0,0,1,9.842-8.671l1.126,6.691,2.087-7.027a13.673,13.673,0,1,1-13.055,9.007Z" transform="translate(-63.054 -157.885)" fill="#57b894" />
      <path id="Path_39" data-name="Path 39" d="M87.617,585.007a13.658,13.658,0,0,1,9.842-8.671l1.126,6.691L100.673,576a13.673,13.673,0,1,1-13.055,9.007Z" transform="translate(-63.054 -157.885)" fill="none" stroke="#3f3d56" stroke-miterlimit="10" stroke-width="1" />
      <path id="Path_40" data-name="Path 40" d="M97.112,659.706a13.673,13.673,0,0,0,12.1-24.325l-1.6,5.4-1.137-6.77a.229.229,0,0,0-.035-.013,13.673,13.673,0,0,0-9.326,25.707Z" transform="translate(-63.054 -157.885)" fill="#57b894" />
      <path id="Path_41" data-name="Path 41" d="M97.762,657.259a13.673,13.673,0,0,0,12.1-24.325l-1.6,5.4-1.137-6.77a.243.243,0,0,0-.035-.013,13.673,13.673,0,0,0-9.326,25.707Z" transform="translate(-63.054 -157.885)" fill="none" stroke="#3f3d56" stroke-miterlimit="10" stroke-width="1" />
      <path id="Path_42" data-name="Path 42" d="M82.876,682.414a13.667,13.667,0,1,0,2.635-10.708l6.092,9.17-8.324-4.867a13.545,13.545,0,0,0-.4,6.4Z" transform="translate(-63.054 -157.885)" fill="#57b894" />
      <path id="Path_43" data-name="Path 43" d="M83.439,680.6a13.667,13.667,0,1,0,2.635-10.708l6.092,9.17L83.842,674.2a13.545,13.545,0,0,0-.4,6.4Z" transform="translate(-63.054 -157.885)" fill="none" stroke="#3f3d56" stroke-miterlimit="10" stroke-width="1" />
      <ellipse id="Ellipse_7" data-name="Ellipse 7" cx="17" cy="22" rx="17" ry="22" transform="translate(463.946 297.116)" fill="#002028" />
      <ellipse id="Ellipse_8" data-name="Ellipse 8" cx="17" cy="22" rx="17" ry="22" transform="translate(556.446 297.616)" fill="#002028" />
      <path id="Path_44" data-name="Path 44" d="M623.5,542.5c0,9.94-13.88,18-31,18s-31-8.06-31-18c0-8.61,10.41-15.81,24.32-17.57a50.1,50.1,0,0,1,6.68-.43,50.694,50.694,0,0,1,11.13,1.2C615.25,528.29,623.5,534.84,623.5,542.5Z" transform="translate(-63.054 -157.885)" fill="#002028" />
      <ellipse id="Ellipse_9" data-name="Ellipse 9" cx="17" cy="22" rx="17" ry="22" transform="translate(467.946 292.116)" fill="none" stroke="#3f3d56" stroke-miterlimit="10" stroke-width="1" />
      <ellipse id="Ellipse_10" data-name="Ellipse 10" cx="17" cy="22" rx="17" ry="22" transform="translate(560.446 292.616)" fill="none" stroke="#3f3d56" stroke-miterlimit="10" stroke-width="1" />
      <ellipse id="Ellipse_11" data-name="Ellipse 11" cx="31" cy="18" rx="31" ry="18" transform="translate(502.446 361.616)" fill="none" stroke="#3f3d56" stroke-miterlimit="10" stroke-width="1" />
      <path id="Path_45" data-name="Path 45" d="M604,527.2a4.936,4.936,0,0,1-1.32,3.392A4.339,4.339,0,0,1,599.5,532h-10a4.664,4.664,0,0,1-4.5-4.8,4.9,4.9,0,0,1,.82-2.741A47.035,47.035,0,0,1,592.5,524a47.664,47.664,0,0,1,11.13,1.28,5.067,5.067,0,0,1,.37,1.92Z" transform="translate(-63.054 -157.885)" fill="#fff" />
      <circle id="Ellipse_12" data-name="Ellipse 12" cx="5" cy="5" r="5" transform="translate(479.946 303.116)" fill="#fff" />
      <circle id="Ellipse_13" data-name="Ellipse 13" cx="5" cy="5" r="5" transform="translate(572.946 303.116)" fill="#fff" />
      <circle id="Ellipse_14" data-name="Ellipse 14" cx="5" cy="5" r="5" transform="translate(577.946 350.116)" fill="#00beff" opacity="0.3" />
      <circle id="Ellipse_15" data-name="Ellipse 15" cx="5" cy="5" r="5" transform="translate(455.946 350.116)" fill="#00beff" opacity="0.3" />
    </g>
    <g id="undraw_online_message_xq4c" transform="translate(841 319)">
      <ellipse id="Ellipse_16" data-name="Ellipse 16" cx="31.49" cy="3.28" rx="31.49" ry="3.28" transform="translate(497.922 490.431)" fill="#e6e6e6" />
      <ellipse id="Ellipse_17" data-name="Ellipse 17" cx="31.49" cy="3.28" rx="31.49" ry="3.28" transform="translate(591.08 490.431)" fill="#e6e6e6" />
      <ellipse id="Ellipse_18" data-name="Ellipse 18" cx="21.649" cy="2.255" rx="21.649" ry="2.255" transform="translate(673.086 491.456)" fill="#e6e6e6" />
      <path id="Path_46" data-name="Path 46" d="M1049.554,735.677a59.876,59.876,0,0,1-2.8,16.552c-.039.124-.08.247-.121.371H1036.2c.011-.111.022-.236.033-.371.7-8,4.709-56.7-.089-65.029C1036.562,687.875,1050.364,710.252,1049.554,735.677Z" transform="translate(-348.624 -259.545)" fill="#e6e6e6" />
      <path id="Path_47" data-name="Path 47" d="M1050.24,761.864c-.087.124-.178.249-.271.371h-7.831c.059-.106.128-.23.208-.371,1.294-2.335,5.123-9.316,8.677-16.552,3.82-7.777,7.324-15.849,7.029-18.77C1058.143,727.2,1060.786,747.287,1050.24,761.864Z" transform="translate(-350.092 -269.181)" fill="#e6e6e6" />
      <path id="Path_57" data-name="Path 57" d="M895.782,526.645l-3.227,17.889a9.241,9.241,0,0,0,10.364,10.794h0a9.241,9.241,0,0,0,7.731-11.248l-4.093-17.592,14.638-47.394-3.373-50.724-20.97,7.251,9.479,38.784Z" transform="translate(-313.422 -196.155)" fill="#ffb8b8" />
      <circle id="Ellipse_22" data-name="Ellipse 22" cx="17.534" cy="17.534" r="17.534" transform="translate(556.241 152.482)" fill="#ffb8b8" />
      <path id="Path_58" data-name="Path 58" d="M875.223,397.283l34.27-.535c-7.352-17.794-13.312-34.594-11.78-46.051l-24.1,3.748C876.469,370.719,877.851,382.441,875.223,397.283Z" transform="translate(-308.819 -177.132)" fill="#ffb8b8" />
      <path id="Path_59" data-name="Path 59" d="M839.577,449.167l46.051,8.568c15.525-28.443,24.09-54.125,9.638-70.682l-27.309-1.606c-17.449,18.66-32.208,36.768-22.18,49.8Z" transform="translate(-300.483 -185.642)" fill="#ffa600" />
      <path id="Path_60" data-name="Path 60" d="M893.573,428.374c10.539,4.032,20.32.528,29.3-10.964l-13.307-25.672L892.61,395.1Z" transform="translate(-313.471 -187.184)" fill="#ffa600" />
      <path id="Path_61" data-name="Path 61" d="M831.625,681.563l18.206-.936,11.78-123.293,59.973,122.623,18.742-.536-35.877-107.63c-1.416-35.909-2.9-71.725-18.206-87.282l-5.355-11.245-42.838-9.1-5.89,11.245C818.5,507.294,826.522,598.411,831.625,681.563Z" transform="translate(-296.814 -204.921)" fill="#002028" />
      <path id="Path_62" data-name="Path 62" d="M818.041,769.062l21.251,2.038a8.609,8.609,0,0,0,9.382-9.48l-1.562-14.68c-5.888,1.533-12.173,1.175-18.742-.536l-8.032,6.961-3.807,1.19a7.44,7.44,0,0,0-5.193,6.457h0A7.44,7.44,0,0,0,818.041,769.062Z" transform="translate(-293.56 -274.045)" fill="#2f2e41" />
      <path id="Path_63" data-name="Path 63" d="M937.178,769.062l21.251,2.038a8.609,8.609,0,0,0,9.382-9.48l-1.562-14.68c-5.888,1.533-12.173,1.175-18.741-.536l-8.032,6.961-3.807,1.19a7.44,7.44,0,0,0-5.193,6.457h0A7.44,7.44,0,0,0,937.178,769.062Z" transform="translate(-322.738 -274.045)" fill="#2f2e41" />
      <path id="Path_64" data-name="Path 64" d="M858.015,415.432c7.5,8.43,17.8,9.819,31.057,3.748V390.265l-16.6-4.819Z" transform="translate(-304.998 -185.642)" fill="#ffa600" />
      <path id="Path_65" data-name="Path 65" d="M802.024,505.479l-11.1,14.4a9.241,9.241,0,0,0,4.234,14.352h0A9.241,9.241,0,0,0,807.2,527.8l4.461-17.5,34.806-35.341,20.348-46.586-21.954-3.213-14.993,40.7Z" transform="translate(-288.097 -195.368)" fill="#ffb8b8" />
      <path id="Path_66" data-name="Path 66" d="M875.065,310.447c8.053-4.05,17.68-5.255,26.24-2.432s15.8,9.9,17.993,18.647c1.654,6.61.459,13.544-.124,20.333s-.4,14.125,3.515,19.7c2.452,3.5,6.115,5.92,9.724,8.2s7.329,4.574,9.995,7.91,4.1,8,2.5,11.956c-2.054,5.05-7.97,7.105-13.216,8.587-7.478,2.112-15.056,4.24-22.825,4.4s-15.881-1.879-21.589-7.151c-7.765-7.172-9.63-18.9-8.157-29.368s5.732-20.315,8.416-30.539c1.037-3.95,1.639-8.716-1.234-11.619-2.918-2.949-7.867-2.371-11.5-4.374a8.807,8.807,0,0,1,2.476-16.338" transform="translate(-307.993 -166.302)" fill="#2f2e41" />
    </g>
  </g>
</svg>