<svg xmlns="http://www.w3.org/2000/svg" width="1114" height="1032.399" viewBox="0 0 1114 1032.399">
  <g id="Group_5" data-name="Group 5" transform="translate(-280.077 -1512.082)">
    <g id="undraw_playing_fetch_cm19" transform="translate(913.578 1512.082)">
      <path id="Path_206" data-name="Path 206" d="M208.927,415.337c0-67.165,54.448-226.546,121.614-226.546s121.614,159.38,121.614,226.546a121.614,121.614,0,0,1-243.228,0Z" transform="translate(-208.927 -188.791)" fill="#239608"/>
      <path id="Path_207" data-name="Path 207" d="M330.541,711.209a1,1,0,0,1-1-1V290.925a1,1,0,0,1,2,0V710.209A1,1,0,0,1,330.541,711.209Z" transform="translate(-208.927 -188.791)" fill="#3f3d56"/>
      <path id="Path_208" data-name="Path 208" d="M330.541,371.871a1,1,0,0,1-.707-.293L281.7,323.443a1,1,0,0,1,1.414-1.414l48.135,48.134a1,1,0,0,1-.707,1.707Z" transform="translate(-208.927 -188.791)" fill="#3f3d56"/>
      <path id="Path_209" data-name="Path 209" d="M330.541,455.2a1,1,0,0,1-.707-1.707l80.61-80.61a1,1,0,1,1,1.414,1.414l-80.61,80.61a1,1,0,0,1-.707.293Z" transform="translate(-208.927 -188.791)" fill="#3f3d56"/>
      <path id="Path_210" data-name="Path 210" d="M440.656,497.082c0-48.264,39.152-162.791,87.448-162.791s87.448,114.527,87.448,162.791a87.448,87.448,0,1,1-174.9,0Z" transform="translate(-208.927 -188.791)" fill="#a9d59f"/>
      <path id="Path_211" data-name="Path 211" d="M528.1,709.69a.719.719,0,0,1-.719-.719V407.682a.719.719,0,0,1,1.438,0V708.971A.719.719,0,0,1,528.1,709.69Z" transform="translate(-208.927 -188.791)" fill="#3f3d56"/>
      <path id="Path_212" data-name="Path 212" d="M528.1,465.848a.717.717,0,0,1-.509-.21l-34.612-34.588A.719.719,0,1,1,494,430.033l34.612,34.588a.719.719,0,0,1-.508,1.227Z" transform="translate(-208.927 -188.791)" fill="#3f3d56"/>
      <path id="Path_213" data-name="Path 213" d="M528.1,525.727a.719.719,0,0,1-.509-1.227l57.964-57.925a.719.719,0,1,1,1.017,1.016l-57.964,57.925A.717.717,0,0,1,528.1,525.727Z" transform="translate(-208.927 -188.791)" fill="#3f3d56"/>
    </g>
    <g id="Group_4" data-name="Group 4" transform="translate(25.077 293.355)">
      <g id="undraw_Vehicle_sale_a645" transform="translate(255 1441.008)">
        <ellipse id="Ellipse_3" data-name="Ellipse 3" cx="557" cy="173.775" rx="557" ry="173.775" transform="translate(0 245.991)" fill="#00beff" opacity="0.127"/>
        <g id="Group_3" data-name="Group 3" opacity="0.8">
          <path id="Path_30" data-name="Path 30" d="M447.792,188.611c9.443,13.242,16.687,51.806,18.706,63.426l16.879-.344c-.873-9.984-20.509-50.591-25.968-61.734C454.372,189.483,451.13,189.018,447.792,188.611Z" transform="translate(-43 -153.229)" fill="#65617d"/>
          <rect id="Rectangle_3" data-name="Rectangle 3" width="10.534" height="7.478" transform="translate(193.931 37.297) rotate(-88.918)" fill="#dce0ed"/>
          <path id="Path_31" data-name="Path 31" d="M237.131,180l-.065,3.429a5.711,5.711,0,0,0,1.621.25l5.852.061.068-3.6Z" transform="translate(-43 -153.229)" opacity="0.1"/>
          <path id="Path_32" data-name="Path 32" d="M248.271,153.364l-7.059-.133a8.473,8.473,0,0,0-7.948,5.139c-2.164,5.05-4.066,13.109.381,21.266a5.835,5.835,0,0,0,5.061,3.042l9.011.093Z" transform="translate(-43 -153.229)" fill="#dce0ed"/>
          <ellipse id="Ellipse_4" data-name="Ellipse 4" cx="14.706" cy="7.561" rx="14.706" ry="7.561" transform="translate(197.155 29.399) rotate(-88.918)" fill="#f0f0f4"/>
          <rect id="Rectangle_4" data-name="Rectangle 4" width="9.222" height="7.478" transform="translate(260.368 37.365) rotate(-88.918)" fill="#dce0ed"/>
          <path id="Path_33" data-name="Path 33" d="M303.544,181.374l-.055,2.931a5.71,5.71,0,0,0,1.621.25l5.852.061.059-3.1Z" transform="translate(-43 -153.229)" opacity="0.1"/>
          <path id="Path_34" data-name="Path 34" d="M314.684,154.743l-7.059-.133a8.473,8.473,0,0,0-7.948,5.139c-2.164,5.05-4.066,13.109.381,21.266a5.835,5.835,0,0,0,5.061,3.042l9.011.093Z" transform="translate(-43 -153.229)" fill="#dce0ed"/>
          <ellipse id="Ellipse_5" data-name="Ellipse 5" cx="14.706" cy="7.561" rx="14.706" ry="7.561" transform="translate(263.568 30.778) rotate(-88.918)" fill="#f0f0f4"/>
          <path id="Path_35" data-name="Path 35" d="M312.7,160.082s2.78.5,1.261,4.152a25.431,25.431,0,0,0-1.778,5.545s-2.816,1.4-2.614-3.4S312.7,160.082,312.7,160.082Z" transform="translate(-43 -153.229)" fill="#dce0ed"/>
          <ellipse id="Ellipse_6" data-name="Ellipse 6" cx="48.356" cy="44.118" rx="48.356" ry="44.118" transform="translate(504.031 269.828) rotate(-88.918)" fill="#636780"/>
          <path id="Path_36" data-name="Path 36" d="M576.384,329.9c23.054,1.989,40.942,23.341,40.456,49.033-.391,20.709-12.605,38.149-29.432,44.721-23.054-1.989-40.942-23.341-40.456-49.033C547.343,353.912,559.557,336.472,576.384,329.9Z" transform="translate(-43 -153.229)" opacity="0.1"/>
          <ellipse id="Ellipse_7" data-name="Ellipse 7" cx="46.694" cy="35.81" rx="46.694" ry="35.81" transform="translate(169.125 156.137) rotate(-88.918)" fill="#636780"/>
          <path id="Path_37" data-name="Path 37" d="M259.663,218.816c14.742,5.971,25.246,24.075,24.845,45.279-.428,22.66-13.166,41.312-29.668,45.247C240.1,303.371,229.595,285.267,230,264.063,230.423,241.4,243.161,222.751,259.663,218.816Z" transform="translate(-43 -153.229)" opacity="0.1"/>
          <path id="Path_38" data-name="Path 38" d="M383.491,255.929l-.345-16.959s3.461-7.247,6.8-7.849,10.986-.873,10.986-.873,5.521,24.453,1.4,31.687S383.491,255.929,383.491,255.929Z" transform="translate(-43 -153.229)" fill="#65617d"/>
          <path id="Path_39" data-name="Path 39" d="M383.491,255.929l-.345-16.959s3.461-7.247,6.8-7.849,10.986-.873,10.986-.873,5.521,24.453,1.4,31.687S383.491,255.929,383.491,255.929Z" transform="translate(-43 -153.229)" opacity="0.1"/>
          <path id="Path_40" data-name="Path 40" d="M444.831,255.259s2.5-23.459-10.4-24.126c-1.661-.086-3.322-.157-4.974-.349-8.935-1.036-33.308-3.38-30.489,2.251,0,0,5.429,20.545,1.344,25.62Z" transform="translate(-43 -153.229)" fill="#65617d"/>
          <path id="Path_41" data-name="Path 41" d="M261,295.373l-17.33.171s-2.388-31.956-3.338-34.466-1.222-14.482,2.05-16.166,14.153-3.6,14.153-3.6l7.631,18.343.312,16.46Z" transform="translate(-43 -153.229)" fill="#65617d"/>
          <path id="Path_42" data-name="Path 42" d="M261,295.373l-17.33.171s-2.388-31.956-3.338-34.466-1.222-14.482,2.05-16.166,14.153-3.6,14.153-3.6l7.631,18.343.312,16.46Z" transform="translate(-43 -153.229)" opacity="0.1"/>
          <path id="Path_43" data-name="Path 43" d="M303.872,243.207l.144-3.551a2.05,2.05,0,0,0-2.1-2.132c-8.592.2-39.856,1.106-45.38,3.792,0,0,5.141,44.6-1.663,55.064l1.57,35.68,76.616-4.287Z" transform="translate(-43 -153.229)" fill="#65617d"/>
          <path id="Path_44" data-name="Path 44" d="M310.914,187.142c-2.119-.249-4.642-.526-7.464-.8l-.08,4.252,7.476.141Z" transform="translate(-43 -153.229)" opacity="0.1"/>
          <path id="Path_45" data-name="Path 45" d="M236.943,189.988l-.01.538,7.476.141.061-3.235A31.938,31.938,0,0,0,236.943,189.988Z" transform="translate(-43 -153.229)" opacity="0.1"/>
          <path id="Path_46" data-name="Path 46" d="M154.434,142.065l11.3.378,24.148-41.985,4.031-7.009-2.652-18-2.379,4.3Z" fill="#dce0ed"/>
          <path id="Path_47" data-name="Path 47" d="M257.6,91.825l4.519,7.066,14.261-18.538L282.9,71.86l-3.725-5.22-2.993,3.493Z" fill="#dce0ed"/>
          <path id="Path_48" data-name="Path 48" d="M319.185,223.362c-.027.358-.054.727-.086,1.1l.276,9.12,6.528-8.493-3.726-5.221Z" transform="translate(-43 -153.229)" opacity="0.1"/>
          <path id="Path_49" data-name="Path 49" d="M188.878,79.753l1,20.705,4.031-7.009-2.652-18Z" opacity="0.1"/>
          <path id="Path_50" data-name="Path 50" d="M332.163,236.844s6.365-41.565-13.825-48.179a4.593,4.593,0,0,0-.795-.179c-4.663-.652-48.137-6.5-70.873-.956,0,0-15.495,2.034-15.486,10.344l4.895,101.641,11.131.21-2.387-67.19s-4.764-29.341,4.079-31.169,48.946-4.394,62.993-.14c0,0,10.345-2.131,8.2,23.257l.407,13.636Z" transform="translate(-43 -153.229)" fill="#dce0ed"/>
          <path id="Path_51" data-name="Path 51" d="M298.036,248.581a6.426,6.426,0,0,1,2.725-5.682c3.16-2.309,12.851-7.236,12.851-7.236l3.11.308,8.908,23.353-1.553,49.207-17.215,20.491Z" transform="translate(-43 -153.229)" fill="#65617d"/>
          <path id="Path_52" data-name="Path 52" d="M298.036,248.581a6.426,6.426,0,0,1,2.725-5.682c3.16-2.309,12.851-7.236,12.851-7.236l3.11.308,8.908,23.353-1.553,49.207-17.215,20.491Z" transform="translate(-43 -153.229)" opacity="0.1"/>
          <path id="Path_53" data-name="Path 53" d="M364.183,301.435l.622-50.513s1.866-19.576-9.841-20.13c0,0-27.629-.321-39.7,3.349a2.681,2.681,0,0,0-1.585,3.843c2.311,4.2,6.132,15.29,7.544,43.568l-.572,30.279Z" transform="translate(-43 -153.229)" fill="#65617d"/>
          <path id="Path_54" data-name="Path 54" d="M262.3,179.378l50.283-.222h.05l24.712-.106L335.1,145.976l-13.716.24-43.8,8.895-13.728,20.682Z" fill="#65617d"/>
          <path id="Path_55" data-name="Path 55" d="M262.3,179.378l50.283-.222h.05l24.712-.106L335.1,145.976l-13.716.24-43.8,8.895-13.728,20.682Z" opacity="0.1"/>
          <path id="Path_56" data-name="Path 56" d="M262.3,179.378l50.283-.222,1.245-22.114-36.237-1.931-13.728,20.682Z" fill="#65617d"/>
          <path id="Path_57" data-name="Path 57" d="M355.633,332.387l24.713-.107L378.1,299.205s-7.959,12.19-21.275,11.066Z" transform="translate(-43 -153.229)" fill="#fff" opacity="0.1"/>
          <path id="Path_58" data-name="Path 58" d="M177.844,355.754c.818,9.489,7.575,8.121,7.575,8.121l1.258-.091,12.472-.9-.221-14.713a54.108,54.108,0,0,0-12.644.519C181.6,349.572,177.48,351.539,177.844,355.754Z" transform="translate(-43 -153.229)" fill="#dce0ed"/>
          <path id="Path_59" data-name="Path 59" d="M177.844,355.754c.818,9.489,7.575,8.121,7.575,8.121l1.258-.091a12.725,12.725,0,0,0,2.118-7.075,11.967,11.967,0,0,0-2.511-8.015C181.6,349.572,177.48,351.539,177.844,355.754Z" transform="translate(-43 -153.229)" opacity="0.1"/>
          <path id="Path_60" data-name="Path 60" d="M351.618,262.723c-.29,15.369,8.7,28,20.076,28.218s20.837-12.07,21.127-27.44-8.7-28-20.076-28.218S351.909,247.354,351.618,262.723Zm7.774,1.975c.211-11.148,7.411-20.053,16.082-19.89s15.53,9.334,15.319,20.483-7.411,20.053-16.082,19.89-15.53-9.334-15.319-20.483Z" transform="translate(-43 -153.229)" fill="#636780"/>
          <path id="Path_61" data-name="Path 61" d="M328.061,118.42l-9.815,9.288-3.329-8.539,14.11-7.877Z" fill="#636780"/>
          <path id="Path_62" data-name="Path 62" d="M315.626,24.424l-8.409.863-3.182,3.639,4.318,21.322,9.38,34.4,6.135,23.61,4.359,14.349,2.592,18.93,2.7,13.031,8.68,9.014,18.39-20.893,3.083-7.022,7.351-14.316-18.123-8.9-20.02-2.148-8.98-24.36-7.138-28.161Z" fill="#6c63ff"/>
          <path id="Path_63" data-name="Path 63" d="M483.428,128.833l9.227,92.25L354.7,212.66l16.8-44.889,26.909-16.777-60.827-.151.145-25.26,24.689-4.852,49.585-3.052,37.247-.959,35.335,12.3" fill="#65617d"/>
          <path id="Path_64" data-name="Path 64" d="M483.428,128.833l9.227,92.25L354.7,212.66l16.8-44.889,26.909-16.777-60.827-.151.145-25.26,24.689-4.852,49.585-3.052,37.247-.959,35.335,12.3" opacity="0.1"/>
          <path id="Path_65" data-name="Path 65" d="M336.073,370.23c-.432,22.872,6.774,43.837,27.9,41.955,26.607-.068,29.036-18,29.468-40.872s-12.09-40.137-27.932-40.436S336.505,347.358,336.073,370.23Z" transform="translate(-43 -153.229)" fill="#636780"/>
          <path id="Path_66" data-name="Path 66" d="M335.907,370.266c.334-17.708,8.3-31.761,19.234-37.067,13.855,2.907,24.244,19.1,23.85,39.971-.354,18.744-2.053,34.167-17.3,39.163C342.2,412.665,335.489,392.356,335.907,370.266Z" transform="translate(-43 -153.229)" opacity="0.1"/>
          <path id="Path_67" data-name="Path 67" d="M266.655,180.592l7.934,9.442-14.55-2.782-10.722-10.233-9.364-19.647L226.4,148.708l-33.705,3.936-31.135.592-11.293-10.418,12.846-1.5,12.981-.049,32.6-.122,38.8-.3,7.562,21.384,5.77,14.711Z" fill="#6c63ff"/>
          <path id="Path_68" data-name="Path 68" d="M197.362,369.585c.644,1.009,22.347,4.745,22.347,4.745l59.933,12.1,103.315,3.447L395.278,379.8l6.348,1.252.258.05,84.8,16.714,1.389-.173,23.254-2.867L632.777,379.8l-1.024-17.61-.606-10.392-1.253-21.578-1.06-5.674-10.767-1.191-5.03-.559-78.48-8.7-10.26-1.136-5.752-.637-56.013-8.7-81.943.447.143-25.261-30.515-100.3c-7.164,1.026-7.091,5.849-7.091,5.849l25.8,94.389-.755,57.659c-57.468,4.708-59.081-7.822-68.237-3.782l-10.3-35.261-96.37-1.322C189.356,300.627,197.362,369.585,197.362,369.585Z" transform="translate(-43 -153.229)" fill="#65617d"/>
          <path id="Path_69" data-name="Path 69" d="M394.426,168.536l-31.81,65.049-10.365,3.126-2.289-10.678,12.151-36.169,12.194-20.877Z" fill="#65617d"/>
          <path id="Path_70" data-name="Path 70" d="M394.426,168.536l-31.81,65.049-10.365,3.126-2.289-10.678,12.151-36.169,12.194-20.877Z" opacity="0.15"/>
          <ellipse id="Ellipse_8" data-name="Ellipse 8" cx="62.812" cy="55.375" rx="62.812" ry="55.375" transform="translate(356.405 302.939) rotate(-88.918)" fill="#636780"/>
          <path id="Path_71" data-name="Path 71" d="M437.321,335.156c28.935,2.564,51.369,30.285,50.739,63.658-.508,26.9-15.853,49.564-36.979,58.115-28.935-2.564-51.369-30.285-50.739-63.658C400.85,366.371,416.2,343.706,437.321,335.156Z" transform="translate(-43 -153.229)" opacity="0.1"/>
          <path id="Path_72" data-name="Path 72" d="M606.436,287.4l2.5,12.971,7.641,39.738L652.7,337.3s2.284-6.6-3.316-9.2c0,0-1.429-22.529-7.959-29.737a6.78,6.78,0,0,0-2.582-1.874Z" transform="translate(-43 -153.229)" fill="#65617d"/>
          <path id="Path_73" data-name="Path 73" d="M608.933,300.369l7.641,39.738L652.7,337.3s2.284-6.6-3.316-9.2c0,0-1.429-22.529-7.959-29.737Z" transform="translate(-43 -153.229)" fill="#fff" opacity="0.1"/>
          <path id="Path_74" data-name="Path 74" d="M525.127,289.353c-4.8,7.717,5.138,79.873,5.138,79.873L619.1,356.274l-1.966-63.025c-1.616-11.334-8.235-12.785-8.235-12.785-30.938-16.375-102.648-21.055-102.648-21.055-65.5,1.256-125.515,19.4-125.515,19.4C455.378,268.754,525.127,289.353,525.127,289.353Z" transform="translate(-43 -153.229)" fill="#65617d"/>
          <path id="Path_75" data-name="Path 75" d="M530.265,369.226,619.1,356.274l-1.966-63.025c-1.616-11.334-8.235-12.785-8.235-12.785s-64.514-7.371-83.768,8.889C520.329,297.07,530.265,369.226,530.265,369.226Z" transform="translate(-43 -153.229)" opacity="0.1"/>
          <path id="Path_76" data-name="Path 76" d="M539.7,365.247l74.279-11.078L612.36,300.4c-1.347-9.669-6.881-10.905-6.881-10.905s-53.94-6.268-70.044,7.611C531.42,303.688,539.7,365.247,539.7,365.247Z" transform="translate(-43 -153.229)" fill="#65617d"/>
          <ellipse id="Ellipse_9" data-name="Ellipse 9" cx="18.445" cy="10.136" rx="18.445" ry="10.136" transform="translate(493.145 186.19) rotate(-88.918)" opacity="0.1"/>
          <ellipse id="Ellipse_10" data-name="Ellipse 10" cx="18.445" cy="10.136" rx="18.445" ry="10.136" transform="translate(493.155 185.691) rotate(-88.918)" fill="#dce0ed"/>
          <path id="Path_77" data-name="Path 77" d="M545.568,307.022s4.141.743,1.878,6.185a37.88,37.88,0,0,0-2.649,8.26s-4.194,2.081-3.893-5.06S545.568,307.022,545.568,307.022Z" transform="translate(-43 -153.229)" fill="#f0f0f4"/>
          <ellipse id="Ellipse_11" data-name="Ellipse 11" cx="17.235" cy="9.472" rx="17.235" ry="9.472" transform="translate(548.299 178.709) rotate(-88.918)" opacity="0.1"/>
          <ellipse id="Ellipse_12" data-name="Ellipse 12" cx="17.235" cy="9.472" rx="17.235" ry="9.472" transform="translate(548.308 178.211) rotate(-88.918)" fill="#dce0ed"/>
          <path id="Path_78" data-name="Path 78" d="M600.034,300.738s4.141.743,1.878,6.185a37.877,37.877,0,0,0-2.649,8.26s-4.194,2.081-3.893-5.06S600.034,300.738,600.034,300.738Z" transform="translate(-43 -153.229)" fill="#f0f0f4"/>
          <path id="Path_79" data-name="Path 79" d="M558.557,305.77c.534,6.826,2.9,57.394,2.9,57.394l5.655-.836,3.145-.459,4.19-.619.505-.075,16.5-2.431-2.238-53.637a6.716,6.716,0,0,0-6.665-6.433c-.164,0-.334,0-.5.015-1.138.078-2.367.175-3.645.29-.539.05-1.084.1-1.638.159-1.584.16-3.218.358-4.823.592-.82.124-1.625.254-2.421.393-1.346.244-2.647.513-3.85.825-.817.209-1.594.439-2.307.689C560.381,302.658,558.416,304.007,558.557,305.77Z" transform="translate(-43 -153.229)" opacity="0.1"/>
          <path id="Path_80" data-name="Path 80" d="M582.559,298.674l2.083,60.275,1.832-.13-2.06-59.871a6.748,6.748,0,0,0-1.855-.274Z" transform="translate(-43 -153.229)" fill="#65617d"/>
          <path id="Path_81" data-name="Path 81" d="M576.772,299.138,578.639,360l2.826.053L578.41,298.98C577.871,299.029,577.326,299.079,576.772,299.138Z" transform="translate(-43 -153.229)" fill="#65617d"/>
          <path id="Path_82" data-name="Path 82" d="M569.528,300.123l3.6,61.1,1.829.035,0-.085-3.008-61.444C571.129,299.854,570.324,299.984,569.528,300.123Z" transform="translate(-43 -153.229)" fill="#65617d"/>
          <path id="Path_83" data-name="Path 83" d="M563.372,301.637l3.745,60.691.008.115,3.161-.274-.024-.3-4.583-60.921C564.862,301.157,564.085,301.387,563.372,301.637Z" transform="translate(-43 -153.229)" fill="#65617d"/>
          <path id="Path_84" data-name="Path 84" d="M630.062,349.835s6.7-31.41-7.224-33.293-59.844.615-58.718,13.6,2.249,32.7,2.249,32.7l9.51-1.939s-6.542-29.79,4.569-30.7,38.334-3.514,38.334-3.514,7.375-1.107,2.647,24.855Z" transform="translate(-43 -153.229)" opacity="0.1"/>
          <path id="Path_85" data-name="Path 85" d="M630.005,352.826s6.739-33.4-7.187-35.287-59.844.615-58.718,13.6,2.249,32.7,2.249,32.7l9.51-1.939s-6.542-29.79,4.569-30.7,38.334-3.514,38.334-3.514,7.338.887,2.609,26.849Z" transform="translate(-43 -153.229)" fill="#dce0ed"/>
          <path id="Path_86" data-name="Path 86" d="M382.957,389.878l12.294.063c9.718-39.37,24.971-63.678,24.971-63.678,5.035-2.567,59.521-1.2,59.521-1.2,5.633,1.1,6.79,19.075,6.79,19.075s-4.9,4.061-.3,6.81c2.056,1.225,8.89,1.579,16.778,1.324,9.794-.324,21.216-1.594,27.137-3.322,10.7-3.124,2.342-9.429,2.342-9.429s-1.458-2.022-2.247-13.006A44.333,44.333,0,0,0,524.52,308.3c-.444-.771-.725-1.19-.725-1.19a5.748,5.748,0,0,0-1.921-1.253c-13.974-6.147-83.117-1.849-83.117-1.849l-25.738,7.661c-.713.271-1.839,2.054-3.239,4.91C401.368,333.764,382.957,389.878,382.957,389.878Z" transform="translate(-43 -153.229)" fill="#65617d"/>
          <path id="Path_87" data-name="Path 87" d="M382.957,389.878l12.294.063c9.718-39.37,24.971-63.678,24.971-63.678,5.035-2.567,59.521-1.2,59.521-1.2,5.633,1.1,6.79,19.075,6.79,19.075s-4.9,4.061-.3,6.81c2.056,1.225,8.89,1.579,16.778,1.324,9.794-.324,21.216-1.594,27.137-3.322,10.7-3.124,2.342-9.429,2.342-9.429s-1.458-2.022-2.247-13.006A44.333,44.333,0,0,0,524.52,308.3c-.444-.771-.725-1.19-.725-1.19a5.748,5.748,0,0,0-1.921-1.253c-13.974-6.147-83.117-1.849-83.117-1.849l-25.738,7.661c-.713.271-1.839,2.054-3.239,4.91C401.368,333.764,382.957,389.878,382.957,389.878Z" transform="translate(-43 -153.229)" opacity="0.1"/>
          <path id="Path_88" data-name="Path 88" d="M409.78,316.577c23.794-8.73,88.791-2.631,88.791-2.631,7.025-5.781,20.036-5.924,25.949-5.648-.444-.771-.725-1.19-.725-1.19a5.749,5.749,0,0,0-1.921-1.253c-13.974-6.147-83.117-1.849-83.117-1.849l-25.738,7.661C412.306,311.937,411.18,313.721,409.78,316.577Z" transform="translate(-43 -153.229)" fill="#65617d"/>
          <path id="Path_89" data-name="Path 89" d="M494.7,316.366c1.4,5.177,7.154,25.9,7.154,25.9a87.516,87.516,0,0,1,1.157,10c9.794-.324,21.216-1.594,27.137-3.322,10.7-3.124,2.342-9.429,2.342-9.429s-1.458-2.022-2.247-13.006a44.147,44.147,0,0,0-6.449-19.4,5.75,5.75,0,0,0-1.921-1.253C512.6,307.858,493.643,312.447,494.7,316.366Z" transform="translate(-43 -153.229)" fill="#65617d"/>
          <path id="Path_90" data-name="Path 90" d="M494.7,316.366c1.4,5.177,7.154,25.9,7.154,25.9a87.516,87.516,0,0,1,1.157,10c9.794-.324,21.216-1.594,27.137-3.322,10.7-3.124,2.342-9.429,2.342-9.429s-1.458-2.022-2.247-13.006a44.147,44.147,0,0,0-6.449-19.4,5.75,5.75,0,0,0-1.921-1.253C512.6,307.858,493.643,312.447,494.7,316.366Z" transform="translate(-43 -153.229)" fill="#fff" opacity="0.1"/>
          <path id="Path_91" data-name="Path 91" d="M350.217,178.516l30.515,100.3L507.973,260.4l-16.811-60.274s-2.607-13.761-9.192-14.882C481.97,185.242,380.252,165.621,350.217,178.516Zm14.162,15.724c-4.107-13.54,56.345-6.789,56.345-6.789,8.139-.629,17.949.055,27.067,1.159,3.338.407,6.58.872,9.617,1.348,6.776,1.065,12.528,2.2,15.97,2.919,2.19.455,3.446.743,3.446.743,12.016,3.966,17.928,53.938,17.928,53.938.9,5.252-5.311,4.013-5.311,4.013l-.4.007-5.661.112-16.879.344L384.2,253.7c-4.85-.59-5.49-6.336-5.49-6.336C376.169,243.2,364.379,194.24,364.379,194.24Z" transform="translate(-43 -153.229)" fill="#65617d"/>
          <path id="Path_92" data-name="Path 92" d="M489.039,251.58l.4-.007s6.209,1.239,5.311-4.013c0,0-5.912-49.972-17.928-53.938,0,0-1.256-.288-3.446-.743C477.609,201.524,491.135,231.112,489.039,251.58Z" transform="translate(-43 -153.229)" fill="#65617d"/>
          <path id="Path_93" data-name="Path 93" d="M489.039,251.58l.4-.007s6.209,1.239,5.311-4.013c0,0-5.912-49.972-17.928-53.938,0,0-1.256-.288-3.446-.743C477.609,201.524,491.135,231.112,489.039,251.58Z" transform="translate(-43 -153.229)" opacity="0.1"/>
          <path id="Path_94" data-name="Path 94" d="M475.552,374.3a8.022,8.022,0,0,0,7.432,4.354l2.539-.062,23.974-.579,8.64-.211,7.987-.512,105.629-15.1-.606-10.392L619,353.306l-5.023.623-74.551,9.232-9.81,1.216-4.758.588-20.1-.524-21.763-.571a8.221,8.221,0,0,0-3.222.557,7.822,7.822,0,0,0-4.292,3.928,6.566,6.566,0,0,0,.072,5.945Z" transform="translate(-43 -153.229)" opacity="0.1"/>
          <path id="Path_95" data-name="Path 95" d="M475.533,375.3a8.022,8.022,0,0,0,7.432,4.354l35.152-.852,7.987-.512,112.644-16.1,8.854-1.264,4.825-.692c9.508-1.815,6.86-11.338,6.86-11.338-.581-4.334-16.789-8.629-22.106-8.56-3.576.042-4.178,5.54-4.186,9.145,0,1.765.131,3.074.131,3.074l-5.268.653L524.842,365.962l-41.867-1.095a8.045,8.045,0,0,0-7.514,4.485,6.566,6.566,0,0,0,.072,5.945Z" transform="translate(-43 -153.229)" fill="#dce0ed"/>
          <path id="Path_96" data-name="Path 96" d="M644.71,346.456s-4.589,5.4-11.583,6.1C633.127,352.552,636.067,346.458,644.71,346.456Z" transform="translate(-43 -153.229)" opacity="0.1"/>
          <path id="Path_97" data-name="Path 97" d="M645.581,361.929s14.793-.053,14.642,7.922-9.48,9.128-9.48,9.128L518.181,401.9l-37.56-.045s-12.927-10.715.784-15.109l37.861,1.712,126.371-20.715S642.4,363.2,645.581,361.929Z" transform="translate(-43 -153.229)" opacity="0.1"/>
          <path id="Path_98" data-name="Path 98" d="M480.6,402.856l37.559.046,117.87-20.385,8.624-1.492,6.068-1.047s9.331-1.155,9.481-9.13c.108-5.722-7.486-7.311-11.78-7.751-1.687-.171-2.864-.169-2.864-.169-3.18,1.266.06,5.815.06,5.815l-4.6.756L519.247,389.46l-37.861-1.712C467.676,392.141,480.6,402.856,480.6,402.856Z" transform="translate(-43 -153.229)" fill="#dce0ed"/>
          <path id="Path_99" data-name="Path 99" d="M634.572,355.239l-7.743-3.636-3.984-.241-.3,33.567,12.341-2.26,5.213-3.226,2.756-13.909s-.887-5.834-1.376-6.342S634.572,355.239,634.572,355.239Z" transform="translate(-43 -153.229)" fill="#dce0ed"/>
          <path id="Path_100" data-name="Path 100" d="M634.572,355.239l-7.743-3.636-3.984-.241-.3,33.567,12.341-2.26,5.213-3.226,2.756-13.909s-.887-5.834-1.376-6.342S634.572,355.239,634.572,355.239Z" transform="translate(-43 -153.229)" opacity="0.1"/>
          <path id="Path_101" data-name="Path 101" d="M636.031,382.517l-.148.172,8.669-1.5c.036-.054.072-.108.1-.163,4.694-7.256,5.2-13.21,3.769-17.928-1.687-.171-2.864-.169-2.864-.169-3.18,1.266.06,5.815.06,5.815l-4.6.756C641.2,376.073,636.893,381.5,636.031,382.517Z" transform="translate(-43 -153.229)" opacity="0.1"/>
          <path id="Path_102" data-name="Path 102" d="M623.84,351.378q2.175.886,4.019,1.826c5.536,2.8,8.933,5.883,10.889,8.981l8.854-1.264c-3.678-8.027-12.75-11.828-12.75-11.828l-1.857.384Z" transform="translate(-43 -153.229)" opacity="0.1"/>
          <path id="Path_103" data-name="Path 103" d="M633.857,349.076s24.075,10.094,9.7,32.094l-8.671,1.5s17.483-19.281-12.04-31.307Z" transform="translate(-43 -153.229)" fill="#dce0ed"/>
          <path id="Path_104" data-name="Path 104" d="M532.836,205.554l-8.965-.5.814,36.081,14.505-2.385,6.2-2.875,2.96-7.09,2.128-7.107-4.7-6.57-5.414-3.759Z" fill="#dce0ed"/>
          <path id="Path_105" data-name="Path 105" d="M532.836,205.554l-8.965-.5.814,36.081,14.505-2.385,6.2-2.875,2.96-7.09,2.128-7.107-4.7-6.57-5.414-3.759Z" opacity="0.1"/>
          <ellipse id="Ellipse_13" data-name="Ellipse 13" cx="7.312" cy="4.32" rx="7.312" ry="4.32" transform="translate(529.021 231.409) rotate(-88.918)" fill="#dce0ed"/>
          <path id="Path_106" data-name="Path 106" d="M617.492,388.112a2.344,2.344,0,0,1,1.114,3.3c-1.013,1.813-2.233,4.16-2.134,4.789.167,1.063-2.184.146-2.491-.109s-4.61-.087-4.8-3.02a5.07,5.07,0,0,1,2.39-4.442l-.876-6.436,5.928-.387-.173,5.855Z" transform="translate(-43 -153.229)" fill="#636780"/>
          <path id="Path_107" data-name="Path 107" d="M617.492,388.112a2.344,2.344,0,0,1,1.114,3.3c-1.013,1.813-2.233,4.16-2.134,4.789.167,1.063-2.184.146-2.491-.109s-4.61-.087-4.8-3.02a5.07,5.07,0,0,1,2.39-4.442l-.876-6.436,5.928-.387-.173,5.855Z" transform="translate(-43 -153.229)" opacity="0.1"/>
          <path id="Path_108" data-name="Path 108" d="M615.88,387.96s-2.123,6.816-1.256,7.081S615.88,387.96,615.88,387.96Z" transform="translate(-43 -153.229)" opacity="0.1"/>
          <path id="Path_109" data-name="Path 109" d="M613.667,386.3s-2.123,6.816-1.256,7.081S613.667,386.3,613.667,386.3Z" transform="translate(-43 -153.229)" opacity="0.1"/>
          <path id="Path_110" data-name="Path 110" d="M590.173,365.2l2.935,20.668s4.123-.486,6.4-.931a4.563,4.563,0,0,0,1.439-.417c.117-.112.361-.1.684-.027h.005c1.1.245,3.059,1.2,3.457.434a.673.673,0,0,1,.113-.162l.005,0c.4-.416,1.149-.093,1.879.03a1.591,1.591,0,0,0,1.164-.133c.621-.4,1.849.284,2.862.523.64.152,1.194.132,1.459-.441a1.349,1.349,0,0,1,1.005-.689h.005c.961-.221,2.3-.031,3.075-.181.305-.054.517-.165.59-.373.158-.446,1.019-.644,1.94-.8,1.116-.193,2.315-.325,2.413-.777.028-.149.139-.212.3-.214a10.032,10.032,0,0,1,1.811.483h.005c.5.134.91.147,1.036-.21.137-.391.709-.336,1.359-.164.526.14,1.105.355,1.552.468.4.1.691.118.744-.071.177-.66,2.307.876,2.831-.445s7.5-9.995-1.087-21.625c0,0-2.386.119-4.211.414a6.572,6.572,0,0,0-1.764.46c-.01,0-.015,0-.025.009a10.228,10.228,0,0,1-3.207.308,4.183,4.183,0,0,0-1.792.39,1.171,1.171,0,0,0-.509.524c-.291.628-.931.745-1.628.692-.941-.073-1.981-.451-2.368-.269a.245.245,0,0,1-.035.014c-.7.286-3.3-.052-3.757.373a.251.251,0,0,0-.036.039c-.195.276-1.211-.038-2.25-.2h-.005a2.538,2.538,0,0,0-2.07.285,2.259,2.259,0,0,1-1.629.448,9.345,9.345,0,0,0-2.115.045.843.843,0,0,0-.424.256c-.434.515-1.444.426-2.347.454a2.386,2.386,0,0,0-1.327.309,1.184,1.184,0,0,1-.482.19,14.269,14.269,0,0,1-4-.275Z" transform="translate(-43 -153.229)" fill="#636780"/>
          <path id="Path_111" data-name="Path 111" d="M626.117,381.816c.526.14,1.105.355,1.552.468,6.946-10.339,1.414-18.4-1.724-21.727a6.569,6.569,0,0,0-1.764.46C630.807,368.966,627.478,378.675,626.117,381.816Z" transform="translate(-43 -153.229)" opacity="0.1"/>
          <path id="Path_112" data-name="Path 112" d="M621.906,381.706a10.032,10.032,0,0,1,1.811.483h.005c5.97-10.1.173-17.852-2.772-20.854a4.183,4.183,0,0,0-1.792.39C625.488,368.915,623.4,377.671,621.906,381.706Z" transform="translate(-43 -153.229)" opacity="0.1"/>
          <path id="Path_113" data-name="Path 113" d="M616.66,383.871c.305-.054.517-.165.59-.373.158-.446,1.019-.644,1.94-.8,5.239-9.155.842-16.343-2.17-19.756-.941-.073-1.981-.451-2.368-.269a.24.24,0,0,1-.035.014C621.613,370.836,617.972,380.914,616.66,383.871Z" transform="translate(-43 -153.229)" opacity="0.1"/>
          <path id="Path_114" data-name="Path 114" d="M611.116,385.182c.64.152,1.194.132,1.459-.441a1.349,1.349,0,0,1,1.005-.689h.005c6.106-10.191.225-18.005-2.725-20.993a.251.251,0,0,0-.036.039c-.195.276-1.211-.038-2.25-.2C616.808,371.533,612.279,382.706,611.116,385.182Z" transform="translate(-43 -153.229)" opacity="0.1"/>
          <path id="Path_115" data-name="Path 115" d="M605.21,384.762c.4-.416,1.149-.093,1.879.03,6.349-10.111.838-17.944-2.218-21.158a9.347,9.347,0,0,0-2.115.045C609.8,371.551,606.646,381.348,605.21,384.762Z" transform="translate(-43 -153.229)" opacity="0.1"/>
          <path id="Path_116" data-name="Path 116" d="M599.508,384.938a4.563,4.563,0,0,0,1.439-.417c.117-.112.361-.1.684-.027h.005c5.634-9.237,1.414-16.537-1.65-20.1a2.386,2.386,0,0,0-1.327.309,1.184,1.184,0,0,1-.482.19C604,372.7,600.821,381.916,599.508,384.938Z" transform="translate(-43 -153.229)" opacity="0.1"/>
          <ellipse id="Ellipse_14" data-name="Ellipse 14" cx="39.881" cy="27.086" rx="39.881" ry="27.086" transform="translate(367.328 283.201) rotate(-88.918)" fill="#636780"/>
          <ellipse id="Ellipse_15" data-name="Ellipse 15" cx="32.32" cy="19.691" rx="32.32" ry="19.691" transform="translate(375.767 276.38) rotate(-88.918)" opacity="0.1"/>
          <ellipse id="Ellipse_16" data-name="Ellipse 16" cx="32.32" cy="19.691" rx="32.32" ry="19.691" transform="translate(375.786 275.383) rotate(-88.918)" fill="#f0f0f4"/>
          <ellipse id="Ellipse_17" data-name="Ellipse 17" cx="3.988" cy="2.326" rx="3.988" ry="2.326" transform="translate(390.52 225.635) rotate(-88.918)" fill="#636780"/>
          <ellipse id="Ellipse_18" data-name="Ellipse 18" cx="3.988" cy="2.326" rx="3.988" ry="2.326" transform="translate(380.557 260.349) rotate(-88.918)" fill="#636780"/>
          <ellipse id="Ellipse_19" data-name="Ellipse 19" cx="3.988" cy="2.326" rx="3.988" ry="2.326" transform="translate(405.958 244.209) rotate(-88.918)" fill="#636780"/>
          <ellipse id="Ellipse_20" data-name="Ellipse 20" cx="3.988" cy="2.326" rx="3.988" ry="2.326" transform="translate(398.707 267.34) rotate(-88.918)" fill="#636780"/>
          <path id="Path_117" data-name="Path 117" d="M241.351,319.558s-20.417,51.469-19.482,54.727c0,0-8.318,4.829-10.288,3.545s.207-24.178.207-24.178l4.119-20.116,4.463-11.882Z" transform="translate(-43 -153.229)" fill="#65617d"/>
          <path id="Path_118" data-name="Path 118" d="M241.351,319.558s-20.417,51.469-19.482,54.727c0,0-8.318,4.829-10.288,3.545s.207-24.178.207-24.178l4.119-20.116,4.463-11.882Z" transform="translate(-43 -153.229)" opacity="0.15"/>
          <ellipse id="Ellipse_21" data-name="Ellipse 21" cx="3.988" cy="2.326" rx="3.988" ry="2.326" transform="translate(377.642 238.688) rotate(-88.918)" fill="#636780"/>
          <ellipse id="Ellipse_22" data-name="Ellipse 22" cx="9.472" cy="6.813" rx="9.472" ry="6.813" transform="translate(385.498 253.96) rotate(-88.918)" fill="#636780"/>
          <path id="Path_119" data-name="Path 119" d="M218.361,388.43c-.567,30,8.886,57.507,36.6,55.039,34.9-.089,38.09-23.613,38.657-53.617s-15.859-52.653-36.642-53.045S218.928,358.425,218.361,388.43Z" transform="translate(-43 -153.229)" fill="#636780"/>
          <path id="Path_120" data-name="Path 120" d="M218.143,388.476c.439-23.23,10.891-41.665,25.232-48.625,18.176,3.813,31.8,25.061,31.287,52.435-.464,24.589-2.693,44.822-22.691,51.375C226.4,444.1,217.6,417.455,218.143,388.476Z" transform="translate(-43 -153.229)" opacity="0.1"/>
          <path id="Path_121" data-name="Path 121" d="M203.9,375.442s4.9,4.331,7.7,1.392c0,0,7.745-53.7,16.223-53.792l29.162.3s3.461,1.561,4.834,8.069l17.842,54.021,103.315,3.447,8.2-16.384-85.484-1.365-.009-.04c-.432-1.664-13.749-52.932-23.229-59.458,0-.005-.01-.005-.015-.01a4.167,4.167,0,0,0-1.042-.533s-35.548-5.408-47.322-2.39c0,0-12.263,2.511-15.324,6.192a.3.3,0,0,0-.025.029c-.407.411-5.13,5.532-6.845,20.533Z" transform="translate(-43 -153.229)" opacity="0.1"/>
          <path id="Path_122" data-name="Path 122" d="M203.879,376.439s4.9,4.331,7.7,1.392c0,0,7.745-53.7,16.223-53.792l29.162.3s3.461,1.561,4.834,8.069l17.842,54.021,103.315,3.447,8.2-16.384-85.484-1.365-.009-.04c-.432-1.664-13.749-52.932-23.229-59.458,0-.005-.01-.005-.015-.01a4.166,4.166,0,0,0-1.042-.533s-35.548-5.408-47.322-2.39c0,0-12.263,2.511-15.324,6.192a.3.3,0,0,0-.025.029c-.407.411-5.13,5.532-6.845,20.533Z" transform="translate(-43 -153.229)" fill="#65617d"/>
          <path id="Path_123" data-name="Path 123" d="M203.879,376.439s4.9,4.331,7.7,1.392c0,0,7.745-53.7,16.223-53.792l29.162.3s3.461,1.561,4.834,8.069l17.842,54.021,103.315,3.447,8.2-16.384-85.484-1.365-.009-.04c-.432-1.664-13.749-52.932-23.229-59.458,0-.005-.01-.005-.015-.01a4.166,4.166,0,0,0-1.042-.533s-35.548-5.408-47.322-2.39c0,0-12.263,2.511-15.324,6.192a.3.3,0,0,0-.025.029c-.407.411-5.13,5.532-6.845,20.533Z" transform="translate(-43 -153.229)" opacity="0.1"/>
          <path id="Path_124" data-name="Path 124" d="M268.29,318.82c2.4,4.782,22.733,63.5,22.733,63.5l14.652-10.194-.009-.04c-.432-1.664-13.763-52.987-23.243-59.468C276.162,313.569,266.656,315.574,268.29,318.82Z" transform="translate(-43 -153.229)" fill="#65617d"/>
          <path id="Path_125" data-name="Path 125" d="M296.7,292.682l10.988,38.6,61.09-.591-.607,5.722s-47.98,6.074-68.237-3.782l-10.3-35.263-96.371-1.322,18.44-3.973Z" transform="translate(-43 -153.229)" fill="#65617d"/>
          <path id="Path_126" data-name="Path 126" d="M296.7,292.682l10.988,38.6,61.09-.591-.607,5.722s-47.98,6.074-68.237-3.782l-10.3-35.263-96.371-1.322,18.44-3.973Z" transform="translate(-43 -153.229)" fill="#fff" opacity="0.1"/>
          <path id="Path_127" data-name="Path 127" d="M581.824,358.564s32.419,17.066,7.871,32.059L583.187,392s24.081-16.664-15.319-33.7Z" transform="translate(-43 -153.229)" opacity="0.1"/>
          <path id="Path_128" data-name="Path 128" d="M580.827,358.545s32.419,17.066,7.871,32.059l-6.508,1.373s24.081-16.664-15.319-33.7Z" transform="translate(-43 -153.229)" fill="#dce0ed"/>
          <ellipse id="Ellipse_23" data-name="Ellipse 23" cx="31.157" cy="18.196" rx="31.157" ry="18.196" transform="translate(179.676 270.682) rotate(-88.918)" fill="#636780"/>
          <ellipse id="Ellipse_24" data-name="Ellipse 24" cx="25.25" cy="13.228" rx="25.25" ry="13.228" transform="translate(185.355 265.553) rotate(-88.918)" opacity="0.1"/>
          <ellipse id="Ellipse_25" data-name="Ellipse 25" cx="25.25" cy="13.228" rx="25.25" ry="13.228" transform="translate(185.374 264.557) rotate(-88.918)" fill="#f0f0f4"/>
          <ellipse id="Ellipse_26" data-name="Ellipse 26" cx="3.116" cy="1.563" rx="3.116" ry="1.563" transform="translate(195.376 225.663) rotate(-88.918)" fill="#636780"/>
          <ellipse id="Ellipse_27" data-name="Ellipse 27" cx="3.116" cy="1.563" rx="3.116" ry="1.563" transform="translate(188.611 252.802) rotate(-88.918)" fill="#636780"/>
          <ellipse id="Ellipse_28" data-name="Ellipse 28" cx="3.116" cy="1.563" rx="3.116" ry="1.563" transform="translate(205.709 240.141) rotate(-88.918)" fill="#636780"/>
          <ellipse id="Ellipse_29" data-name="Ellipse 29" cx="3.116" cy="1.563" rx="3.116" ry="1.563" transform="translate(200.79 258.226) rotate(-88.918)" fill="#636780"/>
          <ellipse id="Ellipse_30" data-name="Ellipse 30" cx="3.116" cy="1.563" rx="3.116" ry="1.563" transform="translate(186.697 235.886) rotate(-88.918)" fill="#636780"/>
          <ellipse id="Ellipse_31" data-name="Ellipse 31" cx="7.4" cy="4.577" rx="7.4" ry="4.577" transform="translate(191.943 247.801) rotate(-88.918)" fill="#636780"/>
          <path id="Path_129" data-name="Path 129" d="M508.239,259.531s-55.363.949-127.507,19.281Z" transform="translate(-43 -153.229)" opacity="0.1"/>
          <path id="Path_130" data-name="Path 130" d="M246.1,157.693s3,.537,1.358,4.473a27.4,27.4,0,0,0-1.916,5.974s-3.034,1.505-2.816-3.659S246.1,157.693,246.1,157.693Z" transform="translate(-43 -153.229)" fill="#dce0ed"/>
          <path id="Path_133" data-name="Path 133" d="M356.122,470.9a1.5,1.5,0,1,0-1.448-1.5,1.5,1.5,0,0,0,1.448,1.5Z" transform="translate(-43 -153.229)" fill="#65617d"/>
        </g>
        <path id="Path_140" data-name="Path 140" d="M1112.29,517.5a89.33,89.33,0,0,1-178.332,7.666c-.13-1.451-.227-2.9-.271-4.375v-.076q-.065-1.608-.065-3.216a89.334,89.334,0,1,1,178.667,0Z" transform="translate(-43 -153.229)" fill="#65617d"/>
        <path id="Path_141" data-name="Path 141" d="M1112.29,517.5a89.33,89.33,0,0,1-178.332,7.666c-.13-1.451-.227-2.9-.271-4.375v-.076q-.065-1.608-.065-3.216a89.334,89.334,0,1,1,178.667,0Z" transform="translate(-43 -153.229)" fill="#002028" opacity="0.496"/>
        <circle id="Ellipse_35" data-name="Ellipse 35" cx="48.727" cy="48.727" r="48.727" transform="translate(931.226 315.546)" fill="#dce0ed"/>
        <circle id="Ellipse_36" data-name="Ellipse 36" cx="29.236" cy="29.236" r="29.236" transform="translate(950.717 335.037)" fill="#002028"/>
        <path id="Path_142" data-name="Path 142" d="M635.378,517.5a89.33,89.33,0,0,1-178.331,7.666c-.13-1.451-.227-2.9-.271-4.375v-.076q-.065-1.608-.065-3.216a89.334,89.334,0,1,1,178.667,0Z" transform="translate(-43 -153.229)" fill="#65617d"/>
        <path id="Path_143" data-name="Path 143" d="M635.378,517.5a89.33,89.33,0,0,1-178.331,7.666c-.13-1.451-.227-2.9-.271-4.375v-.076q-.065-1.608-.065-3.216a89.334,89.334,0,1,1,178.667,0Z" transform="translate(-43 -153.229)" fill="#002028" opacity="0.496"/>
        <circle id="Ellipse_37" data-name="Ellipse 37" cx="48.727" cy="48.727" r="48.727" transform="translate(454.314 315.546)" fill="#dce0ed"/>
        <circle id="Ellipse_38" data-name="Ellipse 38" cx="29.236" cy="29.236" r="29.236" transform="translate(473.805 335.037)" fill="#002028"/>
        <path id="Path_144" data-name="Path 144" d="M1140.153,500.764l-29.807-1.3-27.215-50.542-95.9-7.776-46.654,60.91,2.592,16.847-6.48,15.551-304.55,2.592v-7.776h-2.592l-2.592-11.664h23.327l-16.847-18.143L573.82,448.925s-102.38,2.592-103.676,0,5.832-29.159,5.832-29.159l44.063-12.96,150.331-11.664c33.047-52.486,62.854-77.109,62.854-77.109h386.195l18.143,93.309v.22Z" transform="translate(-43 -153.229)" fill="#053440"/>
        <path id="Path_145" data-name="Path 145" d="M925.024,507.243S963.9,434.67,993.71,434.67h72.573s18.143,0,25.919,14.256l29.807,58.318h-23.327s-19.439-54.43-41.471-55.726-59.614,0-59.614,0-12.96,0-20.735,15.551S942.8,516.5,942.8,516.5,914.656,525.387,925.024,507.243Z" transform="translate(-43 -153.229)" fill="#02242c"/>
        <path id="Path_146" data-name="Path 146" d="M1114,342.351h-48.748l-.5,38.878L1114,369.566Z" fill="#02242c"/>
        <path id="Path_147" data-name="Path 147" d="M452,472.253s2.592-19.439,20.735-27.215l119.228-6.48s19.439,1.3,29.807,25.919l33.695,50.542v7.776H617.882S599.739,454.109,547.9,456.7H485.695s-14.256,0-19.439,23.327Z" transform="translate(-43 -153.229)" fill="#02242c"/>
        <path id="Path_148" data-name="Path 148" d="M731.926,325.81h397.858a14.256,14.256,0,0,0-14.256-14.256H746.182A14.255,14.255,0,0,0,731.926,325.81Z" transform="translate(-43 -153.229)" fill="#02242c"/>
        <path id="Path_149" data-name="Path 149" d="M817.189,402.271h-110.1a7.443,7.443,0,0,1-6.8-10.467l17.421-39.2a34.212,34.212,0,0,1,31.263-20.317h66.891a9.368,9.368,0,0,1,9.368,9.368v52.568a8.046,8.046,0,0,1-8.046,8.046Z" transform="translate(-43 -153.229)" fill="#00beff" opacity="0.296"/>
        <rect id="Rectangle_6" data-name="Rectangle 6" width="107.564" height="69.982" rx="5.539" transform="translate(810.746 179.06)" fill="#00beff" opacity="0.3"/>
        <path id="Path_150" data-name="Path 150" d="M1094.561,258.113v.221L927.382,260.7l-4.354-95.9h153.389Z" fill="#02242c"/>
        <rect id="Rectangle_7" data-name="Rectangle 7" width="123.116" height="69.982" rx="5.539" transform="translate(941.638 179.06)" fill="#00beff" opacity="0.3"/>
        <rect id="Rectangle_8" data-name="Rectangle 8" width="41.471" height="7.776" rx="1.76" transform="translate(748.54 273.665)" fill="#02242c"/>
        <rect id="Rectangle_9" data-name="Rectangle 9" width="41.471" height="7.776" rx="1.76" transform="translate(867.768 273.665)" fill="#02242c"/>
        <path id="Path_152" data-name="Path 152" d="M413.615,571.34c-6.2,6.737-10.758,9.389-10.542,2.281.652-21.5-37.127-118.717-37.127-118.717l11.174-.847C401.5,496.109,410.566,539.322,413.615,571.34Z" transform="translate(-43 -153.229)" fill="none"/>
        <path id="Path_153" data-name="Path 153" d="M466.92,618.254a53.753,53.753,0,0,1-107.308,4.613c-.078-.873-.137-1.746-.163-2.632v-.046q-.039-.968-.039-1.935a53.755,53.755,0,1,1,107.51,0Z" transform="translate(-43 -153.229)" fill="#334052"/>
        <circle id="Ellipse_39" data-name="Ellipse 39" cx="29.321" cy="29.321" r="29.321" transform="translate(340.843 435.704)" fill="#dce0ed"/>
        <circle id="Ellipse_40" data-name="Ellipse 40" cx="17.593" cy="17.593" r="17.593" transform="translate(352.571 447.432)" fill="#002028"/>
        <path id="Path_154" data-name="Path 154" d="M272,516.171l-129.442,2.606V499.667c1.16-15.358,16.908-20.746,31.282-22.434a89.774,89.774,0,0,1,33.445,2.509c27.464,7.272,44.978,8.679,53.579,8.816a8.219,8.219,0,0,1,7.949,6.685c.41,2.183.814,4.561,1.192,6.907.287,1.837.56,3.649.808,5.336C271.519,512.379,272,516.171,272,516.171Z" transform="translate(-43 -153.229)" fill="#334052"/>
        <path id="Path_155" data-name="Path 155" d="M375.263,621.727h-268.9a10.586,10.586,0,0,1-9.806-6.34c-2.026-4.841.808-7.93,3.831-9.741a30.463,30.463,0,0,0,13.24-16.2c2.867-8.438,5.669-21.724,6.77-42.431,1.134-21.417,8.887-32.005,17.267-37.133h.007c10.823-6.62,22.688-4.138,22.688-4.138l109.028.873a20.958,20.958,0,0,1,5.323,3.473c9.715,9.044-4.45,20.85-4.45,20.85-30.409,32.142-7.389,64.721-7.389,64.721h55.788a51.338,51.338,0,0,0,29.223-8.946c7.539-5.206,10.458-10.249,11.585-13.3.86-2.333,1.733-4.659,2.776-6.913,14.634-31.738-3.017-83.369-10.634-102.675-1.89-4.8-3.16-7.6-3.16-7.6l17.495-1.323,11.064-.841.111-.007c24.382,42.053,33.445,85.265,36.495,117.284.287,3.017.521,5.942.71,8.751a39.1,39.1,0,0,1-39.062,41.636Z" transform="translate(-43 -153.229)" fill="#e34949"/>
        <path id="Path_156" data-name="Path 156" d="M270.809,507.486H142.553V502.15H270C270.288,503.987,270.562,505.8,270.809,507.486Z" transform="translate(-43 -153.229)" opacity="0.1"/>
        <path id="Path_157" data-name="Path 157" d="M274.712,510.092H138.7a2.572,2.572,0,0,1-1.029-.208c10.823-6.62,22.688-4.138,22.688-4.138l109.028.873a20.957,20.957,0,0,1,5.323,3.473Z" transform="translate(-43 -153.229)" opacity="0.1"/>
        <rect id="Rectangle_11" data-name="Rectangle 11" width="146.065" height="5.334" rx="2.667" transform="translate(89.448 350.226)" fill="#dce0ed"/>
        <path id="Path_158" data-name="Path 158" d="M413.615,571.34c-6.2,6.737-10.758,9.389-10.542,2.281.652-21.5-37.127-118.717-37.127-118.717l11.174-.847C401.5,496.109,410.566,539.322,413.615,571.34Z" transform="translate(-43 -153.229)" opacity="0.1"/>
        <path id="Path_159" data-name="Path 159" d="M466.595,612.364c-6.418,1.538-14.354,3.1-24.141,4.535q-5.454.8-11.7,1.538c-9.989,1.186-21.541,2.222-34.885,3.017q-5.669.342-11.774.619-11.435.518-24.48.795l-.163-2.632v-.046c12.152-4.906,31.269-18,34.351-52.093a53.783,53.783,0,0,1,72.794,44.268Z" transform="translate(-43 -153.229)" opacity="0.1"/>
        <path id="Path_160" data-name="Path 160" d="M349.318,621.727s61.7-6.684,40.463-100.712c0,0,30.491,27.948,49.455,43.484S492,601.45,492,601.45,471.814,620.315,349.318,621.727Z" transform="translate(-43 -153.229)" fill="#6c63ff"/>
        <path id="Path_161" data-name="Path 161" d="M349.318,621.727s61.7-6.684,40.463-100.712c0,0,30.491,27.948,49.455,43.484S492,601.45,492,601.45,471.814,620.315,349.318,621.727Z" transform="translate(-43 -153.229)" fill="#b75353" opacity="0.995"/>
        <circle id="Ellipse_41" data-name="Ellipse 41" cx="53.755" cy="53.755" r="53.755" transform="translate(87.714 411.27)" fill="#334052"/>
        <circle id="Ellipse_42" data-name="Ellipse 42" cx="29.321" cy="29.321" r="29.321" transform="translate(112.148 435.704)" fill="#dce0ed"/>
        <circle id="Ellipse_43" data-name="Ellipse 43" cx="17.593" cy="17.593" r="17.593" transform="translate(123.876 447.432)" fill="#002028"/>
        <path id="Path_162" data-name="Path 162" d="M244.74,602.111c0-34.714-27.568-62.856-61.574-62.856s-61.574,28.142-61.574,62.856c0,1.465.053,2.917.15,4.356H244.59C244.687,605.027,244.74,603.575,244.74,602.111Z" transform="translate(-43 -153.229)" opacity="0.1"/>
        <path id="Path_163" data-name="Path 163" d="M242.459,601.027c0-33.429-26.547-60.528-59.293-60.528s-59.293,27.1-59.293,60.528c0,1.411.051,2.809.144,4.2h118.3C242.408,603.836,242.459,602.438,242.459,601.027Z" transform="translate(-43 -153.229)" fill="#b75353"/>
        <path id="Path_165" data-name="Path 165" d="M242.388,603.919c-.02.437-.046.867-.072,1.3h-118.3c-.026-.437-.052-.867-.072-1.3Z" transform="translate(-43 -153.229)" opacity="0.1"/>
        <ellipse id="Ellipse_44" data-name="Ellipse 44" cx="7.803" cy="19.653" rx="7.803" ry="19.653" transform="matrix(0.911, -0.412, 0.412, 0.911, 336.714, 328.719)" opacity="0.1"/>
        <ellipse id="Ellipse_45" data-name="Ellipse 45" cx="7.803" cy="19.653" rx="7.803" ry="19.653" transform="matrix(0.911, -0.412, 0.412, 0.911, 337.366, 328.067)" fill="#dce0ed"/>
        <path id="Path_166" data-name="Path 166" d="M377.009,454.063v10.21H357.137a34.237,34.237,0,0,1-5.525-.443c-1.89-4.8-3.16-7.6-3.16-7.6l17.495-1.323Z" transform="translate(-43 -153.229)" opacity="0.1"/>
        <path id="Path_167" data-name="Path 167" d="M377.009,462.969H357.137c-17.453,0-31.6-13.058-31.6-29.166V431.1c0-16.108,14.148-29.166,31.6-29.166l19.873,1.8Z" transform="translate(-43 -153.229)" fill="#b75353"/>
        <path id="Path_168" data-name="Path 168" d="M344.268,419.2s11.891,6.353,5.05,17.1c0,0-8.389,13.765-21.583,12.461L322.929,419.2S338.729,417.732,344.268,419.2Z" transform="translate(-43 -153.229)" fill="#e34949"/>
        <path id="Path_169" data-name="Path 169" d="M339.7,418.623a12.641,12.641,0,0,1,9.655,5.095c2.118,2.932,3.38,7.208-.041,12.584,0,0-8.389,13.765-21.583,12.461L322.929,419.2a147.017,147.017,0,0,1,16.775-.574Z" transform="translate(-43 -153.229)" fill="#e34949" opacity="0.1"/>
        <path id="Path_170" data-name="Path 170" d="M333.358,250.506h0a15.964,15.964,0,0,1,15.964,15.964v27.307a15.964,15.964,0,0,1-15.964,15.964h0Z" opacity="0.1"/>
        <path id="Path_171" data-name="Path 171" d="M334.009,250.506h0a15.964,15.964,0,0,1,15.964,15.964v27.307a15.964,15.964,0,0,1-15.964,15.964h0Z" fill="#dce0ed"/>
        <ellipse id="Ellipse_46" data-name="Ellipse 46" cx="13.203" cy="16.062" rx="13.203" ry="16.062" transform="translate(265.35 265.282)" fill="#b65253"/>
      </g>
      <g id="undraw_File_searching_re_3evy" transform="translate(595.251 1630.242)">
        <path id="Path_195" data-name="Path 195" d="M711.816,490.77a6,6,0,0,1-8.247,2l-70-42.7a6,6,0,0,1,6.249-10.245l70,42.7a6,6,0,0,1,2,8.247Z" transform="translate(-310.999 -139.037)" fill="#5a5a5a"/>
        <path id="Path_196" data-name="Path 196" d="M641.811,448.07A48,48,0,1,1,625.828,382.1,48,48,0,0,1,641.811,448.07ZM570.1,404.328a36,36,0,1,0,49.48-11.987,36,36,0,0,0-49.48,11.987Z" transform="translate(-310.999 -139.037)" fill="#b1b1b1"/>
        <circle id="Ellipse_47" data-name="Ellipse 47" cx="24.561" cy="24.561" r="24.561" transform="translate(460.042 242.612)" fill="#a0616a"/>
        <path id="Path_197" data-name="Path 197" d="M794.015,543.9a11,11,0,0,1,8.323-14.151,10.473,10.473,0,0,1,1.459-.18l25.872-41.523L806.036,465.58a9.432,9.432,0,1,1,13.121-13.553L851.786,484.2l.066.08a8.545,8.545,0,0,1-.594,10.185l-36.25,42.873a10.326,10.326,0,0,1,.27,1.046A11,11,0,0,1,805.4,551.5q-.468.041-.932.041a11.037,11.037,0,0,1-10.455-7.641Z" transform="translate(-310.999 -139.037)" fill="#a0616a"/>
        <path id="Path_198" data-name="Path 198" d="M444.151,609h-12.26l-5.832-47.288h18.094Z" fill="#a0616a"/>
        <path id="Path_199" data-name="Path 199" d="M758.277,759.922H718.746v-.5a15.386,15.386,0,0,1,15.387-15.386h24.144Z" transform="translate(-310.999 -139.037)" fill="#2f2e41"/>
        <path id="Path_200" data-name="Path 200" d="M566.007,592.05l-10.534,6.272-29.205-37.646,15.547-9.257Z" fill="#a0616a"/>
        <path id="Path_201" data-name="Path 201" d="M885.772,739.7l-33.966,20.223-.256-.43A15.386,15.386,0,0,1,856.9,738.4h0l20.745-12.352Z" transform="translate(-310.999 -139.037)" fill="#2f2e41"/>
        <path id="Path_202" data-name="Path 202" d="M735.512,727.213c-8.213-96.706-13.1-186.545,16.924-223.193l.232-.284,50.526,20.211.083.181c.17.371,16.974,37.333,13.054,62.194l12.463,57.328L869.43,711.69a4.5,4.5,0,0,1-2.051,6.428l-17.659,7.77a4.521,4.521,0,0,1-5.648-1.766l-44.2-72.08L774.9,596.756a1.5,1.5,0,0,0-2.859.459l-13.84,130.1a4.492,4.492,0,0,1-4.475,4.024H740a4.53,4.53,0,0,1-4.486-4.123Z" transform="translate(-310.999 -139.037)" fill="#002028"/>
        <path id="Path_203" data-name="Path 203" d="M752.606,504.786l-.241-.115-.038-.265c-1.887-13.21.347-27.888,6.64-43.625a34.636,34.636,0,0,1,40.2-20.743h0A34.594,34.594,0,0,1,821.23,457a34.221,34.221,0,0,1,2.373,27.425c-7.934,23.2-18.226,44.907-18.329,45.124l-.216.453Z" transform="translate(-310.999 -139.037)" fill="#f7af2b"/>
        <path id="Path_204" data-name="Path 204" d="M697.48,471.883a11,11,0,0,1,16.17,2.84,10.47,10.47,0,0,1,.679,1.3l47.954,9.692,12.768-30a9.432,9.432,0,1,1,17.29,7.544l-18.71,41.83-.052.09a8.545,8.545,0,0,1-9.748,3.01l-52.853-18.941a10.313,10.313,0,0,1-.885.619,11,11,0,0,1-15.744-4.656q-.2-.424-.365-.859a11.037,11.037,0,0,1,3.5-12.469Z" transform="translate(-310.999 -139.037)" fill="#a0616a"/>
        <path id="Path_205" data-name="Path 205" d="M884.331,432.512c-2.366-4.192-5.812-8.031-10.369-9.581-5.885-2-12.257.13-18.307,1.552-4.662,1.1-9.532,1.767-14.23.842s-9.23-3.659-11.368-7.944c-3.145-6.3-.5-13.821-.687-20.863a25.334,25.334,0,0,0-31.923-23.811c-5.793-1.672-11.039-1.827-14.622,2.627a17,17,0,0,0-17,17h16.255a16.15,16.15,0,0,0,2.454,11.931c2.87,4.216,7.859,7.266,8.82,12.274.931,4.854-2.368,9.459-5.829,12.987s-7.475,7.024-8.556,11.846a14.689,14.689,0,0,0,2.1,10.565,34.4,34.4,0,0,0,7.386,8.136,108.4,108.4,0,0,0,45.038,23.04c11.7,2.818,24.506,3.548,35.371-1.635a35.126,35.126,0,0,0,15.465-48.967Z" transform="translate(-310.999 -139.037)" fill="#2f2e41"/>
      </g>
    </g>
  </g>
</svg>
