<svg xmlns="http://www.w3.org/2000/svg" width="3370.114" height="1862.961" viewBox="0 0 3370.114 1862.961">
  <g id="Group_25" data-name="Group 25" transform="translate(-1174.093 -169.646)">
    <g id="Group_18" data-name="Group 18" transform="translate(-11 557)">
      <g id="Group_17" data-name="Group 17" transform="translate(1542.284 128.599)">
        <g id="undraw_social_networking_nqk4" transform="translate(314.137 -496.344)">
          <path id="Path_121" data-name="Path 121" d="M2298.9,955.514c-84.1,105.33-56.348,255.678-7.731,375.457,16.281,40.1,34.778,82.506,26.336,126.132-10.31,53.331-58.777,93.29-109.152,115.054-91.836,39.666-200.322,33.332-282.469-16.646-70.889-43.136-120.792-114.819-193.057-155.9-120.944-68.723-277.959-38.018-412.567,14.451-95.23,37.116-199.547,84.918-292.35,50.644-65.3-24.117-109.281-85.507-132.416-151.131-11.171-31.685-18.99-66.075-41.246-90.879-13.233-14.745-30.72-25.019-48.7-33.607-164.1-78.428-375.187-29.41-534.283-116.917C163.855,1013.08,97,898.4,69.226,777.835S48.324,530,59.387,404.908c7.862-88.9,20.3-183.895,78.861-253.755C200.181,77.274,303.982,47.9,396.807,59.49s176.025,58.7,248.849,114.78c91.02,70.1,174.822,158.072,288.1,184.66,77.144,18.117,159.1,5.294,239.292-.373,134.048-9.451,267.625,1.431,400.384,13.725,127.09,11.764,255.056,24.9,375.42,63.468,85.174,27.293,152.7,78.879,232.889,114.133,52.268,22.979,109.777,28.313,158.967,58,60.708,36.567,115.573,101.349,97.766,179.091C2421.651,860.851,2343.541,899.614,2298.9,955.514Z" transform="translate(256.908 -76.651)" fill="#00beff" opacity="0.118"/>
          <path id="Path_177" data-name="Path 177" d="M38.147,25.69h0Z" transform="translate(790.844 773.59)" fill="#b96b6b"/>
        </g>
        <g id="undraw_Data_points_re_vkpq" transform="translate(1 94)">
          <g id="Group_11" data-name="Group 11" transform="translate(83.765 962.227)">
            <path id="Path_67" data-name="Path 67" d="M464.524,891.025c18.186-15.817,29.232-40.8,26.335-65.126s-20.839-46.684-44.114-51.849-49.805,9.133-56.874,32.533c-3.891-45.115-8.374-92.121-31.678-130.541-21.1-34.788-57.65-59.681-97.26-64.134s-81.314,12.366-106.018,44.545-30.752,78.959-13.45,115.9c12.745,27.215,36.227,47.469,60.83,63.946,79.5,52.8,174.852,74.266,268.509,60.459Z" transform="translate(-131.597 -611.202)" fill="#f2f2f2"/>
            <path id="Path_68" data-name="Path 68" d="M165.809,618.412A651.886,651.886,0,0,1,255.325,709.9,672.043,672.043,0,0,1,325.92,817.438a676.812,676.812,0,0,1,30.23,65.882c1.815,4.579-5.409,6.572-7.2,2.044a663.037,663.037,0,0,0-58.259-113.453,657.166,657.166,0,0,0-78.134-99.347,647.139,647.139,0,0,0-52.027-48.714C156.8,620.723,162.11,615.312,165.809,618.412Z" transform="translate(-103.32 -604.407)" fill="#fff"/>
          </g>
          <g id="Plant" transform="translate(263.133 675.897)">
            <path id="Path_123" data-name="Path 123" d="M220.217,734.919s-4.369-133.206-74.387-208.475c-29.39-31.585-48.691-71.7-53.8-115.111a349.515,349.515,0,0,1-1.642-62.093" transform="translate(-19.421 -264.25)" fill="none" stroke="#535461" stroke-miterlimit="10" stroke-width="2"/>
            <path id="Path_124" data-name="Path 124" d="M57.435,324.193c4.792,14.879,44.852,49.053,44.852,49.053s12.272-52.064,7.48-66.93-20.393-22.933-34.844-18-22.281,20.989-17.488,35.863Z" transform="translate(-30.327 -286.866)" fill="#239608"/>
            <path id="Path_125" data-name="Path 125" d="M47.014,398.988c11.915,9.811,63.545,16.106,63.545,16.106s-17.21-50.565-29.125-60.362a27.041,27.041,0,0,0-38.756,4.381A28.943,28.943,0,0,0,46.935,399Z" transform="translate(-36.614 -264.522)" fill="#239608"/>
            <path id="Path_126" data-name="Path 126" d="M85.929,503.421c15.065,2.289,62.764-19.076,62.764-19.076s-39.649-34.759-54.7-37.062-29.076,8.418-31.3,23.92S70.867,501.129,85.929,503.421Z" transform="translate(-28.267 -228.813)" fill="#239608"/>
            <path id="Path_127" data-name="Path 127" d="M129.344,574.867c14.47,4.878,65-7.93,65-7.93s-33.374-41.109-47.844-45.987-30.045,3.213-34.8,18.1,3.122,30.924,17.587,35.815Z" transform="translate(-12.745 -202.508)" fill="#239608"/>
            <path id="Path_128" data-name="Path 128" d="M147.663,396.755c-7.03,13.9-51.855,41.123-51.855,41.123s-4.077-53.4,2.952-67.312a27.185,27.185,0,0,1,37.174-12.072c13.5,7.232,18.756,24.362,11.729,38.261Z" transform="translate(-17.825 -262.058)" fill="#239608"/>
            <path id="Path_129" data-name="Path 129" d="M200.727,483.161C189.977,494.266,139.3,506.42,139.3,506.42s11.637-52.214,22.373-63.319a27.013,27.013,0,0,1,38.981-.075,28.961,28.961,0,0,1,.073,40.121Z" transform="translate(-3.359 -233.244)" fill="#239608"/>
            <path id="Path_130" data-name="Path 130" d="M237.877,571.37c-8.764,12.808-56.727,33.615-56.727,33.615s2.886-53.481,11.663-66.3a27.307,27.307,0,0,1,25.234-12.692,27.611,27.611,0,0,1,22.946,16.671,29.057,29.057,0,0,1-3.169,28.723Z" transform="translate(10.194 -200.196)" fill="#239608"/>
            <path id="Path_131" data-name="Path 131" d="M176.67,647.969s39.716-59.463,32.752-115.411a112.052,112.052,0,0,1,12.55-67.938A184.157,184.157,0,0,1,240.652,437" transform="translate(8.743 -232.43)" fill="none" stroke="#535461" stroke-miterlimit="10" stroke-width="2"/>
            <path id="Path_132" data-name="Path 132" d="M221.981,413.956c-2.555,8.067,4.2,36.217,4.2,36.217s21.619-18.613,24.174-26.666a15.459,15.459,0,0,0-9.552-19.369,14.837,14.837,0,0,0-18.819,9.831Z" transform="translate(23.231 -244.621)" fill="#6c63ff"/>
            <path id="Path_133" data-name="Path 133" d="M193.532,443.255c2.1,8.175,22.651,28.056,22.651,28.056s8.314-27.715,6.209-35.918a14.891,14.891,0,0,0-18.249-10.921,15.412,15.412,0,0,0-10.611,18.783Z" transform="translate(14.042 -237.159)" fill="#6c63ff"/>
            <path id="Path_134" data-name="Path 134" d="M176.948,501.373c5.838,5.982,33.308,12.454,33.308,12.454S203.849,485.58,198,479.6a14.633,14.633,0,0,0-21.115.068,15.688,15.688,0,0,0,.066,21.733Z" transform="translate(7.407 -218.604)" fill="#6c63ff"/>
            <path id="Path_135" data-name="Path 135" d="M172.865,546.456c4.779,6.908,30.793,18.068,30.793,18.068s-1.681-28.955-6.46-35.863a14.655,14.655,0,0,0-20.811-3.625,15.651,15.651,0,0,0-3.521,21.42Z" transform="translate(6.618 -201.539)" fill="#6c63ff"/>
            <path id="Path_136" data-name="Path 136" d="M241.306,474.968c-7.4,3.734-35.426.736-35.426.736s14.907-24.608,22.32-28.287a14.733,14.733,0,0,1,19.964,7.045,15.566,15.566,0,0,1-6.844,20.548Z" transform="translate(18.203 -229.221)" fill="#6c63ff"/>
            <path id="Path_137" data-name="Path 137" d="M235.97,528.564c-8.155,1.267-33.97-10.151-33.97-10.151s21.38-18.885,29.535-20.166a14.991,14.991,0,0,1,17,12.876,15.3,15.3,0,0,1-12.51,17.5Z" transform="translate(16.947 -210.286)" fill="#6c63ff"/>
            <path id="Path_138" data-name="Path 138" d="M224.324,579.474c-7.824,2.725-35.214-4.088-35.214-4.088s17.978-22.333,25.8-25.017a14.836,14.836,0,0,1,18.872,9.736,15.468,15.468,0,0,1-9.459,19.424Z" transform="translate(12.772 -191.609)" fill="#6c63ff"/>
            <path id="Path_139" data-name="Path 139" d="M221.981,413.956c-2.555,8.067,4.2,36.217,4.2,36.217s21.619-18.613,24.174-26.666a15.459,15.459,0,0,0-9.552-19.369,14.837,14.837,0,0,0-18.819,9.831Z" transform="translate(23.231 -244.621)" fill="#a9d59f"/>
            <path id="Path_140" data-name="Path 140" d="M193.532,443.255c2.1,8.175,22.651,28.056,22.651,28.056s8.314-27.715,6.209-35.918a14.891,14.891,0,0,0-18.249-10.921,15.412,15.412,0,0,0-10.611,18.783Z" transform="translate(14.042 -237.159)" fill="#a9d59f"/>
            <path id="Path_141" data-name="Path 141" d="M176.948,501.373c5.838,5.982,33.308,12.454,33.308,12.454S203.849,485.58,198,479.6a14.633,14.633,0,0,0-21.115.068,15.688,15.688,0,0,0,.066,21.733Z" transform="translate(7.407 -218.604)" fill="#a9d59f"/>
            <path id="Path_142" data-name="Path 142" d="M172.865,546.456c4.779,6.908,30.793,18.068,30.793,18.068s-1.681-28.955-6.46-35.863a14.655,14.655,0,0,0-20.811-3.625,15.651,15.651,0,0,0-3.521,21.42Z" transform="translate(6.618 -201.539)" fill="#a9d59f"/>
            <path id="Path_143" data-name="Path 143" d="M241.306,474.968c-7.4,3.734-35.426.736-35.426.736s14.907-24.608,22.32-28.287a14.733,14.733,0,0,1,19.964,7.045,15.566,15.566,0,0,1-6.844,20.548Z" transform="translate(18.203 -229.221)" fill="#a9d59f"/>
            <path id="Path_144" data-name="Path 144" d="M235.97,528.564c-8.155,1.267-33.97-10.151-33.97-10.151s21.38-18.885,29.535-20.166a14.991,14.991,0,0,1,17,12.876,15.3,15.3,0,0,1-12.51,17.5Z" transform="translate(16.947 -210.286)" fill="#a9d59f"/>
            <path id="Path_145" data-name="Path 145" d="M224.324,579.474c-7.824,2.725-35.214-4.088-35.214-4.088s17.978-22.333,25.8-25.017a14.836,14.836,0,0,1,18.872,9.736,15.468,15.468,0,0,1-9.459,19.424Z" transform="translate(12.772 -191.609)" fill="#a9d59f"/>
            <path id="Path_146" data-name="Path 146" d="M230.042,700.293H117.078L88.84,522.98H258.293Z" transform="translate(28.858 -123.519)" fill="#053440"/>
            <path id="Path_147" data-name="Path 147" d="M230.207,522.98,203.823,688.67H108.77l1.853,11.623H223.588L251.839,522.98Z" transform="translate(35.313 -123.519)" opacity="0.1"/>
          </g>
          <g id="Group_15" data-name="Group 15" transform="translate(2741.577 1100.277)">
            <ellipse id="Ellipse_34" data-name="Ellipse 34" cx="72.592" cy="74.716" rx="72.592" ry="74.716" fill="#002028"/>
            <path id="car-solid" d="M75.678,80.084H66.617L64.1,74.11A16.884,16.884,0,0,0,48.36,64H29.139A16.889,16.889,0,0,0,13.4,74.11l-2.519,5.974H1.821A1.746,1.746,0,0,0,.059,82.225l.908,3.447a1.8,1.8,0,0,0,1.762,1.305H5.767a8.942,8.942,0,0,0-3.342,6.893v6.893a8.857,8.857,0,0,0,2.422,6.022v7.765a4.725,4.725,0,0,0,4.843,4.6h4.843a4.725,4.725,0,0,0,4.843-4.6v-4.6H58.123v4.6a4.725,4.725,0,0,0,4.843,4.6h4.843a4.725,4.725,0,0,0,4.843-4.6v-7.765a8.852,8.852,0,0,0,2.422-6.022V93.871a8.945,8.945,0,0,0-3.34-6.893h3.038a1.8,1.8,0,0,0,1.762-1.305l.908-3.447a1.747,1.747,0,0,0-1.763-2.141ZM22.393,77.524a7.274,7.274,0,0,1,6.746-4.333H48.36a7.274,7.274,0,0,1,6.746,4.333l3.016,7.156H19.376Zm-7.86,23.212c-2.906,0-4.843-1.832-4.843-4.581s1.937-4.581,4.843-4.581S21.8,95.7,21.8,98.445,17.439,100.735,14.533,100.735Zm48.433,0c-2.906,0-7.265.458-7.265-2.29s4.359-6.872,7.265-6.872,4.843,1.832,4.843,4.581S65.872,100.735,62.966,100.735Z" transform="translate(34.149 -17.163)" fill="#fff"/>
          </g>
          <g id="Group_22" data-name="Group 22" transform="translate(-632.021 -495.954)">
            <g id="Group_21" data-name="Group 21" transform="translate(1476.67 5.421)">
              <path id="Path_178" data-name="Path 178" d="M0,0H1702.118V1101.838H0Z" transform="translate(3.075 99.279)" fill="#fff"/>
              <g id="undraw_nakamoto_2iv6" transform="translate(184.083 185.288)">
                <rect id="Rectangle_9" data-name="Rectangle 9" width="3.434" height="189.11" transform="translate(165.204 230.804)" fill="#3f3d56" stroke="#3f3d56" stroke-width="4"/>
                <rect id="Rectangle_10" data-name="Rectangle 10" width="3.434" height="166.398" transform="translate(165.204 476.207)" fill="#3f3d56" stroke="#3f3d56" stroke-width="4"/>
                <rect id="Rectangle_11" data-name="Rectangle 11" width="266.158" height="3.535" transform="translate(160.052 669.116)" fill="#3f3d56" stroke="#3f3d56" stroke-width="4"/>
                <rect id="Rectangle_12" data-name="Rectangle 12" width="3.434" height="150.228" transform="translate(46.72 716.835)" fill="#3f3d56" stroke="#3f3d56" stroke-width="4"/>
                <rect id="Rectangle_13" data-name="Rectangle 13" width="403.53" height="3.535" transform="translate(77.629 893.573)" fill="#3f3d56" stroke="#3f3d56" stroke-width="4"/>
                <path id="Path_112" data-name="Path 112" d="M623.247,551.052" transform="translate(-114.614 316.011)" fill="none" stroke="#3f3d56" stroke-miterlimit="10" stroke-width="2"/>
                <path id="Path_113" data-name="Path 113" d="M623.247,469.052" transform="translate(-114.614 253.085)" fill="none" stroke="#3f3d56" stroke-miterlimit="10" stroke-width="2"/>
                <rect id="Rectangle_14" data-name="Rectangle 14" width="3.434" height="178.506" transform="translate(814.285 110.622)" fill="#3f3d56" stroke="#3f3d56" stroke-width="4"/>
                <rect id="Rectangle_15" data-name="Rectangle 15" width="252.479" height="3.535" transform="translate(536.049 317.406)" fill="#3f3d56" stroke="#3f3d56" stroke-width="4"/>
                <rect id="Rectangle_16" data-name="Rectangle 16" width="3.434" height="238.597" transform="translate(506.916 345.684)" fill="#3f3d56" stroke="#3f3d56" stroke-width="4"/>
                <path id="Path_114" data-name="Path 114" d="M436.439,357.143c-16.122,0-29.192-13.452-29.192-30.046s13.07-30.046,29.192-30.046S465.63,310.5,465.63,327.1c-.018,16.586-13.077,30.027-29.192,30.046Zm0-56.556c-14.225,0-25.757,11.869-25.757,26.511s11.532,26.511,25.757,26.511S462.2,341.739,462.2,327.1C462.18,312.463,450.658,300.6,436.439,300.587Z" transform="translate(-269.518 121.095)" fill="#3f3d56" stroke="#3f3d56" stroke-width="4"/>
                <path id="Path_115" data-name="Path 115" d="M368.439,610.143c-16.122,0-29.192-13.452-29.192-30.046s13.07-30.045,29.192-30.045S397.63,563.5,397.63,580.1C397.612,596.684,384.553,610.125,368.439,610.143Zm0-56.556c-14.225,0-25.757,11.869-25.757,26.511s11.532,26.511,25.757,26.511S394.2,594.739,394.2,580.1C394.18,565.463,382.658,553.6,368.439,553.587Z" transform="translate(-318.284 315.243)" fill="#3f3d56" stroke="#3f3d56" stroke-width="4"/>
                <ellipse id="Ellipse_28" data-name="Ellipse 28" cx="27.474" cy="28.278" rx="27.474" ry="28.278" transform="translate(141.163 642.605)" fill="#00beff"/>
                <rect id="Rectangle_17" data-name="Rectangle 17" width="285.046" height="3.535" transform="translate(877.82 446.425)" fill="#3f3d56" stroke="#3f3d56" stroke-width="4"/>
                <rect id="Rectangle_18" data-name="Rectangle 18" width="3.434" height="166.398" transform="translate(848.628 476.207)" fill="#3f3d56" stroke="#3f3d56" stroke-width="4"/>
                <rect id="Rectangle_19" data-name="Rectangle 19" width="228.381" height="3.535" transform="translate(592.773 669.116)" fill="#3f3d56" stroke="#3f3d56" stroke-width="4"/>
                <rect id="Rectangle_20" data-name="Rectangle 20" width="236.966" height="3.535" transform="translate(994.586 685.022)" fill="#3f3d56" stroke="#3f3d56" stroke-width="4"/>
                <rect id="Rectangle_21" data-name="Rectangle 21" width="3.434" height="150.228" transform="translate(967.111 716.835)" fill="#3f3d56" stroke="#3f3d56" stroke-width="4"/>
                <rect id="Rectangle_22" data-name="Rectangle 22" width="403.53" height="3.535" transform="translate(536.107 893.573)" fill="#3f3d56" stroke="#3f3d56" stroke-width="4"/>
                <rect id="Rectangle_23" data-name="Rectangle 23" width="3.434" height="109.578" transform="translate(506.916 757.485)" fill="#3f3d56" stroke="#3f3d56" stroke-width="4"/>
                <ellipse id="Ellipse_29" data-name="Ellipse 29" cx="27.474" cy="28.278" rx="27.474" ry="28.278" transform="translate(822.87 419.915)" fill="#00beff"/>
                <path id="Path_116" data-name="Path 116" d="M814.439,283.143c-16.122,0-29.192-13.452-29.192-30.046s13.069-30.045,29.192-30.045S843.63,236.5,843.63,253.1C843.612,269.684,830.553,283.125,814.439,283.143Zm0-56.556c-14.225,0-25.757,11.869-25.757,26.511s11.532,26.511,25.757,26.511S840.2,267.739,840.2,253.1C840.18,238.463,828.657,226.6,814.439,226.587Z" transform="translate(1.564 64.308)" fill="#3f3d56" stroke="#3f3d56" stroke-width="4"/>
                <path id="Path_117" data-name="Path 117" d="M635.439,283.143c-16.122,0-29.191-13.452-29.191-30.046s13.07-30.045,29.191-30.045S664.63,236.5,664.63,253.1C664.612,269.684,651.553,283.125,635.439,283.143Zm0-56.556c-14.225,0-25.757,11.869-25.757,26.511s11.532,26.511,25.757,26.511S661.2,267.739,661.2,253.1C661.18,238.463,649.658,226.6,635.439,226.587Z" transform="translate(-126.806 64.308)" fill="#3f3d56" stroke="#3f3d56" stroke-width="4"/>
                <path id="Path_118" data-name="Path 118" d="M902.439,493.143c-16.122,0-29.191-13.452-29.191-30.046s13.069-30.045,29.191-30.045S931.63,446.5,931.63,463.1C931.612,479.684,918.553,493.125,902.439,493.143Zm0-56.556c-14.225,0-25.757,11.869-25.757,26.511s11.532,26.511,25.757,26.511S928.2,477.739,928.2,463.1C928.18,448.463,916.658,436.6,902.439,436.587Z" transform="translate(64.673 225.459)" fill="#3f3d56" stroke="#3f3d56" stroke-width="4"/>
                <ellipse id="Ellipse_30" data-name="Ellipse 30" cx="27.474" cy="28.278" rx="27.474" ry="28.278" transform="translate(939.637 867.063)" fill="#00beff"/>
                <path id="Path_119" data-name="Path 119" d="M635.439,610.143c-16.122,0-29.191-13.452-29.191-30.046s13.07-30.045,29.191-30.045S664.63,563.5,664.63,580.1C664.612,596.684,651.553,610.125,635.439,610.143Zm0-56.556c-14.225,0-25.757,11.869-25.757,26.511s11.532,26.511,25.757,26.511S661.2,594.739,661.2,580.1C661.18,565.463,649.658,553.6,635.439,553.587Z" transform="translate(-126.806 315.243)" fill="#3f3d56" stroke="#3f3d56" stroke-width="4"/>
                <path id="Path_120" data-name="Path 120" d="M833.439,483.143c-16.122,0-29.191-13.452-29.191-30.045s13.069-30.046,29.191-30.046S862.63,436.5,862.63,453.1C862.612,469.684,849.553,483.125,833.439,483.143Zm0-56.557c-14.225,0-25.757,11.869-25.757,26.511s11.531,26.511,25.757,26.511S859.2,467.739,859.2,453.1C859.18,438.463,847.657,426.6,833.439,426.587Z" transform="translate(15.189 217.785)" fill="#3f3d56" stroke="#3f3d56" stroke-width="4"/>
                <ellipse id="Ellipse_31" data-name="Ellipse 31" cx="66.969" cy="68.928" rx="66.969" ry="68.928" transform="translate(443.38 603.723)" fill="#00beff"/>
                <g id="Group_4" data-name="Group 4" transform="translate(480.376 642.979)">
                  <rect id="Rectangle_5" data-name="Rectangle 5" width="63.9" height="17.731" fill="#fff"/>
                  <rect id="Rectangle_6" data-name="Rectangle 6" width="44.081" height="17.731" transform="translate(0 23.644)" fill="#fff"/>
                  <rect id="Rectangle_7" data-name="Rectangle 7" width="22.284" height="17.731" transform="translate(0 47.288)" fill="#fff"/>
                </g>
                <g id="Group_9" data-name="Group 9" transform="translate(117.133 119.164)">
                  <ellipse id="Ellipse_32" data-name="Ellipse 32" cx="49.082" cy="50.518" rx="49.082" ry="50.518" transform="translate(0 0)" fill="#002028"/>
                  <path id="car-solid-2" data-name="car-solid" d="M55.6,75.816H48.941l-1.85-4.389A12.4,12.4,0,0,0,35.529,64H21.408A12.407,12.407,0,0,0,9.845,71.427l-1.85,4.389H1.339A1.282,1.282,0,0,0,.044,77.389l.667,2.532a1.322,1.322,0,0,0,1.294.959H4.237a6.569,6.569,0,0,0-2.455,5.064v5.064a6.507,6.507,0,0,0,1.779,4.424v5.7a3.471,3.471,0,0,0,3.558,3.376h3.558a3.471,3.471,0,0,0,3.558-3.376V97.761H42.7v3.376a3.471,3.471,0,0,0,3.558,3.376h3.558a3.471,3.471,0,0,0,3.558-3.376v-5.7a6.5,6.5,0,0,0,1.779-4.424V85.945A6.571,6.571,0,0,0,52.7,80.881h2.232a1.322,1.322,0,0,0,1.294-.959l.667-2.532a1.284,1.284,0,0,0-1.3-1.573ZM16.452,73.935a5.344,5.344,0,0,1,4.956-3.183H35.529a5.344,5.344,0,0,1,4.956,3.183L42.7,79.192H14.236ZM10.678,90.988a3.371,3.371,0,1,1,0-6.731c2.135,0,5.337,3.029,5.337,5.048S12.813,90.988,10.678,90.988Zm35.581,0c-2.135,0-5.337.337-5.337-1.683s3.2-5.048,5.337-5.048a3.371,3.371,0,1,1,0,6.731Z" transform="translate(20.974 -36.215)" fill="#fff"/>
                </g>
                <g id="Group_6" data-name="Group 6" transform="translate(1242.569 636.283)">
                  <ellipse id="Ellipse_32-2" data-name="Ellipse 32" cx="49.071" cy="50.507" rx="49.071" ry="50.507" transform="translate(0)" fill="#002028"/>
                  <path id="car-solid-3" data-name="car-solid" d="M55.586,75.814H48.93l-1.85-4.388A12.4,12.4,0,0,0,35.521,64H21.4a12.4,12.4,0,0,0-11.56,7.426l-1.85,4.388H1.338A1.282,1.282,0,0,0,.044,77.386l.667,2.532a1.322,1.322,0,0,0,1.294.959H4.237A6.568,6.568,0,0,0,1.782,85.94V91a6.506,6.506,0,0,0,1.779,4.423v5.7A3.47,3.47,0,0,0,7.118,104.5h3.557a3.47,3.47,0,0,0,3.557-3.375V97.754H42.692v3.375a3.47,3.47,0,0,0,3.557,3.375h3.557a3.47,3.47,0,0,0,3.557-3.375v-5.7A6.5,6.5,0,0,0,55.142,91V85.94a6.57,6.57,0,0,0-2.453-5.063H54.92a1.322,1.322,0,0,0,1.294-.959l.667-2.532a1.283,1.283,0,0,0-1.3-1.573ZM16.448,73.933A5.342,5.342,0,0,1,21.4,70.751H35.521a5.342,5.342,0,0,1,4.955,3.182l2.216,5.256H14.233ZM10.675,90.982a3.37,3.37,0,1,1,0-6.73c2.134,0,5.336,3.028,5.336,5.047S12.81,90.982,10.675,90.982Zm35.574,0c-2.134,0-5.336.337-5.336-1.682s3.2-5.047,5.336-5.047a3.37,3.37,0,1,1,0,6.73Z" transform="translate(20.97 -36.221)" fill="#fff"/>
                </g>
                <g id="Group_7" data-name="Group 7" transform="translate(1173.338 397.125)">
                  <ellipse id="Ellipse_32-3" data-name="Ellipse 32" cx="49.064" cy="50.499" rx="49.064" ry="50.499" transform="translate(0)" fill="#002028"/>
                  <path id="car-solid-4" data-name="car-solid" d="M55.124,75.945h-6.6L46.69,71.508A12.289,12.289,0,0,0,35.226,64h-14A12.293,12.293,0,0,0,9.761,71.508L7.927,75.945h-6.6a1.29,1.29,0,0,0-1.283,1.59l.661,2.56a1.315,1.315,0,0,0,1.283.969H4.2a6.689,6.689,0,0,0-2.434,5.119V91.3a6.647,6.647,0,0,0,1.764,4.472v5.767a3.472,3.472,0,0,0,3.528,3.413h3.528a3.472,3.472,0,0,0,3.528-3.413V98.128H42.337v3.413a3.472,3.472,0,0,0,3.528,3.413h3.528a3.472,3.472,0,0,0,3.528-3.413V95.775A6.643,6.643,0,0,0,54.685,91.3V86.184a6.692,6.692,0,0,0-2.433-5.119h2.213a1.315,1.315,0,0,0,1.283-.969l.661-2.56a1.291,1.291,0,0,0-1.284-1.59Zm-38.813-1.9a5.294,5.294,0,0,1,4.914-3.218h14a5.294,5.294,0,0,1,4.914,3.218l2.2,5.314H14.115ZM10.587,91.281a3.4,3.4,0,1,1,0-6.8c2.117,0,5.292,3.062,5.292,5.1S12.7,91.281,10.587,91.281Zm35.278,0c-2.117,0-5.292.34-5.292-1.7s3.175-5.1,5.292-5.1a3.4,3.4,0,1,1,0,6.8Z" transform="translate(21.203 -36.435)" fill="#fff"/>
                </g>
                <g id="Group_10" data-name="Group 10" transform="translate(0 606.902)">
                  <ellipse id="Ellipse_32-4" data-name="Ellipse 32" cx="49.064" cy="50.499" rx="49.064" ry="50.499" transform="translate(0)" fill="#002028"/>
                  <path id="car-solid-5" data-name="car-solid" d="M54.272,76.2h-6.5l-1.806-4.53A12.1,12.1,0,0,0,34.681,64H20.9A12.1,12.1,0,0,0,9.61,71.666L7.8,76.2h-6.5A1.305,1.305,0,0,0,.043,77.819l.651,2.613a1.3,1.3,0,0,0,1.263.99H4.136a6.929,6.929,0,0,0-2.4,5.227v5.226A6.925,6.925,0,0,0,3.476,96.44v5.887a3.479,3.479,0,0,0,3.473,3.484h3.473a3.479,3.479,0,0,0,3.473-3.484V98.843H41.682v3.484a3.479,3.479,0,0,0,3.473,3.484h3.473a3.479,3.479,0,0,0,3.473-3.484V96.44a6.92,6.92,0,0,0,1.737-4.566V86.648a6.932,6.932,0,0,0-2.4-5.227h2.178a1.3,1.3,0,0,0,1.263-.99l.651-2.613A1.306,1.306,0,0,0,54.272,76.2ZM16.059,74.254A5.21,5.21,0,0,1,20.9,70.969H34.681a5.21,5.21,0,0,1,4.838,3.285l2.163,5.426H13.9Zm-5.636,17.6a3.473,3.473,0,0,1,0-6.947c2.084,0,5.21,3.126,5.21,5.21S12.507,91.853,10.423,91.853Zm34.732,0c-2.084,0-5.21.347-5.21-1.737s3.126-5.21,5.21-5.21a3.473,3.473,0,0,1,0,6.947Z" transform="translate(21.647 -36.829)" fill="#fff"/>
                </g>
                <g id="Group_8" data-name="Group 8" transform="translate(768.613 0)">
                  <ellipse id="Ellipse_32-5" data-name="Ellipse 32" cx="49.064" cy="50.499" rx="49.064" ry="50.499" transform="translate(0 0)" fill="#002028"/>
                  <path id="car-solid-6" data-name="car-solid" d="M58.077,75.078H51.123l-1.933-4.115C47.2,66.733,42.464,64,37.113,64H22.362c-5.35,0-10.091,2.733-12.078,6.964L8.351,75.078H1.4A1.245,1.245,0,0,0,.046,76.553l.7,2.374a1.37,1.37,0,0,0,1.352.9H4.426a5.951,5.951,0,0,0-2.565,4.748v4.748A5.787,5.787,0,0,0,3.72,93.47v5.348a3.475,3.475,0,0,0,3.717,3.165h3.717a3.475,3.475,0,0,0,3.717-3.165V95.653H44.6v3.165a3.475,3.475,0,0,0,3.717,3.165h3.717a3.475,3.475,0,0,0,3.717-3.165V93.47a5.783,5.783,0,0,0,1.858-4.148V84.574a5.953,5.953,0,0,0-2.563-4.748h2.331a1.37,1.37,0,0,0,1.352-.9l.7-2.374a1.246,1.246,0,0,0-1.353-1.475ZM17.185,73.315a5.645,5.645,0,0,1,5.177-2.984H37.113a5.645,5.645,0,0,1,5.177,2.984L44.6,78.244H14.87ZM11.154,89.3c-2.23,0-3.717-1.262-3.717-3.155s1.487-3.155,3.717-3.155,5.575,2.84,5.575,4.733S13.384,89.3,11.154,89.3Zm37.168,0c-2.23,0-5.575.316-5.575-1.578s3.345-4.733,5.575-4.733,3.717,1.262,3.717,3.155S50.552,89.3,48.322,89.3Z" transform="translate(19.664 -35.071)" fill="#fff"/>
                </g>
              </g>
              <rect id="Rectangle_8" data-name="Rectangle 8" width="1708.114" height="7.046" transform="translate(0 93.37)" fill="#3f3d56"/>
              <path id="Path_179" data-name="Path 179" d="M0,0H1702.118V93.37H0Z" transform="translate(3.075)" fill="#f2f2f2"/>
              <ellipse id="Ellipse_23" data-name="Ellipse 23" cx="20.538" cy="21.139" rx="20.538" ry="21.139" transform="translate(37.654 26.288)" fill="#002028"/>
              <ellipse id="Ellipse_24" data-name="Ellipse 24" cx="20.538" cy="21.139" rx="20.538" ry="21.139" transform="translate(96.702 26.288)" fill="#002028"/>
              <ellipse id="Ellipse_25" data-name="Ellipse 25" cx="20.538" cy="21.139" rx="20.538" ry="21.139" transform="translate(155.749 26.288)" fill="#002028"/>
            </g>
            <path id="Path_69" data-name="Path 69" d="M2029.853,149.129H362.816c-13.227.015-23.947,11.048-23.962,24.663V1336.454c.015,13.614,10.734,24.647,23.962,24.662H2029.853c13.228-.015,23.947-11.048,23.961-24.663V173.792c-.015-13.615-10.734-24.648-23.962-24.663Zm17.115,1187.325a17.377,17.377,0,0,1-17.115,17.616H362.816a17.378,17.378,0,0,1-17.115-17.616V173.792a17.378,17.378,0,0,1,17.115-17.616H2029.853a17.378,17.378,0,0,1,17.115,17.616Z" transform="translate(1134.392 -149.129)" fill="#3f3d56"/>
          </g>
          <g id="Group_24" data-name="Group 24" transform="translate(-586.377 -90.684)">
            <g id="Group_23" data-name="Group 23" transform="translate(1136.783 487.584)">
              <path id="Path_88" data-name="Path 88" d="M215.066,652.693l26.329-3.075L242.4,543.633l-38.859,4.539Z" transform="translate(157.847 177.59)" fill="#a0616a"/>
              <path id="Path_89" data-name="Path 89" d="M0,.273,83.307,0,83.2,33.1l-51.12.167C14.305,33.33-.058,18.556,0,.273Z" transform="translate(452.83 846.714) rotate(173.526)" fill="#002028"/>
              <path id="Path_90" data-name="Path 90" d="M89.084,649.76l26.5,0,12.6-105.193-39.105,0Z" transform="translate(13.065 178.831)" fill="#a0616a"/>
              <path id="Path_91" data-name="Path 91" d="M0,0H83.276V33.116h-51.1C14.405,33.116,0,18.29,0,0Z" transform="translate(179.739 853.913) rotate(179.997)" fill="#002028"/>
              <path id="Path_92" data-name="Path 92" d="M411.359,546.622l15.129,50.651L508.617,780.2,530.23,953.71l-49.71,2.225L450.262,795.768,346.52,680.093,255.745,982.629l-41.065-4.449s34.581-391.517,82.129-431.558C296.81,546.622,374.617,508.8,411.359,546.622Z" transform="translate(-119.101 -188.447)" fill="#002028"/>
              <ellipse id="Ellipse_26" data-name="Ellipse 26" cx="53.084" cy="54.637" rx="53.084" ry="54.637" transform="translate(172.063 30.351)" fill="#a0616a"/>
              <path id="Path_93" data-name="Path 93" d="M384.915,662.431s6.484-226.9-84.291-211.33-52.952,234.688-52.952,234.688,19.452,40.042,67-4.449S384.915,662.431,384.915,662.431Z" transform="translate(-87.255 -294.245)" fill="#f7af2b"/>
              <path id="Path_94" data-name="Path 94" d="M443.3,480.1a21.686,21.686,0,0,1-15.5,10.18,21.334,21.334,0,0,1-17.537-5.7l-67.993,37.7,3.56-41.146,64.022-29.5a21.391,21.391,0,0,1,29.006-1.065A22.947,22.947,0,0,1,443.3,480.1Z" transform="translate(42.283 -300.78)" fill="#a0616a"/>
              <path id="Path_96" data-name="Path 96" d="M391.313,525.773a2.289,2.289,0,0,0,.72-1.878A2.264,2.264,0,0,0,391,522.176a32.22,32.22,0,0,1,2.974-55.7c15.607-7.659,36.755-1.7,48.292-16.418a28.226,28.226,0,0,0,4.977-22.417c-2.489-13.9-12.642-24.224-24.013-31.3a85.277,85.277,0,0,0-92.338,1.236c-28.037,18.486-43.429,51.766-39.693,85.819,1.468,13.379,5.479,28.38-2.25,39.242-6.8,9.56-19.642,11.352-30.921,13.728-24.192,5.095-47.53,16.848-63.947,35.833s-25.175,45.621-20.225,70.521,24.808,46.782,49.214,50.642c19.866,3.141,40.379-5.542,54.967-19.772s23.81-33.446,29.626-53.248c6.9-23.5,9.627-48.829,22.09-69.765,12.2-20.487,38.479-35.173,59.079-24.5a2.16,2.16,0,0,0,2.478-.305Z" transform="translate(-172.48 -383.377)" fill="#002028"/>
            </g>
            <path id="Path_95" data-name="Path 95" d="M291.118,479.024l110.37,19.2L500.4,450.169l15.017,33.049L407.137,554.2S292.506,562.213,266,531.1c-9.938-11.668-11.075-22.288-8.612-31,4.463-14.779,18.929-23.817,33.727-21.07Z" transform="translate(1070.304 193.118)" fill="#f7af2b"/>
          </g>
          <g id="Group_14" data-name="Group 14" transform="translate(2278.861 395.901)">
            <path id="Path_86" data-name="Path 86" d="M865.153,700.242c-45.593,0-82.554-38.042-82.554-84.969S819.559,530.3,865.153,530.3s82.554,38.042,82.554,84.969C947.655,662.179,910.724,700.19,865.153,700.242Zm0-164.078c-42.449,0-76.861,35.419-76.861,79.109s34.412,79.109,76.861,79.109,76.86-35.418,76.86-79.109C941.965,571.6,907.581,536.214,865.153,536.164Z" transform="translate(-782.599 -165.051)" fill="#002028"/>
            <g id="Group_13" data-name="Group 13" transform="translate(4.437)">
              <ellipse id="Ellipse_33" data-name="Ellipse 33" cx="77.699" cy="79.972" rx="77.699" ry="79.972" transform="translate(0 370.775)" fill="#002028"/>
              <g id="Group_12" data-name="Group 12" transform="translate(133.624)">
                <path id="Path_97" data-name="Path 97" d="M964.777,789.492A21.488,21.488,0,0,0,975.83,775.2a22.093,22.093,0,0,0-3.552-17.9l48.881-278.438-45.615-.619L941.6,753.581a22.154,22.154,0,0,0-3.909,28.551,20.743,20.743,0,0,0,27.086,7.36Z" transform="translate(-744.141 -228.98)" fill="#ffb8b8"/>
                <path id="Path_98" data-name="Path 98" d="M763.723,462.891l-17.317,84.662,2.165,189.375H781.04l15.152-184.919L820,474.031Z" transform="translate(-684.657 84.421)" fill="#ffb8b8"/>
                <path id="Path_99" data-name="Path 99" d="M813.3,465.742,795.98,550.4l2.165,189.375h32.469L845.766,554.86l23.811-77.978Z" transform="translate(-626.923 87.921)" fill="#ffb8b8"/>
                <path id="Path_100" data-name="Path 100" d="M32.227,0l51.18,0,0,33.167L0,33.173H0C0,14.855,14.43.005,32.227,0Z" transform="translate(20.354 819.276) rotate(-0.144)" fill="#002028"/>
                <path id="Path_101" data-name="Path 101" d="M32.227,0l51.18,0,0,33.167L0,33.173H0C0,14.855,14.43.005,32.227,0Z" transform="translate(128.462 822.857) rotate(-0.144)" fill="#002028"/>
                <ellipse id="Ellipse_27" data-name="Ellipse 27" cx="53.165" cy="54.721" rx="53.165" ry="54.721" transform="translate(104.908 22.679)" fill="#ffb8b8"/>
                <path id="Path_102" data-name="Path 102" d="M1077.076,496.716c-16.175-26.124-66.962-88.079-142.532-52.517A33.223,33.223,0,0,0,916,476.793c3.657,49.681,8.271,176.26-31.092,252,0,0,114.724,35.647,177.5,2.228,0,0-21.646-149.272,0-178.235a120.953,120.953,0,0,0,17.345-30.581,29.446,29.446,0,0,0-2.673-25.492Z" transform="translate(-801.511 -283.971)" fill="#053440"/>
                <path id="Path_103" data-name="Path 103" d="M974.387,461.02l21.243,9.11a8.28,8.28,0,0,1,4.946,7.3l1.951,48.2-47.622-4.456Z" transform="translate(-719.989 -250.128)" fill="#053440"/>
                <path id="Path_104" data-name="Path 104" d="M910.435,564.02s-47.621,91.346-38.963,176.007l67.1,11.14L986.2,633.086,975.374,753.395l69.267,2.228s45.457-173.779,30.3-189.375Z" transform="translate(-818.382 -123.65)" fill="#002028"/>
                <path id="Path_105" data-name="Path 105" d="M870.8,694.8a20.963,20.963,0,0,0,14.763-10.143,22.144,22.144,0,0,0,1.923-18.161l96.6-187.437-43.257-14.911L859.368,653.328a21.888,21.888,0,0,0-12.184,25.964A21.084,21.084,0,0,0,870.8,694.8Z" transform="translate(-846.38 -246.282)" fill="#ffb8b8"/>
                <path id="Path_106" data-name="Path 106" d="M956.165,453.821l-17.893-8.238S923.1,435.9,909.654,457.2s-27.974,67.979-27.974,67.979l58.381,16.908Z" transform="translate(-805.27 -271.78)" fill="#053440"/>
                <path id="Path_107" data-name="Path 107" d="M955.891,470.106c1.909-6.822,1.358-16.052-5.068-18.632-3.348-1.344-7.083-.284-10.658.093A27.858,27.858,0,0,1,920.509,446c-6.646-5.086-10.751-12.859-14.65-20.38l-5.9-11.375a50.1,50.1,0,0,1-3.345-7.412c-3.281-10.042.281-21.668,7.574-29.145a40.442,40.442,0,0,1,28.059-11.323,73.9,73.9,0,0,1,29.982,6.611,132.447,132.447,0,0,1,44.707,30.913c8.295,8.734,15.846,20.112,14.113,32.194-1.349,9.4-8.01,16.936-14.362,23.838l-23.042,25.035c-4.08,4.434-8.441,9.048-14.139,10.753s-13.038-.8-14.592-6.693C954.918,489.012,953.982,476.927,955.891,470.106Z" transform="translate(-789.301 -366.362)" fill="#002028"/>
              </g>
              <path id="car-solid-7" data-name="car-solid" d="M81,81.216H71.3l-2.7-6.395A18.072,18.072,0,0,0,51.763,64H31.188A18.077,18.077,0,0,0,14.342,74.821l-2.7,6.395h-9.7A1.868,1.868,0,0,0,.063,83.508L1.035,87.2a1.927,1.927,0,0,0,1.886,1.4H6.172A9.571,9.571,0,0,0,2.6,95.972v7.378A9.48,9.48,0,0,0,5.187,109.8v8.311a5.057,5.057,0,0,0,5.184,4.919h5.184a5.057,5.057,0,0,0,5.184-4.919v-4.919H62.212v4.919a5.057,5.057,0,0,0,5.184,4.919H72.58a5.057,5.057,0,0,0,5.184-4.919V109.8a9.475,9.475,0,0,0,2.592-6.445V95.972a9.574,9.574,0,0,0-3.575-7.378h3.251a1.927,1.927,0,0,0,1.886-1.4l.972-3.689A1.87,1.87,0,0,0,81,81.216ZM23.968,78.475a7.785,7.785,0,0,1,7.22-4.638H51.763a7.785,7.785,0,0,1,7.22,4.638l3.229,7.66H20.739ZM15.555,103.32c-3.11,0-5.184-1.961-5.184-4.9s2.074-4.9,5.184-4.9,7.776,4.413,7.776,7.355S18.666,103.32,15.555,103.32Zm51.841,0c-3.11,0-7.776.49-7.776-2.452s4.666-7.355,7.776-7.355,5.184,1.961,5.184,4.9S70.506,103.32,67.4,103.32Z" transform="translate(36.551 356.908)" fill="#fff"/>
            </g>
          </g>
        </g>
      </g>
    </g>
    <g id="undraw_remotely_2j6y" transform="translate(901 665.978)">
      <path id="Path_180" data-name="Path 180" d="M523.321,113.176l9.111-14.08a211.062,211.062,0,0,0-9.347-21.88l-5.891,4.758,4.665-7.209c-4.445-8.751-7.943-14.264-7.943-14.264s-18.272,28.793-24.376,59.279l11.691,18.068-12.943-10.454a85.415,85.415,0,0,0-.71,10.709c0,36.105,11.792,65.374,26.338,65.374s26.338-29.269,26.338-65.374a112.433,112.433,0,0,0-6.025-33.735Z" transform="translate(208.92 -60.501)" fill="#e6e6e6"/>
      <path id="Path_181" data-name="Path 181" d="M571.644,119.662l16.4-3.514a211.11,211.11,0,0,0,8.862-22.081l-7.53-.8,8.4-1.8c3.044-9.331,4.469-15.7,4.469-15.7s-33.28,7.44-59.153,24.68l-4.509,21.043-1.76-16.544a85.427,85.427,0,0,0-8.074,7.07c-25.53,25.53-37.888,54.564-27.6,64.85s39.32-2.073,64.85-27.6a112.426,112.426,0,0,0,19.594-28.115Z" transform="translate(225.082 -35.685)" fill="#e6e6e6"/>
      <path id="Path_182" data-name="Path 182" d="M604.519,208.171c-38.026,2.432-79.459-.141-123.538,0V107.253c38.84,6.046,80.26,5.425,123.538,0Z" transform="translate(198.197 15.513)" fill="#e6e6e6"/>
      <path id="Path_183" data-name="Path 183" d="M646.062,196.922,652,187.74a137.652,137.652,0,0,0-6.1-14.269l-3.842,3.1,3.042-4.7c-2.9-5.707-5.18-9.3-5.18-9.3a131.931,131.931,0,0,0-15.9,38.658l7.624,11.783-8.44-6.817a55.7,55.7,0,0,0-.463,6.984c0,23.546,7.69,42.633,17.176,42.633S657.1,236.723,657.1,213.178a73.316,73.316,0,0,0-3.929-22Z" transform="translate(428.699 105.454)" fill="#e6e6e6"/>
      <path id="Path_184" data-name="Path 184" d="M677.575,201.152l10.694-2.292a137.708,137.708,0,0,0,5.78-14.4l-4.911-.523,5.475-1.173c1.985-6.085,2.915-10.241,2.915-10.241a131.925,131.925,0,0,0-38.576,16.095l-2.941,13.723-1.148-10.789a55.713,55.713,0,0,0-5.266,4.611c-16.649,16.649-24.709,35.584-18,42.291s25.642-1.352,42.291-18a73.328,73.328,0,0,0,12.778-18.335Z" transform="translate(439.239 121.637)" fill="#e6e6e6"/>
      <path id="Path_185" data-name="Path 185" d="M699.015,258.872c-24.8,1.586-51.819-.092-80.564,0V193.059a290.383,290.383,0,0,0,80.564,0Z" transform="translate(421.707 155.025)" fill="#e6e6e6"/>
      <path id="Path_186" data-name="Path 186" d="M687.347,328.381c-21.9,1.4-45.756-.081-71.138,0V270.268a256.4,256.4,0,0,0,71.138,0Z" transform="translate(418.061 280.559)" fill="#e6e6e6"/>
      <rect id="Rectangle_24" data-name="Rectangle 24" width="957.262" height="26.739" transform="translate(273.093 216.587)" fill="#e6e6e6"/>
      <rect id="Rectangle_25" data-name="Rectangle 25" width="957.262" height="26.739" transform="translate(273.093 406.435)" fill="#e6e6e6"/>
      <rect id="Rectangle_26" data-name="Rectangle 26" width="957.262" height="26.739" transform="translate(273.093 596.283)" fill="#e6e6e6"/>
      <circle id="Ellipse_35" data-name="Ellipse 35" cx="53.478" cy="53.478" r="53.478" transform="translate(1016.442 465.261)" fill="#e6e6e6"/>
      <circle id="Ellipse_36" data-name="Ellipse 36" cx="42.783" cy="42.783" r="42.783" transform="translate(1027.137 475.957)" fill="#fff"/>
      <circle id="Ellipse_37" data-name="Ellipse 37" cx="10.696" cy="10.696" r="10.696" transform="translate(1059.224 508.044)" fill="#e6e6e6"/>
      <rect id="Rectangle_27" data-name="Rectangle 27" width="5.348" height="42.783" transform="translate(1107.355 516.066) rotate(90)" fill="#e6e6e6"/>
      <rect id="Rectangle_28" data-name="Rectangle 28" width="5.348" height="42.783" transform="translate(1072.594 524.087) rotate(180)" fill="#e6e6e6"/>
      <rect id="Rectangle_29" data-name="Rectangle 29" width="35.384" height="140.062" transform="translate(725.317 275.993)" fill="#e6e6e6"/>
      <rect id="Rectangle_30" data-name="Rectangle 30" width="35.384" height="16.218" transform="translate(725.317 298.108)" fill="#ccc"/>
      <rect id="Rectangle_31" data-name="Rectangle 31" width="35.384" height="16.218" transform="translate(725.317 368.876)" fill="#ccc"/>
      <rect id="Rectangle_32" data-name="Rectangle 32" width="35.384" height="140.062" transform="translate(670.766 275.993)" fill="#e6e6e6"/>
      <rect id="Rectangle_33" data-name="Rectangle 33" width="35.384" height="16.218" transform="translate(670.766 298.108)" fill="#ccc"/>
      <rect id="Rectangle_34" data-name="Rectangle 34" width="35.384" height="16.218" transform="translate(670.766 368.876)" fill="#ccc"/>
      <rect id="Rectangle_35" data-name="Rectangle 35" width="35.384" height="140.062" transform="matrix(0.896, -0.444, 0.444, 0.896, 759.478, 291.114)" fill="#e6e6e6"/>
      <rect id="Rectangle_36" data-name="Rectangle 36" width="35.384" height="16.218" transform="matrix(0.896, -0.444, 0.444, 0.896, 769.29, 310.933)" fill="#ccc"/>
      <rect id="Rectangle_37" data-name="Rectangle 37" width="35.384" height="16.218" transform="matrix(0.896, -0.444, 0.444, 0.896, 800.689, 374.354)" fill="#ccc"/>
      <rect id="Rectangle_38" data-name="Rectangle 38" width="35.384" height="140.062" transform="translate(409.795 465.841)" fill="#e6e6e6"/>
      <rect id="Rectangle_39" data-name="Rectangle 39" width="35.384" height="16.218" transform="translate(409.795 487.956)" fill="#ccc"/>
      <rect id="Rectangle_40" data-name="Rectangle 40" width="35.384" height="16.218" transform="translate(409.795 558.724)" fill="#ccc"/>
      <rect id="Rectangle_41" data-name="Rectangle 41" width="35.384" height="140.062" transform="translate(355.244 465.841)" fill="#e6e6e6"/>
      <rect id="Rectangle_42" data-name="Rectangle 42" width="35.384" height="16.218" transform="translate(355.244 487.956)" fill="#ccc"/>
      <rect id="Rectangle_43" data-name="Rectangle 43" width="35.384" height="16.218" transform="translate(355.244 558.724)" fill="#ccc"/>
      <rect id="Rectangle_44" data-name="Rectangle 44" width="35.384" height="140.062" transform="matrix(0.896, -0.444, 0.444, 0.896, 443.955, 480.962)" fill="#e6e6e6"/>
      <rect id="Rectangle_45" data-name="Rectangle 45" width="35.384" height="16.218" transform="matrix(0.896, -0.444, 0.444, 0.896, 453.768, 500.781)" fill="#ccc"/>
      <rect id="Rectangle_46" data-name="Rectangle 46" width="35.384" height="16.218" transform="matrix(0.896, -0.444, 0.444, 0.896, 485.167, 564.202)" fill="#ccc"/>
      <rect id="Rectangle_47" data-name="Rectangle 47" width="35.384" height="140.062" transform="translate(741.36 465.841)" fill="#e6e6e6"/>
      <rect id="Rectangle_48" data-name="Rectangle 48" width="35.384" height="16.218" transform="translate(741.36 487.956)" fill="#ccc"/>
      <rect id="Rectangle_49" data-name="Rectangle 49" width="35.384" height="16.218" transform="translate(741.36 558.724)" fill="#ccc"/>
      <rect id="Rectangle_50" data-name="Rectangle 50" width="35.384" height="140.062" transform="translate(686.81 465.841)" fill="#e6e6e6"/>
      <rect id="Rectangle_51" data-name="Rectangle 51" width="35.384" height="16.218" transform="translate(686.81 487.956)" fill="#ccc"/>
      <rect id="Rectangle_52" data-name="Rectangle 52" width="35.384" height="16.218" transform="translate(686.81 558.724)" fill="#ccc"/>
      <rect id="Rectangle_53" data-name="Rectangle 53" width="35.384" height="140.062" transform="matrix(0.896, -0.444, 0.444, 0.896, 775.521, 480.962)" fill="#e6e6e6"/>
      <rect id="Rectangle_54" data-name="Rectangle 54" width="35.384" height="16.218" transform="matrix(0.896, -0.444, 0.444, 0.896, 785.333, 500.781)" fill="#ccc"/>
      <rect id="Rectangle_55" data-name="Rectangle 55" width="35.384" height="16.218" transform="matrix(0.896, -0.444, 0.444, 0.896, 816.732, 564.202)" fill="#ccc"/>
      <rect id="Rectangle_56" data-name="Rectangle 56" width="140.632" height="140.632" transform="translate(1014.853 85.724)" fill="#e6e6e6"/>
      <rect id="Rectangle_57" data-name="Rectangle 57" width="84.379" height="84.379" transform="translate(1042.979 113.851)" fill="#ccc"/>
      <path id="Path_187" data-name="Path 187" d="M492.156,54.143l17.893,30.988,17.89,30.988H456.373l17.893-30.988Z" transform="translate(575.248 88.031)" fill="#e6e6e6"/>
      <path id="Path_188" data-name="Path 188" d="M503.995,56.4l17.893,30.988,17.89,30.988H468.212L486.1,87.386Z" transform="translate(594.497 91.697)" fill="#e6e6e6"/>
      <circle id="Ellipse_38" data-name="Ellipse 38" cx="10.362" cy="10.362" r="10.362" transform="translate(1100.713 118.292)" fill="#e6e6e6"/>
      <rect id="Rectangle_58" data-name="Rectangle 58" width="140.632" height="140.632" transform="translate(303.591 85.724)" fill="#e6e6e6"/>
      <rect id="Rectangle_59" data-name="Rectangle 59" width="84.379" height="84.379" transform="translate(331.718 113.851)" fill="#ccc"/>
      <path id="Path_189" data-name="Path 189" d="M221.292,54.143l17.89,30.988,17.893,30.988H185.509L203.4,85.131Z" transform="translate(134.852 88.031)" fill="#e6e6e6"/>
      <path id="Path_190" data-name="Path 190" d="M233.131,56.4l17.89,30.988,17.89,30.988H197.348l17.89-30.988Z" transform="translate(154.101 91.697)" fill="#e6e6e6"/>
      <circle id="Ellipse_39" data-name="Ellipse 39" cx="10.362" cy="10.362" r="10.362" transform="translate(389.451 118.292)" fill="#e6e6e6"/>
    </g>
  </g>
</svg>
