<svg xmlns="http://www.w3.org/2000/svg" width="530.277" height="337.313" viewBox="0 0 530.277 337.313">
  <g id="Group_30" data-name="Group 30" transform="translate(-290.809 -1256.271)">
    <g id="Group_25" data-name="Group 25" transform="translate(-963.32 1086.627)">
      <g id="Group_18" data-name="Group 18" transform="translate(1254.129 169.645)">
        <g id="Group_17" data-name="Group 17" transform="translate(0 0)">
          <g id="undraw_social_networking_nqk4" transform="translate(97.068)">
            <path id="Path_121" data-name="Path 121" d="M457.038,219.75c-15.23,19.075-10.2,46.3-1.4,67.994,2.948,7.262,6.3,14.941,4.769,22.842-1.867,9.658-10.644,16.894-19.767,20.836-16.631,7.183-36.277,6.036-51.154-3.015-12.838-7.812-21.875-20.793-34.962-28.233-21.9-12.445-50.337-6.885-74.714,2.617-17.246,6.722-36.137,15.378-52.943,9.171-11.826-4.367-19.79-15.485-23.98-27.369-2.023-5.738-3.439-11.966-7.469-16.458a27.486,27.486,0,0,0-8.819-6.086c-29.718-14.2-67.945-5.326-96.756-21.173-19.451-10.7-31.559-31.469-36.588-53.3s-3.785-44.882-1.782-67.535c1.424-16.1,3.676-33.3,14.281-45.954,11.216-13.379,30.014-18.7,46.824-16.6s31.877,10.63,45.065,20.786c16.483,12.695,31.66,28.626,52.174,33.441,13.97,3.281,28.812.959,43.335-.068,24.276-1.712,48.466.259,72.508,2.486,23.015,2.13,46.19,4.509,67.987,11.494,15.425,4.943,27.653,14.285,42.175,20.669,9.466,4.161,19.88,5.127,28.788,10.5,10.994,6.622,20.93,18.354,17.705,32.433C479.267,202.607,465.122,209.627,457.038,219.75Z" transform="translate(-49.721 -57.041)" fill="#94d6eb" opacity="0.305"/>
            <path id="Path_177" data-name="Path 177" d="M38.147,25.69Z" transform="translate(56.45 122.608)" fill="#b96b6b"/>
          </g>
          <g id="undraw_Data_points_re_vkpq" transform="translate(0 20.645)">
            <g id="Group_11" data-name="Group 11" transform="translate(0 264.07)">
              <path id="Path_67" data-name="Path 67" d="M191.888,661.877a13.875,13.875,0,0,0,4.769-11.794c-.525-4.405-3.774-8.454-7.989-9.39a9.006,9.006,0,0,0-10.3,5.892c-.7-8.17-1.516-16.683-5.737-23.64a24.275,24.275,0,0,0-17.613-11.614,21.529,21.529,0,0,0-19.2,8.067,20.875,20.875,0,0,0-2.436,20.989c2.308,4.929,6.561,8.6,11.016,11.58a69.47,69.47,0,0,0,48.626,10.949Z" transform="translate(-131.596 -612.202)" fill="#94d6eb"/>
              <path id="Path_68" data-name="Path 68" d="M160.445,617.653a118.055,118.055,0,0,1,16.211,16.568A121.7,121.7,0,0,1,189.441,653.7a122.57,122.57,0,0,1,5.475,11.931c.329.829-.98,1.19-1.3.37a120.075,120.075,0,0,0-10.55-20.546,119.01,119.01,0,0,0-14.15-17.991,117.2,117.2,0,0,0-9.422-8.822C158.814,618.071,159.776,617.091,160.445,617.653Z" transform="translate(-149.129 -615.117)" fill="#fff"/>
            </g>
            <g id="Plant" transform="translate(32.482 212.217)">
              <path id="Path_123" data-name="Path 123" d="M113.34,419.085s-.791-24.123-13.471-37.754a37.007,37.007,0,0,1-9.743-20.846,63.3,63.3,0,0,1-.3-11.245" transform="translate(-76.976 -333.849)" fill="none" stroke="#535461" stroke-miterlimit="10" stroke-width="2"/>
              <path id="Path_124" data-name="Path 124" d="M56.281,293.626c.868,2.695,8.123,8.883,8.123,8.883s2.222-9.429,1.355-12.121a4.963,4.963,0,0,0-6.31-3.26,5.173,5.173,0,0,0-3.167,6.495Z" transform="translate(-51.372 -286.867)" fill="#239608"/>
              <path id="Path_125" data-name="Path 125" d="M38.5,357.639C40.653,359.416,50,360.556,50,360.556s-3.117-9.157-5.274-10.931a4.9,4.9,0,0,0-7.019.793,5.241,5.241,0,0,0,.771,7.223Z" transform="translate(-36.612 -333.288)" fill="#239608"/>
              <path id="Path_126" data-name="Path 126" d="M66.656,457.194c2.728.415,11.366-3.455,11.366-3.455s-7.18-6.295-9.906-6.712a5.015,5.015,0,0,0-5.668,4.332A5.118,5.118,0,0,0,66.656,457.194Z" transform="translate(-56.213 -407.464)" fill="#239608"/>
              <path id="Path_127" data-name="Path 127" d="M113.76,529.551c2.62.883,11.771-1.436,11.771-1.436s-6.044-7.445-8.664-8.328a4.966,4.966,0,0,0-6.3,3.278,5.172,5.172,0,0,0,3.185,6.486Z" transform="translate(-92.644 -462.119)" fill="#239608"/>
              <path id="Path_128" data-name="Path 128" d="M104.236,362.822c-1.273,2.517-9.391,7.447-9.391,7.447s-.738-9.671.535-12.19a4.923,4.923,0,0,1,6.732-2.186A5.212,5.212,0,0,1,104.236,362.822Z" transform="translate(-80.722 -338.43)" fill="#239608"/>
              <path id="Path_129" data-name="Path 129" d="M150.424,443.52c-1.947,2.011-11.124,4.212-11.124,4.212s2.107-9.456,4.052-11.467a4.892,4.892,0,0,1,7.059-.014,5.245,5.245,0,0,1,.013,7.266Z" transform="translate(-114.681 -398.262)" fill="#239608"/>
              <path id="Path_130" data-name="Path 130" d="M191.423,534.143c-1.587,2.319-10.273,6.088-10.273,6.088s.523-9.685,2.112-12.007a4.945,4.945,0,0,1,4.57-2.3,5,5,0,0,1,4.155,3.019,5.262,5.262,0,0,1-.574,5.2Z" transform="translate(-146.498 -466.925)" fill="#239608"/>
              <path id="Path_131" data-name="Path 131" d="M176.67,475.206s7.192-10.769,5.931-20.9a20.292,20.292,0,0,1,2.273-12.3,33.347,33.347,0,0,1,3.383-5" transform="translate(-143.092 -399.953)" fill="none" stroke="#535461" stroke-miterlimit="10" stroke-width="2"/>
              <path id="Path_132" data-name="Path 132" d="M221.508,405.315c-.463,1.461.761,6.559.761,6.559s3.915-3.371,4.378-4.829a2.8,2.8,0,0,0-1.73-3.508,2.687,2.687,0,0,0-3.408,1.78Z" transform="translate(-177.101 -374.649)" fill="#6c63ff"/>
              <path id="Path_133" data-name="Path 133" d="M193.1,427.476c.38,1.48,4.1,5.081,4.1,5.081s1.506-5.019,1.124-6.5a2.7,2.7,0,0,0-3.3-1.978A2.791,2.791,0,0,0,193.1,427.476Z" transform="translate(-155.51 -390.153)" fill="#6c63ff"/>
              <path id="Path_134" data-name="Path 134" d="M173.342,479.885c1.057,1.083,6.032,2.255,6.032,2.255s-1.16-5.115-2.22-6.2a2.65,2.65,0,0,0-3.824.012,2.841,2.841,0,0,0,.012,3.936Z" transform="translate(-139.956 -428.677)" fill="#6c63ff"/>
              <path id="Path_135" data-name="Path 135" d="M170.6,526.594c.865,1.251,5.576,3.272,5.576,3.272s-.3-5.244-1.17-6.495a2.654,2.654,0,0,0-3.769-.656,2.834,2.834,0,0,0-.638,3.879Z" transform="translate(-138.098 -464.131)" fill="#6c63ff"/>
              <path id="Path_136" data-name="Path 136" d="M212.3,451.14c-1.34.676-6.415.133-6.415.133s2.7-4.456,4.042-5.123a2.668,2.668,0,0,1,3.615,1.276,2.819,2.819,0,0,1-1.239,3.721Z" transform="translate(-165.299 -406.636)" fill="#6c63ff"/>
              <path id="Path_137" data-name="Path 137" d="M208.152,503.612c-1.477.229-6.152-1.838-6.152-1.838s3.872-3.42,5.349-3.652a2.715,2.715,0,0,1,3.079,2.332,2.771,2.771,0,0,1-2.266,3.169Z" transform="translate(-162.349 -445.973)" fill="#6c63ff"/>
              <path id="Path_138" data-name="Path 138" d="M195.487,555.018c-1.417.493-6.377-.74-6.377-.74s3.256-4.044,4.672-4.53a2.687,2.687,0,0,1,3.418,1.763,2.8,2.8,0,0,1-1.713,3.518Z" transform="translate(-152.55 -484.777)" fill="#6c63ff"/>
              <path id="Path_139" data-name="Path 139" d="M221.508,405.315c-.463,1.461.761,6.559.761,6.559s3.915-3.371,4.378-4.829a2.8,2.8,0,0,0-1.73-3.508,2.687,2.687,0,0,0-3.408,1.78Z" transform="translate(-177.101 -374.649)" fill="#a9d59f"/>
              <path id="Path_140" data-name="Path 140" d="M193.1,427.476c.38,1.48,4.1,5.081,4.1,5.081s1.506-5.019,1.124-6.5a2.7,2.7,0,0,0-3.3-1.978A2.791,2.791,0,0,0,193.1,427.476Z" transform="translate(-155.51 -390.153)" fill="#a9d59f"/>
              <path id="Path_141" data-name="Path 141" d="M173.342,479.885c1.057,1.083,6.032,2.255,6.032,2.255s-1.16-5.115-2.22-6.2a2.65,2.65,0,0,0-3.824.012,2.841,2.841,0,0,0,.012,3.936Z" transform="translate(-139.956 -428.677)" fill="#a9d59f"/>
              <path id="Path_142" data-name="Path 142" d="M170.6,526.594c.865,1.251,5.576,3.272,5.576,3.272s-.3-5.244-1.17-6.495a2.654,2.654,0,0,0-3.769-.656,2.834,2.834,0,0,0-.638,3.879Z" transform="translate(-138.098 -464.131)" fill="#a9d59f"/>
              <path id="Path_143" data-name="Path 143" d="M212.3,451.14c-1.34.676-6.415.133-6.415.133s2.7-4.456,4.042-5.123a2.668,2.668,0,0,1,3.615,1.276,2.819,2.819,0,0,1-1.239,3.721Z" transform="translate(-165.299 -406.636)" fill="#a9d59f"/>
              <path id="Path_144" data-name="Path 144" d="M208.152,503.612c-1.477.229-6.152-1.838-6.152-1.838s3.872-3.42,5.349-3.652a2.715,2.715,0,0,1,3.079,2.332,2.771,2.771,0,0,1-2.266,3.169Z" transform="translate(-162.349 -445.973)" fill="#a9d59f"/>
              <path id="Path_145" data-name="Path 145" d="M195.487,555.018c-1.417.493-6.377-.74-6.377-.74s3.256-4.044,4.672-4.53a2.687,2.687,0,0,1,3.418,1.763,2.8,2.8,0,0,1-1.713,3.518Z" transform="translate(-152.55 -484.777)" fill="#a9d59f"/>
              <path id="Path_146" data-name="Path 146" d="M114.411,555.091H93.954L88.84,522.98h30.687Z" transform="translate(-67.525 -450.639)" fill="#053440"/>
              <path id="Path_147" data-name="Path 147" d="M130.762,522.98l-4.778,30.006H108.77l.336,2.1h20.457l5.116-32.111Z" transform="translate(-82.677 -450.639)" opacity="0.1"/>
            </g>
            <g id="Group_15" data-name="Group 15" transform="translate(471.453 278.947)">
              <ellipse id="Ellipse_34" data-name="Ellipse 34" cx="13.146" cy="13.531" rx="13.146" ry="13.531" transform="translate(0 10)" fill="#002028"/>
              <path id="car-solid" d="M13.716,66.911H12.075l-.456-1.082A3.058,3.058,0,0,0,8.769,64H5.288a3.059,3.059,0,0,0-2.85,1.831l-.456,1.082H.341a.316.316,0,0,0-.319.388l.164.624a.326.326,0,0,0,.319.236h.55A1.619,1.619,0,0,0,.45,69.408v1.248a1.6,1.6,0,0,0,.439,1.091v1.406a.856.856,0,0,0,.877.833h.877a.856.856,0,0,0,.877-.833V72.32h7.017v.833a.856.856,0,0,0,.877.833h.877a.856.856,0,0,0,.877-.833V71.746a1.6,1.6,0,0,0,.439-1.091V69.408a1.62,1.62,0,0,0-.6-1.248h.55a.326.326,0,0,0,.319-.236l.164-.624a.316.316,0,0,0-.319-.388Zm-9.65-.464a1.317,1.317,0,0,1,1.222-.785H8.769a1.317,1.317,0,0,1,1.222.785l.546,1.3H3.52Zm-1.423,4.2a.831.831,0,1,1,0-1.659,1.648,1.648,0,0,1,1.316,1.244c0,.5-.79.415-1.316.415Zm8.771,0c-.526,0-1.316.083-1.316-.415a1.647,1.647,0,0,1,1.316-1.244.831.831,0,1,1,0,1.659Z" transform="translate(6.173 -45.516)" fill="#fff"/>
            </g>
            <g id="Group_22" data-name="Group 22" transform="translate(137.173 0)">
              <g id="Group_21" data-name="Group 21" transform="translate(0.62 0.982)">
                <path id="Path_178" data-name="Path 178" d="M0,0H308.246V199.538H0Z" transform="translate(0.557 17.979)" fill="#fff"/>
                <g id="undraw_nakamoto_2iv6" transform="translate(33.337 33.555)">
                  <rect id="Rectangle_9" data-name="Rectangle 9" width="0.622" height="34.247" transform="translate(29.918 41.798)" fill="#3f3d56" stroke="#3f3d56" stroke-width="1"/>
                  <rect id="Rectangle_10" data-name="Rectangle 10" width="0.622" height="30.134" transform="translate(29.918 86.239)" fill="#3f3d56" stroke="#3f3d56" stroke-width="1"/>
                  <rect id="Rectangle_11" data-name="Rectangle 11" width="48.2" height="0.64" transform="translate(28.985 121.174)" fill="#3f3d56" stroke="#3f3d56" stroke-width="1"/>
                  <rect id="Rectangle_12" data-name="Rectangle 12" width="0.622" height="27.206" transform="translate(8.461 129.816)" fill="#3f3d56" stroke="#3f3d56" stroke-width="1"/>
                  <rect id="Rectangle_13" data-name="Rectangle 13" width="73.078" height="0.64" transform="translate(14.058 161.822)" fill="#3f3d56" stroke="#3f3d56" stroke-width="1"/>
                  <path id="Path_112" data-name="Path 112" d="M623.247,551.052" transform="translate(-531.136 -394.031)" fill="none"/>
                  <path id="Path_113" data-name="Path 113" d="M623.247,469.052" transform="translate(-531.136 -338.276)" fill="none"/>
                  <rect id="Rectangle_14" data-name="Rectangle 14" width="0.622" height="32.327" transform="translate(147.463 20.033)" fill="#3f3d56" stroke="#3f3d56" stroke-width="1"/>
                  <rect id="Rectangle_15" data-name="Rectangle 15" width="45.723" height="0.64" transform="translate(97.076 57.481)" fill="#3f3d56" stroke="#3f3d56" stroke-width="1"/>
                  <rect id="Rectangle_16" data-name="Rectangle 16" width="0.622" height="43.209" transform="translate(91.8 62.602)" fill="#3f3d56" stroke="#3f3d56" stroke-width="1"/>
                  <path id="Path_114" data-name="Path 114" d="M412.534,307.933a5.443,5.443,0,1,1,5.286-5.441,5.366,5.366,0,0,1-5.286,5.441Zm0-10.242a4.8,4.8,0,1,0,4.665,4.8A4.734,4.734,0,0,0,412.534,297.691Z" transform="translate(-382.305 -221.327)" fill="#3f3d56" stroke="#3f3d56" stroke-width="1"/>
                  <path id="Path_115" data-name="Path 115" d="M344.534,560.934a5.443,5.443,0,1,1,5.286-5.441A5.366,5.366,0,0,1,344.534,560.934Zm0-10.242a4.8,4.8,0,1,0,4.665,4.8A4.734,4.734,0,0,0,344.534,550.692Z" transform="translate(-335.451 -393.351)" fill="#3f3d56" stroke="#3f3d56" stroke-width="1"/>
                  <ellipse id="Ellipse_28" data-name="Ellipse 28" cx="4.975" cy="5.121" rx="4.975" ry="5.121" transform="translate(25.564 116.373)" fill="#00beff"/>
                  <rect id="Rectangle_17" data-name="Rectangle 17" width="51.621" height="0.64" transform="translate(158.969 80.846)" fill="#3f3d56" stroke="#3f3d56" stroke-width="1"/>
                  <rect id="Rectangle_18" data-name="Rectangle 18" width="0.622" height="30.134" transform="translate(153.683 86.239)" fill="#3f3d56" stroke="#3f3d56" stroke-width="1"/>
                  <rect id="Rectangle_19" data-name="Rectangle 19" width="41.359" height="0.64" transform="translate(107.349 121.174)" fill="#3f3d56" stroke="#3f3d56" stroke-width="1"/>
                  <rect id="Rectangle_20" data-name="Rectangle 20" width="42.914" height="0.64" transform="translate(180.115 124.055)" fill="#3f3d56" stroke="#3f3d56" stroke-width="1"/>
                  <rect id="Rectangle_21" data-name="Rectangle 21" width="0.622" height="27.206" transform="translate(175.14 129.816)" fill="#3f3d56" stroke="#3f3d56" stroke-width="1"/>
                  <rect id="Rectangle_22" data-name="Rectangle 22" width="73.078" height="0.64" transform="translate(97.087 161.822)" fill="#3f3d56" stroke="#3f3d56" stroke-width="1"/>
                  <rect id="Rectangle_23" data-name="Rectangle 23" width="0.622" height="19.844" transform="translate(91.8 137.177)" fill="#3f3d56" stroke="#3f3d56" stroke-width="1"/>
                  <ellipse id="Ellipse_29" data-name="Ellipse 29" cx="4.975" cy="5.121" rx="4.975" ry="5.121" transform="translate(149.018 76.045)" fill="#00beff"/>
                  <path id="Path_116" data-name="Path 116" d="M790.534,233.934a5.443,5.443,0,1,1,5.286-5.441A5.366,5.366,0,0,1,790.534,233.934Zm0-10.242a4.8,4.8,0,1,0,4.665,4.8A4.734,4.734,0,0,0,790.534,223.692Z" transform="translate(-642.759 -171.012)" fill="#3f3d56" stroke="#3f3d56" stroke-width="1"/>
                  <path id="Path_117" data-name="Path 117" d="M611.534,233.934a5.443,5.443,0,1,1,5.286-5.441A5.365,5.365,0,0,1,611.534,233.934Zm0-10.242a4.8,4.8,0,1,0,4.665,4.8A4.734,4.734,0,0,0,611.534,223.692Z" transform="translate(-519.423 -171.012)" fill="#3f3d56" stroke="#3f3d56" stroke-width="1"/>
                  <path id="Path_118" data-name="Path 118" d="M878.534,443.934a5.443,5.443,0,1,1,5.286-5.441A5.365,5.365,0,0,1,878.534,443.934Zm0-10.242a4.8,4.8,0,1,0,4.665,4.8A4.734,4.734,0,0,0,878.534,433.692Z" transform="translate(-703.395 -313.799)" fill="#3f3d56" stroke="#3f3d56" stroke-width="1"/>
                  <ellipse id="Ellipse_30" data-name="Ellipse 30" cx="4.975" cy="5.121" rx="4.975" ry="5.121" transform="translate(170.164 157.021)" fill="#00beff"/>
                  <path id="Path_119" data-name="Path 119" d="M611.534,560.934a5.443,5.443,0,1,1,5.286-5.441A5.365,5.365,0,0,1,611.534,560.934Zm0-10.242a4.8,4.8,0,1,0,4.665,4.8A4.734,4.734,0,0,0,611.534,550.692Z" transform="translate(-519.423 -393.351)" fill="#3f3d56" stroke="#3f3d56" stroke-width="1"/>
                  <path id="Path_120" data-name="Path 120" d="M809.534,433.934a5.443,5.443,0,1,1,5.286-5.441A5.365,5.365,0,0,1,809.534,433.934Zm0-10.242a4.8,4.8,0,1,0,4.665,4.8,4.734,4.734,0,0,0-4.665-4.8Z" transform="translate(-655.852 -306.999)" fill="#3f3d56" stroke="#3f3d56" stroke-width="1"/>
                  <ellipse id="Ellipse_31" data-name="Ellipse 31" cx="12.128" cy="12.483" rx="12.128" ry="12.483" transform="translate(80.294 109.332)" fill="#00beff"/>
                  <g id="Group_4" data-name="Group 4" transform="translate(86.994 116.441)">
                    <rect id="Rectangle_5" data-name="Rectangle 5" width="11.572" height="3.211" fill="#fff"/>
                    <rect id="Rectangle_6" data-name="Rectangle 6" width="7.983" height="3.211" transform="translate(0 4.282)" fill="#fff"/>
                    <rect id="Rectangle_7" data-name="Rectangle 7" width="4.036" height="3.211" transform="translate(0 8.564)" fill="#fff"/>
                  </g>
                  <g id="Group_9" data-name="Group 9" transform="translate(21.212 21.58)">
                    <ellipse id="Ellipse_32" data-name="Ellipse 32" cx="8.889" cy="9.149" rx="8.889" ry="9.149" transform="translate(0 0)" fill="#002028"/>
                    <path id="car-solid-2" data-name="car-solid" d="M10.077,66.138H8.871l-.335-.795A2.246,2.246,0,0,0,6.443,64H3.885a2.247,2.247,0,0,0-2.094,1.345l-.335.795H.251a.232.232,0,0,0-.235.285l.121.459a.239.239,0,0,0,.234.174h.4a1.19,1.19,0,0,0-.445.917v.917a1.178,1.178,0,0,0,.322.8v1.032a.629.629,0,0,0,.644.611h.644a.629.629,0,0,0,.644-.611v-.61H7.741v.611a.629.629,0,0,0,.644.611H9.03a.629.629,0,0,0,.644-.611V69.692a1.177,1.177,0,0,0,.322-.8v-.918a1.19,1.19,0,0,0-.444-.917h.4a.239.239,0,0,0,.234-.174l.121-.459a.233.233,0,0,0-.235-.285ZM2.988,65.8a.968.968,0,0,1,.9-.576H6.443a.968.968,0,0,1,.9.576l.4.952H2.587ZM1.942,68.886a.61.61,0,1,1,0-1.219,1.21,1.21,0,0,1,.967.914C2.909,68.947,2.329,68.886,1.942,68.886Zm6.444,0c-.387,0-.967.061-.967-.3a1.209,1.209,0,0,1,.967-.914.61.61,0,1,1,0,1.219Z" transform="translate(3.79 -58.967)" fill="#fff"/>
                  </g>
                  <g id="Group_6" data-name="Group 6" transform="translate(225.024 115.228)">
                    <ellipse id="Ellipse_32-2" data-name="Ellipse 32" cx="8.887" cy="9.147" rx="8.887" ry="9.147" transform="translate(0 0)" fill="#002028"/>
                    <path id="car-solid-3" data-name="car-solid" d="M10.075,66.138H8.87l-.335-.795A2.246,2.246,0,0,0,6.441,64H3.884a2.246,2.246,0,0,0-2.093,1.345l-.335.795H.251a.232.232,0,0,0-.234.285l.121.459a.239.239,0,0,0,.234.174h.4a1.189,1.189,0,0,0-.445.917v.916a1.178,1.178,0,0,0,.322.8v1.032a.628.628,0,0,0,.644.612h.644a.628.628,0,0,0,.644-.611v-.61H7.74v.611a.628.628,0,0,0,.644.611h.644a.628.628,0,0,0,.644-.611V69.69a1.177,1.177,0,0,0,.322-.8v-.916a1.19,1.19,0,0,0-.444-.917h.4a.239.239,0,0,0,.234-.174l.121-.459a.232.232,0,0,0-.235-.285ZM2.987,65.8a.967.967,0,0,1,.9-.576H6.441a.967.967,0,0,1,.9.576l.4.952H2.586ZM1.942,68.885a.61.61,0,1,1,0-1.219,1.21,1.21,0,0,1,.966.914C2.908,68.946,2.328,68.885,1.942,68.885Zm6.442,0c-.386,0-.966.061-.966-.3a1.209,1.209,0,0,1,.966-.914.61.61,0,1,1,0,1.219Z" transform="translate(3.789 -58.968)" fill="#fff"/>
                  </g>
                  <g id="Group_7" data-name="Group 7" transform="translate(212.486 71.918)">
                    <ellipse id="Ellipse_32-3" data-name="Ellipse 32" cx="8.885" cy="9.145" rx="8.885" ry="9.145" transform="translate(0 0)" fill="#002028"/>
                    <path id="car-solid-4" data-name="car-solid" d="M9.99,66.162h-1.2l-.332-.8A2.225,2.225,0,0,0,6.386,64H3.851a2.226,2.226,0,0,0-2.076,1.36l-.332.8H.247a.234.234,0,0,0-.232.288l.12.464a.238.238,0,0,0,.232.175h.4a1.211,1.211,0,0,0-.441.927v.927a1.2,1.2,0,0,0,.319.81V70.8a.629.629,0,0,0,.639.618h.639a.629.629,0,0,0,.639-.618V70.18H7.674V70.8a.629.629,0,0,0,.639.618h.639a.629.629,0,0,0,.639-.618V69.754a1.2,1.2,0,0,0,.319-.81v-.926a1.212,1.212,0,0,0-.441-.927h.4a.238.238,0,0,0,.232-.175l.12-.464a.234.234,0,0,0-.233-.288Zm-7.029-.344a.959.959,0,0,1,.89-.583H6.386a.959.959,0,0,1,.89.583l.4.962H2.563ZM1.924,68.94a.616.616,0,0,1,0-1.231,1.21,1.21,0,0,1,.958.924C2.883,69,2.307,68.94,1.924,68.94Zm6.389,0c-.383,0-.958.062-.958-.308a1.209,1.209,0,0,1,.958-.924.616.616,0,0,1,0,1.231Z" transform="translate(3.833 -59.007)" fill="#fff"/>
                  </g>
                  <g id="Group_10" data-name="Group 10" transform="translate(0 109.907)">
                    <ellipse id="Ellipse_32-4" data-name="Ellipse 32" cx="8.885" cy="9.145" rx="8.885" ry="9.145" transform="translate(0 0)" fill="#002028"/>
                    <path id="car-solid-5" data-name="car-solid" d="M9.832,66.209H8.655l-.327-.82A2.191,2.191,0,0,0,6.284,64h-2.5a2.191,2.191,0,0,0-2.045,1.388l-.328.821H.239a.236.236,0,0,0-.228.293l.118.473a.235.235,0,0,0,.229.179H.753a1.255,1.255,0,0,0-.435.947v.946a1.254,1.254,0,0,0,.315.827v1.066a.63.63,0,0,0,.629.631h.629a.63.63,0,0,0,.629-.631V70.31H7.552v.631a.63.63,0,0,0,.629.631H8.81a.63.63,0,0,0,.629-.631V69.875a1.253,1.253,0,0,0,.315-.827V68.1a1.255,1.255,0,0,0-.435-.947h.394a.235.235,0,0,0,.229-.179l.118-.473a.236.236,0,0,0-.228-.293Zm-6.92-.352a.944.944,0,0,1,.877-.595h2.5a.944.944,0,0,1,.876.595l.392.983H2.521ZM1.891,69.044a.629.629,0,0,1,0-1.258,1.212,1.212,0,0,1,.944.944c0,.377-.566.314-.944.314Zm6.29,0c-.377,0-.944.063-.944-.315a1.212,1.212,0,0,1,.944-.944.629.629,0,1,1,0,1.258Z" transform="translate(3.916 -59.079)" fill="#fff"/>
                  </g>
                  <g id="Group_8" data-name="Group 8" transform="translate(139.192 0)">
                    <ellipse id="Ellipse_32-5" data-name="Ellipse 32" cx="8.885" cy="9.145" rx="8.885" ry="9.145" transform="translate(0)" fill="#002028"/>
                    <path id="car-solid-6" data-name="car-solid" d="M10.537,66.006H9.277l-.35-.745A2.373,2.373,0,0,0,6.74,64H4.069a2.373,2.373,0,0,0-2.187,1.261l-.35.745H.273a.225.225,0,0,0-.245.267l.127.43a.248.248,0,0,0,.245.163H.821a1.078,1.078,0,0,0-.465.86v.86a1.048,1.048,0,0,0,.337.751v.968a.629.629,0,0,0,.673.573h.673a.629.629,0,0,0,.673-.573v-.573H8.1v.573a.629.629,0,0,0,.673.573h.673a.629.629,0,0,0,.673-.573v-.969a1.047,1.047,0,0,0,.336-.751v-.86a1.078,1.078,0,0,0-.464-.86h.422a.248.248,0,0,0,.245-.163l.127-.43a.226.226,0,0,0-.245-.267Zm-7.405-.319a1.022,1.022,0,0,1,.938-.54H6.74a1.022,1.022,0,0,1,.938.54l.418.893H2.712ZM2.039,68.582c-.4,0-.673-.229-.673-.571s.269-.571.673-.571,1.01.514,1.01.857S2.443,68.582,2.039,68.582Zm6.731,0c-.4,0-1.01.057-1.01-.286s.606-.857,1.01-.857.673.229.673.571A.593.593,0,0,1,8.77,68.582Z" transform="translate(3.542 -58.761)" fill="#fff"/>
                  </g>
                </g>
                <rect id="Rectangle_8" data-name="Rectangle 8" width="309.332" height="1.276" transform="translate(0 16.909)" fill="#3f3d56"/>
                <path id="Path_179" data-name="Path 179" d="M0,0H308.246V16.909H0Z" transform="translate(0.557)" fill="#f2f2f2"/>
                <ellipse id="Ellipse_23" data-name="Ellipse 23" cx="3.719" cy="3.828" rx="3.719" ry="3.828" transform="translate(6.819 4.761)" fill="#002028"/>
                <ellipse id="Ellipse_24" data-name="Ellipse 24" cx="3.719" cy="3.828" rx="3.719" ry="3.828" transform="translate(17.512 4.761)" fill="#002028"/>
                <ellipse id="Ellipse_25" data-name="Ellipse 25" cx="3.719" cy="3.828" rx="3.719" ry="3.828" transform="translate(28.205 4.761)" fill="#002028"/>
              </g>
              <path id="Path_69" data-name="Path 69" d="M645.087,149.129H343.193a4.409,4.409,0,0,0-4.339,4.466V364.148a4.409,4.409,0,0,0,4.339,4.466H645.087a4.409,4.409,0,0,0,4.339-4.466V153.6a4.409,4.409,0,0,0-4.339-4.466Zm3.1,215.019a3.147,3.147,0,0,1-3.1,3.19H343.193a3.147,3.147,0,0,1-3.1-3.19V153.6a3.147,3.147,0,0,1,3.1-3.19H645.087a3.147,3.147,0,0,1,3.1,3.19Z" transform="translate(-338.854 -149.129)" fill="#3f3d56"/>
            </g>
            <g id="Group_24" data-name="Group 24" transform="translate(84.506 161.691)">
              <g id="Group_12" data-name="Group 12">
                <path id="Path_88" data-name="Path 88" d="M205.628,563.383l4.768-.557.182-19.193-7.037.822Z" transform="translate(-138.095 -413.021)" fill="#a0616a"/>
                <path id="Path_89" data-name="Path 89" d="M0,.049,15.087,0l-.019,5.994-9.258.03A5.866,5.866,0,0,1,0,.049Z" transform="translate(81.301 154.642) rotate(180)" fill="#002028"/>
                <path id="Path_90" data-name="Path 90" d="M89.08,563.617h4.8l2.282-19.05H89.079Z" transform="translate(-70.581 -413.562)" fill="#a0616a"/>
                <path id="Path_91" data-name="Path 91" d="M0,0H15.081V6H5.827A5.914,5.914,0,0,1,0,0Z" transform="translate(32.55 154.641) rotate(179.997)" fill="#002028"/>
                <path id="Path_92" data-name="Path 92" d="M250.3,532.856l2.74,9.173,14.873,33.127,3.914,31.422-9,.4-5.48-29.006-18.787-20.948-16.439,54.788-7.437-.806s6.262-70.9,14.873-78.153C229.553,532.856,243.644,526.007,250.3,532.856Z" transform="translate(-197.371 -467.991)" fill="#002028"/>
                <ellipse id="Ellipse_26" data-name="Ellipse 26" cx="9.613" cy="9.895" rx="9.613" ry="9.895" transform="translate(31.16 5.498)" fill="#a0616a"/>
                <path id="Path_93" data-name="Path 93" d="M266.127,488.745s1.174-41.091-15.265-38.271-9.589,42.5-9.589,42.5,3.523,7.251,12.133-.806S266.127,488.745,266.127,488.745Z" transform="translate(-212.221 -422.066)" fill="#f7af2b"/>
                <path id="Path_94" data-name="Path 94" d="M360.566,451.7a3.927,3.927,0,0,1-2.807,1.844,3.864,3.864,0,0,1-3.176-1.032l-12.313,6.827.645-7.451,11.594-5.342a3.874,3.874,0,0,1,5.253-.193,4.156,4.156,0,0,1,.8,5.348Z" transform="translate(-272.629 -419.221)" fill="#a0616a"/>
                <path id="Path_96" data-name="Path 96" d="M212.108,409.159a.415.415,0,0,0,.13-.34.41.41,0,0,0-.187-.311,5.835,5.835,0,0,1,.539-10.087c2.826-1.387,6.656-.308,8.745-2.973a5.112,5.112,0,0,0,.9-4.06,8.768,8.768,0,0,0-4.349-5.668,15.443,15.443,0,0,0-16.722.224,16.458,16.458,0,0,0-7.188,15.541c.266,2.423.992,5.139-.407,7.107-1.231,1.731-3.557,2.056-5.6,2.486a20.917,20.917,0,0,0-11.581,6.489,15.408,15.408,0,0,0-3.663,12.771c.9,4.509,4.493,8.472,8.912,9.171a11.975,11.975,0,0,0,9.954-3.581,21.956,21.956,0,0,0,5.365-9.643c1.25-4.256,1.743-8.843,4-12.634,2.209-3.71,6.968-6.37,10.7-4.437a.391.391,0,0,0,.449-.055Z" transform="translate(-172.478 -383.371)" fill="#002028"/>
                <path id="Path_95" data-name="Path 95" d="M262.589,455.395l19.987,3.477,17.913-8.7,2.72,5.985L283.6,469.009s-20.759,1.451-25.559-4.183c-1.8-2.113-2.006-4.036-1.56-5.614a5.384,5.384,0,0,1,6.108-3.816Z" transform="translate(-221.907 -421.971)" fill="#f7af2b"/>
              </g>
            </g>
            <g id="Group_14" data-name="Group 14" transform="translate(309.522 160.986)">
              <g id="Group_13" data-name="Group 13" transform="translate(0.804 0)">
                <ellipse id="Ellipse_33" data-name="Ellipse 33" cx="14.071" cy="14.483" rx="14.071" ry="14.483" transform="translate(85 68.671)" fill="#002028"/>
                <g id="Group_12-2" data-name="Group 12" transform="translate(109.955 0)">
                  <g id="Group_6-2" data-name="Group 6" transform="translate(0)">
                    <path id="Path_97" data-name="Path 97" d="M939.707,534.609a3.891,3.891,0,0,0,2-2.588,4,4,0,0,0-.643-3.242l8.852-50.424-8.261-.112-6.147,49.863a4.012,4.012,0,0,0-.708,5.17A3.756,3.756,0,0,0,939.707,534.609Z" transform="translate(-899.747 -433.103)" fill="#ffb8b8"/>
                    <path id="Path_98" data-name="Path 98" d="M749.542,462.891l-3.136,15.4.392,34.457h5.88l2.744-33.647,4.312-14.188Z" transform="translate(-735.219 -363.776)" fill="#ffb8b8"/>
                    <path id="Path_99" data-name="Path 99" d="M799.117,465.742l-3.137,15.331.392,34.295h5.88L805,481.881l4.312-14.121Z" transform="translate(-765.36 -365.477)" fill="#ffb8b8"/>
                    <path id="Path_100" data-name="Path 100" d="M5.836,0H15.1V6.006H0A5.925,5.925,0,0,1,5.836,0Z" transform="translate(3.691 149.015) rotate(-0.144)" fill="#002028"/>
                    <path id="Path_101" data-name="Path 101" d="M5.836,0H15.1V6.006H0A5.925,5.925,0,0,1,5.836,0Z" transform="translate(23.269 149.015) rotate(-0.144)" fill="#002028"/>
                    <ellipse id="Ellipse_27" data-name="Ellipse 27" cx="9.628" cy="9.91" rx="9.628" ry="9.91" transform="translate(19.003 4.107)" fill="#ffb8b8"/>
                    <path id="Path_102" data-name="Path 102" d="M919.709,444.915c-2.929-4.731-12.127-15.951-25.812-9.511a6.016,6.016,0,0,0-3.358,5.9c.662,9,1.5,31.92-5.631,45.636,0,0,20.776,6.456,32.145.4,0,0-3.92-27.033,0-32.278a21.9,21.9,0,0,0,3.141-5.538,5.332,5.332,0,0,0-.484-4.616Z" transform="translate(-869.8 -406.388)" fill="#053440"/>
                    <path id="Path_103" data-name="Path 103" d="M958.433,461.02l3.847,1.65a1.5,1.5,0,0,1,.9,1.322l.353,8.729-8.624-.807Z" transform="translate(-912.358 -422.829)" fill="#053440"/>
                    <path id="Path_104" data-name="Path 104" d="M877.666,564.02s-8.624,16.542-7.056,31.874l12.151,2.017,8.625-21.384-1.96,21.787,12.544.4s8.232-31.471,5.487-34.3Z" transform="translate(-860.991 -484.271)" fill="#002028"/>
                    <path id="Path_105" data-name="Path 105" d="M850.781,505.918a3.8,3.8,0,0,0,2.673-1.837,4.01,4.01,0,0,0,.348-3.289L871.3,466.848l-7.834-2.7-14.752,34.26a3.964,3.964,0,0,0-2.206,4.7A3.818,3.818,0,0,0,850.781,505.918Z" transform="translate(-846.354 -424.694)" fill="#ffb8b8"/>
                    <path id="Path_106" data-name="Path 106" d="M895.169,445.277l-3.24-1.492s-2.748-1.754-5.183,2.1S881.68,458.2,881.68,458.2l10.573,3.062Z" transform="translate(-867.838 -412.31)" fill="#053440"/>
                    <path id="Path_107" data-name="Path 107" d="M906.344,385.152c.346-1.235.246-2.907-.918-3.374a4.046,4.046,0,0,0-1.93.017,5.045,5.045,0,0,1-3.56-1.008,10.536,10.536,0,0,1-2.653-3.691l-1.068-2.06a9.071,9.071,0,0,1-.606-1.342,5.4,5.4,0,0,1,1.372-5.278,7.324,7.324,0,0,1,5.081-2.051,13.383,13.383,0,0,1,5.43,1.2,23.985,23.985,0,0,1,8.1,5.6c1.5,1.582,2.87,3.642,2.556,5.83-.244,1.7-1.451,3.067-2.6,4.317l-4.173,4.534a6.148,6.148,0,0,1-2.561,1.947,2.094,2.094,0,0,1-2.642-1.212A12.974,12.974,0,0,1,906.344,385.152Z" transform="translate(-876.171 -366.365)" fill="#002028"/>
                  </g>
                </g>
                <path id="car-solid-7" data-name="car-solid" d="M14.68,67.116H12.924l-.489-1.158A3.273,3.273,0,0,0,9.386,64H5.659a3.274,3.274,0,0,0-3.051,1.96L2.12,67.116H.363a.338.338,0,0,0-.34.415L.2,68.2a.349.349,0,0,0,.342.254h.589a1.733,1.733,0,0,0-.647,1.335v1.336a1.717,1.717,0,0,0,.468,1.168V73.8a.916.916,0,0,0,.939.891h.939a.916.916,0,0,0,.939-.891v-.891h7.511V73.8a.916.916,0,0,0,.939.891h.939a.916.916,0,0,0,.939-.891V72.292a1.716,1.716,0,0,0,.469-1.167V69.788a1.734,1.734,0,0,0-.647-1.336H14.5a.349.349,0,0,0,.342-.254l.176-.668a.339.339,0,0,0-.342-.415Zm-10.328-.5a1.41,1.41,0,0,1,1.308-.84H9.386a1.41,1.41,0,0,1,1.308.84l.585,1.387H3.767Zm-1.524,4.5a.889.889,0,1,1,0-1.775,1.763,1.763,0,0,1,1.408,1.332C4.237,71.209,3.392,71.119,2.828,71.119Zm9.388,0c-.563,0-1.408.089-1.408-.444a1.763,1.763,0,0,1,1.408-1.332.889.889,0,1,1,0,1.776Z" transform="translate(91.608 13.751)" fill="#fff"/>
              </g>
            </g>
          </g>
        </g>
      </g>
    </g>
  </g>
</svg>
