<svg xmlns="http://www.w3.org/2000/svg" width="556.573" height="346.307" viewBox="0 0 556.573 346.307">
  <g id="Group_15" data-name="Group 15" transform="translate(-246.139 -1031.019)">
    <g id="Group_5" data-name="Group 5" transform="translate(247 1051)">
      <path id="Path_121" data-name="Path 121" d="M512.875,190.934c-19.177,22.384-12.849,54.334-1.763,79.79,3.713,8.521,7.93,17.533,6.005,26.8-2.351,11.333-13.4,19.825-24.89,24.45-20.938,8.429-45.679,7.083-64.412-3.538-16.164-9.168-27.544-24.4-44.022-33.13-27.579-14.6-63.382-8.079-94.076,3.071-21.715,7.887-45.5,18.046-66.664,10.765-14.89-5.125-24.919-18.171-30.195-32.117-2.547-6.733-4.33-14.042-9.4-19.313-3.017-3.135-7-5.317-11.1-7.142-37.42-16.667-85.553-6.25-121.831-24.846C26.025,203.167,10.78,178.8,4.447,153.176S-.319,100.509,2.2,73.925C4,55.033,6.833,34.846,20.185,20,34.307,4.3,57.977-1.944,79.144.521S119.282,13,135.888,24.913c20.755,14.9,39.865,33.592,65.7,39.242,17.591,3.85,36.279,1.124,54.565-.079,30.567-2.011,61.026.3,91.3,2.917,28.982,2.5,58.16,5.291,85.606,13.486,19.422,5.8,34.82,16.762,53.1,24.255,11.919,4.883,25.032,6.016,36.249,12.326,13.841,7.771,26.354,21.537,22.293,38.058C540.865,170.817,523.054,179.055,512.875,190.934Z" transform="translate(555.712 307.289) rotate(178)" fill="#00beff" opacity="0.254"/>
      <line id="Line_3" data-name="Line 3" y2="18.927" transform="translate(255.375 90.772)" fill="none" stroke="#707070" stroke-width="1"/>
      <g id="undraw_Usability_testing_re_uu1g" transform="translate(55.052 18.317)">
        <rect id="Rectangle_62" data-name="Rectangle 62" width="444.556" height="208.95" rx="5" transform="translate(0.19 12.188)" fill="#e6e6e6"/>
        <path id="Rectangle_80" data-name="Rectangle 80" d="M5,0H439.556a5,5,0,0,1,5,5V18.886a0,0,0,0,1,0,0H0a0,0,0,0,1,0,0V5A5,5,0,0,1,5,0Z" transform="translate(0)" fill="#00beff"/>
        <rect id="Rectangle_231" data-name="Rectangle 231" width="420" height="176" rx="5" transform="translate(11.444 30.517)" fill="#fff"/>
        <circle id="Ellipse_90" data-name="Ellipse 90" cx="3.5" cy="3.5" r="3.5" transform="translate(10.534 5.235)" fill="#fff"/>
        <circle id="Ellipse_91" data-name="Ellipse 91" cx="3.5" cy="3.5" r="3.5" transform="translate(23.821 5.235)" fill="#fff"/>
        <circle id="Ellipse_92" data-name="Ellipse 92" cx="3.5" cy="3.5" r="3.5" transform="translate(37.108 5.235)" fill="#fff"/>
        <path id="Path_142" data-name="Path 142" d="M236.465,374.365a1.837,1.837,0,1,0,0,3.674H337.256a1.837,1.837,0,1,0,0-3.674Z" transform="translate(-199.051 -230.853)" fill="#e6e6e6"/>
        <path id="Path_143" data-name="Path 143" d="M236.465,393a1.837,1.837,0,1,0,0,3.674h51.458a1.837,1.837,0,1,0,0-3.674Z" transform="translate(-199.051 -238.466)" fill="#e6e6e6"/>
        <path id="Path_154" data-name="Path 154" d="M380.619,421.361H342.331a1.873,1.873,0,0,1-1.87-1.87v-6.134a1.873,1.873,0,0,1,1.87-1.87h38.287a1.873,1.873,0,0,1,1.87,1.87v6.134a1.873,1.873,0,0,1-1.87,1.87Z" transform="translate(-242.287 -246.018)" fill="#e34949"/>
        <path id="Path_143-2" data-name="Path 143" d="M519.651,259.277c-.693,0-1.254,1.073-1.254,2.4s.561,2.4,1.254,2.4h71.193c.693,0,1.254-1.073,1.254-2.4s-.561-2.4-1.254-2.4Z" transform="translate(-238.757 -130.414)" fill="#e6e6e6"/>
        <path id="Path_142-2" data-name="Path 142" d="M519.9,283.042c-.833,0-1.508,1.073-1.508,2.4s.675,2.4,1.508,2.4H645.98c.833,0,1.508-1.073,1.508-2.4s-.675-2.4-1.508-2.4Z" transform="translate(-238.757 -140.879)" fill="#e6e6e6"/>
        <path id="Path_143-3" data-name="Path 143" d="M520.115,307.358c-.946,0-1.715,1.073-1.715,2.4s.769,2.4,1.715,2.4H617.48c.946,0,1.715-1.073,1.715-2.4s-.769-2.4-1.715-2.4Z" transform="translate(-238.758 -151.894)" fill="#e6e6e6"/>
        <path id="Path_154-2" data-name="Path 154" d="M834.619,353.127H796.331a1.873,1.873,0,0,1-1.87-1.87v-6.135a1.873,1.873,0,0,1,1.87-1.87h38.287a1.873,1.873,0,0,1,1.87,1.87v6.134a1.873,1.873,0,0,1-1.87,1.87Z" transform="translate(-427.757 -218.143)" fill="#f7af2b"/>
        <line id="Line_11" data-name="Line 11" x2="0.034" y2="11.238" transform="translate(239.918 72.456)" fill="none" stroke="#00beff" stroke-width="1"/>
        <line id="Line_12" data-name="Line 12" x2="0.034" y2="11.238" transform="translate(364.127 72.456)" fill="none" stroke="#00beff" stroke-width="1"/>
        <line id="Line_15" data-name="Line 15" x2="0.034" y2="11.238" transform="translate(81.402 72.456)" fill="none" stroke="#00beff" stroke-width="1"/>
        <line id="Line_16" data-name="Line 16" x2="0.034" y2="11.238" transform="translate(131.086 72.456)" fill="none" stroke="#00beff" stroke-width="1"/>
        <line id="Line_18" data-name="Line 18" y2="10.647" transform="translate(106.244 83.694)" fill="none" stroke="#00beff" stroke-width="1"/>
        <path id="Path_143-4" data-name="Path 143" d="M519.777,259.277c-.761,0-1.379,1.073-1.379,2.4s.617,2.4,1.379,2.4h78.285c.761,0,1.379-1.073,1.379-2.4s-.617-2.4-1.379-2.4Z" transform="translate(-349.955 -130.414)" fill="#e6e6e6"/>
        <path id="Path_142-3" data-name="Path 142" d="M518.831,283.042c-.24,0-.434,1.073-.434,2.4s.194,2.4.434,2.4h36.286c.24,0,.434-1.073.434-2.4s-.194-2.4-.434-2.4Z" transform="translate(-349.954 -140.645)" fill="#e6e6e6"/>
        <path id="Path_143-5" data-name="Path 143" d="M519.583,307.358c-.651,0-1.183,1.073-1.183,2.4s.532,2.4,1.183,2.4h67.145c.651,0,1.183-1.073,1.183-2.4s-.532-2.4-1.183-2.4Z" transform="translate(-349.956 -151.427)" fill="#e6e6e6"/>
        <path id="Path_143-6" data-name="Path 143" d="M519.879,307.358c-.818,0-1.479,1.073-1.479,2.4s.663,2.4,1.479,2.4h84.1c.818,0,1.479-1.073,1.479-2.4s-.663-2.4-1.479-2.4Z" transform="translate(-238.758 -138.594)" fill="#e6e6e6"/>
        <path id="Path_143-7" data-name="Path 143" d="M520.684,307.358a2.4,2.4,0,0,0,0,4.791H649.662a2.4,2.4,0,0,0,0-4.791Z" transform="translate(-238.772 -125.294)" fill="#e6e6e6"/>
        <line id="Line_22" data-name="Line 22" y2="10.647" transform="translate(185.502 83.694)" fill="none" stroke="#00beff" stroke-width="1"/>
        <line id="Line_26" data-name="Line 26" x2="0.034" y2="11.238" transform="translate(137.001 72.456)" fill="none" stroke="#00beff" stroke-width="1"/>
        <line id="Line_27" data-name="Line 27" x2="0.034" y2="11.238" transform="translate(234.003 72.456)" fill="none" stroke="#00beff" stroke-width="1"/>
        <g id="Group_4" data-name="Group 4" transform="translate(39.285 45.994)">
          <g id="Group_6" data-name="Group 6">
            <path id="Path_155" data-name="Path 155" d="M316.435,239.351c-4.088.015-7.393,6.063-7.387,13.508.008,7.425,3.312,13.44,7.387,13.455H665.38c4.088-.015,7.393-6.063,7.387-13.508-.008-7.425-3.312-13.44-7.387-13.455Z" transform="translate(-309.048 -239.351)" fill="#e4e4e4"/>
          </g>
          <text id="KMHH351EMKU00TEST" transform="translate(41.159 18.522)" fill="#707070" font-size="15" font-family="OpenSans-Light, Open Sans" font-weight="300" letter-spacing="0.522em"><tspan x="0" y="0">KMHH351EMKU00TEST</tspan></text>
        </g>
      </g>
      <line id="Line_4" data-name="Line 4" x2="26.616" transform="translate(134.714 112.657)" fill="none" stroke="#00beff" stroke-width="1"/>
      <line id="Line_5" data-name="Line 5" y1="43.178" transform="translate(134.714 112.657)" fill="none" stroke="#707070" stroke-width="1"/>
      <line id="Line_8" data-name="Line 8" x1="0.017" y1="10.647" transform="translate(357.091 102.01)" fill="none" stroke="#00beff" stroke-width="1"/>
      <line id="Line_9" data-name="Line 9" x1="124.243" transform="translate(294.97 102.01)" fill="none" stroke="#00beff" stroke-width="1"/>
      <line id="Line_13" data-name="Line 13" x1="13.604" transform="translate(357.109 112.657)" fill="none" stroke="#00beff" stroke-width="1"/>
      <line id="Line_14" data-name="Line 14" y1="30.165" transform="translate(370.695 112.657)" fill="none" stroke="#00beff" stroke-width="1"/>
      <line id="Line_17" data-name="Line 17" x2="49.684" transform="translate(136.488 102.01)" fill="none" stroke="#00beff" stroke-width="1"/>
      <line id="Line_21" data-name="Line 21" x2="97.002" transform="translate(192.087 102.01)" fill="none" stroke="#00beff" stroke-width="1"/>
      <line id="Line_23" data-name="Line 23" x2="23.068" transform="translate(240.588 112.657)" fill="none" stroke="#00beff" stroke-width="1"/>
      <line id="Line_24" data-name="Line 24" y1="43.178" transform="translate(134.714 112.657)" fill="none" stroke="#00beff" stroke-width="1"/>
      <line id="Line_25" data-name="Line 25" y1="30.757" transform="translate(263.656 112.657)" fill="none" stroke="#00beff" stroke-width="1"/>
      <circle id="Ellipse_5" data-name="Ellipse 5" cx="2.662" cy="2.662" r="2.662" transform="translate(260.994 139.569)" fill="#00beff"/>
      <circle id="Ellipse_6" data-name="Ellipse 6" cx="2.662" cy="2.662" r="2.662" transform="translate(132.052 153.173)" fill="#00beff"/>
      <circle id="Ellipse_7" data-name="Ellipse 7" cx="2.662" cy="2.662" r="2.662" transform="translate(368.051 139.569)" fill="#00beff"/>
    </g>
  </g>
</svg>
