<svg xmlns="http://www.w3.org/2000/svg" width="599.175" height="393.927" viewBox="0 0 599.175 393.927">
  <g id="Group_32" data-name="Group 32" transform="translate(-673.108 -142.491)">
    <path id="Path_811" data-name="Path 811" d="M555.714,72.024c-20.327-18.114-52.243-21.793-81.286-20.366-91.238,4.537-173.595,48.578-244.83,98.4-25.788,18.035-51.18,37.47-67.92,62.307-34.076,50.565-23.972,120.606,23.417,162.256,16.12,14.172,35.661,25.035,55.73,34.67,35.661,17.124,74.168,30.866,114.656,34.782,28.878,2.787,58.114.522,86.814-3.375,80.21-10.87,158.921-34.941,224.9-76.069,28.938-18.048,56.218-40.481,68.145-69.684s4.292-66.17-25.286-83.472c-12.224-7.145-26.838-10.375-41.142-13.406-21.06-4.464-42.456-8.862-61.455-17.929-19.627-9.371-42.872-27.492-38.963-48.208C572.692,109.659,575.994,90.092,555.714,72.024Z" transform="translate(531.557 91.111)" fill="#beeefe"/>
    <g id="Group_20" data-name="Group 20" transform="translate(276.759 -137.083)">
      <g id="Group_19" data-name="Group 19" transform="translate(537.585 303)">
        <path id="Path_695" data-name="Path 695" d="M566.8,451.018H265.605c-4.281-.008-7.75-5.862-7.755-13.086V124.552c0-5.292,2.545-9.581,5.681-9.587H568.773c3.191.006,5.776,4.369,5.78,9.753V437.933C574.548,445.157,571.079,451.01,566.8,451.018Z" transform="translate(-257.85 -103.943)" fill="#f2f2f2"/>
        <path id="Path_696" data-name="Path 696" d="M545.925,424.734H285.609c-3.816,0-6.92-5.036-6.92-11.227V153.667c0-4.591,2.3-8.327,5.128-8.327H547.633c2.875,0,5.213,3.8,5.213,8.464v259.7C552.846,419.7,549.741,424.734,545.925,424.734Z" transform="translate(-258.862 -102.781)" fill="#fff"/>
        <path id="Path_697" data-name="Path 697" d="M574.322,123.99h-316.7V116.3c.006-8.362,3.488-15.137,7.783-15.144H566.538c4.3.007,7.777,6.781,7.783,15.144Z" transform="translate(-257.618 -101.159)" fill="#1db0fc"/>
        <circle id="Ellipse_179" data-name="Ellipse 179" cx="3.919" cy="3.919" r="3.919" transform="translate(17.356 7.518)" fill="#fff"/>
        <circle id="Ellipse_180" data-name="Ellipse 180" cx="3.919" cy="3.919" r="3.919" transform="translate(32.233 7.518)" fill="#fff"/>
        <circle id="Ellipse_181" data-name="Ellipse 181" cx="3.919" cy="3.919" r="3.919" transform="translate(47.11 7.518)" fill="#fff"/>
        <path id="Path_1104" data-name="Path 1104" d="M682.676,265.652H594.862a4.936,4.936,0,1,1,0-9.873h87.814a4.936,4.936,0,0,1,0,9.873Z" transform="translate(-534.976 -169.119)" fill="#ccc"/>
        <path id="Path_1105" data-name="Path 1105" d="M827.822,265.652H740.008a4.936,4.936,0,1,1,0-9.873h87.814a4.936,4.936,0,0,1,0,9.873Z" transform="translate(-571.005 -169.119)" fill="#ccc"/>
        <path id="Path_1106" data-name="Path 1106" d="M806.376,290.534H653.611a4.936,4.936,0,0,1,0-9.873H806.376a4.936,4.936,0,1,1,0,9.873Z" transform="translate(-549.559 -175.296)" fill="#ccc"/>
        <path id="Path_1107" data-name="Path 1107" d="M682.676,240.424H594.862a4.936,4.936,0,0,1,0-9.873h87.814a4.936,4.936,0,0,1,0,9.873Z" transform="translate(-534.976 -162.857)" fill="#ccc"/>
        <path id="Path_1108" data-name="Path 1108" d="M767.714,240.77H742.773a4.936,4.936,0,0,1,0-9.873h24.941a4.936,4.936,0,0,1,0,9.873Z" transform="translate(-571.691 -162.943)" fill="#ccc"/>
        <path id="Path_1109" data-name="Path 1109" d="M619.8,290.534H594.862a4.936,4.936,0,0,1,0-9.873H619.8a4.936,4.936,0,0,1,0,9.873Z" transform="translate(-534.976 -175.296)" fill="#ccc"/>
        <path id="Path_1110" data-name="Path 1110" d="M682.676,498.652H594.862a4.936,4.936,0,0,1,0-9.873h87.814a4.936,4.936,0,0,1,0,9.873Z" transform="translate(-534.976 -226.955)" fill="#ccc"/>
        <path id="Path_1111" data-name="Path 1111" d="M827.822,498.652H740.008a4.936,4.936,0,1,1,0-9.873h87.814a4.936,4.936,0,0,1,0,9.873Z" transform="translate(-571.005 -226.955)" fill="#ccc"/>
        <path id="Path_1112" data-name="Path 1112" d="M806.376,523.535H653.611a4.936,4.936,0,0,1,0-9.873H806.376a4.936,4.936,0,0,1,0,9.873Z" transform="translate(-549.559 -233.131)" fill="#ccc"/>
        <path id="Path_1113" data-name="Path 1113" d="M682.676,473.424H594.862a4.936,4.936,0,0,1,0-9.873h87.814a4.936,4.936,0,0,1,0,9.873Z" transform="translate(-534.976 -220.693)" fill="#ccc"/>
        <path id="Path_1114" data-name="Path 1114" d="M767.714,473.77H742.773a4.936,4.936,0,0,1,0-9.873h24.941a4.936,4.936,0,0,1,0,9.873Z" transform="translate(-571.691 -220.778)" fill="#ccc"/>
        <path id="Path_1115" data-name="Path 1115" d="M619.8,523.535H594.862a4.936,4.936,0,0,1,0-9.873H619.8a4.936,4.936,0,1,1,0,9.873Z" transform="translate(-534.976 -233.131)" fill="#ccc"/>
        <path id="Path_1116" data-name="Path 1116" d="M669.574,405.341a7.065,7.065,0,0,1-4.979-2.037l-33.01-32.6a6.88,6.88,0,0,1,0-9.791l32.876-32.465a7.294,7.294,0,0,1,10.257.032h0a7.284,7.284,0,0,1,0,10.289l-24.43,24.43a4.069,4.069,0,0,0,0,5.748l24.3,24.3a7.08,7.08,0,0,1-5.012,12.092Z" transform="translate(-544.809 -186.639)" fill="#1db0fc"/>
        <path id="Path_1117" data-name="Path 1117" d="M750.357,405.341a7.08,7.08,0,0,1-5.012-12.092l24.3-24.3a4.07,4.07,0,0,0,0-5.749l-24.43-24.43a7.276,7.276,0,0,1,0-10.289h0a7.294,7.294,0,0,1,10.257-.032l32.876,32.465a6.88,6.88,0,0,1,0,9.791l-33.01,32.6a7.066,7.066,0,0,1-4.98,2.037Z" transform="translate(-572.993 -186.639)" fill="#1db0fc"/>
      </g>
    </g>
  </g>
</svg>
