<svg xmlns="http://www.w3.org/2000/svg" width="1003.146" height="812.645" viewBox="0 0 1003.146 812.645">
  <g id="Group_16" data-name="Group 16" transform="translate(-407 -2109.637)">
    <g id="undraw_predictive_analytics_kf9n" transform="translate(407 2109.637)">
      <path id="Path_272" data-name="Path 272" d="M159.3,0,92.969,129.38h13.39v105.5H38.877L0,310.711,481.715,557.687l159.3-310.711Z" fill="#beeeff"/>
      <rect id="Rectangle_25" data-name="Rectangle 25" width="761.53" height="390.521" transform="translate(133.296 74.163)" fill="#e6e6e6"/>
      <rect id="Rectangle_18" data-name="Rectangle 18" width="738.53" height="370.521" transform="translate(145.296 84.163)" fill="#fff"/>
      <rect id="Rectangle_19" data-name="Rectangle 19" width="279.461" height="1.256" transform="translate(514.561 217.299)" fill="#e6e6e6"/>
      <rect id="Rectangle_20" data-name="Rectangle 20" width="279.461" height="1.256" transform="translate(515.189 248.699)" fill="#e6e6e6"/>
      <rect id="Rectangle_21" data-name="Rectangle 21" width="279.461" height="1.256" transform="translate(515.189 311.5)" fill="#e6e6e6"/>
      <rect id="Rectangle_22" data-name="Rectangle 22" width="279.461" height="1.256" transform="translate(515.189 339.132)" fill="#e6e6e6"/>
      <rect id="Rectangle_23" data-name="Rectangle 23" width="279.461" height="1.256" transform="translate(515.189 280.099)" fill="#e6e6e6"/>
      <ellipse id="Ellipse_50" data-name="Ellipse 50" cx="410.617" cy="21.352" rx="410.617" ry="21.352" transform="translate(124.137 769.941)" fill="#beeeff"/>
      <path id="Path_273" data-name="Path 273" d="M210.16,296.94l-.818-1.819,38.288-77.336,33.751,51.448,27.294-64.127,11.968,21.558,32.556-41.4,36.163,51.507,56.757-68.413.586,2.183L389.311,239.73l-36.146-51.485-32.64,41.5L308.785,208.6l-27.234,63.986-33.815-51.544Z" transform="translate(319.237 43.102)" fill="#00beff"/>
      <path id="Path_274" data-name="Path 274" d="M597.779,731.247c5.9,21.822,26.123,35.336,26.123,35.336s10.649-21.865,4.746-43.687-26.123-35.336-26.123-35.336S591.876,709.425,597.779,731.247Z" transform="translate(-99.452 17.138)" fill="#a9d59f"/>
      <path id="Path_275" data-name="Path 275" d="M612.574,722.093c16.2,15.768,18.177,40.008,18.177,40.008s-24.284-1.326-40.483-17.094S572.091,705,572.091,705,596.375,706.324,612.574,722.093Z" transform="translate(-105.572 21.603)" fill="#239608"/>
      <circle id="Ellipse_51" data-name="Ellipse 51" cx="42.076" cy="42.076" r="42.076" transform="translate(918.994 25.131)" fill="#beeeff" opacity="0.4"/>
      <circle id="Ellipse_52" data-name="Ellipse 52" cx="29.516" cy="29.516" r="29.516" transform="translate(853.682 57.787)" fill="#beeeff" opacity="0.4"/>
      <circle id="Ellipse_53" data-name="Ellipse 53" cx="15.7" cy="15.7" r="15.7" transform="translate(831.074 612.94)" fill="#beeeff" opacity="0.4"/>
      <circle id="Ellipse_54" data-name="Ellipse 54" cx="11.932" cy="11.932" r="11.932" transform="translate(567.313 698.348)" fill="#beeeff" opacity="0.4"/>
      <circle id="Ellipse_55" data-name="Ellipse 55" cx="15.7" cy="15.7" r="15.7" transform="translate(523.353 536.324)" fill="#beeeff" opacity="0.4"/>
      <circle id="Ellipse_56" data-name="Ellipse 56" cx="16.328" cy="16.328" r="16.328" transform="translate(747.549 201.599)" fill="#00beff"/>
      <path id="Path_276" data-name="Path 276" d="M727.752,535.749l-13.842,1.538s-6.152,27.684,0,64.6S727.752,675.7,727.752,675.7s6.152,119.962,9.228,121.5,30.759,10.766,32.3,1.538,1.538-219.931,1.538-219.931l21.532,101.506s3.076,127.652,9.228,127.652,26.146-1.538,26.146-12.3,4.614-152.26,4.614-152.26-1.538-104.583-7.69-107.658S727.752,535.749,727.752,535.749Z" transform="translate(-69.966 -22.076)" fill="#2f2e41"/>
      <path id="Path_277" data-name="Path 277" d="M738.475,740.1s-13.842-1.538-16.918,0-7.69,12.3,0,18.456,27.683,15.38,33.835,15.38a31.817,31.817,0,0,0,12.3-3.076l-3.076-26.146Z" transform="translate(-68.385 30.414)" fill="#2f2e41"/>
      <path id="Path_278" data-name="Path 278" d="M783.149,748.343l1.538,21.532s19.994,3.076,21.532,0,16.918-10.766,18.456-12.3,3.076-18.456-6.152-19.994-12.3,3.076-12.3,3.076Z" transform="translate(-51.54 29.862)" fill="#2f2e41"/>
      <path id="Path_279" data-name="Path 279" d="M686.956,432.612s-36.911,35.373-32.3,53.829,41.525,72.285,41.525,72.285,35.373,18.456,39.987,0-24.608-13.842-24.608-13.842l-23.07-55.367,26.146-36.911Z" transform="translate(-84.537 -48.129)" fill="#ffb8b8"/>
      <path id="Path_280" data-name="Path 280" d="M815.325,414.408s33.625-21.623,32.847-36.478-21.049-61.695-21.049-61.695-15.857-32.969-22.162-19.5,8.286,27.816,8.286,27.816l9.417,45.947-25.592,24.415Z" transform="translate(-47.976 -83.741)" fill="#ffb8b8"/>
      <ellipse id="Ellipse_57" data-name="Ellipse 57" cx="32.297" cy="36.911" rx="32.297" ry="36.911" transform="translate(651.634 235.299)" fill="#ffb8b8"/>
      <path id="Path_281" data-name="Path 281" d="M734.169,358.674l4.614,29.222,33.835-6.152s-1.538-29.222-1.538-32.3S734.169,358.674,734.169,358.674Z" transform="translate(-64.079 -69.546)" fill="#ffb8b8"/>
      <path id="Path_282" data-name="Path 282" d="M741.409,381.34s38.449-9.228,43.063-6.152,27.684,6.152,27.684,6.152L838.3,421.328l-7.69,50.753s-1.538,81.513,1.538,95.355,19.994,15.38-15.38,18.456-41.525-1.538-66.133,4.614-44.6-3.076-38.449-9.228S729.1,476.695,716.8,467.467s-16.918-56.905-16.918-56.905S741.409,389.03,741.409,381.34Z" transform="translate(-72.857 -62.99)" fill="#d0cde1"/>
      <path id="Path_283" data-name="Path 283" d="M785.6,386.453l4.614-4.614,9.228-9.228s29.99,13.073,28.453,17.687-11.535,31.529-11.535,31.529l-13.842,4.614Z" transform="translate(-50.913 -63.489)" fill="#d0cde1"/>
      <path id="Path_284" data-name="Path 284" d="M724.922,406.3l-18.456-3.076s-13.842,15.38-18.456,21.532-13.842,21.532-13.842,21.532l32.3,23.07,24.608-26.146Z" transform="translate(-79.44 -55.653)" fill="#d0cde1"/>
      <rect id="Rectangle_24" data-name="Rectangle 24" width="80.384" height="80.384" transform="translate(15.928 144.451)" fill="#f7af2b"/>
      <g id="undraw_Spreadsheet_re_cn18" transform="translate(-45.454 178.245)">
        <path id="Path_383" data-name="Path 383" d="M738.051,382.734H442.082a4.006,4.006,0,0,1-4-4V195.42H742.052V378.733A4.006,4.006,0,0,1,738.051,382.734Z" transform="translate(-217.183 -187.716)" fill="#e6e6e6"/>
        <path id="Path_384" data-name="Path 384" d="M736.215,384.594H457.6a4.049,4.049,0,0,1-4.045-4.045V229.584a4.05,4.05,0,0,1,4.045-4.045H736.215a4.049,4.049,0,0,1,4.045,4.045V380.549a4.049,4.049,0,0,1-4.045,4.045Z" transform="translate(-224.025 -201.032)" fill="#fff"/>
        <path id="Path_385" data-name="Path 385" d="M741.82,194.976H437.849v-9.363a4.006,4.006,0,0,1,4-4H737.819a4.006,4.006,0,0,1,4,4Z" transform="translate(-217.08 -181.612)" fill="#6c63ff"/>
        <circle id="Ellipse_171" data-name="Ellipse 171" cx="2.39" cy="2.39" r="2.39" transform="translate(228.196 4.438)" fill="#fff"/>
        <circle id="Ellipse_172" data-name="Ellipse 172" cx="2.39" cy="2.39" r="2.39" transform="translate(237.267 4.438)" fill="#fff"/>
        <circle id="Ellipse_173" data-name="Ellipse 173" cx="2.39" cy="2.39" r="2.39" transform="translate(246.338 4.438)" fill="#fff"/>
        <rect id="Rectangle_26" data-name="Rectangle 26" width="28.715" height="12.71" transform="translate(258.168 51.578)" fill="#e6e6e6"/>
        <rect id="Rectangle_27" data-name="Rectangle 27" width="28.715" height="12.71" transform="translate(315.599 77.94)" fill="#e6e6e6"/>
        <rect id="Rectangle_28" data-name="Rectangle 28" width="28.715" height="12.71" transform="translate(258.168 117.482)" fill="#6c63ff"/>
        <rect id="Rectangle_29" data-name="Rectangle 29" width="28.715" height="12.71" transform="translate(315.599 143.844)" fill="#6c63ff"/>
        <rect id="Rectangle_30" data-name="Rectangle 30" width="28.715" height="12.71" transform="translate(458.705 157.025)" fill="#6c63ff"/>
        <rect id="Rectangle_31" data-name="Rectangle 31" width="28.715" height="12.71" transform="translate(429.989 104.302)" fill="#e6e6e6"/>
        <rect id="Rectangle_32" data-name="Rectangle 32" width="57.431" height="12.71" transform="translate(344.314 104.302)" fill="#6c63ff"/>
        <rect id="Rectangle_33" data-name="Rectangle 33" width="57.431" height="12.71" transform="translate(344.314 37.927)" fill="#6c63ff"/>
        <path id="Path_386" data-name="Path 386" d="M453.414,225.122V384.7H740.568V225.122Zm286.212,13.22h-27.68V226.064h27.68ZM568.84,330.883V318.6h56.3v12.278Zm56.3.941V344.1h-56.3V331.824Zm0-52.88v12.278h-56.3V278.944ZM568.84,278V265.724h56.3V278Zm0,26.44V292.164h56.3v12.279Zm56.3.941v12.279h-56.3V305.384ZM567.9,291.223h-27.68V278.944H567.9Zm0,.942v12.279h-27.68V292.164Zm0,13.22v12.279h-27.68V305.384Zm0,13.22v12.278h-27.68V318.6Zm58.184,0h27.68v12.278h-27.68Zm0-.941V305.384h27.68v12.279Zm0-13.22V292.164h27.68v12.279Zm0-13.22V278.944h27.68v12.278Zm0-13.22V265.724h27.68V278Zm0-13.22V252.5h27.68v12.279Zm-.941,0h-56.3V252.5h56.3Zm-57.242,0h-27.68V252.5H567.9Zm0,.941V278h-27.68V265.724ZM539.278,278H511.6V265.724h27.68Zm0,.942v12.278H511.6V278.944Zm0,13.22v12.279H511.6V292.164Zm0,13.22v12.279H511.6V305.384Zm0,13.22v12.278H511.6V318.6Zm0,13.22V344.1H511.6V331.824Zm.942,0H567.9V344.1h-27.68Zm27.68,13.22v12.278h-27.68V345.044Zm.941,0h56.3v12.278h-56.3Zm57.242,0h27.68v12.278h-27.68Zm0-.942V331.824h27.68V344.1ZM654.7,331.824h27.68V344.1H654.7Zm0-.941V318.6h27.68v12.278Zm0-13.22V305.384h27.68v12.279Zm0-13.22V292.164h27.68v12.279Zm0-13.22V278.944h27.68v12.278Zm0-13.22V265.724h27.68V278Zm0-13.22V252.5h27.68v12.279Zm0-13.22V239.284h27.68v12.278Zm-.941,0h-27.68V239.284h27.68Zm-28.621,0h-56.3V239.284h56.3Zm-57.242,0h-27.68V239.284H567.9Zm-28.621,0H511.6V239.284h27.68Zm0,.941v12.279H511.6V252.5Zm-28.622,12.279h-27.68V252.5h27.68Zm0,.941V278h-27.68V265.724Zm0,13.22v12.278h-27.68V278.944Zm0,13.22v12.279h-27.68V292.164Zm0,13.22v12.279h-27.68V305.384Zm0,13.22v12.278h-27.68V318.6Zm0,13.22V344.1h-27.68V331.824Zm0,13.22v12.278h-27.68V345.044Zm.941,0h27.68v12.278H511.6Zm27.68,13.22v12.279H511.6V358.264Zm.942,0H567.9v12.279h-27.68Zm28.621,0h56.3v12.279h-56.3Zm57.242,0h27.68v12.279h-27.68Zm28.621,0h27.68v12.279H654.7Zm0-.941V345.044h27.68v12.278Zm28.622-12.278h27.68v12.278h-27.68Zm0-.941V331.824h27.68V344.1Zm0-13.22V318.6h27.68v12.278Zm0-13.22V305.384h27.68v12.279Zm0-13.22V292.164h27.68v12.279Zm0-13.22V278.944h27.68v12.278Zm0-13.22V265.724h27.68V278Zm0-13.22V252.5h27.68v12.279Zm0-13.22V239.284h27.68v12.278Zm0-13.22V226.064h27.68v12.279Zm-.942,0H654.7V226.064h27.68Zm-28.622,0h-27.68V226.064h27.68Zm-28.621,0h-56.3V226.064h56.3Zm-57.242,0h-27.68V226.064H567.9Zm-28.621,0H511.6V226.064h27.68Zm-28.621,0h-27.68V226.064h27.68Zm0,.941v12.278h-27.68V239.284Zm-28.621,12.278h-27.68V239.284h27.68Zm0,.941v12.279h-27.68V252.5Zm0,13.22V278h-27.68V265.724Zm0,13.22v12.278h-27.68V278.944Zm0,13.22v12.279h-27.68V292.164Zm0,13.22v12.279h-27.68V305.384Zm0,13.22v12.278h-27.68V318.6Zm0,13.22V344.1h-27.68V331.824Zm0,13.22v12.278h-27.68V345.044Zm0,13.22v12.279h-27.68V358.264Zm.941,0h27.68v12.279h-27.68Zm27.68,13.22v12.278h-27.68V371.485Zm.941,0h27.68v12.278H511.6Zm28.622,0H567.9v12.278h-27.68Zm28.621,0h56.3v12.278h-56.3Zm57.242,0h27.68v12.278h-27.68Zm28.621,0h27.68v12.278H654.7Zm28.622,0h27.68v12.278h-27.68Zm0-.941V358.264h27.68v12.279Zm28.621-12.279h27.68v12.279h-27.68Zm0-.941V345.044h27.68v12.278Zm0-13.22V331.824h27.68V344.1Zm0-13.22V318.6h27.68v12.278Zm0-13.22V305.384h27.68v12.279Zm0-13.22V292.164h27.68v12.279Zm0-13.22V278.944h27.68v12.278Zm0-13.22V265.724h27.68V278Zm0-13.22V252.5h27.68v12.279Zm0-13.22V239.284h27.68v12.278Zm-229.911-25.5v12.279h-27.68V226.064Zm-27.68,145.421h27.68v12.278h-27.68Zm257.591,12.278V371.485h27.68v12.278Z" transform="translate(-223.962 -200.847)" fill="#e6e6e6"/>
      </g>
      <path id="Path_387" data-name="Path 387" d="M20.268,11.58c1.343.435,2.812.944,3.338,1.879.206.366.242.769.429,1.143.853,1.656,4.179,1.981,5.9,3.3a4.63,4.63,0,0,1,1.518,2.282,11.537,11.537,0,0,1-1.064,9.86,8.171,8.171,0,0,1-2.419,2.685c-3.072,2.107-8.37,2.066-12.2.63A21.692,21.692,0,0,1,7.054,26.85a20.926,20.926,0,0,1-2.969-4.068,18.18,18.18,0,0,1-1.469-4.43C1.272,12.491-.482,5.991.123.049c1.814-.077,5.28-.163,6.882.6,2.008.96,1.451,2.9,2.177,4.3C10.9,8.326,15.883,10.108,20.268,11.58Z" transform="translate(683.68 276.343) rotate(-14)" fill="#716c62"/>
      <path id="Path_388" data-name="Path 388" d="M0,9.546c1.791.11,5-1.872,6.795-1.771a55.92,55.92,0,0,0,3.233-6.618c-.955-1.37-2.492-1.7-4.818,0C3.342,2.47.764,7.011,0,9.546Z" transform="translate(707.211 273.953) rotate(-1)" fill="#716c62"/>
      <path id="Path_382" data-name="Path 382" d="M367.691,426.252s-29.648-22.585-14.118-49.687c10.774-18.8,33.1-17.314,45.763-14.639a21.691,21.691,0,0,1,15.651,13.133c2.118,5.27,2.118,10.54-6.353,10.54-16.942,0-8.471,13.551-8.471,13.551s-11.295,3.011-8.471,13.551S367.691,426.252,367.691,426.252Z" transform="translate(295.125 -126.093)" fill="#b1a68f"/>
    </g>
    <g id="undraw_Cautious_dog_q83f" transform="translate(417 2733.53)">
      <path id="Path_365" data-name="Path 365" d="M536.869,229.465c-.242,16.972-14.56,30.394-31.532,30.394h-2.362a7.983,7.983,0,0,0-5.59,2.256,7.771,7.771,0,0,0-2.271,3.964,7.277,7.277,0,0,0-.237,1.879v29.961a30.011,30.011,0,0,1-4.734,16.252,42.912,42.912,0,0,0-7.051,23.122h0a14.449,14.449,0,0,1-14.711,14.439c-7.937-.146-14.162-6.97-14.162-14.913v-7.494l-3.933.463v7.5a14.454,14.454,0,0,1-14.716,14.439c-7.937-.146-14.157-6.97-14.157-14.913v-3.792c-3.938,1.642-26.249,1.642-32.444.055l-1.682-.131v4.341a14.449,14.449,0,0,1-14.711,14.439c-7.942-.146-14.162-6.97-14.162-14.913v-6.23l-1.314-.121v6.824a14.744,14.744,0,0,1-.443,3.583,14.469,14.469,0,0,1-14.269,10.856,14.692,14.692,0,0,1-14.031-12.888,17.848,17.848,0,0,1-.131-2.015V305.468a48.026,48.026,0,0,1,10.239-29.714,8.9,8.9,0,0,0,.247-10.516c-7.348-10.763-18.216-28.924-17.859-41.8a14.1,14.1,0,0,1,3.44-9.529c.141-.156.287-.312.433-.458,10.576-11.08,29.211-2.362,27.584,12.863a42.733,42.733,0,0,0,1.118,15.225,46.67,46.67,0,0,0,2.951,8.164,13.84,13.84,0,0,0,14.162,7.872,48.814,48.814,0,0,1,5.918-.353H437.13a17.048,17.048,0,0,0,16.116-11.583,16.538,16.538,0,0,0,.917-5.5v-47.2a9.186,9.186,0,0,1,9.478-9.186A8.924,8.924,0,0,1,470,186.692a9.9,9.9,0,0,1,2.558,6.618,4.865,4.865,0,0,0,4.87,4.865h28.6a30.827,30.827,0,0,1,30.837,31.291Z" transform="translate(-139.521 -183.72)" fill="#f3ad55"/>
      <path id="Path_366" data-name="Path 366" d="M364,491.634a14.469,14.469,0,0,1-14.268,10.853A14.692,14.692,0,0,1,335.7,489.6C344.443,487.233,356.555,485.611,364,491.634Z" transform="translate(-146.896 -334.476)" fill="#fbdca3"/>
      <path id="Path_367" data-name="Path 367" d="M423.934,491.634a14.459,14.459,0,0,1-14.263,10.853A14.671,14.671,0,0,1,395.64,489.6C404.383,487.233,416.5,485.611,423.934,491.634Z" transform="translate(-176.648 -334.476)" fill="#fbdca3"/>
      <path id="Path_368" data-name="Path 368" d="M549.024,491.634a14.464,14.464,0,0,1-14.268,10.853A14.662,14.662,0,0,1,520.73,489.6C529.468,487.233,541.58,485.611,549.024,491.634Z" transform="translate(-238.739 -334.476)" fill="#fbdca3"/>
      <path id="Path_369" data-name="Path 369" d="M614.169,491.634A14.469,14.469,0,0,1,599.9,502.488,14.671,14.671,0,0,1,585.87,489.6C594.613,487.233,606.725,485.611,614.169,491.634Z" transform="translate(-271.073 -334.476)" fill="#fbdca3"/>
      <path id="Path_370" data-name="Path 370" d="M353.375,265.917c-10.2-4.095-22.663-11.584-32.575-18.1a14.1,14.1,0,0,1,3.44-9.529c.141-.156.287-.312.433-.458,10.576-11.08,29.211-2.362,27.584,12.863A42.732,42.732,0,0,0,353.375,265.917Z" transform="translate(-139.5 -208.085)" fill="#fbdca3"/>
      <path id="Path_371" data-name="Path 371" d="M410,329.751s28.077,35.345,74.034-.091" transform="translate(-183.776 -256.145)" fill="#fbdca3"/>
      <path id="Path_372" data-name="Path 372" d="M585.61,199.36s17.063,22.311,0,49.859" transform="translate(-270.943 -191.468)" fill="#fbdca3"/>
      <path id="Path_373" data-name="Path 373" d="M659.758,350.51s-15.028,18.67-.2,33.486" transform="translate(-304.403 -266.494)" fill="#fbdca3"/>
      <path id="Path_374" data-name="Path 374" d="M619.859,326.121c-1.113,1.048-.735,2.06-1.073,3.6L570,316.935c2.624-2.015,5.877-4.422,6.955-7.625C582.8,313.848,594.361,321.463,619.859,326.121Z" transform="translate(-263.195 -246.044)" opacity="0.1"/>
      <path id="Path_375" data-name="Path 375" d="M622.264,323.144a7.771,7.771,0,0,0-2.271,3.964l-47.563-12.4a16.978,16.978,0,0,0,5.721-8.008C584,311.243,596.76,318.485,622.264,323.144Z" transform="translate(-264.401 -244.748)" fill="#383f4d"/>
      <path id="Path_376" data-name="Path 376" d="M587.34,311.91s14.882,11.191,39.817,14.651" transform="translate(-271.802 -247.334)" opacity="0.1"/>
      <path id="Path_377" data-name="Path 377" d="M587.34,309.31s14.882,11.191,39.817,14.656" transform="translate(-271.802 -246.044)" fill="#f3ad55"/>
      <path id="Path_378" data-name="Path 378" d="M661.19,294.6s24.935,7.872,31.5-17.063Z" transform="translate(-308.459 -230.274)" opacity="0.1"/>
      <path id="Path_379" data-name="Path 379" d="M661.19,292s24.935,7.877,31.5-17.058Z" transform="translate(-308.459 -228.984)" fill="#fbdca3"/>
      <ellipse id="Ellipse_170" data-name="Ellipse 170" cx="2.624" cy="4.593" rx="2.624" ry="4.593" transform="translate(394.729 38.08)" fill="#383f4d"/>
      <path id="Path_380" data-name="Path 380" d="M351.44,414.658l5.248-42s-15.754,24.935-5.248,42" transform="translate(-152.916 -277.489)" opacity="0.1"/>
      <path id="Path_381" data-name="Path 381" d="M359.268,372.66s-15.749,24.935-5.253,42Z" transform="translate(-154.196 -277.489)" fill="#fbdca3"/>
    </g>
  </g>
</svg>
