<svg xmlns="http://www.w3.org/2000/svg" width="695.678" height="543.438" viewBox="0 0 695.678 543.438">
  <g id="Group_16" data-name="Group 16" transform="translate(-401.036 -2106.961)">
    <g id="undraw_predictive_analytics_kf9n" transform="translate(407 2109.637)">
      <path id="Path_1043" data-name="Path 1043" d="M156.961,347.032c14.136,38.51-3.9,82.87-25.1,116.308-7.109,11.192-14.923,22.908-15.92,37-1.187,17.181,8.459,32.979,19.909,43.3,20.872,18.817,49.389,24.634,74.229,15.144,21.469-8.181,39.519-26.729,61.171-34.207,36.236-12.509,74.615,8.231,105.621,34.059,21.944,18.277,45.448,40.5,71.9,36.6,18.627-2.749,34.432-18.515,45.149-37.087,5.176-9,9.68-19.005,17.223-25.06,4.484-3.6,9.747-5.506,15.018-6.864,48.093-12.4,99.123,17.86,146.578,2.3,32.051-10.513,57.61-41.071,73.5-76.243s23.307-74.9,29.487-114.262c4.389-27.972,8.031-58.154-2.035-83.893a75.014,75.014,0,0,0-60.221-46.814c-24.833-3.084-49.748,5.465-72.628,17.525-28.591,15.078-56.613,36.187-87.822,36.26-21.252.049-41.513-9.818-61.836-17.287-34.038-12.542-69.311-18.776-104.536-24.528-33.706-5.506-67.737-10.636-101.646-7.363-23.992,2.3-45.176,13.36-68.456,18.474-15.174,3.338-30.423.818-45.312,6.472-18.315,6.913-37.2,22.957-38.21,48.2C132.067,309.054,149.459,326.587,156.961,347.032Z" transform="translate(-139.38 -140.571) rotate(-5)" fill="#beeefe"/>
      <rect id="Rectangle_25" data-name="Rectangle 25" width="547.417" height="259.866" transform="translate(48.032 49.351)" fill="#e6e6e6"/>
      <rect id="Rectangle_18" data-name="Rectangle 18" width="532.112" height="246.558" transform="translate(56.017 56.005)" fill="#fff"/>
      <rect id="Rectangle_19" data-name="Rectangle 19" width="185.963" height="0.836" transform="translate(342.407 144.599)" fill="#e6e6e6"/>
      <rect id="Rectangle_20" data-name="Rectangle 20" width="185.963" height="0.836" transform="translate(342.825 165.493)" fill="#e6e6e6"/>
      <rect id="Rectangle_21" data-name="Rectangle 21" width="185.963" height="0.836" transform="translate(342.825 207.283)" fill="#e6e6e6"/>
      <rect id="Rectangle_22" data-name="Rectangle 22" width="185.963" height="0.836" transform="translate(342.825 225.67)" fill="#e6e6e6"/>
      <rect id="Rectangle_23" data-name="Rectangle 23" width="185.963" height="0.836" transform="translate(342.825 186.388)" fill="#e6e6e6"/>
      <ellipse id="Ellipse_50" data-name="Ellipse 50" cx="273.239" cy="14.208" rx="273.239" ry="14.208" transform="translate(82.605 512.346)" fill="#94d6eb"/>
      <path id="Path_273" data-name="Path 273" d="M209.886,253.923l-.544-1.21,25.479-51.462,22.459,34.236,18.162-42.672,7.964,14.345,21.664-27.546,24.064,34.275L366.9,168.364l.39,1.453L329.1,215.854l-24.053-34.26-21.72,27.616-7.812-14.071-18.122,42.578-22.5-34.3Z" transform="translate(142.393 -27.647)" fill="#00beff"/>
      <path id="Path_274" data-name="Path 274" d="M597.183,716.631c3.928,14.521,17.383,23.514,17.383,23.514s7.086-14.55,3.158-29.071-17.383-23.514-17.383-23.514S593.255,702.11,597.183,716.631Z" transform="translate(-265.578 -218.629)" fill="#a9d59f"/>
      <path id="Path_275" data-name="Path 275" d="M599.03,716.373c10.779,10.493,12.1,26.623,12.1,26.623s-16.16-.882-26.939-11.375S572.091,705,572.091,705,588.251,705.881,599.03,716.373Z" transform="translate(-261.653 -221.492)" fill="#239608"/>
      <circle id="Ellipse_56" data-name="Ellipse 56" cx="10.865" cy="10.865" r="10.865" transform="translate(497.446 134.151)" fill="#00beff"/>
      <path id="Path_276" data-name="Path 276" d="M722.206,535.291,713,536.315s-4.094,18.422,0,42.984,9.211,49.124,9.211,49.124,4.094,79.827,6.141,80.851,20.468,7.164,21.492,1.023,1.023-146.35,1.023-146.35l14.328,67.546s2.047,84.944,6.141,84.944,17.4-1.023,17.4-8.187,3.07-101.319,3.07-101.319-1.023-69.593-5.117-71.64S722.206,535.291,722.206,535.291Z" transform="translate(-284.492 -193.475)" fill="#2f2e41"/>
      <path id="Path_277" data-name="Path 277" d="M731.407,739.872s-9.211-1.023-11.258,0-5.117,8.187,0,12.281,18.422,10.234,22.515,10.234a21.17,21.17,0,0,0,8.187-2.047l-2.047-17.4Z" transform="translate(-285.506 -227.144)" fill="#2f2e41"/>
      <path id="Path_278" data-name="Path 278" d="M783.149,744.636l1.023,14.328s13.3,2.047,14.328,0,11.258-7.164,12.281-8.187,2.047-12.281-4.094-13.3-8.187,2.047-8.187,2.047Z" transform="translate(-296.311 -226.791)" fill="#2f2e41"/>
      <path id="Path_279" data-name="Path 279" d="M676.016,432.612s-24.562,23.539-21.492,35.82,27.632,48.1,27.632,48.1,23.539,12.281,26.609,0-16.375-9.211-16.375-9.211L677.04,470.479l17.4-24.562Z" transform="translate(-275.146 -176.763)" fill="#ffb8b8"/>
      <path id="Path_280" data-name="Path 280" d="M809.218,373.958s22.375-14.389,21.857-24.274-14.007-41.054-14.007-41.054-10.552-21.939-14.747-12.973,5.514,18.51,5.514,18.51l6.266,30.575-17.03,16.247Z" transform="translate(-298.597 -153.92)" fill="#ffb8b8"/>
      <ellipse id="Ellipse_57" data-name="Ellipse 57" cx="21.492" cy="24.562" rx="21.492" ry="24.562" transform="translate(433.62 156.576)" fill="#ffb8b8"/>
      <path id="Path_281" data-name="Path 281" d="M734.169,355.422l3.07,19.445,22.515-4.094s-1.023-19.445-1.023-21.492S734.169,355.422,734.169,355.422Z" transform="translate(-288.268 -163.026)" fill="#ffb8b8"/>
      <path id="Path_282" data-name="Path 282" d="M727.516,379.072s25.586-6.141,28.656-4.094,18.422,4.094,18.422,4.094l17.4,26.609-5.117,33.773s-1.023,54.241,1.023,63.452,13.3,10.234-10.234,12.281-27.632-1.023-44.007,3.07-29.679-2.047-25.586-6.141,11.258-69.593,3.07-75.733-11.258-37.867-11.258-37.867S727.516,384.189,727.516,379.072Z" transform="translate(-282.638 -167.231)" fill="#d0cde1"/>
      <path id="Path_283" data-name="Path 283" d="M785.6,381.822l3.07-3.07,6.141-6.141s19.957,8.7,18.933,11.769-7.676,20.98-7.676,20.98l-9.211,3.07Z" transform="translate(-296.713 -166.911)" fill="#d0cde1"/>
      <path id="Path_284" data-name="Path 284" d="M707.942,405.271l-12.281-2.047s-9.211,10.234-12.281,14.328-9.211,14.328-9.211,14.328l21.492,15.351,16.375-17.4Z" transform="translate(-278.415 -171.938)" fill="#d0cde1"/>
      <g id="undraw_Spreadsheet_re_cn18" transform="translate(96.661 118.61)">
        <path id="Path_383" data-name="Path 383" d="M637.692,320.065H440.744a2.666,2.666,0,0,1-2.663-2.663V195.42H640.354V317.4A2.665,2.665,0,0,1,637.692,320.065Z" transform="translate(-437.995 -190.294)" fill="#e6e6e6"/>
        <path id="Path_384" data-name="Path 384" d="M641.648,331.38H456.25a2.7,2.7,0,0,1-2.692-2.692V228.231a2.7,2.7,0,0,1,2.692-2.692h185.4a2.7,2.7,0,0,1,2.692,2.692V328.688a2.694,2.694,0,0,1-2.692,2.692Z" transform="translate(-447.726 -209.231)" fill="#fff"/>
        <path id="Path_385" data-name="Path 385" d="M640.122,190.5H437.849v-6.231a2.666,2.666,0,0,1,2.663-2.663H637.459a2.666,2.666,0,0,1,2.663,2.663Z" transform="translate(-437.849 -181.612)" fill="#6c63ff"/>
        <circle id="Ellipse_171" data-name="Ellipse 171" cx="1.59" cy="1.59" r="1.59" transform="translate(4.942 2.953)" fill="#fff"/>
        <circle id="Ellipse_172" data-name="Ellipse 172" cx="1.59" cy="1.59" r="1.59" transform="translate(10.978 2.953)" fill="#fff"/>
        <circle id="Ellipse_173" data-name="Ellipse 173" cx="1.59" cy="1.59" r="1.59" transform="translate(17.015 2.953)" fill="#fff"/>
        <rect id="Rectangle_26" data-name="Rectangle 26" width="19.108" height="8.458" transform="translate(24.887 34.322)" fill="#e6e6e6"/>
        <rect id="Rectangle_27" data-name="Rectangle 27" width="19.108" height="8.458" transform="translate(63.103 51.864)" fill="#e6e6e6"/>
        <rect id="Rectangle_28" data-name="Rectangle 28" width="19.108" height="8.458" transform="translate(24.887 78.177)" fill="#6c63ff"/>
        <rect id="Rectangle_29" data-name="Rectangle 29" width="19.108" height="8.458" transform="translate(63.103 95.719)" fill="#6c63ff"/>
        <rect id="Rectangle_30" data-name="Rectangle 30" width="19.108" height="8.458" transform="translate(158.331 104.49)" fill="#6c63ff"/>
        <rect id="Rectangle_31" data-name="Rectangle 31" width="19.108" height="8.458" transform="translate(139.223 69.406)" fill="#e6e6e6"/>
        <rect id="Rectangle_32" data-name="Rectangle 32" width="38.216" height="8.458" transform="translate(82.211 69.406)" fill="#6c63ff"/>
        <rect id="Rectangle_33" data-name="Rectangle 33" width="38.216" height="8.458" transform="translate(82.211 25.238)" fill="#6c63ff"/>
        <path id="Path_386" data-name="Path 386" d="M453.414,225.122V331.314H644.5V225.122Zm190.456,8.8H625.451v-8.171H643.87ZM530.223,295.5v-8.171h37.465V295.5Zm37.465.626V304.3H530.223v-8.171Zm0-35.188v8.17H530.223v-8.17Zm-37.465-.627V252.14h37.465v8.171Zm0,17.594v-8.171h37.465V277.9Zm37.465.626V286.7H530.223v-8.171ZM529.6,269.108H511.177v-8.17H529.6Zm0,.627V277.9H511.177v-8.171Zm0,8.8V286.7H511.177v-8.171Zm0,8.8V295.5H511.177v-8.171Zm38.717,0h18.419V295.5H568.314Zm0-.626v-8.171h18.419V286.7Zm0-8.8v-8.171h18.419V277.9Zm0-8.8v-8.17h18.419v8.17Zm0-8.8V252.14h18.419v8.171Zm0-8.8v-8.171h18.419v8.171Zm-.626,0H530.223v-8.171h37.465Zm-38.091,0H511.177v-8.171H529.6Zm0,.626v8.171H511.177V252.14Zm-19.046,8.171H492.132V252.14h18.419Zm0,.627v8.17H492.132v-8.17Zm0,8.8V277.9H492.132v-8.171Zm0,8.8V286.7H492.132v-8.171Zm0,8.8V295.5H492.132v-8.171Zm0,8.8V304.3H492.132v-8.171Zm.627,0H529.6V304.3H511.177Zm18.419,8.8v8.17H511.177v-8.17Zm.626,0h37.465v8.17H530.223Zm38.091,0h18.419v8.17H568.314Zm0-.627v-8.171h18.419V304.3Zm19.046-8.171h18.419V304.3H587.359Zm0-.626v-8.171h18.419V295.5Zm0-8.8v-8.171h18.419V286.7Zm0-8.8v-8.171h18.419V277.9Zm0-8.8v-8.17h18.419v8.17Zm0-8.8V252.14h18.419v8.171Zm0-8.8v-8.171h18.419v8.171Zm0-8.8v-8.171h18.419v8.171Zm-.626,0H568.314v-8.171h18.419Zm-19.046,0H530.223v-8.171h37.465Zm-38.091,0H511.177v-8.171H529.6Zm-19.046,0H492.132v-8.171h18.419Zm0,.626v8.171H492.132v-8.171Zm-19.046,8.171H473.086v-8.171h18.419Zm0,.626v8.171H473.086V252.14Zm0,8.8v8.17H473.086v-8.17Zm0,8.8V277.9H473.086v-8.171Zm0,8.8V286.7H473.086v-8.171Zm0,8.8V295.5H473.086v-8.171Zm0,8.8V304.3H473.086v-8.171Zm0,8.8v8.17H473.086v-8.17Zm.627,0h18.419v8.17H492.132Zm18.419,8.8v8.171H492.132V313.72Zm.627,0H529.6v8.171H511.177Zm19.045,0h37.465v8.171H530.223Zm38.091,0h18.419v8.171H568.314Zm19.046,0h18.419v8.171H587.359Zm0-.627v-8.17h18.419v8.17Zm19.046-8.17h18.419v8.17H606.405Zm0-.627v-8.171h18.419V304.3Zm0-8.8v-8.171h18.419V295.5Zm0-8.8v-8.171h18.419V286.7Zm0-8.8v-8.171h18.419V277.9Zm0-8.8v-8.17h18.419v8.17Zm0-8.8V252.14h18.419v8.171Zm0-8.8v-8.171h18.419v8.171Zm0-8.8v-8.17h18.419v8.171Zm0-8.8v-8.171h18.419v8.171Zm-.627,0H587.359v-8.171h18.419Zm-19.046,0H568.314v-8.171h18.419Zm-19.046,0H530.223v-8.171h37.465Zm-38.091,0H511.177v-8.171H529.6Zm-19.046,0H492.132v-8.171h18.419Zm-19.046,0H473.086v-8.171h18.419Zm0,.626v8.17H473.086v-8.17Zm-19.046,8.17H454.041v-8.17H472.46Zm0,.626v8.171H454.041v-8.171Zm0,8.8v8.171H454.041V252.14Zm0,8.8v8.171H454.041v-8.17Zm0,8.8V277.9H454.041v-8.171Zm0,8.8V286.7H454.041v-8.171Zm0,8.8V295.5H454.041v-8.171Zm0,8.8V304.3H454.041v-8.171Zm0,8.8v8.17H454.041v-8.17Zm0,8.8v8.171H454.041V313.72Zm.626,0h18.419v8.171H473.086Zm18.419,8.8v8.171H473.086v-8.171Zm.626,0h18.419v8.171H492.132Zm19.046,0H529.6v8.171H511.177Zm19.046,0h37.464v8.171H530.223Zm38.091,0h18.419v8.171H568.314Zm19.045,0h18.419v8.171H587.359Zm19.046,0h18.419v8.171H606.405Zm0-.626V313.72h18.419v8.171Zm19.046-8.171H643.87v8.171H625.451Zm0-.626v-8.17H643.87v8.17Zm0-8.8v-8.171H643.87V304.3Zm0-8.8v-8.17H643.87V295.5Zm0-8.8v-8.171H643.87V286.7Zm0-8.8v-8.171H643.87V277.9Zm0-8.8v-8.17H643.87v8.17Zm0-8.8V252.14H643.87v8.171Zm0-8.8v-8.171H643.87v8.171Zm0-8.8v-8.17H643.87v8.171ZM472.46,225.749v8.171H454.041v-8.171Zm-18.419,96.768H472.46v8.171H454.041Zm171.41,8.171v-8.171H643.87v8.171Z" transform="translate(-447.635 -208.969)" fill="#e6e6e6"/>
      </g>
      <path id="Path_387" data-name="Path 387" d="M13.487,7.706a3.965,3.965,0,0,1,2.221,1.25c.137.244.161.512.286.761.567,1.1,2.781,1.318,3.924,2.2a3.081,3.081,0,0,1,1.01,1.518,7.677,7.677,0,0,1-.708,6.561,5.438,5.438,0,0,1-1.61,1.786c-2.044,1.4-5.57,1.375-8.117.42a14.434,14.434,0,0,1-5.8-4.331A13.925,13.925,0,0,1,2.718,15.16a12.1,12.1,0,0,1-.978-2.948C.846,8.312-.321,3.987.082.032c1.207-.051,3.513-.108,4.58.4C6,1.072,5.627,2.36,6.11,3.294,7.253,5.541,10.569,6.726,13.487,7.706Z" transform="translate(454.945 183.888) rotate(-14)" fill="#716c62"/>
      <path id="Path_388" data-name="Path 388" d="M0,6.352c1.192.073,3.327-1.246,4.521-1.179A37.211,37.211,0,0,0,6.673.77C6.037-.142,5.014-.365,3.467.77,2.224,1.643.508,4.665,0,6.352Z" transform="translate(470.603 182.298) rotate(-1)" fill="#716c62"/>
      <path id="Path_382" data-name="Path 382" d="M361.462,404.2s-19.729-15.029-9.395-33.064c7.169-12.512,22.025-11.521,30.452-9.741a14.434,14.434,0,0,1,10.415,8.739c1.409,3.507,1.409,7.014-4.228,7.014-11.274,0-5.637,9.017-5.637,9.017s-7.516,2-5.637,9.017S361.462,404.2,361.462,404.2Z" transform="translate(79.599 -204.466)" fill="#b1a68f"/>
    </g>
    <g id="undraw_Cautious_dog_q83f" transform="translate(534.298 2524.818)">
      <path id="Path_365" data-name="Path 365" d="M464.594,214.171c-.161,11.294-9.689,20.225-20.983,20.225H442.04a5.312,5.312,0,0,0-3.72,1.5,5.171,5.171,0,0,0-1.511,2.637,4.84,4.84,0,0,0-.158,1.25v19.937a19.971,19.971,0,0,1-3.15,10.815,28.555,28.555,0,0,0-4.692,15.386h0a9.615,9.615,0,0,1-9.789,9.608,9.821,9.821,0,0,1-9.424-9.923v-4.987l-2.617.308v4.994a9.618,9.618,0,0,1-9.793,9.608,9.818,9.818,0,0,1-9.421-9.923v-2.524c-2.621,1.092-17.467,1.092-21.589.037l-1.119-.087v2.889a9.615,9.615,0,0,1-9.789,9.608,9.819,9.819,0,0,1-9.424-9.923v-4.146l-.875-.08v4.541a9.809,9.809,0,0,1-.294,2.384,9.628,9.628,0,0,1-9.495,7.224,9.776,9.776,0,0,1-9.337-8.576,11.867,11.867,0,0,1-.087-1.341V264.746a31.958,31.958,0,0,1,6.813-19.773,5.925,5.925,0,0,0,.164-7c-4.89-7.162-12.122-19.247-11.884-27.816a9.381,9.381,0,0,1,2.289-6.341c.094-.1.191-.208.288-.3,7.038-7.373,19.438-1.572,18.355,8.559a28.436,28.436,0,0,0,.744,10.131,31.056,31.056,0,0,0,1.964,5.433,9.209,9.209,0,0,0,9.424,5.238,32.481,32.481,0,0,1,3.938-.235h40.374a11.344,11.344,0,0,0,10.724-7.708,11.006,11.006,0,0,0,.61-3.66V189.867a6.113,6.113,0,0,1,6.307-6.113,5.939,5.939,0,0,1,4.229,1.954,6.586,6.586,0,0,1,1.7,4.4,3.238,3.238,0,0,0,3.241,3.237h19.029a20.513,20.513,0,0,1,20.52,20.822Z" transform="translate(-320.829 -183.751)" fill="#f3ad55"/>
      <path id="Path_366" data-name="Path 366" d="M354.531,490.241a9.628,9.628,0,0,1-9.494,7.222,9.777,9.777,0,0,1-9.337-8.576C341.518,487.312,349.578,486.232,354.531,490.241Z" transform="translate(-330.707 -385.683)" fill="#fbdca3"/>
      <path id="Path_367" data-name="Path 367" d="M414.468,490.241a9.622,9.622,0,0,1-9.491,7.222,9.763,9.763,0,0,1-9.337-8.576C401.458,487.312,409.518,486.232,414.468,490.241Z" transform="translate(-370.559 -385.683)" fill="#fbdca3"/>
      <path id="Path_368" data-name="Path 368" d="M539.558,490.241a9.625,9.625,0,0,1-9.494,7.222,9.757,9.757,0,0,1-9.333-8.576C526.545,487.312,534.6,486.232,539.558,490.241Z" transform="translate(-453.727 -385.683)" fill="#fbdca3"/>
      <path id="Path_369" data-name="Path 369" d="M604.7,490.241a9.628,9.628,0,0,1-9.494,7.222,9.763,9.763,0,0,1-9.337-8.576C591.688,487.312,599.748,486.232,604.7,490.241Z" transform="translate(-497.036 -385.683)" fill="#fbdca3"/>
      <path id="Path_370" data-name="Path 370" d="M342.476,254.849c-6.786-2.725-15.081-7.708-21.676-12.045a9.382,9.382,0,0,1,2.289-6.341c.094-.1.191-.208.288-.3,7.038-7.373,19.438-1.572,18.355,8.559A28.436,28.436,0,0,0,342.476,254.849Z" transform="translate(-320.8 -216.386)" fill="#fbdca3"/>
      <path id="Path_371" data-name="Path 371" d="M410,329.72s18.684,23.52,49.265-.06" transform="translate(-380.106 -280.761)" fill="#fbdca3"/>
      <path id="Path_372" data-name="Path 372" d="M585.61,199.36s11.354,14.846,0,33.178" transform="translate(-496.863 -194.129)" fill="#fbdca3"/>
      <path id="Path_373" data-name="Path 373" d="M657.5,350.51s-10,12.423-.134,22.283" transform="translate(-541.681 -294.623)" fill="#fbdca3"/>
      <path id="Path_374" data-name="Path 374" d="M603.178,320.5c-.741.7-.489,1.371-.714,2.393L570,314.384c1.746-1.341,3.911-2.942,4.628-5.074C578.516,312.33,586.21,317.4,603.178,320.5Z" transform="translate(-486.485 -267.231)" opacity="0.1"/>
      <path id="Path_375" data-name="Path 375" d="M605.591,317.642a5.171,5.171,0,0,0-1.511,2.638l-31.65-8.251a11.3,11.3,0,0,0,3.807-5.329C580.131,309.723,588.62,314.542,605.591,317.642Z" transform="translate(-488.1 -265.496)" fill="#383f4d"/>
      <path id="Path_376" data-name="Path 376" d="M587.34,311.91s9.9,7.447,26.5,9.749" transform="translate(-498.013 -268.96)" opacity="0.1"/>
      <path id="Path_377" data-name="Path 377" d="M587.34,309.31s9.9,7.447,26.5,9.752" transform="translate(-498.013 -267.231)" fill="#f3ad55"/>
      <path id="Path_378" data-name="Path 378" d="M661.19,288.894s16.592,5.238,20.959-11.354Z" transform="translate(-547.114 -246.108)" opacity="0.1"/>
      <path id="Path_379" data-name="Path 379" d="M661.19,286.291s16.592,5.241,20.959-11.351Z" transform="translate(-547.114 -244.379)" fill="#fbdca3"/>
      <ellipse id="Ellipse_170" data-name="Ellipse 170" cx="1.746" cy="3.056" rx="1.746" ry="3.056" transform="translate(142.023 25.319)" fill="#383f4d"/>
      <path id="Path_380" data-name="Path 380" d="M350.231,400.607l3.492-27.947s-10.483,16.593-3.492,27.947" transform="translate(-338.77 -309.35)" opacity="0.1"/>
      <path id="Path_381" data-name="Path 381" d="M356.3,372.66s-10.48,16.593-3.5,27.947Z" transform="translate(-340.485 -309.35)" fill="#fbdca3"/>
    </g>
  </g>
</svg>
