<svg xmlns="http://www.w3.org/2000/svg" width="741.087" height="559.07" viewBox="0 0 741.087 559.07">
  <g id="Group_27" data-name="Group 27" transform="translate(-1064.051 -1867.787)">
    <path id="Path_811" data-name="Path 811" d="M653.807,76.913c-25.141-22.4-64.616-26.954-100.539-25.19-112.848,5.611-214.71,60.083-302.817,121.7-31.9,22.307-63.3,46.345-84.007,77.064C124.3,313.031,136.795,399.66,195.407,451.175c19.938,17.528,44.107,30.965,68.929,42.882,44.107,21.179,91.734,38.177,141.811,43.02,35.718,3.447,71.878.645,107.375-4.174,99.207-13.444,196.561-43.216,278.166-94.086,35.792-22.323,69.533-50.069,84.285-86.188s5.309-81.842-31.275-103.242c-15.119-8.838-33.194-12.832-50.886-16.581-26.047-5.522-52.511-10.961-76.01-22.176-24.275-11.59-53.026-34-48.191-59.626C674.806,123.462,678.89,99.26,653.807,76.913Z" transform="translate(922.5 1816.407)" fill="#beeefe"/>
    <g id="undraw_Stock_prices_re_js33" transform="translate(1164.793 1923.239)">
      <path id="fc914514-1042-4f3e-9382-2a2bd3a05a2f" d="M279.509,131.32a2.159,2.159,0,0,0-2.157,2.157v73.568a2.159,2.159,0,0,0,2.157,2.157H530.365a2.159,2.159,0,0,0,2.157-2.157V133.477a2.159,2.159,0,0,0-2.157-2.157Z" transform="translate(-244.687 -131.32)" fill="#e6e6e6"/>
      <path id="fc60a940-5b5f-47e1-886f-8b9349204f05" d="M284.185,205.226H528.544V138.153H284.185Z" transform="translate(-246.115 -132.748)" fill="#fff"/>
      <path id="b37dca77-34e7-4938-924b-74ea49a8e34b" d="M553.187,205.36a3.573,3.573,0,1,0,0,7.146h14.292a3.573,3.573,0,0,0,0-7.146Z" transform="translate(-301.603 -146.798)" fill="#f7af2b"/>
      <rect id="a114a1b8-363a-4115-bcea-0275bda15cb1" width="164.983" height="0.94" transform="translate(104.467 51.632)" fill="#e6e6e6"/>
      <circle id="fd059875-cd6f-429e-81eb-c199f1a3d666" cx="20.811" cy="20.811" r="20.811" transform="translate(49.17 18.13)" fill="#ea7678"/>
      <path id="ad693766-5e26-437f-8d3d-58ce33ee9e84" d="M368.325,185.37l-.521-.782,17.144-11.429L396.7,178.8l16.91-10.8.229.1,33.41,14.252,26.787-13.159,26.012,10.546,32.685,6.644.623.7-33.121-6.257-26.162-10.607-26.8,13.163L413.7,169.057l-16.933,10.818-11.746-5.638Z" transform="translate(-263.596 -138.987)" fill="#20befd"/>
      <path id="ff424c2d-4733-4249-9b35-4eb43ebe2556" d="M371.186,205.983a3.055,3.055,0,1,0,0,6.11h31.962a3.055,3.055,0,0,0,.1-6.11h-32.06Z" transform="translate(-263.664 -146.928)" fill="#e6e6e6"/>
      <path id="Path_794" data-name="Path 794" d="M330.591,177.821a1.248,1.248,0,0,0-1.765,0h0l-5.358,5.358V169.967a1.248,1.248,0,1,0-2.5,0v13.212l-5.358-5.358a1.248,1.248,0,1,0-1.77,1.761l0,0,7.488,7.488a1.248,1.248,0,0,0,1.765,0l7.488-7.488A1.248,1.248,0,0,0,330.591,177.821Z" transform="translate(-252.24 -139.138)" fill="#c72a2a"/>
      <path id="ebf544e0-cedc-491d-9ace-ce79788cc3b4" d="M404.284,280.283a2.159,2.159,0,0,0-2.157,2.157v73.568a2.159,2.159,0,0,0,2.157,2.157H655.14a2.159,2.159,0,0,0,2.157-2.157V282.44a2.159,2.159,0,0,0-2.157-2.157Z" transform="translate(-270.771 -162.46)" fill="#e6e6e6"/>
      <path id="f05ecdaf-6a8f-49c4-b8a7-f7e5ce9efcf7" d="M408.961,354.189H653.32V287.116H408.961Z" transform="translate(-272.2 -163.889)" fill="#fff"/>
      <path id="a9f7bc9d-00a6-4157-bba1-ffc7ec111a68" d="M677.963,354.325a3.573,3.573,0,1,0,0,7.146h14.29a3.573,3.573,0,1,0,0-7.146Z" transform="translate(-327.687 -177.939)" fill="#f7af2b"/>
      <rect id="a15d3d52-efbb-4636-8d15-228635c5d6e5" width="164.983" height="0.94" transform="translate(203.158 169.455)" fill="#e6e6e6"/>
      <circle id="e4ee77d8-efe6-4a2a-a3ed-71b8f3ee957e" cx="20.811" cy="20.811" r="20.811" transform="translate(147.861 135.954)" fill="#a9d59f"/>
      <path id="fc1c89ac-2b6e-4831-b128-0ac2ab1fa850" d="M493.1,329.784l-.522-.782,17.144-11.429,11.757,5.643,16.91-10.8.229.1,33.409,14.252L598.812,313.6l26.012,10.545L657.509,295.2l.623.7-33.121,29.333L598.849,314.63l-26.8,13.163-33.578-14.323-16.933,10.818L509.8,318.651Z" transform="translate(-289.679 -165.579)" fill="#20befd"/>
      <path id="bd690ac4-3df0-4871-95d5-adaa934b7c24" d="M495.949,354.946a3.055,3.055,0,0,0-.1,6.11h32.062a3.055,3.055,0,1,0,0-6.111Z" transform="translate(-289.735 -178.069)" fill="#e6e6e6"/>
      <path id="Path_795" data-name="Path 795" d="M438.624,327.3a1.248,1.248,0,0,0,1.765,0h0l5.358-5.358v13.212a1.248,1.248,0,0,0,2.5,0V321.944L453.6,327.3a1.248,1.248,0,1,0,1.765-1.765l-7.488-7.488a1.248,1.248,0,0,0-1.765,0l-7.488,7.488A1.248,1.248,0,0,0,438.624,327.3Z" transform="translate(-278.324 -170.279)" fill="#239617"/>
      <path id="b1a491a7-739b-4f1f-bff8-dbf70f6892c8" d="M238.21,429.247a2.159,2.159,0,0,0-2.157,2.157v73.568a2.159,2.159,0,0,0,2.157,2.157H489.066a2.159,2.159,0,0,0,2.157-2.157V431.4a2.159,2.159,0,0,0-2.157-2.157Z" transform="translate(-236.053 -193.601)" fill="#e6e6e6"/>
      <path id="acd48b1a-d10a-4276-b388-f016adebff0c" d="M242.887,503.153H487.246V436.08H242.887Z" transform="translate(-237.482 -195.03)" fill="#fff"/>
      <path id="bed21912-b6c9-41df-a59b-963435bac71a" d="M511.888,503.288a3.573,3.573,0,1,0,0,7.146H526.18a3.573,3.573,0,1,0,0-7.146Z" transform="translate(-292.969 -209.079)" fill="#f7af2b"/>
      <rect id="a26455fb-834b-4368-afb2-80d86a75d46a" width="164.983" height="0.94" transform="translate(71.801 287.278)" fill="#e6e6e6"/>
      <circle id="f17c58cd-37a1-42e1-9e5f-26c2ec8825b4" cx="20.811" cy="20.811" r="20.811" transform="translate(16.504 253.776)" fill="#a9d59f"/>
      <path id="b803193f-4714-40c6-8606-08b9dea6d22d" d="M327.024,482.929l-.521-.782,17.144-11.43L355.4,476.36l16.911-10.807L405.95,479.9l26.787-13.159,26.009,10.549,32.685-13.13.623.7-33.117,13.517-26.162-10.607-26.8,13.163L372.4,466.616l-16.932,10.819L343.723,471.8Z" transform="translate(-254.962 -200.9)" fill="#20befd"/>
      <path id="b19b31b4-3a52-4fc9-8ed4-dc6729deb0ed" d="M329.887,503.909a3.055,3.055,0,1,0,0,6.11h31.962a3.055,3.055,0,1,0,.1-6.11H329.887Z" transform="translate(-255.03 -209.209)" fill="#e6e6e6"/>
      <path id="Path_796" data-name="Path 796" d="M272.55,476.265a1.248,1.248,0,0,0,1.765,0h0l5.358-5.358v13.212a1.248,1.248,0,1,0,2.5.008v-13.22l5.358,5.358a1.248,1.248,0,0,0,1.77-1.76l0,0-7.488-7.488a1.248,1.248,0,0,0-1.765,0L272.55,474.5a1.248,1.248,0,0,0,0,1.765Z" transform="translate(-243.607 -201.419)" fill="#239617"/>
      <path id="Path_797" data-name="Path 797" d="M645.723,609.684H633.678l-5.73-46.458h17.777Z" transform="translate(-131.271 -117.741)" fill="#ffb7b7"/>
      <path id="Path_798" data-name="Path 798" d="M880.093,763.919H841.255v-.491a15.117,15.117,0,0,1,15.116-15.116h23.723Z" transform="translate(-362.57 -260.301)" fill="#2f2e41"/>
      <path id="Path_799" data-name="Path 799" d="M589.827,609.684H577.782l-5.73-46.458h17.777Z" transform="translate(-119.586 -117.741)" fill="#ffb7b7"/>
      <path id="Path_800" data-name="Path 800" d="M824.2,763.919H785.36v-.491a15.117,15.117,0,0,1,15.116-15.116H824.2Z" transform="translate(-350.885 -260.301)" fill="#2f2e41"/>
      <path id="Path_801" data-name="Path 801" d="M797.867,551.909a9.213,9.213,0,0,0,.174-14.125l6.547-20.008L793.4,510.832l-8.848,28.386a9.262,9.262,0,0,0,13.316,12.692Z" transform="translate(-350.329 -210.656)" fill="#ffb7b7"/>
      <path id="Path_802" data-name="Path 802" d="M814.031,543.932s-11.242,60.857-11.1,72.67c.169,14.255,6.512,75.349,6.512,75.349l16.149-4.037,3.052-70.811,12.772-45.193,4.912,57.965,4.931,60.975h18.734l4.2-152.972-61.166-2.019Z" transform="translate(-354.557 -215.888)" fill="#2f2e41"/>
      <path id="Path_803" data-name="Path 803" d="M873.916,391.025l-32.3,1.009L821.432,517.188s42.9,19.681,61.063,5.551S873.916,391.025,873.916,391.025Z" transform="translate(-358.426 -185.611)" fill="#cbcbcb"/>
      <path id="Path_806" data-name="Path 806" d="M584.87,273.58l-9.083-3.028-13.121,58.539-11.1,46.428,16.149,3.028,15.14-50.465Z" transform="translate(-115.303 -56.558)" fill="#604d35"/>
      <path id="Path_807" data-name="Path 807" d="M942.995,564.33a9.212,9.212,0,0,1-.174-14.125L936.273,530.2l11.189-6.944,8.849,28.386a9.262,9.262,0,0,1-13.316,12.692Z" transform="translate(-382.433 -213.253)" fill="#ffb7b7"/>
      <path id="Path_808" data-name="Path 808" d="M679.625,271.191l9.083-3.123,13.121,60.39,12.085,60.058-18.176,2.759-14.095-63.858Z" transform="translate(-142.074 -59.815)" fill="#604d35"/>
      <circle id="Ellipse_195" data-name="Ellipse 195" cx="22.433" cy="22.433" r="22.433" transform="translate(471.111 160.981) rotate(-28.663)" fill="#ffb7b7"/>
      <path id="Path_810" data-name="Path 810" d="M855.731,308.673c21.445-6.184,27.533,11.59,27.533,11.59,10.337,6.858,3.865,15.456,3.865,15.456,2.608.579-2.607,15.843-4.346,15.457-.928-.206-3.314,2.642-5.338,5.343a10.708,10.708,0,0,0-2.067.2l3.926-14.526s-13.235-2.028-17.293-8.4c-3.882-6.1-16.662-8.025-20.3-3.951a9.2,9.2,0,0,0-1.3-3.293,6.58,6.58,0,0,0-1.907-1.912C841.724,310.968,855.731,308.673,855.731,308.673Z" transform="translate(-361.996 -168.122)" fill="#483a28"/>
      <path id="Path_804" data-name="Path 804" d="M840.958,407.43,813.707,525.844l-17.158-3.82,12.112-42.782,6.056-42.782-1.009-42.782,21.2-6.876,6.056-5.348S853.07,392.914,840.958,407.43Z" transform="translate(-353.224 -183.61)" fill="#34291a"/>
      <path id="Path_805" data-name="Path 805" d="M870.519,404.24l2.019,122.749,41.381-5.278-3.028-113.864,4.037-15.835-20.186-6.787-8.174-3.77S868.5,385.552,870.519,404.24Z" transform="translate(-368.654 -183.61)" fill="#34291a"/>
    </g>
  </g>
</svg>
