<svg xmlns="http://www.w3.org/2000/svg" xmlns:xlink="http://www.w3.org/1999/xlink" width="709.376" height="460.772" viewBox="0 0 709.376 460.772">
  <defs>
    <linearGradient id="linear-gradient" x1="0.5" y1="1" x2="0.5" gradientUnits="objectBoundingBox">
      <stop offset="0" stop-color="gray" stop-opacity="0.251"/>
      <stop offset="0.54" stop-color="gray" stop-opacity="0.122"/>
      <stop offset="1" stop-color="gray" stop-opacity="0.102"/>
    </linearGradient>
    <linearGradient id="linear-gradient-2" x1="0.63" y1="0.974" x2="0.63" y2="-0.017" xlink:href="#linear-gradient"/>
  </defs>
  <g id="undraw_browser_stats_re_j7wy" transform="translate(-1.154)">
    <g id="person" transform="translate(0.098 89.413)">
      <path id="Path_1153" data-name="Path 1153" d="M775.543,440.675a7.168,7.168,0,0,1,10.57,3.011l16.373-.432,2.69,9.886-23.131.286a7.206,7.206,0,0,1-6.5-12.75Z" transform="translate(-208.213 -253.036)" fill="#ffb8b8"/>
      <path id="Path_1154" data-name="Path 1154" d="M799.814,443.056a5.486,5.486,0,0,1-1.734-3.647l-.655-9.827a5.467,5.467,0,0,1,2.128-4.708l26.4-20.281L841.3,385.967a9.607,9.607,0,0,1,13.04-1.663h0a9.593,9.593,0,0,1,2.042,13.513L838.5,421.679l-12.725,13.476a27.676,27.676,0,0,1-15.125,8.18l-6.139,1.1a5.482,5.482,0,0,1-4.341-1.075Q799.986,443.217,799.814,443.056Z" transform="translate(-214.12 -239.614)" fill="#083d4b"/>
      <path id="Path_1155" data-name="Path 1155" d="M744.209,435.282l-8.478,2.117-12.2-31.693,12.513-3.125Z" transform="translate(-37.558 -77.995)" fill="#ffb8b8"/>
      <path id="Path_1156" data-name="Path 1156" d="M10.611,0H27.464V10.611H0A10.611,10.611,0,0,1,10.611,0Z" transform="translate(681.215 361.062) rotate(-14.022)" fill="#2f2e41"/>
      <path id="Path_1157" data-name="Path 1157" d="M646.5,442.768h-8.738l-4.155-33.706h12.9Z" transform="translate(-16.371 -79.522)" fill="#ffb8b8"/>
      <path id="Path_1158" data-name="Path 1158" d="M627.61,449.89h16.853V460.5H617A10.611,10.611,0,0,1,627.61,449.89Z" transform="translate(-12.457 -89.142)" fill="#2f2e41"/>
      <circle id="Ellipse_238" data-name="Ellipse 238" cx="18.774" cy="18.774" r="18.774" transform="translate(607.571 82.414)" fill="#ffb8b8"/>
      <path id="Path_1159" data-name="Path 1159" d="M845.745,319.49c.035-2.511,4.356-2.826,5.7-.685s.482,4.932-.7,7.161c-1.235,2.32-2.836,4.663-2.589,7.3a3.973,3.973,0,0,0,6.087,2.842c6.132-3.776,11.309-9.272,13.6-15.97,2.409-7.045,1.205-15.443-4-20.855s-14.551-6.944-20.735-2.617l-10.555-7.189a1.473,1.473,0,0,0-2.266,1.6l1.544,5.016-5.331-1.341a1.172,1.172,0,0,0-1.309,1.748l1.831,2.844c-2.441-2.008-6.658.28-7.008,3.378s2.167,5.952,5.128,7.119,6.266,1.034,9.455.883a7.508,7.508,0,0,0,3.484,8.083A10.069,10.069,0,0,0,845.745,319.49Z" transform="translate(-219.436 -217.637)" fill="#2f2e41"/>
      <path id="Path_1160" data-name="Path 1160" d="M853.788,612.715l-.109,0-13.5-.421a3.44,3.44,0,0,1-3.327-3.626l6.751-123.956,51.87,14.71L929.489,605.5a3.44,3.44,0,0,1-3.184,4.489l-15.546.413a3.472,3.472,0,0,1-3.285-2.162l-34.986-87.516a1.147,1.147,0,0,0-2.2.258l-13.1,88.793A3.44,3.44,0,0,1,853.788,612.715Z" transform="translate(-223.412 -263.703)" fill="#2f2e41"/>
      <path id="Path_1161" data-name="Path 1161" d="M894.331,485.241a17.489,17.489,0,0,1-10.257-3.333l-16.691-12.048a28.169,28.169,0,0,0-12.37-5.013l-8.031-1.171a5.018,5.018,0,0,1-4.3-5.189l3.2-76.628-1.9-10.924a4.725,4.725,0,0,1,1.982-4.7l14.876-10.178a6.223,6.223,0,0,1,4-1.066l.544.043a7.284,7.284,0,0,1,6.5,5.5l.57,2.282,9.9,17.594a65.3,65.3,0,0,1,6.534,16.573l9.382,38.555a69.537,69.537,0,0,1,1.689,10.2l3.107,34.671a3.477,3.477,0,0,1-2.185,3.561,17.6,17.6,0,0,1-6.543,1.267Z" transform="translate(-224.785 -233.134)" fill="#083d4b"/>
      <path id="Path_1162" data-name="Path 1162" d="M869.479,481.728a7.167,7.167,0,0,1,6.889-8.564l5.977-15.25,10.153,1.372L883.755,480.7a7.206,7.206,0,0,1-14.276,1.025Z" transform="translate(-231.068 -257.389)" fill="#ffb8b8"/>
      <path id="Path_1163" data-name="Path 1163" d="M886.352,452.032a5.486,5.486,0,0,1-4.034.178l-9.307-3.223a5.467,5.467,0,0,1-3.508-3.794l-8.4-32.211L849.919,391.6a9.607,9.607,0,0,1,3.546-12.658h0a9.593,9.593,0,0,1,13.242,3.381l15.019,25.754,7.458,16.967a27.675,27.675,0,0,1,1.645,17.117l-1.375,6.084a5.482,5.482,0,0,1-2.681,3.58Q886.567,451.936,886.352,452.032Z" transform="translate(-226.235 -238.455)" fill="#083d4b"/>
    </g>
    <g id="chart">
      <path id="Path_1164" data-name="Path 1164" d="M768.208,558.538H225.867a16.519,16.519,0,0,1-16.5-16.5v-305.8h575.34v305.8a16.519,16.519,0,0,1-16.5,16.5Z" transform="translate(-208.213 -217.637)" fill="#f2f2f2"/>
      <path id="Path_1165" data-name="Path 1165" d="M746.625,526.955H247.45a8.51,8.51,0,0,1-8.5-8.5V276.321a8.51,8.51,0,0,1,8.5-8.5H746.625a8.51,8.51,0,0,1,8.5,8.5V518.455a8.51,8.51,0,0,1-8.5,8.5Z" transform="translate(-208.213 -217.637)" fill="#fff"/>
      <path id="Path_1166" data-name="Path 1166" d="M783.553,247.385H208.213V234.137a16.486,16.486,0,0,1,16.434-16.5H767.119a16.486,16.486,0,0,1,16.434,16.5Z" transform="translate(-207.059 -217.637)" fill="#1db0fc"/>
      <path id="Path_1170" data-name="Path 1170" d="M361.893,418.343h-63.71a4.725,4.725,0,1,0,0,9.45h63.71a4.725,4.725,0,1,0,0-9.45Z" transform="translate(-208.213 -217.637)" fill="#e6e6e6"/>
      <path id="Path_1171" data-name="Path 1171" d="M361.893,444.163h-63.71a4.722,4.722,0,0,0-1.94,9.03,4.663,4.663,0,0,0,1.94.42h63.71a4.725,4.725,0,1,0,0-9.45Z" transform="translate(-208.213 -217.637)" fill="#e6e6e6"/>
      <path id="Path_1172" data-name="Path 1172" d="M361.893,469.983h-63.71a4.725,4.725,0,0,0,0,9.45h63.71a4.725,4.725,0,1,0,0-9.45Z" transform="translate(-208.213 -217.637)" fill="#e6e6e6"/>
      <path id="Path_1173" data-name="Path 1173" d="M528.893,418.343h-63.71a4.725,4.725,0,0,0,0,9.45h63.71a4.725,4.725,0,1,0,0-9.45Z" transform="translate(-208.213 -217.637)" fill="#e6e6e6"/>
      <path id="Path_1174" data-name="Path 1174" d="M528.893,444.163h-63.71a4.725,4.725,0,0,0,0,9.45h63.71a4.725,4.725,0,1,0,0-9.45Z" transform="translate(-208.213 -217.637)" fill="#e6e6e6"/>
      <path id="Path_1175" data-name="Path 1175" d="M528.893,469.983h-63.71a4.725,4.725,0,0,0-1.49,9.21,4.6,4.6,0,0,0,1.49.24h63.71a4.725,4.725,0,1,0,0-9.45Z" transform="translate(-208.213 -217.637)" fill="#e6e6e6"/>
      <path id="Path_1176" data-name="Path 1176" d="M695.893,418.343h-63.71a4.725,4.725,0,0,0,0,9.45h63.71a4.725,4.725,0,0,0,0-9.45Z" transform="translate(-208.213 -217.637)" fill="#e6e6e6"/>
      <path id="Path_1177" data-name="Path 1177" d="M695.893,444.163h-63.71a4.722,4.722,0,0,0-1.94,9.03,4.663,4.663,0,0,0,1.94.42h63.71a4.725,4.725,0,0,0,0-9.45Z" transform="translate(-208.213 -217.637)" fill="#e6e6e6"/>
      <path id="Path_1178" data-name="Path 1178" d="M695.893,469.983h-63.71a4.725,4.725,0,0,0,0,9.45h63.71a4.725,4.725,0,1,0,0-9.45Z" transform="translate(-208.213 -217.637)" fill="#e6e6e6"/>
      <circle id="Ellipse_239" data-name="Ellipse 239" cx="4.283" cy="4.283" r="4.283" transform="translate(14.642 10.765)" fill="#fff"/>
      <circle id="Ellipse_240" data-name="Ellipse 240" cx="4.283" cy="4.283" r="4.283" transform="translate(30.901 10.765)" fill="#fff"/>
      <circle id="Ellipse_241" data-name="Ellipse 241" cx="4.283" cy="4.283" r="4.283" transform="translate(47.16 10.765)" fill="#fff"/>
      <path id="Path_1179" data-name="Path 1179" d="M343.763,418.343h-45.58a4.725,4.725,0,1,0,0,9.45h44.63a5.379,5.379,0,0,0,.95-9.45Z" transform="translate(-208.213 -217.637)" fill="#f7af2b"/>
      <path id="Path_1180" data-name="Path 1180" d="M322.713,444.163h-24.53a4.722,4.722,0,0,0-1.94,9.03h22.53a5.382,5.382,0,0,0,5.38-5.38A5.271,5.271,0,0,0,322.713,444.163Z" transform="translate(-208.213 -217.637)" fill="#f7af2b"/>
      <path id="Path_1181" data-name="Path 1181" d="M357.133,469.983h-58.95a4.725,4.725,0,0,0,0,9.45h59.33a5.368,5.368,0,0,0-.38-9.45Z" transform="translate(-208.213 -217.637)" fill="#f7af2b"/>
      <path id="Path_1182" data-name="Path 1182" d="M647.873,418.343h-15.69a4.725,4.725,0,0,0-2.31,8.85h13.9a5.382,5.382,0,0,0,5.38-5.38,5.3,5.3,0,0,0-1.28-3.47Z" transform="translate(-208.213 -217.637)" fill="#f7af2b"/>
      <path id="Path_1183" data-name="Path 1183" d="M659.713,444.163h-27.53a4.722,4.722,0,0,0-1.94,9.03h25.53a5.382,5.382,0,0,0,5.38-5.38A5.271,5.271,0,0,0,659.713,444.163Z" transform="translate(-208.213 -217.637)" fill="#f7af2b"/>
      <path id="Path_1184" data-name="Path 1184" d="M679.133,469.983h-46.95a4.725,4.725,0,1,0,0,9.45h47.33a5.368,5.368,0,0,0-.38-9.45Z" transform="translate(-208.213 -217.637)" fill="#f7af2b"/>
      <path id="Path_1185" data-name="Path 1185" d="M524.463,444.163h-59.28a4.725,4.725,0,0,0,0,9.45h59.01a5.368,5.368,0,0,0,.27-9.45Z" transform="translate(-208.213 -217.637)" fill="#f7af2b"/>
      <path id="Path_1186" data-name="Path 1186" d="M471.543,469.983h-6.36a4.725,4.725,0,0,0-1.49,9.21h4.08a5.382,5.382,0,0,0,5.38-5.38,5.314,5.314,0,0,0-1.61-3.83Z" transform="translate(-208.213 -217.637)" fill="#f7af2b"/>
      <path id="Path_1187" data-name="Path 1187" d="M499.763,418.343h-34.58a4.725,4.725,0,0,0,0,9.45h33.63a5.379,5.379,0,0,0,.95-9.45Z" transform="translate(-208.213 -217.637)" fill="#f7af2b"/>
      <g id="Group_49" data-name="Group 49">
        <path id="Path_1167" data-name="Path 1167" d="M374.463,315.343h-88.85a8.506,8.506,0,0,0-8.5,8.5v58.4a8.506,8.506,0,0,0,8.5,8.5h88.85a8.512,8.512,0,0,0,8.5-8.5v-58.4a8.512,8.512,0,0,0-8.5-8.5Z" transform="translate(-208.213 -217.637)" fill="#e6e6e6"/>
        <path id="Path_1206" data-name="Path 1206" d="M873.794,430.418v-1.805a4.192,4.192,0,0,1-2.408-.787l.378-1.2a3.848,3.848,0,0,0,2.266.769,1.735,1.735,0,0,0,1.873-1.752c0-.983-.614-1.591-1.778-2.127-1.605-.715-2.6-1.537-2.6-3.092a2.811,2.811,0,0,1,2.376-2.878v-1.805h.976v1.734a3.829,3.829,0,0,1,2.046.626l-.393,1.18a3.477,3.477,0,0,0-1.983-.608,1.511,1.511,0,0,0-1.668,1.537c0,.93.582,1.394,1.951,2.038,1.621.751,2.439,1.68,2.439,3.271a2.991,2.991,0,0,1-2.486,3.039v1.859Z" transform="translate(-713.402 -263.993)" fill="#1db0fc"/>
        <g id="Group_48" data-name="Group 48" transform="translate(64.417 -48.499)">
          <path id="Path_843" data-name="Path 843" d="M194.895,325.059c1.712-3.509,1.358-9.222,1.176-11.161-.04-.424-.071-.668-.071-.668s-1.509-.238-.953-2.065c.272-.895-.694-1.389-1.75-1.66a12.322,12.322,0,0,0-2.3-.325l-14.62-.9h0c-2-3.182-5.949-2.671-5.949-2.671s-3.519-.366-6.013-.4a6.714,6.714,0,0,0-1.237-.864,4.075,4.075,0,0,0-.839-.382,2.377,2.377,0,0,0-2.1.394,1.117,1.117,0,0,0-.342.4,1.089,1.089,0,0,0-.069.223,3.99,3.99,0,0,0-.093.4.683.683,0,0,1-.093.181c-.1.142-.272.248-.294.419a.267.267,0,0,0,0,.03.311.311,0,0,0-.036.106.381.381,0,0,0,.047.219.352.352,0,0,0,.019.031,2.613,2.613,0,0,0-.3.574.955.955,0,0,0-.1.062l-.028.02v.056l-.016.012-.034.912.019.015a2.7,2.7,0,0,0,1.256,2.108c.012.058.023.118.034.18a4.892,4.892,0,0,1,.069.906h-.016a2.641,2.641,0,0,0-1.82.4h-8.289a25.975,25.975,0,0,1,3.595-3.693v-1.828c-1.413-.07-13.827,5.893-16.548,7.21l-.12.058-13.987.433a21.554,21.554,0,0,0-6.667.963,18.973,18.973,0,0,0-8.349,5.334,15.6,15.6,0,0,0-2.376,3.311l.016.126-.016.032.022.019.377,2.974.259,2.046c-1.8,1.165.532,1.632.532,1.632,2.222,1.906,5.8,1.827,5.8,1.827.873,1.192,3.415,1.033,3.415,1.033h13.342a32.333,32.333,0,0,1,.833-3.63,8.06,8.06,0,0,0,7.712,7.243,7.218,7.218,0,0,0,.867-.053,7.211,7.211,0,0,0,.867.053,8.076,8.076,0,0,0,7.73-7.386h.653a14.552,14.552,0,0,1-.632,2.74c11.992-3.495,34.309-5.162,34.309-5.162q.139-1.32.3-2.546a5.94,5.94,0,0,0,5.43,3.876,5.351,5.351,0,0,1,1.319,0,6.1,6.1,0,0,0,5.819-5.227,13.617,13.617,0,0,1,.122,1.586c-.1.506-.193.829-.2.874q.108-.2.206-.406v.165c-.022.093-.038.144-.043.162l.041-.076v.121A3.627,3.627,0,0,1,194.895,325.059Z" transform="translate(-93.547 -138.031)" fill="url(#linear-gradient)"/>
          <rect id="Rectangle_223" data-name="Rectangle 223" width="27.492" height="11.09" transform="translate(72.456 174.417)" fill="#6f7d95"/>
          <path id="Path_844" data-name="Path 844" d="M593.73,275.913l3.9,8.748,7.733-.469.312-3.593.234-4.218L594.98,275.6Z" transform="translate(-528.264 -106.689)" fill="#4b5c7a"/>
          <path id="Path_845" data-name="Path 845" d="M681.68,322.789a7.316,7.316,0,0,1,3.281-1.719c1.8-.313,7.811.312,7.811.312l.859,1.482-.161.706Z" transform="translate(-616.214 -153.565)" fill="#ff4d52"/>
          <rect id="Rectangle_224" data-name="Rectangle 224" width="27.727" height="8.123" transform="translate(52.461 173.715)" fill="#4b5c7a"/>
          <path id="Path_846" data-name="Path 846" d="M626.825,319.92a4.369,4.369,0,0,0-.728-4.059l-2.421-1.689a.111.111,0,0,1-.007.017,3.147,3.147,0,0,1-.658-1.276c-.007-.03-.014-.06-.021-.093a2.6,2.6,0,0,0,.574-.588,1.419,1.419,0,0,0,.637-1.019,5.077,5.077,0,0,0,.6-1.216,2.167,2.167,0,0,0,.061-.212,1.111,1.111,0,0,0,.061-.416,1.138,1.138,0,0,0-.154-.444,4.669,4.669,0,0,0-1.884-1.677,4.013,4.013,0,0,0-.825-.376,2.338,2.338,0,0,0-2.065.387,1.1,1.1,0,0,0-.336.391,1.07,1.07,0,0,0-.068.219,3.925,3.925,0,0,0-.088.391.672.672,0,0,1-.087.177c-.1.139-.268.244-.29.413a.266.266,0,0,0,0,.03.305.305,0,0,0-.035.1.37.37,0,0,0,.046.216.328.328,0,0,0,.019.031,2.57,2.57,0,0,0-.295.565.947.947,0,0,0-.1.061l-.027.019v.056l-.016.012-.034.9.018.015a2.655,2.655,0,0,0,1.234,2.073c.012.057.023.116.033.177a4.754,4.754,0,0,1,.067.979.332.332,0,0,1,0-.085c-.669-.3-2.13.534-2.718.9h0a1.115,1.115,0,0,0-.247.16l-.01.007h0c-.4.328-1.2,1.239-1.838,3.581-.88,3.268-.788,4.009-1.429,4.766s-1.277,6.094-1.277,6.094l1.29.347.165-.53c1.533,1.4,5.827,2.071,5.827,2.071l.132-.408a3.46,3.46,0,0,0,1.759-.123c1.609-.569,2.212-2.011,3.38-3.914S626.825,319.92,626.825,319.92Zm-6.491,9.846,2.972-9.22c.269,1.432-.919,3.686-1.025,5.161C622.215,326.655,621.111,328.54,620.334,329.766Z" transform="translate(-553.459 -140.68)" fill="url(#linear-gradient-2)"/>
          <path id="Path_847" data-name="Path 847" d="M718.737,343.755s.518,1.971-1.019,2.315-.524-.886-.524-.886l1.482-1.444Z" transform="translate(-648.143 -174.215)" fill="#472727"/>
          <path id="Path_848" data-name="Path 848" d="M622.938,394.64s-1.143.463-1.982,3.582-.757,3.822-1.361,4.548-1.224,5.812-1.224,5.812l1.209.326,1.053-3.4,2.9-8.982Z" transform="translate(-558.767 -220.402)" fill="#dde0e4"/>
          <path id="Path_849" data-name="Path 849" d="M622.938,394.64s-1.143.463-1.982,3.582-.757,3.822-1.361,4.548-1.224,5.812-1.224,5.812l1.209.326,1.053-3.4,2.9-8.982Z" transform="translate(-558.767 -220.402)" opacity="0.05"/>
          <path id="Path_850" data-name="Path 850" d="M695.518,354.091s-4.784,2.432-4.084.845a3.947,3.947,0,0,0,.232-2.222,4.744,4.744,0,0,0-.3-1.076s3.252-2.572,3.061-.472a4.018,4.018,0,0,0,.093,1.35A2.708,2.708,0,0,0,695.518,354.091Z" transform="translate(-625.002 -180.205)" fill="#db8b8b"/>
          <path id="Path_851" data-name="Path 851" d="M694.5,352.529a2.5,2.5,0,0,1-2.222.463,2.529,2.529,0,0,1-.634-.268,4.75,4.75,0,0,0-.3-1.076s3.252-2.572,3.061-.472A4.017,4.017,0,0,0,694.5,352.529Z" transform="translate(-624.98 -180.214)" opacity="0.1"/>
          <circle id="Ellipse_197" data-name="Ellipse 197" cx="2.504" cy="2.504" r="2.504" transform="translate(64.916 172.002) rotate(-74.93)" fill="#db8b8b"/>
          <path id="Path_852" data-name="Path 852" d="M686.7,314.685a.6.6,0,0,1-.833-.219.36.36,0,0,1-.043-.206c.021-.161.181-.261.278-.395.151-.216.122-.511.232-.751a1.056,1.056,0,0,1,.317-.37,2.177,2.177,0,0,1,1.94-.378,3.7,3.7,0,0,1,.772.355,4.308,4.308,0,0,1,1.759,1.59,1.085,1.085,0,0,1,.143.423,1.2,1.2,0,0,1-.083.472,4.924,4.924,0,0,1-.577,1.173.9.9,0,0,0-.3-.242.309.309,0,0,0-.356.066c-.081.1-.13.3-.252.253-.08-.03-.079-.14-.075-.225a1.286,1.286,0,0,0-.456-.969,3.821,3.821,0,0,0-.939-.577,3.952,3.952,0,0,0-.817-.432C687.086,314.193,686.933,314.541,686.7,314.685Z" transform="translate(-619.974 -145.67)" opacity="0.1"/>
          <path id="Path_853" data-name="Path 853" d="M687.071,313.315a.6.6,0,0,1-.833-.219.36.36,0,0,1-.043-.206c.021-.161.181-.261.278-.394.151-.216.122-.511.232-.751a1.055,1.055,0,0,1,.317-.37,2.177,2.177,0,0,1,1.94-.378,3.7,3.7,0,0,1,.772.355,4.308,4.308,0,0,1,1.759,1.59,1.087,1.087,0,0,1,.143.423,1.2,1.2,0,0,1-.083.472,4.92,4.92,0,0,1-.577,1.173.9.9,0,0,0-.3-.242.309.309,0,0,0-.356.066c-.081.1-.13.3-.252.253-.08-.03-.079-.14-.075-.225a1.286,1.286,0,0,0-.457-.97,3.82,3.82,0,0,0-.939-.577,3.951,3.951,0,0,0-.817-.432C687.456,312.822,687.3,313.171,687.071,313.315Z" transform="translate(-620.31 -144.427)" fill="#472727"/>
          <path id="Path_854" data-name="Path 854" d="M635.8,385.527s1.981-.388,2.067-.706l2.265,1.6a4.186,4.186,0,0,1,.666,3.864s-.568,4.9-1.671,6.715-1.738,4.172-3.25,4.723a6.937,6.937,0,0,0-1.933-.926s2.462-3.568,2.568-4.973,1.231-3.559.984-4.922l-3.334,10.362s-5.371-.833-5.915-2.616a2.389,2.389,0,0,0,.377-1.4c-.086-.7,2.026-6.006,2.026-6.006l1.011-5.528s2-1.4,2.8-1.034C634.457,384.675,634.312,385.364,635.8,385.527Z" transform="translate(-567.732 -211.31)" fill="#dde0e4"/>
          <g id="Group_28" data-name="Group 28" transform="translate(65.464 169.324)" opacity="0.1">
            <path id="Path_855" data-name="Path 855" d="M684.99,342.164h0c-.489-.667-1.421-.119-1.574-.024l-.24-.024c-.209-.228-.851-.833-1.454-.388l-.026.019-.036.855.026.02a1.787,1.787,0,0,0,.582.3.879.879,0,0,0,.411.02.709.709,0,0,0,.473-.37l.125.008.093-.018a.7.7,0,0,0,.333.476,1.444,1.444,0,0,0,1.044,0l.031-.012.222-.827Zm-.314.752a1.238,1.238,0,0,1-.9,0,.6.6,0,0,1-.278-.45l-.011-.068-.2.042-.2-.007-.019.039a.6.6,0,0,1-.406.341,1.251,1.251,0,0,1-.858-.272l.031-.722c.524-.353,1.1.219,1.269.406l.018.019.338.033.02-.014c.009-.006.849-.569,1.328-.116a.614.614,0,0,1,.066.071Z" transform="translate(-681.66 -341.569)"/>
            <path id="Path_856" data-name="Path 856" d="M717.231,348.275l-1.574-.131-.13-.025.058-.219a.613.613,0,0,0-.066-.071l.191.018,1.288.126Z" transform="translate(-712.385 -347.25)"/>
          </g>
          <path id="Path_857" data-name="Path 857" d="M685.17,341.524h0c-.489-.667-1.421-.119-1.574-.024l-.24-.024c-.209-.228-.851-.833-1.454-.388l-.026.019-.036.855.026.02a1.786,1.786,0,0,0,.582.3.879.879,0,0,0,.411.02.71.71,0,0,0,.473-.37l.125.008.093-.018a.7.7,0,0,0,.333.476,1.444,1.444,0,0,0,1.044,0l.031-.012.222-.827Zm-.314.752a1.238,1.238,0,0,1-.9,0,.6.6,0,0,1-.278-.45l-.011-.068-.2.042-.2-.013-.019.039a.6.6,0,0,1-.4.344,1.251,1.251,0,0,1-.858-.272l.031-.722c.524-.353,1.1.219,1.269.406l.018.019.338.033.02-.014c.009-.006.849-.569,1.328-.116a.614.614,0,0,1,.066.071Z" transform="translate(-616.359 -171.664)" fill="#472727"/>
          <path id="Path_858" data-name="Path 858" d="M717.446,347.635l-1.569-.131-.13-.025.058-.219a.624.624,0,0,0-.066-.071l.191.018,1.288.126Z" transform="translate(-647.12 -177.346)" fill="#472727"/>
          <rect id="Rectangle_225" data-name="Rectangle 225" width="27.492" height="11.09" transform="translate(32.076 180.041)" fill="#6f7d95"/>
          <ellipse id="Ellipse_198" data-name="Ellipse 198" cx="7.672" cy="8.396" rx="7.672" ry="8.396" transform="translate(36.986 181.603)" fill="#4b5c7a"/>
          <ellipse id="Ellipse_199" data-name="Ellipse 199" cx="7.672" cy="8.396" rx="7.672" ry="8.396" transform="translate(36.986 181.603)" opacity="0.05"/>
          <ellipse id="Ellipse_200" data-name="Ellipse 200" cx="7.672" cy="8.396" rx="7.672" ry="8.396" transform="translate(38.691 181.603)" fill="#4b5c7a"/>
          <circle id="Ellipse_201" data-name="Ellipse 201" cx="3.409" cy="3.409" r="3.409" transform="translate(42.783 186.632)" opacity="0.05"/>
          <circle id="Ellipse_202" data-name="Ellipse 202" cx="1.023" cy="1.023" r="1.023" transform="translate(45.169 189.018)" fill="none" stroke="#6f7d95" stroke-miterlimit="10" stroke-width="2"/>
          <circle id="Ellipse_203" data-name="Ellipse 203" cx="0.256" cy="0.256" r="0.256" transform="translate(45.937 187.996)" fill="#6f7d95"/>
          <circle id="Ellipse_204" data-name="Ellipse 204" cx="0.256" cy="0.256" r="0.256" transform="matrix(0.766, -0.643, 0.643, 0.766, 47.231, 188.713)" fill="#6f7d95"/>
          <circle id="Ellipse_205" data-name="Ellipse 205" cx="0.256" cy="0.256" r="0.256" transform="translate(47.818 190.341) rotate(-80)" fill="#6f7d95"/>
          <circle id="Ellipse_206" data-name="Ellipse 206" cx="0.256" cy="0.256" r="0.256" transform="translate(47.034 191.334) rotate(-30)" fill="#6f7d95"/>
          <circle id="Ellipse_207" data-name="Ellipse 207" cx="0.256" cy="0.256" r="0.256" transform="matrix(0.342, -0.94, 0.94, 0.342, 45.597, 191.852)" fill="#6f7d95"/>
          <circle id="Ellipse_208" data-name="Ellipse 208" cx="0.256" cy="0.256" r="0.256" transform="matrix(0.94, -0.342, 0.342, 0.94, 44.451, 190.605)" fill="#6f7d95"/>
          <circle id="Ellipse_209" data-name="Ellipse 209" cx="0.256" cy="0.256" r="0.256" transform="translate(44.415 189.366) rotate(-60)" fill="#6f7d95"/>
          <path id="Path_859" data-name="Path 859" d="M1002.009,420.21a22.081,22.081,0,0,1-.991,3.79q.007-.185.009-.366v-.463a12.586,12.586,0,0,0-4.563-9.538A9.847,9.847,0,0,0,995,412.6h4.764a36.194,36.194,0,0,1,2.265,5.7A5.714,5.714,0,0,1,1002.009,420.21Z" transform="translate(-900.521 -236.699)" fill="#ff4d52"/>
          <path id="Path_860" data-name="Path 860" d="M1002.009,420.21a22.081,22.081,0,0,1-.991,3.79q.007-.185.009-.366v-.463a12.586,12.586,0,0,0-4.563-9.538A9.847,9.847,0,0,0,995,412.6h4.764a36.194,36.194,0,0,1,2.265,5.7A5.714,5.714,0,0,1,1002.009,420.21Z" transform="translate(-900.521 -236.699)" opacity="0.05"/>
          <ellipse id="Ellipse_210" data-name="Ellipse 210" cx="5.835" cy="6.386" rx="5.835" ry="6.386" transform="translate(87.53 177.287)" fill="#4b5c7a"/>
          <ellipse id="Ellipse_211" data-name="Ellipse 211" cx="5.835" cy="6.386" rx="5.835" ry="6.386" transform="translate(87.53 177.287)" opacity="0.05"/>
          <ellipse id="Ellipse_212" data-name="Ellipse 212" cx="5.835" cy="6.386" rx="5.835" ry="6.386" transform="translate(88.826 177.287)" fill="#4b5c7a"/>
          <circle id="Ellipse_213" data-name="Ellipse 213" cx="2.593" cy="2.593" r="2.593" transform="translate(91.939 181.112)" opacity="0.05"/>
          <circle id="Ellipse_214" data-name="Ellipse 214" cx="0.778" cy="0.778" r="0.778" transform="translate(93.754 182.927)" fill="none" stroke="#6f7d95" stroke-miterlimit="10" stroke-width="2"/>
          <circle id="Ellipse_215" data-name="Ellipse 215" cx="0.194" cy="0.194" r="0.194" transform="translate(94.337 182.149)" fill="#6f7d95"/>
          <circle id="Ellipse_216" data-name="Ellipse 216" cx="0.194" cy="0.194" r="0.194" transform="matrix(0.766, -0.643, 0.643, 0.766, 95.321, 182.695)" fill="#6f7d95"/>
          <circle id="Ellipse_217" data-name="Ellipse 217" cx="0.194" cy="0.194" r="0.194" transform="translate(95.768 183.934) rotate(-80)" fill="#6f7d95"/>
          <circle id="Ellipse_218" data-name="Ellipse 218" cx="0.194" cy="0.194" r="0.194" transform="translate(95.173 184.688) rotate(-30)" fill="#6f7d95"/>
          <circle id="Ellipse_219" data-name="Ellipse 219" cx="0.194" cy="0.194" r="0.194" transform="matrix(0.342, -0.94, 0.94, 0.342, 94.079, 185.083)" fill="#6f7d95"/>
          <circle id="Ellipse_220" data-name="Ellipse 220" cx="0.194" cy="0.194" r="0.194" transform="matrix(0.94, -0.342, 0.342, 0.94, 93.207, 184.133)" fill="#6f7d95"/>
          <circle id="Ellipse_221" data-name="Ellipse 221" cx="0.194" cy="0.194" r="0.194" transform="translate(93.181 183.191) rotate(-60)" fill="#6f7d95"/>
          <path id="Path_861" data-name="Path 861" d="M114.706,519.786,114,514.24h8.357l4.3,3.827-2.108,4.921S116.037,521.582,114.706,519.786Z" transform="translate(-101.1 -328.927)" fill="#ff4d52"/>
          <path id="Path_862" data-name="Path 862" d="M126.7,518.076,124.592,523s-8.51-1.406-9.841-3.2l-.031-.242-.648-5.128-.006-.051-.016-.124h8.357Z" transform="translate(-101.146 -328.937)" opacity="0.05"/>
          <path id="Path_863" data-name="Path 863" d="M459.791,330.364v1.8s-4.319,3.519-5.347,6.838a4.183,4.183,0,0,0-.2,1.675c.391,3.671-11.245-2.969-11.245-2.969l.518-.252C446.193,336.163,458.4,330.293,459.791,330.364Z" transform="translate(-399.636 -162.077)" fill="#7597ce"/>
          <path id="Path_864" data-name="Path 864" d="M729.839,344.262s4.045-1.987,4.694-3.458c.087-.2.169-.4.266-.59.4-.807,1.244-2.7.819-3.607-.546-1.171,1.328.156,1.328.156l-1.094,5.544L733.2,343.79l-3.436.472" transform="translate(-659.842 -167.305)" fill="#ff4d52"/>
          <path id="Path_865" data-name="Path 865" d="M729.839,344.262s4.045-1.987,4.694-3.458c.087-.2.169-.4.266-.59.4-.807,1.244-2.7.819-3.607-.546-1.171,1.328.156,1.328.156l-1.094,5.544L733.2,343.79l-3.436.472" transform="translate(-659.842 -167.305)" opacity="0.05"/>
          <path id="Path_866" data-name="Path 866" d="M126.674,518.085l-2.108,4.921s-8.51-1.406-9.841-3.2l-.031-.242c.034-.023.07-.047.108-.07,0,0,2.577,2.031,8.436,2.5,0,0,3.519-2.812-2.187-5.936,0,0-4.963.156-7.008-1.621l-.022-.018.016-.032.066-.124h8.275Z" transform="translate(-101.118 -328.946)" opacity="0.05"/>
          <path id="Path_867" data-name="Path 867" d="M454.245,410.15c.391,3.672-11.245-2.968-11.245-2.968l.518-.252a5.576,5.576,0,0,0,4.445,1.462c1.759-.086,4.431-.007,6.487.082A4.183,4.183,0,0,0,454.245,410.15Z" transform="translate(-399.636 -231.554)" opacity="0.05"/>
          <path id="Path_868" data-name="Path 868" d="M348.592,457.31V468.4h-5.108c.337-2.58.143-6.34-3.134-8.5a7.925,7.925,0,0,0-8.269-.246c-2.147,1.226-4.548,3.719-6.074,8.742H321.1V457.31Z" transform="translate(-289.023 -277.269)" opacity="0.05"/>
          <path id="Path_869" data-name="Path 869" d="M1002.009,420.21a12.76,12.76,0,0,1-.981,3.426q-.092.2-.2.4c.012-.045.1-.362.2-.86.5-2.426,1.345-9.139-4.344-9.523-.074,0-.147-.009-.22-.012A9.849,9.849,0,0,0,995,412.6h4.764a36.194,36.194,0,0,1,2.265,5.7A5.714,5.714,0,0,1,1002.009,420.21Z" transform="translate(-900.521 -236.699)" opacity="0.05"/>
          <path id="Path_870" data-name="Path 870" d="M201.353,366.938c.074-.268,2.713-9.92-4.142-10.382-6.951-.469-7.811,4.764-8.591,11.872,0,0-21.946,1.64-33.741,5.077,0,0,2.832-7.76-2.5-11.269a7.925,7.925,0,0,0-8.269-.246c-2.63,1.5-5.642,4.908-6.96,12.53H124.027s-2.5.156-3.359-1.019c0,0-3.519.078-5.7-1.8,0,0-2.343-.469-.469-1.64,0,0,2.656,2.031,8.513,2.5,0,0,3.519-2.812-2.187-5.936,0,0-5,.157-7.029-1.64a15.321,15.321,0,0,1,2.337-3.256,18.659,18.659,0,0,1,8.207-5.248,21.254,21.254,0,0,1,6.561-.946l13.785-.43s1.332,1.719,4.53,1.562,9.451.234,9.451.234h.062l12.864-.582a8.181,8.181,0,0,0,1.094-.232c1.865-.507,5.4-2.043,4.764-6.333l20.229,1.25a12.125,12.125,0,0,1,2.262.319c1.039.267,1.989.754,1.721,1.633-.546,1.8.937,2.031.937,2.031s.031.24.07.656C202.855,357.615,203.219,363.523,201.353,366.938Z" transform="translate(-100.893 -179.678)" fill="#ff4d52"/>
          <path id="Path_871" data-name="Path 871" d="M254.512,442.55s-8.436.078-13.982,5h3.124s8.748-2.265,10.856-4.061Z" transform="translate(-215.914 -263.876)" opacity="0.05"/>
          <path id="Path_872" data-name="Path 872" d="M253.662,441.7s-8.436.078-13.982,5H242.8s8.748-2.265,10.856-4.061Z" transform="translate(-215.143 -263.104)" fill="#ffec9f"/>
          <path id="Path_873" data-name="Path 873" d="M148.326,423.25v2.1l-7.106,3.281-1.1-.132A18.658,18.658,0,0,1,148.326,423.25Z" transform="translate(-124.802 -246.363)" opacity="0.05"/>
          <path id="Path_874" data-name="Path 874" d="M147.467,422.41v2.1l-7.107,3.28-1.1-.132A18.659,18.659,0,0,1,147.467,422.41Z" transform="translate(-124.021 -245.601)" fill="#ffec9f"/>
          <path id="Path_875" data-name="Path 875" d="M295.368,525.21a9.967,9.967,0,0,0-4.218,7.5h2.187s.859-5.623,3.359-7.5Z" transform="translate(-261.847 -338.882)" fill="none"/>
          <path id="Path_876" data-name="Path 876" d="M295.368,525.21a9.967,9.967,0,0,0-4.218,7.5h2.187s.859-5.623,3.359-7.5Z" transform="translate(-261.847 -338.882)" opacity="0.05"/>
          <path id="Path_877" data-name="Path 877" d="M619.9,412.858,600.056,415.2s-1.312-8.352-1.07-11.6l12.864-.582a8.18,8.18,0,0,0,1.093-.229v.775l9.685-2.343S624.269,403.641,619.9,412.858Z" transform="translate(-541.151 -226.373)" fill="none"/>
          <path id="Path_878" data-name="Path 878" d="M619.9,412.858,600.056,415.2s-1.312-8.352-1.07-11.6l12.864-.582a8.18,8.18,0,0,0,1.093-.229v.775l9.685-2.343S624.269,403.641,619.9,412.858Z" transform="translate(-541.151 -226.373)" opacity="0.05"/>
          <path id="Path_879" data-name="Path 879" d="M801.46,325.009s4.218-.546,6.092,3.047l-6.032-.232Z" transform="translate(-724.903 -157.192)" fill="#ff4d52"/>
          <path id="Path_880" data-name="Path 880" d="M863.486,361.732c-.166.519-.041,1.091.919,1.486a1.5,1.5,0,0,0,2.009-.871c.159-.478.05-1.019-.811-1.458A1.458,1.458,0,0,0,863.486,361.732Z" transform="translate(-781.13 -189.609)" fill="none"/>
          <path id="Path_881" data-name="Path 881" d="M863.486,361.732c-.166.519-.041,1.091.919,1.486a1.5,1.5,0,0,0,2.009-.871c.159-.478.05-1.019-.811-1.458A1.458,1.458,0,0,0,863.486,361.732Z" transform="translate(-781.13 -189.609)" opacity="0.05"/>
          <path id="Path_882" data-name="Path 882" d="M115.63,526.88s5.006,2.593,8.6,1.611" transform="translate(-102.579 -340.397)" fill="none" stroke="#ff4d52" stroke-miterlimit="10" stroke-width="1"/>
          <path id="Path_883" data-name="Path 883" d="M117.54,542s3.234,2.495,9.772,1.915" transform="translate(-104.313 -354.117)" fill="none" stroke="#ff4d52" stroke-miterlimit="10" stroke-width="1"/>
          <path id="Path_884" data-name="Path 884" d="M119.15,554.69s3.209,2.784,9.8,1.9" transform="translate(-105.773 -365.632)" fill="none" stroke="#ff4d52" stroke-miterlimit="10" stroke-width="1"/>
          <path id="Path_885" data-name="Path 885" d="M815.731,353.67a23.581,23.581,0,0,1-4.991,3.271A4.545,4.545,0,0,0,815.731,353.67Z" transform="translate(-733.323 -183.226)" opacity="0.05"/>
          <path id="Path_886" data-name="Path 886" d="M566.1,421.1s12.382,1.169,17.068.076c0,0,.25.166-1.242-.5Z" transform="translate(-511.337 -244.022)" opacity="0.1"/>
          <path id="Path_887" data-name="Path 887" d="M1047.079,371.022c-.771-.507-1.995-1.557-1.828-2.727a1.88,1.88,0,0,0-.9-1.595c1.039.267,1.989.754,1.721,1.633-.546,1.8.937,2.031.937,2.031S1047.039,370.6,1047.079,371.022Z" transform="translate(-945.302 -195.049)" opacity="0.05"/>
        </g>
      </g>
      <g id="Group_50" data-name="Group 50" transform="translate(163.768)">
        <path id="Path_1167-2" data-name="Path 1167" d="M374.463,315.343h-88.85a8.506,8.506,0,0,0-8.5,8.5v58.4a8.506,8.506,0,0,0,8.5,8.5h88.85a8.512,8.512,0,0,0,8.5-8.5v-58.4a8.512,8.512,0,0,0-8.5-8.5Z" transform="translate(-208.213 -217.637)" fill="#e6e6e6"/>
        <path id="Path_1206-2" data-name="Path 1206" d="M873.794,430.418v-1.805a4.192,4.192,0,0,1-2.408-.787l.378-1.2a3.848,3.848,0,0,0,2.266.769,1.735,1.735,0,0,0,1.873-1.752c0-.983-.614-1.591-1.778-2.127-1.605-.715-2.6-1.537-2.6-3.092a2.811,2.811,0,0,1,2.376-2.878v-1.805h.976v1.734a3.829,3.829,0,0,1,2.046.626l-.393,1.18a3.477,3.477,0,0,0-1.983-.608,1.511,1.511,0,0,0-1.668,1.537c0,.93.582,1.394,1.951,2.038,1.621.751,2.439,1.68,2.439,3.271a2.991,2.991,0,0,1-2.486,3.039v1.859Z" transform="translate(-710.402 -263.993)" fill="#1db0fc"/>
        <g id="Group_48-2" data-name="Group 48" transform="translate(64.417 -48.499)">
          <path id="Path_843-2" data-name="Path 843" d="M194.895,325.059c1.712-3.509,1.358-9.222,1.176-11.161-.04-.424-.071-.668-.071-.668s-1.509-.238-.953-2.065c.272-.895-.694-1.389-1.75-1.66a12.322,12.322,0,0,0-2.3-.325l-14.62-.9h0c-2-3.182-5.949-2.671-5.949-2.671s-3.519-.366-6.013-.4a6.714,6.714,0,0,0-1.237-.864,4.075,4.075,0,0,0-.839-.382,2.377,2.377,0,0,0-2.1.394,1.117,1.117,0,0,0-.342.4,1.089,1.089,0,0,0-.069.223,3.99,3.99,0,0,0-.093.4.683.683,0,0,1-.093.181c-.1.142-.272.248-.294.419a.267.267,0,0,0,0,.03.311.311,0,0,0-.036.106.381.381,0,0,0,.047.219.352.352,0,0,0,.019.031,2.613,2.613,0,0,0-.3.574.955.955,0,0,0-.1.062l-.028.02v.056l-.016.012-.034.912.019.015a2.7,2.7,0,0,0,1.256,2.108c.012.058.023.118.034.18a4.892,4.892,0,0,1,.069.906h-.016a2.641,2.641,0,0,0-1.82.4h-8.289a25.975,25.975,0,0,1,3.595-3.693v-1.828c-1.413-.07-13.827,5.893-16.548,7.21l-.12.058-13.987.433a21.554,21.554,0,0,0-6.667.963,18.973,18.973,0,0,0-8.349,5.334,15.6,15.6,0,0,0-2.376,3.311l.016.126-.016.032.022.019.377,2.974.259,2.046c-1.8,1.165.532,1.632.532,1.632,2.222,1.906,5.8,1.827,5.8,1.827.873,1.192,3.415,1.033,3.415,1.033h13.342a32.333,32.333,0,0,1,.833-3.63,8.06,8.06,0,0,0,7.712,7.243,7.218,7.218,0,0,0,.867-.053,7.211,7.211,0,0,0,.867.053,8.076,8.076,0,0,0,7.73-7.386h.653a14.552,14.552,0,0,1-.632,2.74c11.992-3.495,34.309-5.162,34.309-5.162q.139-1.32.3-2.546a5.94,5.94,0,0,0,5.43,3.876,5.351,5.351,0,0,1,1.319,0,6.1,6.1,0,0,0,5.819-5.227,13.617,13.617,0,0,1,.122,1.586c-.1.506-.193.829-.2.874q.108-.2.206-.406v.165c-.022.093-.038.144-.043.162l.041-.076v.121A3.627,3.627,0,0,1,194.895,325.059Z" transform="translate(-93.547 -138.031)" fill="url(#linear-gradient)"/>
          <rect id="Rectangle_223-2" data-name="Rectangle 223" width="27.492" height="11.09" transform="translate(72.456 174.417)" fill="#6f7d95"/>
          <path id="Path_844-2" data-name="Path 844" d="M593.73,275.913l3.9,8.748,7.733-.469.312-3.593.234-4.218L594.98,275.6Z" transform="translate(-528.264 -106.689)" fill="#4b5c7a"/>
          <path id="Path_845-2" data-name="Path 845" d="M681.68,322.789a7.316,7.316,0,0,1,3.281-1.719c1.8-.313,7.811.312,7.811.312l.859,1.482-.161.706Z" transform="translate(-616.214 -153.565)" fill="#ff4d52"/>
          <rect id="Rectangle_224-2" data-name="Rectangle 224" width="27.727" height="8.123" transform="translate(52.461 173.715)" fill="#4b5c7a"/>
          <path id="Path_846-2" data-name="Path 846" d="M626.825,319.92a4.369,4.369,0,0,0-.728-4.059l-2.421-1.689a.111.111,0,0,1-.007.017,3.147,3.147,0,0,1-.658-1.276c-.007-.03-.014-.06-.021-.093a2.6,2.6,0,0,0,.574-.588,1.419,1.419,0,0,0,.637-1.019,5.077,5.077,0,0,0,.6-1.216,2.167,2.167,0,0,0,.061-.212,1.111,1.111,0,0,0,.061-.416,1.138,1.138,0,0,0-.154-.444,4.669,4.669,0,0,0-1.884-1.677,4.013,4.013,0,0,0-.825-.376,2.338,2.338,0,0,0-2.065.387,1.1,1.1,0,0,0-.336.391,1.07,1.07,0,0,0-.068.219,3.925,3.925,0,0,0-.088.391.672.672,0,0,1-.087.177c-.1.139-.268.244-.29.413a.266.266,0,0,0,0,.03.305.305,0,0,0-.035.1.37.37,0,0,0,.046.216.328.328,0,0,0,.019.031,2.57,2.57,0,0,0-.295.565.947.947,0,0,0-.1.061l-.027.019v.056l-.016.012-.034.9.018.015a2.655,2.655,0,0,0,1.234,2.073c.012.057.023.116.033.177a4.754,4.754,0,0,1,.067.979.332.332,0,0,1,0-.085c-.669-.3-2.13.534-2.718.9h0a1.115,1.115,0,0,0-.247.16l-.01.007h0c-.4.328-1.2,1.239-1.838,3.581-.88,3.268-.788,4.009-1.429,4.766s-1.277,6.094-1.277,6.094l1.29.347.165-.53c1.533,1.4,5.827,2.071,5.827,2.071l.132-.408a3.46,3.46,0,0,0,1.759-.123c1.609-.569,2.212-2.011,3.38-3.914S626.825,319.92,626.825,319.92Zm-6.491,9.846,2.972-9.22c.269,1.432-.919,3.686-1.025,5.161C622.215,326.655,621.111,328.54,620.334,329.766Z" transform="translate(-553.459 -140.68)" fill="url(#linear-gradient-2)"/>
          <path id="Path_847-2" data-name="Path 847" d="M718.737,343.755s.518,1.971-1.019,2.315-.524-.886-.524-.886l1.482-1.444Z" transform="translate(-648.143 -174.215)" fill="#472727"/>
          <path id="Path_848-2" data-name="Path 848" d="M622.938,394.64s-1.143.463-1.982,3.582-.757,3.822-1.361,4.548-1.224,5.812-1.224,5.812l1.209.326,1.053-3.4,2.9-8.982Z" transform="translate(-558.767 -220.402)" fill="#dde0e4"/>
          <path id="Path_849-2" data-name="Path 849" d="M622.938,394.64s-1.143.463-1.982,3.582-.757,3.822-1.361,4.548-1.224,5.812-1.224,5.812l1.209.326,1.053-3.4,2.9-8.982Z" transform="translate(-558.767 -220.402)" opacity="0.05"/>
          <path id="Path_850-2" data-name="Path 850" d="M695.518,354.091s-4.784,2.432-4.084.845a3.947,3.947,0,0,0,.232-2.222,4.744,4.744,0,0,0-.3-1.076s3.252-2.572,3.061-.472a4.018,4.018,0,0,0,.093,1.35A2.708,2.708,0,0,0,695.518,354.091Z" transform="translate(-625.002 -180.205)" fill="#db8b8b"/>
          <path id="Path_851-2" data-name="Path 851" d="M694.5,352.529a2.5,2.5,0,0,1-2.222.463,2.529,2.529,0,0,1-.634-.268,4.75,4.75,0,0,0-.3-1.076s3.252-2.572,3.061-.472A4.017,4.017,0,0,0,694.5,352.529Z" transform="translate(-624.98 -180.214)" opacity="0.1"/>
          <circle id="Ellipse_197-2" data-name="Ellipse 197" cx="2.504" cy="2.504" r="2.504" transform="translate(64.916 172.002) rotate(-74.93)" fill="#db8b8b"/>
          <path id="Path_852-2" data-name="Path 852" d="M686.7,314.685a.6.6,0,0,1-.833-.219.36.36,0,0,1-.043-.206c.021-.161.181-.261.278-.395.151-.216.122-.511.232-.751a1.056,1.056,0,0,1,.317-.37,2.177,2.177,0,0,1,1.94-.378,3.7,3.7,0,0,1,.772.355,4.308,4.308,0,0,1,1.759,1.59,1.085,1.085,0,0,1,.143.423,1.2,1.2,0,0,1-.083.472,4.924,4.924,0,0,1-.577,1.173.9.9,0,0,0-.3-.242.309.309,0,0,0-.356.066c-.081.1-.13.3-.252.253-.08-.03-.079-.14-.075-.225a1.286,1.286,0,0,0-.456-.969,3.821,3.821,0,0,0-.939-.577,3.952,3.952,0,0,0-.817-.432C687.086,314.193,686.933,314.541,686.7,314.685Z" transform="translate(-619.974 -145.67)" opacity="0.1"/>
          <path id="Path_853-2" data-name="Path 853" d="M687.071,313.315a.6.6,0,0,1-.833-.219.36.36,0,0,1-.043-.206c.021-.161.181-.261.278-.394.151-.216.122-.511.232-.751a1.055,1.055,0,0,1,.317-.37,2.177,2.177,0,0,1,1.94-.378,3.7,3.7,0,0,1,.772.355,4.308,4.308,0,0,1,1.759,1.59,1.087,1.087,0,0,1,.143.423,1.2,1.2,0,0,1-.083.472,4.92,4.92,0,0,1-.577,1.173.9.9,0,0,0-.3-.242.309.309,0,0,0-.356.066c-.081.1-.13.3-.252.253-.08-.03-.079-.14-.075-.225a1.286,1.286,0,0,0-.457-.97,3.82,3.82,0,0,0-.939-.577,3.951,3.951,0,0,0-.817-.432C687.456,312.822,687.3,313.171,687.071,313.315Z" transform="translate(-620.31 -144.427)" fill="#472727"/>
          <path id="Path_854-2" data-name="Path 854" d="M635.8,385.527s1.981-.388,2.067-.706l2.265,1.6a4.186,4.186,0,0,1,.666,3.864s-.568,4.9-1.671,6.715-1.738,4.172-3.25,4.723a6.937,6.937,0,0,0-1.933-.926s2.462-3.568,2.568-4.973,1.231-3.559.984-4.922l-3.334,10.362s-5.371-.833-5.915-2.616a2.389,2.389,0,0,0,.377-1.4c-.086-.7,2.026-6.006,2.026-6.006l1.011-5.528s2-1.4,2.8-1.034C634.457,384.675,634.312,385.364,635.8,385.527Z" transform="translate(-567.732 -211.31)" fill="#dde0e4"/>
          <g id="Group_28-2" data-name="Group 28" transform="translate(65.464 169.324)" opacity="0.1">
            <path id="Path_855-2" data-name="Path 855" d="M684.99,342.164h0c-.489-.667-1.421-.119-1.574-.024l-.24-.024c-.209-.228-.851-.833-1.454-.388l-.026.019-.036.855.026.02a1.787,1.787,0,0,0,.582.3.879.879,0,0,0,.411.02.709.709,0,0,0,.473-.37l.125.008.093-.018a.7.7,0,0,0,.333.476,1.444,1.444,0,0,0,1.044,0l.031-.012.222-.827Zm-.314.752a1.238,1.238,0,0,1-.9,0,.6.6,0,0,1-.278-.45l-.011-.068-.2.042-.2-.007-.019.039a.6.6,0,0,1-.406.341,1.251,1.251,0,0,1-.858-.272l.031-.722c.524-.353,1.1.219,1.269.406l.018.019.338.033.02-.014c.009-.006.849-.569,1.328-.116a.614.614,0,0,1,.066.071Z" transform="translate(-681.66 -341.569)"/>
            <path id="Path_856-2" data-name="Path 856" d="M717.231,348.275l-1.574-.131-.13-.025.058-.219a.613.613,0,0,0-.066-.071l.191.018,1.288.126Z" transform="translate(-712.385 -347.25)"/>
          </g>
          <path id="Path_857-2" data-name="Path 857" d="M685.17,341.524h0c-.489-.667-1.421-.119-1.574-.024l-.24-.024c-.209-.228-.851-.833-1.454-.388l-.026.019-.036.855.026.02a1.786,1.786,0,0,0,.582.3.879.879,0,0,0,.411.02.71.71,0,0,0,.473-.37l.125.008.093-.018a.7.7,0,0,0,.333.476,1.444,1.444,0,0,0,1.044,0l.031-.012.222-.827Zm-.314.752a1.238,1.238,0,0,1-.9,0,.6.6,0,0,1-.278-.45l-.011-.068-.2.042-.2-.013-.019.039a.6.6,0,0,1-.4.344,1.251,1.251,0,0,1-.858-.272l.031-.722c.524-.353,1.1.219,1.269.406l.018.019.338.033.02-.014c.009-.006.849-.569,1.328-.116a.614.614,0,0,1,.066.071Z" transform="translate(-616.359 -171.664)" fill="#472727"/>
          <path id="Path_858-2" data-name="Path 858" d="M717.446,347.635l-1.569-.131-.13-.025.058-.219a.624.624,0,0,0-.066-.071l.191.018,1.288.126Z" transform="translate(-647.12 -177.346)" fill="#472727"/>
          <rect id="Rectangle_225-2" data-name="Rectangle 225" width="27.492" height="11.09" transform="translate(32.076 180.041)" fill="#6f7d95"/>
          <ellipse id="Ellipse_198-2" data-name="Ellipse 198" cx="7.672" cy="8.396" rx="7.672" ry="8.396" transform="translate(36.986 181.603)" fill="#4b5c7a"/>
          <ellipse id="Ellipse_199-2" data-name="Ellipse 199" cx="7.672" cy="8.396" rx="7.672" ry="8.396" transform="translate(36.986 181.603)" opacity="0.05"/>
          <ellipse id="Ellipse_200-2" data-name="Ellipse 200" cx="7.672" cy="8.396" rx="7.672" ry="8.396" transform="translate(38.691 181.603)" fill="#4b5c7a"/>
          <circle id="Ellipse_201-2" data-name="Ellipse 201" cx="3.409" cy="3.409" r="3.409" transform="translate(42.783 186.632)" opacity="0.05"/>
          <circle id="Ellipse_202-2" data-name="Ellipse 202" cx="1.023" cy="1.023" r="1.023" transform="translate(45.169 189.018)" fill="none" stroke="#6f7d95" stroke-miterlimit="10" stroke-width="2"/>
          <circle id="Ellipse_203-2" data-name="Ellipse 203" cx="0.256" cy="0.256" r="0.256" transform="translate(45.937 187.996)" fill="#6f7d95"/>
          <circle id="Ellipse_204-2" data-name="Ellipse 204" cx="0.256" cy="0.256" r="0.256" transform="matrix(0.766, -0.643, 0.643, 0.766, 47.231, 188.713)" fill="#6f7d95"/>
          <circle id="Ellipse_205-2" data-name="Ellipse 205" cx="0.256" cy="0.256" r="0.256" transform="translate(47.818 190.341) rotate(-80)" fill="#6f7d95"/>
          <circle id="Ellipse_206-2" data-name="Ellipse 206" cx="0.256" cy="0.256" r="0.256" transform="translate(47.034 191.334) rotate(-30)" fill="#6f7d95"/>
          <circle id="Ellipse_207-2" data-name="Ellipse 207" cx="0.256" cy="0.256" r="0.256" transform="matrix(0.342, -0.94, 0.94, 0.342, 45.597, 191.852)" fill="#6f7d95"/>
          <circle id="Ellipse_208-2" data-name="Ellipse 208" cx="0.256" cy="0.256" r="0.256" transform="matrix(0.94, -0.342, 0.342, 0.94, 44.451, 190.605)" fill="#6f7d95"/>
          <circle id="Ellipse_209-2" data-name="Ellipse 209" cx="0.256" cy="0.256" r="0.256" transform="translate(44.415 189.366) rotate(-60)" fill="#6f7d95"/>
          <path id="Path_859-2" data-name="Path 859" d="M1002.009,420.21a22.081,22.081,0,0,1-.991,3.79q.007-.185.009-.366v-.463a12.586,12.586,0,0,0-4.563-9.538A9.847,9.847,0,0,0,995,412.6h4.764a36.194,36.194,0,0,1,2.265,5.7A5.714,5.714,0,0,1,1002.009,420.21Z" transform="translate(-900.521 -236.699)" fill="#ff4d52"/>
          <path id="Path_860-2" data-name="Path 860" d="M1002.009,420.21a22.081,22.081,0,0,1-.991,3.79q.007-.185.009-.366v-.463a12.586,12.586,0,0,0-4.563-9.538A9.847,9.847,0,0,0,995,412.6h4.764a36.194,36.194,0,0,1,2.265,5.7A5.714,5.714,0,0,1,1002.009,420.21Z" transform="translate(-900.521 -236.699)" opacity="0.05"/>
          <ellipse id="Ellipse_210-2" data-name="Ellipse 210" cx="5.835" cy="6.386" rx="5.835" ry="6.386" transform="translate(87.53 177.287)" fill="#4b5c7a"/>
          <ellipse id="Ellipse_211-2" data-name="Ellipse 211" cx="5.835" cy="6.386" rx="5.835" ry="6.386" transform="translate(87.53 177.287)" opacity="0.05"/>
          <ellipse id="Ellipse_212-2" data-name="Ellipse 212" cx="5.835" cy="6.386" rx="5.835" ry="6.386" transform="translate(88.826 177.287)" fill="#4b5c7a"/>
          <circle id="Ellipse_213-2" data-name="Ellipse 213" cx="2.593" cy="2.593" r="2.593" transform="translate(91.939 181.112)" opacity="0.05"/>
          <circle id="Ellipse_214-2" data-name="Ellipse 214" cx="0.778" cy="0.778" r="0.778" transform="translate(93.754 182.927)" fill="none" stroke="#6f7d95" stroke-miterlimit="10" stroke-width="2"/>
          <circle id="Ellipse_215-2" data-name="Ellipse 215" cx="0.194" cy="0.194" r="0.194" transform="translate(94.337 182.149)" fill="#6f7d95"/>
          <circle id="Ellipse_216-2" data-name="Ellipse 216" cx="0.194" cy="0.194" r="0.194" transform="matrix(0.766, -0.643, 0.643, 0.766, 95.321, 182.695)" fill="#6f7d95"/>
          <circle id="Ellipse_217-2" data-name="Ellipse 217" cx="0.194" cy="0.194" r="0.194" transform="translate(95.768 183.934) rotate(-80)" fill="#6f7d95"/>
          <circle id="Ellipse_218-2" data-name="Ellipse 218" cx="0.194" cy="0.194" r="0.194" transform="translate(95.173 184.688) rotate(-30)" fill="#6f7d95"/>
          <circle id="Ellipse_219-2" data-name="Ellipse 219" cx="0.194" cy="0.194" r="0.194" transform="matrix(0.342, -0.94, 0.94, 0.342, 94.079, 185.083)" fill="#6f7d95"/>
          <circle id="Ellipse_220-2" data-name="Ellipse 220" cx="0.194" cy="0.194" r="0.194" transform="matrix(0.94, -0.342, 0.342, 0.94, 93.207, 184.133)" fill="#6f7d95"/>
          <circle id="Ellipse_221-2" data-name="Ellipse 221" cx="0.194" cy="0.194" r="0.194" transform="translate(93.181 183.191) rotate(-60)" fill="#6f7d95"/>
          <path id="Path_861-2" data-name="Path 861" d="M114.706,519.786,114,514.24h8.357l4.3,3.827-2.108,4.921S116.037,521.582,114.706,519.786Z" transform="translate(-101.1 -328.927)" fill="#ff4d52"/>
          <path id="Path_862-2" data-name="Path 862" d="M126.7,518.076,124.592,523s-8.51-1.406-9.841-3.2l-.031-.242-.648-5.128-.006-.051-.016-.124h8.357Z" transform="translate(-101.146 -328.937)" opacity="0.05"/>
          <path id="Path_863-2" data-name="Path 863" d="M459.791,330.364v1.8s-4.319,3.519-5.347,6.838a4.183,4.183,0,0,0-.2,1.675c.391,3.671-11.245-2.969-11.245-2.969l.518-.252C446.193,336.163,458.4,330.293,459.791,330.364Z" transform="translate(-399.636 -162.077)" fill="#7597ce"/>
          <path id="Path_864-2" data-name="Path 864" d="M729.839,344.262s4.045-1.987,4.694-3.458c.087-.2.169-.4.266-.59.4-.807,1.244-2.7.819-3.607-.546-1.171,1.328.156,1.328.156l-1.094,5.544L733.2,343.79l-3.436.472" transform="translate(-659.842 -167.305)" fill="#ff4d52"/>
          <path id="Path_865-2" data-name="Path 865" d="M729.839,344.262s4.045-1.987,4.694-3.458c.087-.2.169-.4.266-.59.4-.807,1.244-2.7.819-3.607-.546-1.171,1.328.156,1.328.156l-1.094,5.544L733.2,343.79l-3.436.472" transform="translate(-659.842 -167.305)" opacity="0.05"/>
          <path id="Path_866-2" data-name="Path 866" d="M126.674,518.085l-2.108,4.921s-8.51-1.406-9.841-3.2l-.031-.242c.034-.023.07-.047.108-.07,0,0,2.577,2.031,8.436,2.5,0,0,3.519-2.812-2.187-5.936,0,0-4.963.156-7.008-1.621l-.022-.018.016-.032.066-.124h8.275Z" transform="translate(-101.118 -328.946)" opacity="0.05"/>
          <path id="Path_867-2" data-name="Path 867" d="M454.245,410.15c.391,3.672-11.245-2.968-11.245-2.968l.518-.252a5.576,5.576,0,0,0,4.445,1.462c1.759-.086,4.431-.007,6.487.082A4.183,4.183,0,0,0,454.245,410.15Z" transform="translate(-399.636 -231.554)" opacity="0.05"/>
          <path id="Path_868-2" data-name="Path 868" d="M348.592,457.31V468.4h-5.108c.337-2.58.143-6.34-3.134-8.5a7.925,7.925,0,0,0-8.269-.246c-2.147,1.226-4.548,3.719-6.074,8.742H321.1V457.31Z" transform="translate(-289.023 -277.269)" opacity="0.05"/>
          <path id="Path_869-2" data-name="Path 869" d="M1002.009,420.21a12.76,12.76,0,0,1-.981,3.426q-.092.2-.2.4c.012-.045.1-.362.2-.86.5-2.426,1.345-9.139-4.344-9.523-.074,0-.147-.009-.22-.012A9.849,9.849,0,0,0,995,412.6h4.764a36.194,36.194,0,0,1,2.265,5.7A5.714,5.714,0,0,1,1002.009,420.21Z" transform="translate(-900.521 -236.699)" opacity="0.05"/>
          <path id="Path_870-2" data-name="Path 870" d="M201.353,366.938c.074-.268,2.713-9.92-4.142-10.382-6.951-.469-7.811,4.764-8.591,11.872,0,0-21.946,1.64-33.741,5.077,0,0,2.832-7.76-2.5-11.269a7.925,7.925,0,0,0-8.269-.246c-2.63,1.5-5.642,4.908-6.96,12.53H124.027s-2.5.156-3.359-1.019c0,0-3.519.078-5.7-1.8,0,0-2.343-.469-.469-1.64,0,0,2.656,2.031,8.513,2.5,0,0,3.519-2.812-2.187-5.936,0,0-5,.157-7.029-1.64a15.321,15.321,0,0,1,2.337-3.256,18.659,18.659,0,0,1,8.207-5.248,21.254,21.254,0,0,1,6.561-.946l13.785-.43s1.332,1.719,4.53,1.562,9.451.234,9.451.234h.062l12.864-.582a8.181,8.181,0,0,0,1.094-.232c1.865-.507,5.4-2.043,4.764-6.333l20.229,1.25a12.125,12.125,0,0,1,2.262.319c1.039.267,1.989.754,1.721,1.633-.546,1.8.937,2.031.937,2.031s.031.24.07.656C202.855,357.615,203.219,363.523,201.353,366.938Z" transform="translate(-100.893 -179.678)" fill="#ff4d52"/>
          <path id="Path_871-2" data-name="Path 871" d="M254.512,442.55s-8.436.078-13.982,5h3.124s8.748-2.265,10.856-4.061Z" transform="translate(-215.914 -263.876)" opacity="0.05"/>
          <path id="Path_872-2" data-name="Path 872" d="M253.662,441.7s-8.436.078-13.982,5H242.8s8.748-2.265,10.856-4.061Z" transform="translate(-215.143 -263.104)" fill="#ffec9f"/>
          <path id="Path_873-2" data-name="Path 873" d="M148.326,423.25v2.1l-7.106,3.281-1.1-.132A18.658,18.658,0,0,1,148.326,423.25Z" transform="translate(-124.802 -246.363)" opacity="0.05"/>
          <path id="Path_874-2" data-name="Path 874" d="M147.467,422.41v2.1l-7.107,3.28-1.1-.132A18.659,18.659,0,0,1,147.467,422.41Z" transform="translate(-124.021 -245.601)" fill="#ffec9f"/>
          <path id="Path_875-2" data-name="Path 875" d="M295.368,525.21a9.967,9.967,0,0,0-4.218,7.5h2.187s.859-5.623,3.359-7.5Z" transform="translate(-261.847 -338.882)" fill="none"/>
          <path id="Path_876-2" data-name="Path 876" d="M295.368,525.21a9.967,9.967,0,0,0-4.218,7.5h2.187s.859-5.623,3.359-7.5Z" transform="translate(-261.847 -338.882)" opacity="0.05"/>
          <path id="Path_877-2" data-name="Path 877" d="M619.9,412.858,600.056,415.2s-1.312-8.352-1.07-11.6l12.864-.582a8.18,8.18,0,0,0,1.093-.229v.775l9.685-2.343S624.269,403.641,619.9,412.858Z" transform="translate(-541.151 -226.373)" fill="none"/>
          <path id="Path_878-2" data-name="Path 878" d="M619.9,412.858,600.056,415.2s-1.312-8.352-1.07-11.6l12.864-.582a8.18,8.18,0,0,0,1.093-.229v.775l9.685-2.343S624.269,403.641,619.9,412.858Z" transform="translate(-541.151 -226.373)" opacity="0.05"/>
          <path id="Path_879-2" data-name="Path 879" d="M801.46,325.009s4.218-.546,6.092,3.047l-6.032-.232Z" transform="translate(-724.903 -157.192)" fill="#ff4d52"/>
          <path id="Path_880-2" data-name="Path 880" d="M863.486,361.732c-.166.519-.041,1.091.919,1.486a1.5,1.5,0,0,0,2.009-.871c.159-.478.05-1.019-.811-1.458A1.458,1.458,0,0,0,863.486,361.732Z" transform="translate(-781.13 -189.609)" fill="none"/>
          <path id="Path_881-2" data-name="Path 881" d="M863.486,361.732c-.166.519-.041,1.091.919,1.486a1.5,1.5,0,0,0,2.009-.871c.159-.478.05-1.019-.811-1.458A1.458,1.458,0,0,0,863.486,361.732Z" transform="translate(-781.13 -189.609)" opacity="0.05"/>
          <path id="Path_882-2" data-name="Path 882" d="M115.63,526.88s5.006,2.593,8.6,1.611" transform="translate(-102.579 -340.397)" fill="none" stroke="#ff4d52" stroke-miterlimit="10" stroke-width="1"/>
          <path id="Path_883-2" data-name="Path 883" d="M117.54,542s3.234,2.495,9.772,1.915" transform="translate(-104.313 -354.117)" fill="none" stroke="#ff4d52" stroke-miterlimit="10" stroke-width="1"/>
          <path id="Path_884-2" data-name="Path 884" d="M119.15,554.69s3.209,2.784,9.8,1.9" transform="translate(-105.773 -365.632)" fill="none" stroke="#ff4d52" stroke-miterlimit="10" stroke-width="1"/>
          <path id="Path_885-2" data-name="Path 885" d="M815.731,353.67a23.581,23.581,0,0,1-4.991,3.271A4.545,4.545,0,0,0,815.731,353.67Z" transform="translate(-733.323 -183.226)" opacity="0.05"/>
          <path id="Path_886-2" data-name="Path 886" d="M566.1,421.1s12.382,1.169,17.068.076c0,0,.25.166-1.242-.5Z" transform="translate(-511.337 -244.022)" opacity="0.1"/>
          <path id="Path_887-2" data-name="Path 887" d="M1047.079,371.022c-.771-.507-1.995-1.557-1.828-2.727a1.88,1.88,0,0,0-.9-1.595c1.039.267,1.989.754,1.721,1.633-.546,1.8.937,2.031.937,2.031S1047.039,370.6,1047.079,371.022Z" transform="translate(-945.302 -195.049)" opacity="0.05"/>
        </g>
        <path id="Path_1207" data-name="Path 1207" d="M873.794,430.418v-1.805a4.192,4.192,0,0,1-2.408-.787l.378-1.2a3.848,3.848,0,0,0,2.266.769,1.735,1.735,0,0,0,1.873-1.752c0-.983-.614-1.591-1.778-2.127-1.605-.715-2.6-1.537-2.6-3.092a2.811,2.811,0,0,1,2.376-2.878v-1.805h.976v1.734a3.829,3.829,0,0,1,2.046.626l-.393,1.18a3.477,3.477,0,0,0-1.983-.608,1.511,1.511,0,0,0-1.668,1.537c0,.93.582,1.394,1.951,2.038,1.621.751,2.439,1.68,2.439,3.271a2.991,2.991,0,0,1-2.486,3.039v1.859Z" transform="translate(-718.402 -263.993)" fill="#1db0fc"/>
      </g>
      <g id="Group_51" data-name="Group 51" transform="translate(327.536)">
        <path id="Path_1167-3" data-name="Path 1167" d="M374.463,315.343h-88.85a8.506,8.506,0,0,0-8.5,8.5v58.4a8.506,8.506,0,0,0,8.5,8.5h88.85a8.512,8.512,0,0,0,8.5-8.5v-58.4a8.512,8.512,0,0,0-8.5-8.5Z" transform="translate(-208.213 -217.637)" fill="#e6e6e6"/>
        <path id="Path_1206-3" data-name="Path 1206" d="M873.794,430.418v-1.805a4.192,4.192,0,0,1-2.408-.787l.378-1.2a3.848,3.848,0,0,0,2.266.769,1.735,1.735,0,0,0,1.873-1.752c0-.983-.614-1.591-1.778-2.127-1.605-.715-2.6-1.537-2.6-3.092a2.811,2.811,0,0,1,2.376-2.878v-1.805h.976v1.734a3.829,3.829,0,0,1,2.046.626l-.393,1.18a3.477,3.477,0,0,0-1.983-.608,1.511,1.511,0,0,0-1.668,1.537c0,.93.582,1.394,1.951,2.038,1.621.751,2.439,1.68,2.439,3.271a2.991,2.991,0,0,1-2.486,3.039v1.859Z" transform="translate(-710.402 -263.993)" fill="#1db0fc"/>
        <g id="Group_48-3" data-name="Group 48" transform="translate(64.417 -48.499)">
          <path id="Path_843-3" data-name="Path 843" d="M194.895,325.059c1.712-3.509,1.358-9.222,1.176-11.161-.04-.424-.071-.668-.071-.668s-1.509-.238-.953-2.065c.272-.895-.694-1.389-1.75-1.66a12.322,12.322,0,0,0-2.3-.325l-14.62-.9h0c-2-3.182-5.949-2.671-5.949-2.671s-3.519-.366-6.013-.4a6.714,6.714,0,0,0-1.237-.864,4.075,4.075,0,0,0-.839-.382,2.377,2.377,0,0,0-2.1.394,1.117,1.117,0,0,0-.342.4,1.089,1.089,0,0,0-.069.223,3.99,3.99,0,0,0-.093.4.683.683,0,0,1-.093.181c-.1.142-.272.248-.294.419a.267.267,0,0,0,0,.03.311.311,0,0,0-.036.106.381.381,0,0,0,.047.219.352.352,0,0,0,.019.031,2.613,2.613,0,0,0-.3.574.955.955,0,0,0-.1.062l-.028.02v.056l-.016.012-.034.912.019.015a2.7,2.7,0,0,0,1.256,2.108c.012.058.023.118.034.18a4.892,4.892,0,0,1,.069.906h-.016a2.641,2.641,0,0,0-1.82.4h-8.289a25.975,25.975,0,0,1,3.595-3.693v-1.828c-1.413-.07-13.827,5.893-16.548,7.21l-.12.058-13.987.433a21.554,21.554,0,0,0-6.667.963,18.973,18.973,0,0,0-8.349,5.334,15.6,15.6,0,0,0-2.376,3.311l.016.126-.016.032.022.019.377,2.974.259,2.046c-1.8,1.165.532,1.632.532,1.632,2.222,1.906,5.8,1.827,5.8,1.827.873,1.192,3.415,1.033,3.415,1.033h13.342a32.333,32.333,0,0,1,.833-3.63,8.06,8.06,0,0,0,7.712,7.243,7.218,7.218,0,0,0,.867-.053,7.211,7.211,0,0,0,.867.053,8.076,8.076,0,0,0,7.73-7.386h.653a14.552,14.552,0,0,1-.632,2.74c11.992-3.495,34.309-5.162,34.309-5.162q.139-1.32.3-2.546a5.94,5.94,0,0,0,5.43,3.876,5.351,5.351,0,0,1,1.319,0,6.1,6.1,0,0,0,5.819-5.227,13.617,13.617,0,0,1,.122,1.586c-.1.506-.193.829-.2.874q.108-.2.206-.406v.165c-.022.093-.038.144-.043.162l.041-.076v.121A3.627,3.627,0,0,1,194.895,325.059Z" transform="translate(-93.547 -138.031)" fill="url(#linear-gradient)"/>
          <rect id="Rectangle_223-3" data-name="Rectangle 223" width="27.492" height="11.09" transform="translate(72.456 174.417)" fill="#6f7d95"/>
          <path id="Path_844-3" data-name="Path 844" d="M593.73,275.913l3.9,8.748,7.733-.469.312-3.593.234-4.218L594.98,275.6Z" transform="translate(-528.264 -106.689)" fill="#4b5c7a"/>
          <path id="Path_845-3" data-name="Path 845" d="M681.68,322.789a7.316,7.316,0,0,1,3.281-1.719c1.8-.313,7.811.312,7.811.312l.859,1.482-.161.706Z" transform="translate(-616.214 -153.565)" fill="#ff4d52"/>
          <rect id="Rectangle_224-3" data-name="Rectangle 224" width="27.727" height="8.123" transform="translate(52.461 173.715)" fill="#4b5c7a"/>
          <path id="Path_846-3" data-name="Path 846" d="M626.825,319.92a4.369,4.369,0,0,0-.728-4.059l-2.421-1.689a.111.111,0,0,1-.007.017,3.147,3.147,0,0,1-.658-1.276c-.007-.03-.014-.06-.021-.093a2.6,2.6,0,0,0,.574-.588,1.419,1.419,0,0,0,.637-1.019,5.077,5.077,0,0,0,.6-1.216,2.167,2.167,0,0,0,.061-.212,1.111,1.111,0,0,0,.061-.416,1.138,1.138,0,0,0-.154-.444,4.669,4.669,0,0,0-1.884-1.677,4.013,4.013,0,0,0-.825-.376,2.338,2.338,0,0,0-2.065.387,1.1,1.1,0,0,0-.336.391,1.07,1.07,0,0,0-.068.219,3.925,3.925,0,0,0-.088.391.672.672,0,0,1-.087.177c-.1.139-.268.244-.29.413a.266.266,0,0,0,0,.03.305.305,0,0,0-.035.1.37.37,0,0,0,.046.216.328.328,0,0,0,.019.031,2.57,2.57,0,0,0-.295.565.947.947,0,0,0-.1.061l-.027.019v.056l-.016.012-.034.9.018.015a2.655,2.655,0,0,0,1.234,2.073c.012.057.023.116.033.177a4.754,4.754,0,0,1,.067.979.332.332,0,0,1,0-.085c-.669-.3-2.13.534-2.718.9h0a1.115,1.115,0,0,0-.247.16l-.01.007h0c-.4.328-1.2,1.239-1.838,3.581-.88,3.268-.788,4.009-1.429,4.766s-1.277,6.094-1.277,6.094l1.29.347.165-.53c1.533,1.4,5.827,2.071,5.827,2.071l.132-.408a3.46,3.46,0,0,0,1.759-.123c1.609-.569,2.212-2.011,3.38-3.914S626.825,319.92,626.825,319.92Zm-6.491,9.846,2.972-9.22c.269,1.432-.919,3.686-1.025,5.161C622.215,326.655,621.111,328.54,620.334,329.766Z" transform="translate(-553.459 -140.68)" fill="url(#linear-gradient-2)"/>
          <path id="Path_847-3" data-name="Path 847" d="M718.737,343.755s.518,1.971-1.019,2.315-.524-.886-.524-.886l1.482-1.444Z" transform="translate(-648.143 -174.215)" fill="#472727"/>
          <path id="Path_848-3" data-name="Path 848" d="M622.938,394.64s-1.143.463-1.982,3.582-.757,3.822-1.361,4.548-1.224,5.812-1.224,5.812l1.209.326,1.053-3.4,2.9-8.982Z" transform="translate(-558.767 -220.402)" fill="#dde0e4"/>
          <path id="Path_849-3" data-name="Path 849" d="M622.938,394.64s-1.143.463-1.982,3.582-.757,3.822-1.361,4.548-1.224,5.812-1.224,5.812l1.209.326,1.053-3.4,2.9-8.982Z" transform="translate(-558.767 -220.402)" opacity="0.05"/>
          <path id="Path_850-3" data-name="Path 850" d="M695.518,354.091s-4.784,2.432-4.084.845a3.947,3.947,0,0,0,.232-2.222,4.744,4.744,0,0,0-.3-1.076s3.252-2.572,3.061-.472a4.018,4.018,0,0,0,.093,1.35A2.708,2.708,0,0,0,695.518,354.091Z" transform="translate(-625.002 -180.205)" fill="#db8b8b"/>
          <path id="Path_851-3" data-name="Path 851" d="M694.5,352.529a2.5,2.5,0,0,1-2.222.463,2.529,2.529,0,0,1-.634-.268,4.75,4.75,0,0,0-.3-1.076s3.252-2.572,3.061-.472A4.017,4.017,0,0,0,694.5,352.529Z" transform="translate(-624.98 -180.214)" opacity="0.1"/>
          <circle id="Ellipse_197-3" data-name="Ellipse 197" cx="2.504" cy="2.504" r="2.504" transform="translate(64.916 172.002) rotate(-74.93)" fill="#db8b8b"/>
          <path id="Path_852-3" data-name="Path 852" d="M686.7,314.685a.6.6,0,0,1-.833-.219.36.36,0,0,1-.043-.206c.021-.161.181-.261.278-.395.151-.216.122-.511.232-.751a1.056,1.056,0,0,1,.317-.37,2.177,2.177,0,0,1,1.94-.378,3.7,3.7,0,0,1,.772.355,4.308,4.308,0,0,1,1.759,1.59,1.085,1.085,0,0,1,.143.423,1.2,1.2,0,0,1-.083.472,4.924,4.924,0,0,1-.577,1.173.9.9,0,0,0-.3-.242.309.309,0,0,0-.356.066c-.081.1-.13.3-.252.253-.08-.03-.079-.14-.075-.225a1.286,1.286,0,0,0-.456-.969,3.821,3.821,0,0,0-.939-.577,3.952,3.952,0,0,0-.817-.432C687.086,314.193,686.933,314.541,686.7,314.685Z" transform="translate(-619.974 -145.67)" opacity="0.1"/>
          <path id="Path_853-3" data-name="Path 853" d="M687.071,313.315a.6.6,0,0,1-.833-.219.36.36,0,0,1-.043-.206c.021-.161.181-.261.278-.394.151-.216.122-.511.232-.751a1.055,1.055,0,0,1,.317-.37,2.177,2.177,0,0,1,1.94-.378,3.7,3.7,0,0,1,.772.355,4.308,4.308,0,0,1,1.759,1.59,1.087,1.087,0,0,1,.143.423,1.2,1.2,0,0,1-.083.472,4.92,4.92,0,0,1-.577,1.173.9.9,0,0,0-.3-.242.309.309,0,0,0-.356.066c-.081.1-.13.3-.252.253-.08-.03-.079-.14-.075-.225a1.286,1.286,0,0,0-.457-.97,3.82,3.82,0,0,0-.939-.577,3.951,3.951,0,0,0-.817-.432C687.456,312.822,687.3,313.171,687.071,313.315Z" transform="translate(-620.31 -144.427)" fill="#472727"/>
          <path id="Path_854-3" data-name="Path 854" d="M635.8,385.527s1.981-.388,2.067-.706l2.265,1.6a4.186,4.186,0,0,1,.666,3.864s-.568,4.9-1.671,6.715-1.738,4.172-3.25,4.723a6.937,6.937,0,0,0-1.933-.926s2.462-3.568,2.568-4.973,1.231-3.559.984-4.922l-3.334,10.362s-5.371-.833-5.915-2.616a2.389,2.389,0,0,0,.377-1.4c-.086-.7,2.026-6.006,2.026-6.006l1.011-5.528s2-1.4,2.8-1.034C634.457,384.675,634.312,385.364,635.8,385.527Z" transform="translate(-567.732 -211.31)" fill="#dde0e4"/>
          <g id="Group_28-3" data-name="Group 28" transform="translate(65.464 169.324)" opacity="0.1">
            <path id="Path_855-3" data-name="Path 855" d="M684.99,342.164h0c-.489-.667-1.421-.119-1.574-.024l-.24-.024c-.209-.228-.851-.833-1.454-.388l-.026.019-.036.855.026.02a1.787,1.787,0,0,0,.582.3.879.879,0,0,0,.411.02.709.709,0,0,0,.473-.37l.125.008.093-.018a.7.7,0,0,0,.333.476,1.444,1.444,0,0,0,1.044,0l.031-.012.222-.827Zm-.314.752a1.238,1.238,0,0,1-.9,0,.6.6,0,0,1-.278-.45l-.011-.068-.2.042-.2-.007-.019.039a.6.6,0,0,1-.406.341,1.251,1.251,0,0,1-.858-.272l.031-.722c.524-.353,1.1.219,1.269.406l.018.019.338.033.02-.014c.009-.006.849-.569,1.328-.116a.614.614,0,0,1,.066.071Z" transform="translate(-681.66 -341.569)"/>
            <path id="Path_856-3" data-name="Path 856" d="M717.231,348.275l-1.574-.131-.13-.025.058-.219a.613.613,0,0,0-.066-.071l.191.018,1.288.126Z" transform="translate(-712.385 -347.25)"/>
          </g>
          <path id="Path_857-3" data-name="Path 857" d="M685.17,341.524h0c-.489-.667-1.421-.119-1.574-.024l-.24-.024c-.209-.228-.851-.833-1.454-.388l-.026.019-.036.855.026.02a1.786,1.786,0,0,0,.582.3.879.879,0,0,0,.411.02.71.71,0,0,0,.473-.37l.125.008.093-.018a.7.7,0,0,0,.333.476,1.444,1.444,0,0,0,1.044,0l.031-.012.222-.827Zm-.314.752a1.238,1.238,0,0,1-.9,0,.6.6,0,0,1-.278-.45l-.011-.068-.2.042-.2-.013-.019.039a.6.6,0,0,1-.4.344,1.251,1.251,0,0,1-.858-.272l.031-.722c.524-.353,1.1.219,1.269.406l.018.019.338.033.02-.014c.009-.006.849-.569,1.328-.116a.614.614,0,0,1,.066.071Z" transform="translate(-616.359 -171.664)" fill="#472727"/>
          <path id="Path_858-3" data-name="Path 858" d="M717.446,347.635l-1.569-.131-.13-.025.058-.219a.624.624,0,0,0-.066-.071l.191.018,1.288.126Z" transform="translate(-647.12 -177.346)" fill="#472727"/>
          <rect id="Rectangle_225-3" data-name="Rectangle 225" width="27.492" height="11.09" transform="translate(32.076 180.041)" fill="#6f7d95"/>
          <ellipse id="Ellipse_198-3" data-name="Ellipse 198" cx="7.672" cy="8.396" rx="7.672" ry="8.396" transform="translate(36.986 181.603)" fill="#4b5c7a"/>
          <ellipse id="Ellipse_199-3" data-name="Ellipse 199" cx="7.672" cy="8.396" rx="7.672" ry="8.396" transform="translate(36.986 181.603)" opacity="0.05"/>
          <ellipse id="Ellipse_200-3" data-name="Ellipse 200" cx="7.672" cy="8.396" rx="7.672" ry="8.396" transform="translate(38.691 181.603)" fill="#4b5c7a"/>
          <circle id="Ellipse_201-3" data-name="Ellipse 201" cx="3.409" cy="3.409" r="3.409" transform="translate(42.783 186.632)" opacity="0.05"/>
          <circle id="Ellipse_202-3" data-name="Ellipse 202" cx="1.023" cy="1.023" r="1.023" transform="translate(45.169 189.018)" fill="none" stroke="#6f7d95" stroke-miterlimit="10" stroke-width="2"/>
          <circle id="Ellipse_203-3" data-name="Ellipse 203" cx="0.256" cy="0.256" r="0.256" transform="translate(45.937 187.996)" fill="#6f7d95"/>
          <circle id="Ellipse_204-3" data-name="Ellipse 204" cx="0.256" cy="0.256" r="0.256" transform="matrix(0.766, -0.643, 0.643, 0.766, 47.231, 188.713)" fill="#6f7d95"/>
          <circle id="Ellipse_205-3" data-name="Ellipse 205" cx="0.256" cy="0.256" r="0.256" transform="translate(47.818 190.341) rotate(-80)" fill="#6f7d95"/>
          <circle id="Ellipse_206-3" data-name="Ellipse 206" cx="0.256" cy="0.256" r="0.256" transform="translate(47.034 191.334) rotate(-30)" fill="#6f7d95"/>
          <circle id="Ellipse_207-3" data-name="Ellipse 207" cx="0.256" cy="0.256" r="0.256" transform="matrix(0.342, -0.94, 0.94, 0.342, 45.597, 191.852)" fill="#6f7d95"/>
          <circle id="Ellipse_208-3" data-name="Ellipse 208" cx="0.256" cy="0.256" r="0.256" transform="matrix(0.94, -0.342, 0.342, 0.94, 44.451, 190.605)" fill="#6f7d95"/>
          <circle id="Ellipse_209-3" data-name="Ellipse 209" cx="0.256" cy="0.256" r="0.256" transform="translate(44.415 189.366) rotate(-60)" fill="#6f7d95"/>
          <path id="Path_859-3" data-name="Path 859" d="M1002.009,420.21a22.081,22.081,0,0,1-.991,3.79q.007-.185.009-.366v-.463a12.586,12.586,0,0,0-4.563-9.538A9.847,9.847,0,0,0,995,412.6h4.764a36.194,36.194,0,0,1,2.265,5.7A5.714,5.714,0,0,1,1002.009,420.21Z" transform="translate(-900.521 -236.699)" fill="#ff4d52"/>
          <path id="Path_860-3" data-name="Path 860" d="M1002.009,420.21a22.081,22.081,0,0,1-.991,3.79q.007-.185.009-.366v-.463a12.586,12.586,0,0,0-4.563-9.538A9.847,9.847,0,0,0,995,412.6h4.764a36.194,36.194,0,0,1,2.265,5.7A5.714,5.714,0,0,1,1002.009,420.21Z" transform="translate(-900.521 -236.699)" opacity="0.05"/>
          <ellipse id="Ellipse_210-3" data-name="Ellipse 210" cx="5.835" cy="6.386" rx="5.835" ry="6.386" transform="translate(87.53 177.287)" fill="#4b5c7a"/>
          <ellipse id="Ellipse_211-3" data-name="Ellipse 211" cx="5.835" cy="6.386" rx="5.835" ry="6.386" transform="translate(87.53 177.287)" opacity="0.05"/>
          <ellipse id="Ellipse_212-3" data-name="Ellipse 212" cx="5.835" cy="6.386" rx="5.835" ry="6.386" transform="translate(88.826 177.287)" fill="#4b5c7a"/>
          <circle id="Ellipse_213-3" data-name="Ellipse 213" cx="2.593" cy="2.593" r="2.593" transform="translate(91.939 181.112)" opacity="0.05"/>
          <circle id="Ellipse_214-3" data-name="Ellipse 214" cx="0.778" cy="0.778" r="0.778" transform="translate(93.754 182.927)" fill="none" stroke="#6f7d95" stroke-miterlimit="10" stroke-width="2"/>
          <circle id="Ellipse_215-3" data-name="Ellipse 215" cx="0.194" cy="0.194" r="0.194" transform="translate(94.337 182.149)" fill="#6f7d95"/>
          <circle id="Ellipse_216-3" data-name="Ellipse 216" cx="0.194" cy="0.194" r="0.194" transform="matrix(0.766, -0.643, 0.643, 0.766, 95.321, 182.695)" fill="#6f7d95"/>
          <circle id="Ellipse_217-3" data-name="Ellipse 217" cx="0.194" cy="0.194" r="0.194" transform="translate(95.768 183.934) rotate(-80)" fill="#6f7d95"/>
          <circle id="Ellipse_218-3" data-name="Ellipse 218" cx="0.194" cy="0.194" r="0.194" transform="translate(95.173 184.688) rotate(-30)" fill="#6f7d95"/>
          <circle id="Ellipse_219-3" data-name="Ellipse 219" cx="0.194" cy="0.194" r="0.194" transform="matrix(0.342, -0.94, 0.94, 0.342, 94.079, 185.083)" fill="#6f7d95"/>
          <circle id="Ellipse_220-3" data-name="Ellipse 220" cx="0.194" cy="0.194" r="0.194" transform="matrix(0.94, -0.342, 0.342, 0.94, 93.207, 184.133)" fill="#6f7d95"/>
          <circle id="Ellipse_221-3" data-name="Ellipse 221" cx="0.194" cy="0.194" r="0.194" transform="translate(93.181 183.191) rotate(-60)" fill="#6f7d95"/>
          <path id="Path_861-3" data-name="Path 861" d="M114.706,519.786,114,514.24h8.357l4.3,3.827-2.108,4.921S116.037,521.582,114.706,519.786Z" transform="translate(-101.1 -328.927)" fill="#ff4d52"/>
          <path id="Path_862-3" data-name="Path 862" d="M126.7,518.076,124.592,523s-8.51-1.406-9.841-3.2l-.031-.242-.648-5.128-.006-.051-.016-.124h8.357Z" transform="translate(-101.146 -328.937)" opacity="0.05"/>
          <path id="Path_863-3" data-name="Path 863" d="M459.791,330.364v1.8s-4.319,3.519-5.347,6.838a4.183,4.183,0,0,0-.2,1.675c.391,3.671-11.245-2.969-11.245-2.969l.518-.252C446.193,336.163,458.4,330.293,459.791,330.364Z" transform="translate(-399.636 -162.077)" fill="#7597ce"/>
          <path id="Path_864-3" data-name="Path 864" d="M729.839,344.262s4.045-1.987,4.694-3.458c.087-.2.169-.4.266-.59.4-.807,1.244-2.7.819-3.607-.546-1.171,1.328.156,1.328.156l-1.094,5.544L733.2,343.79l-3.436.472" transform="translate(-659.842 -167.305)" fill="#ff4d52"/>
          <path id="Path_865-3" data-name="Path 865" d="M729.839,344.262s4.045-1.987,4.694-3.458c.087-.2.169-.4.266-.59.4-.807,1.244-2.7.819-3.607-.546-1.171,1.328.156,1.328.156l-1.094,5.544L733.2,343.79l-3.436.472" transform="translate(-659.842 -167.305)" opacity="0.05"/>
          <path id="Path_866-3" data-name="Path 866" d="M126.674,518.085l-2.108,4.921s-8.51-1.406-9.841-3.2l-.031-.242c.034-.023.07-.047.108-.07,0,0,2.577,2.031,8.436,2.5,0,0,3.519-2.812-2.187-5.936,0,0-4.963.156-7.008-1.621l-.022-.018.016-.032.066-.124h8.275Z" transform="translate(-101.118 -328.946)" opacity="0.05"/>
          <path id="Path_867-3" data-name="Path 867" d="M454.245,410.15c.391,3.672-11.245-2.968-11.245-2.968l.518-.252a5.576,5.576,0,0,0,4.445,1.462c1.759-.086,4.431-.007,6.487.082A4.183,4.183,0,0,0,454.245,410.15Z" transform="translate(-399.636 -231.554)" opacity="0.05"/>
          <path id="Path_868-3" data-name="Path 868" d="M348.592,457.31V468.4h-5.108c.337-2.58.143-6.34-3.134-8.5a7.925,7.925,0,0,0-8.269-.246c-2.147,1.226-4.548,3.719-6.074,8.742H321.1V457.31Z" transform="translate(-289.023 -277.269)" opacity="0.05"/>
          <path id="Path_869-3" data-name="Path 869" d="M1002.009,420.21a12.76,12.76,0,0,1-.981,3.426q-.092.2-.2.4c.012-.045.1-.362.2-.86.5-2.426,1.345-9.139-4.344-9.523-.074,0-.147-.009-.22-.012A9.849,9.849,0,0,0,995,412.6h4.764a36.194,36.194,0,0,1,2.265,5.7A5.714,5.714,0,0,1,1002.009,420.21Z" transform="translate(-900.521 -236.699)" opacity="0.05"/>
          <path id="Path_870-3" data-name="Path 870" d="M201.353,366.938c.074-.268,2.713-9.92-4.142-10.382-6.951-.469-7.811,4.764-8.591,11.872,0,0-21.946,1.64-33.741,5.077,0,0,2.832-7.76-2.5-11.269a7.925,7.925,0,0,0-8.269-.246c-2.63,1.5-5.642,4.908-6.96,12.53H124.027s-2.5.156-3.359-1.019c0,0-3.519.078-5.7-1.8,0,0-2.343-.469-.469-1.64,0,0,2.656,2.031,8.513,2.5,0,0,3.519-2.812-2.187-5.936,0,0-5,.157-7.029-1.64a15.321,15.321,0,0,1,2.337-3.256,18.659,18.659,0,0,1,8.207-5.248,21.254,21.254,0,0,1,6.561-.946l13.785-.43s1.332,1.719,4.53,1.562,9.451.234,9.451.234h.062l12.864-.582a8.181,8.181,0,0,0,1.094-.232c1.865-.507,5.4-2.043,4.764-6.333l20.229,1.25a12.125,12.125,0,0,1,2.262.319c1.039.267,1.989.754,1.721,1.633-.546,1.8.937,2.031.937,2.031s.031.24.07.656C202.855,357.615,203.219,363.523,201.353,366.938Z" transform="translate(-100.893 -179.678)" fill="#ff4d52"/>
          <path id="Path_871-3" data-name="Path 871" d="M254.512,442.55s-8.436.078-13.982,5h3.124s8.748-2.265,10.856-4.061Z" transform="translate(-215.914 -263.876)" opacity="0.05"/>
          <path id="Path_872-3" data-name="Path 872" d="M253.662,441.7s-8.436.078-13.982,5H242.8s8.748-2.265,10.856-4.061Z" transform="translate(-215.143 -263.104)" fill="#ffec9f"/>
          <path id="Path_873-3" data-name="Path 873" d="M148.326,423.25v2.1l-7.106,3.281-1.1-.132A18.658,18.658,0,0,1,148.326,423.25Z" transform="translate(-124.802 -246.363)" opacity="0.05"/>
          <path id="Path_874-3" data-name="Path 874" d="M147.467,422.41v2.1l-7.107,3.28-1.1-.132A18.659,18.659,0,0,1,147.467,422.41Z" transform="translate(-124.021 -245.601)" fill="#ffec9f"/>
          <path id="Path_875-3" data-name="Path 875" d="M295.368,525.21a9.967,9.967,0,0,0-4.218,7.5h2.187s.859-5.623,3.359-7.5Z" transform="translate(-261.847 -338.882)" fill="none"/>
          <path id="Path_876-3" data-name="Path 876" d="M295.368,525.21a9.967,9.967,0,0,0-4.218,7.5h2.187s.859-5.623,3.359-7.5Z" transform="translate(-261.847 -338.882)" opacity="0.05"/>
          <path id="Path_877-3" data-name="Path 877" d="M619.9,412.858,600.056,415.2s-1.312-8.352-1.07-11.6l12.864-.582a8.18,8.18,0,0,0,1.093-.229v.775l9.685-2.343S624.269,403.641,619.9,412.858Z" transform="translate(-541.151 -226.373)" fill="none"/>
          <path id="Path_878-3" data-name="Path 878" d="M619.9,412.858,600.056,415.2s-1.312-8.352-1.07-11.6l12.864-.582a8.18,8.18,0,0,0,1.093-.229v.775l9.685-2.343S624.269,403.641,619.9,412.858Z" transform="translate(-541.151 -226.373)" opacity="0.05"/>
          <path id="Path_879-3" data-name="Path 879" d="M801.46,325.009s4.218-.546,6.092,3.047l-6.032-.232Z" transform="translate(-724.903 -157.192)" fill="#ff4d52"/>
          <path id="Path_880-3" data-name="Path 880" d="M863.486,361.732c-.166.519-.041,1.091.919,1.486a1.5,1.5,0,0,0,2.009-.871c.159-.478.05-1.019-.811-1.458A1.458,1.458,0,0,0,863.486,361.732Z" transform="translate(-781.13 -189.609)" fill="none"/>
          <path id="Path_881-3" data-name="Path 881" d="M863.486,361.732c-.166.519-.041,1.091.919,1.486a1.5,1.5,0,0,0,2.009-.871c.159-.478.05-1.019-.811-1.458A1.458,1.458,0,0,0,863.486,361.732Z" transform="translate(-781.13 -189.609)" opacity="0.05"/>
          <path id="Path_882-3" data-name="Path 882" d="M115.63,526.88s5.006,2.593,8.6,1.611" transform="translate(-102.579 -340.397)" fill="none" stroke="#ff4d52" stroke-miterlimit="10" stroke-width="1"/>
          <path id="Path_883-3" data-name="Path 883" d="M117.54,542s3.234,2.495,9.772,1.915" transform="translate(-104.313 -354.117)" fill="none" stroke="#ff4d52" stroke-miterlimit="10" stroke-width="1"/>
          <path id="Path_884-3" data-name="Path 884" d="M119.15,554.69s3.209,2.784,9.8,1.9" transform="translate(-105.773 -365.632)" fill="none" stroke="#ff4d52" stroke-miterlimit="10" stroke-width="1"/>
          <path id="Path_885-3" data-name="Path 885" d="M815.731,353.67a23.581,23.581,0,0,1-4.991,3.271A4.545,4.545,0,0,0,815.731,353.67Z" transform="translate(-733.323 -183.226)" opacity="0.05"/>
          <path id="Path_886-3" data-name="Path 886" d="M566.1,421.1s12.382,1.169,17.068.076c0,0,.25.166-1.242-.5Z" transform="translate(-511.337 -244.022)" opacity="0.1"/>
          <path id="Path_887-3" data-name="Path 887" d="M1047.079,371.022c-.771-.507-1.995-1.557-1.828-2.727a1.88,1.88,0,0,0-.9-1.595c1.039.267,1.989.754,1.721,1.633-.546,1.8.937,2.031.937,2.031S1047.039,370.6,1047.079,371.022Z" transform="translate(-945.302 -195.049)" opacity="0.05"/>
        </g>
        <path id="Path_1208" data-name="Path 1208" d="M873.794,430.418v-1.805a4.192,4.192,0,0,1-2.408-.787l.378-1.2a3.848,3.848,0,0,0,2.266.769,1.735,1.735,0,0,0,1.873-1.752c0-.983-.614-1.591-1.778-2.127-1.605-.715-2.6-1.537-2.6-3.092a2.811,2.811,0,0,1,2.376-2.878v-1.805h.976v1.734a3.829,3.829,0,0,1,2.046.626l-.393,1.18a3.477,3.477,0,0,0-1.983-.608,1.511,1.511,0,0,0-1.668,1.537c0,.93.582,1.394,1.951,2.038,1.621.751,2.439,1.68,2.439,3.271a2.991,2.991,0,0,1-2.486,3.039v1.859Z" transform="translate(-718.402 -263.993)" fill="#1db0fc"/>
        <path id="Path_1209" data-name="Path 1209" d="M873.794,430.418v-1.805a4.192,4.192,0,0,1-2.408-.787l.378-1.2a3.848,3.848,0,0,0,2.266.769,1.735,1.735,0,0,0,1.873-1.752c0-.983-.614-1.591-1.778-2.127-1.605-.715-2.6-1.537-2.6-3.092a2.811,2.811,0,0,1,2.376-2.878v-1.805h.976v1.734a3.829,3.829,0,0,1,2.046.626l-.393,1.18a3.477,3.477,0,0,0-1.983-.608,1.511,1.511,0,0,0-1.668,1.537c0,.93.582,1.394,1.951,2.038,1.621.751,2.439,1.68,2.439,3.271a2.991,2.991,0,0,1-2.486,3.039v1.859Z" transform="translate(-726.402 -263.993)" fill="#1db0fc"/>
      </g>
    </g>
  </g>
</svg>
