<svg xmlns="http://www.w3.org/2000/svg" width="586.638" height="641.803" viewBox="0 0 586.638 641.803">
  <g id="Group_10" data-name="Group 10" transform="translate(-303.848 -2685.99)">
    <g id="Group_52" data-name="Group 52" transform="translate(-54.993 63)">
      <path id="Path_271" data-name="Path 271" d="M506.905,164.93c-.61-1.1-1.247-2.184-1.9-3.261-25.2-41.214-83.806-66.809-182.651-53.262-56.123,8.058-80.025-21.5-103.169-51.77-.4-.522-.791-1.045-1.194-1.568-24.237-31.746-48.232-63.58-108.231-53C46.152,11.514,6.9,60,.823,111.775c-.074.63-.141,1.265-.2,1.895-3.412,33.565,7.134,68.32,34.039,94.558,16.252,15.845,39.342,24.261,63.176,24a123.53,123.53,0,0,1,21.428,1.492c1.562.258,3.078.541,4.552.862,30.365,6.515,44.357,25.885,52.939,49.523.2.56.4,1.121.6,1.687,19.7,56.372,10.593,135.494,117.718,123.855,95.861-6.635,166.211-56.542,200.719-114.123.342-.579.684-1.158,1.019-1.737a168.975,168.975,0,0,0,20.06-51.185c.215-1.007.409-2.014.59-3.022C522.339,212.835,519.141,186.843,506.905,164.93Z" transform="translate(734.12 2622.99) rotate(66)" fill="#dff7ff"/>
      <g id="Group_11" data-name="Group 11" transform="translate(508.31 2833.626)">
        <g id="Rectangle_17" data-name="Rectangle 17" transform="translate(0 241.531)" fill="#fff" stroke="#3f3d56" stroke-width="1.5">
          <rect width="90.074" height="112.092" rx="5" stroke="none"/>
          <rect x="0.75" y="0.75" width="88.574" height="110.592" rx="4.25" fill="none"/>
        </g>
        <g id="undraw_Process_re_gws7" transform="translate(14.76 0)">
          <g id="Rectangle_16" data-name="Rectangle 16" transform="translate(119.35 126.771)" fill="#fff" stroke="#3f3d56" stroke-width="1.5">
            <rect width="90.074" height="112.092" rx="5" stroke="none"/>
            <rect x="0.75" y="0.75" width="88.574" height="110.592" rx="4.25" fill="none"/>
          </g>
          <g id="Rectangle_15" data-name="Rectangle 15" transform="translate(248.79 238.195)" fill="#fff" stroke="#3f3d56" stroke-width="1.5">
            <rect width="90.074" height="112.092" rx="5" stroke="none"/>
            <rect x="0.75" y="0.75" width="88.574" height="110.592" rx="4.25" fill="none"/>
          </g>
          <rect id="Rectangle_12" data-name="Rectangle 12" width="0.985" height="64.345" transform="translate(231.164 177.936) rotate(-46.407)" fill="#00beff"/>
          <path id="Path_214" data-name="Path 214" d="M494.973,143.982l-.984.06.3,4.847-4.857-.058-.011.985,5.915.07Z" transform="translate(-216.452 72.797)" fill="#00beff"/>
          <path id="Path_215" data-name="Path 215" d="M423.659,76.277l-.011.985-4.856-.058.3,4.847-.985.06-.359-5.9Z" transform="translate(-187.012 100.635)" fill="#00beff"/>
          <circle id="Ellipse_48" data-name="Ellipse 48" cx="5.417" cy="5.417" r="5.417" transform="translate(249.39 194.346)" fill="#00beff"/>
          <g id="Group_8" data-name="Group 8" transform="translate(45.747 176.841)">
            <rect id="Rectangle_13" data-name="Rectangle 13" width="64.345" height="0.985" transform="translate(0.433 44.749) rotate(-43.593)" fill="#00beff"/>
            <path id="Path_216" data-name="Path 216" d="M103.815,149.886l5.915-.07-.011-.985-4.856.058.3-4.847-.984-.06Z" transform="translate(-103.815 -104.044)" fill="#00beff"/>
            <path id="Path_217" data-name="Path 217" d="M181.4,76.206l-.36,5.9-.984-.06.3-4.847-4.856.058-.011-.985Z" transform="translate(-133.255 -76.206)" fill="#00beff"/>
            <circle id="Ellipse_49" data-name="Ellipse 49" cx="5.417" cy="5.417" r="5.417" transform="translate(18.658 17.504)" fill="#00beff"/>
          </g>
          <path id="Path_219" data-name="Path 219" d="M574.372,201.468H556.378a2.218,2.218,0,0,1-2.216-2.216V178.017a2.218,2.218,0,0,1,2.216-2.216h17.994a2.218,2.218,0,0,1,2.216,2.216v21.234A2.219,2.219,0,0,1,574.372,201.468Z" transform="translate(-419.351 -19.823)" fill="#f7af2b"/>
          <path id="Path_220" data-name="Path 220" d="M633.708,218.182H615.714a2.218,2.218,0,0,1-2.216-2.216V194.732a2.218,2.218,0,0,1,2.216-2.216h17.994a2.218,2.218,0,0,1,2.216,2.216v21.234A2.218,2.218,0,0,1,633.708,218.182Z" transform="translate(-443.722 -26.688)" fill="#ccc"/>
          <path id="Path_221" data-name="Path 221" d="M586.072,269.161H568.078a2.218,2.218,0,0,1-2.216-2.216V245.71a2.218,2.218,0,0,1,2.216-2.216h17.994a2.218,2.218,0,0,1,2.216,2.216v21.234A2.218,2.218,0,0,1,586.072,269.161Z" transform="translate(-424.156 -47.627)" fill="#e34949"/>
          <path id="Path_223" data-name="Path 223" d="M826.793,351.572h-28.07a1.97,1.97,0,0,1,0-3.94h28.07a1.97,1.97,0,1,1,0,3.94Z" transform="translate(-518.993 -90.401)" fill="#3f3d56"/>
          <path id="Path_224" data-name="Path 224" d="M830.97,383.329H775.323a1.97,1.97,0,0,1,0-3.94H830.97a1.97,1.97,0,0,1,0,3.94Z" transform="translate(-509.382 -103.445)" fill="#ccc"/>
          <path id="Path_225" data-name="Path 225" d="M830.97,400.879H775.323a1.97,1.97,0,0,1,0-3.94H830.97a1.97,1.97,0,0,1,0,3.94Z" transform="translate(-509.382 -110.653)" fill="#ccc"/>
          <path id="Path_226" data-name="Path 226" d="M830.97,418.429H775.323a1.97,1.97,0,0,1,0-3.94H830.97a1.97,1.97,0,0,1,0,3.94Z" transform="translate(-509.382 -117.862)" fill="#ccc"/>
          <path id="Path_227" data-name="Path 227" d="M830.97,435.979H775.323a1.97,1.97,0,1,1,0-3.94H830.97a1.97,1.97,0,0,1,0,3.94Z" transform="translate(-509.382 -125.07)" fill="#ccc"/>
          <path id="Path_228" data-name="Path 228" d="M830.97,453.529H775.323a1.97,1.97,0,0,1,0-3.94H830.97a1.97,1.97,0,0,1,0,3.94Z" transform="translate(-509.382 -132.279)" fill="#ccc"/>
          <path id="Path_229" data-name="Path 229" d="M830.97,471.079H775.323a1.97,1.97,0,0,1,0-3.94H830.97a1.97,1.97,0,0,1,0,3.94Z" transform="translate(-509.382 -139.487)" fill="#ccc"/>
          <path id="Path_231" data-name="Path 231" d="M404.912,354.147H380.29a1.97,1.97,0,1,1,0-3.94h24.623a1.97,1.97,0,1,1,0,3.94Z" transform="translate(-347.125 -91.458)" fill="#3f3d56"/>
          <path id="Path_232" data-name="Path 232" d="M404.912,371.7H380.29a1.97,1.97,0,1,1,0-3.94h24.623a1.97,1.97,0,1,1,0,3.94Z" transform="translate(-347.125 -98.667)" fill="#3f3d56"/>
          <path id="Path_233" data-name="Path 233" d="M346.135,366.545H328.141a2.218,2.218,0,0,1-2.216-2.216V343.095a2.218,2.218,0,0,1,2.216-2.216h17.994a2.219,2.219,0,0,1,2.216,2.216v21.234a2.218,2.218,0,0,1-2.216,2.216Z" transform="translate(-325.604 -87.627)" fill="#f7af2b"/>
          <path id="Path_234" data-name="Path 234" d="M383,407.632H327.35a1.97,1.97,0,1,1,0-3.94H383a1.97,1.97,0,1,1,0,3.94Z" transform="translate(-325.38 -113.427)" fill="#ccc"/>
          <path id="Path_235" data-name="Path 235" d="M383,425.182H327.35a1.97,1.97,0,1,1,0-3.94H383a1.97,1.97,0,0,1,0,3.94Z" transform="translate(-325.38 -120.636)" fill="#ccc"/>
          <path id="Path_236" data-name="Path 236" d="M383,442.732H327.35a1.97,1.97,0,1,1,0-3.94H383a1.97,1.97,0,1,1,0,3.94Z" transform="translate(-325.38 -127.844)" fill="#ccc"/>
          <path id="Path_237" data-name="Path 237" d="M383,460.282H327.35a1.97,1.97,0,1,1,0-3.94H383a1.97,1.97,0,0,1,0,3.94Z" transform="translate(-325.38 -135.053)" fill="#ccc"/>
          <path id="Path_238" data-name="Path 238" d="M383,477.832H327.35a1.97,1.97,0,1,1,0-3.94H383a1.97,1.97,0,1,1,0,3.94Z" transform="translate(-325.38 -142.261)" fill="#ccc"/>
          <g id="Group_9" data-name="Group 9" transform="matrix(0.695, -0.719, 0.719, 0.695, 128.899, 79.323)">
            <path id="Path_216-2" data-name="Path 216" d="M0,5.9l5.915-.07L5.9,4.848l-4.856.058L1.345.06.361,0Z" transform="translate(0 39.556)" fill="#00beff"/>
            <g id="Group_55" data-name="Group 55">
              <rect id="Rectangle_13-2" data-name="Rectangle 13" width="64.345" height="0.985" transform="translate(0.433 44.368) rotate(-43.593)" fill="#00beff"/>
              <circle id="Ellipse_49-2" data-name="Ellipse 49" cx="5.417" cy="5.417" r="5.417" transform="translate(18.658 17.123)" fill="#00beff"/>
            </g>
            <g id="Group_56" data-name="Group 56" transform="translate(0 0)">
              <rect id="Rectangle_13-3" data-name="Rectangle 13" width="64.345" height="0.985" transform="translate(0.433 44.368) rotate(-43.593)" fill="#00beff"/>
              <circle id="Ellipse_49-3" data-name="Ellipse 49" cx="5.417" cy="5.417" r="5.417" transform="translate(18.658 17.123)" fill="#00beff"/>
            </g>
          </g>
          <g id="Group_57" data-name="Group 57" transform="matrix(0.695, -0.719, 0.719, 0.695, 128.899, -69.677)">
            <path id="Path_216-3" data-name="Path 216" d="M0,5.9l5.915-.07L5.9,4.848l-4.856.058L1.345.06.361,0Z" transform="translate(0 39.556)" fill="#00beff"/>
            <g id="Group_55-2" data-name="Group 55">
              <rect id="Rectangle_13-4" data-name="Rectangle 13" width="64.345" height="0.985" transform="translate(0.433 44.368) rotate(-43.593)" fill="#00beff"/>
              <circle id="Ellipse_49-4" data-name="Ellipse 49" cx="5.417" cy="5.417" r="5.417" transform="translate(18.658 17.123)" fill="#00beff"/>
            </g>
            <g id="Group_56-2" data-name="Group 56" transform="translate(0 0)">
              <rect id="Rectangle_13-5" data-name="Rectangle 13" width="64.345" height="0.985" transform="translate(0.433 44.368) rotate(-43.593)" fill="#00beff"/>
              <circle id="Ellipse_49-5" data-name="Ellipse 49" cx="5.417" cy="5.417" r="5.417" transform="translate(18.658 17.123)" fill="#00beff"/>
            </g>
          </g>
        </g>
        <g id="Group_58" data-name="Group 58" transform="translate(-452.214 -274.959)">
          <path id="Path_1227" data-name="Path 1227" d="M787.9,328.391a2.969,2.969,0,0,0-2.966,2.966v20.762a2.969,2.969,0,0,0,2.966,2.966H894.077a2.969,2.969,0,0,0,2.966-2.966V331.357a2.969,2.969,0,0,0-2.966-2.966Z" transform="translate(-211.19 -192.184)" fill="#f2f2f2"/>
          <circle id="Ellipse_250" data-name="Ellipse 250" cx="6.525" cy="6.525" r="6.525" transform="translate(585.01 143.325)" fill="#ccc"/>
          <path id="Path_1228" data-name="Path 1228" d="M863.23,346.616a2.669,2.669,0,0,0,0,5.339H900.6a2.669,2.669,0,0,0,0-5.339Z" transform="translate(-241.957 -199.598)" fill="#ccc"/>
        </g>
        <g id="Group_59" data-name="Group 59" transform="translate(-452.214 -304.711)">
          <path id="Path_1227-2" data-name="Path 1227" d="M787.9,328.391a2.969,2.969,0,0,0-2.966,2.966v20.762a2.969,2.969,0,0,0,2.966,2.966H894.077a2.969,2.969,0,0,0,2.966-2.966V331.357a2.969,2.969,0,0,0-2.966-2.966Z" transform="translate(-211.19 -192.184)" fill="#f2f2f2"/>
          <circle id="Ellipse_250-2" data-name="Ellipse 250" cx="6.525" cy="6.525" r="6.525" transform="translate(585.01 143.325)" fill="#ccc"/>
          <path id="Path_1228-2" data-name="Path 1228" d="M863.23,346.616a2.669,2.669,0,0,0,0,5.339H900.6a2.669,2.669,0,0,0,0-5.339Z" transform="translate(-241.957 -199.598)" fill="#ccc"/>
        </g>
        <g id="Group_60" data-name="Group 60" transform="translate(-452.214 -334.463)">
          <path id="Path_1227-3" data-name="Path 1227" d="M787.9,328.391a2.969,2.969,0,0,0-2.966,2.966v20.762a2.969,2.969,0,0,0,2.966,2.966H894.077a2.969,2.969,0,0,0,2.966-2.966V331.357a2.969,2.969,0,0,0-2.966-2.966Z" transform="translate(-211.19 -192.184)" fill="#f2f2f2"/>
          <circle id="Ellipse_250-3" data-name="Ellipse 250" cx="6.525" cy="6.525" r="6.525" transform="translate(585.01 143.325)" fill="#ccc"/>
          <path id="Path_1228-3" data-name="Path 1228" d="M863.23,346.616a2.669,2.669,0,0,0,0,5.339H900.6a2.669,2.669,0,0,0,0-5.339Z" transform="translate(-241.957 -199.598)" fill="#ccc"/>
        </g>
      </g>
      <g id="Group_53" data-name="Group 53" transform="translate(0 -1)">
        <ellipse id="Ellipse_31" data-name="Ellipse 31" cx="32.895" cy="32.897" rx="32.895" ry="32.897" transform="translate(652.16 2803.775)" fill="#00beff"/>
        <g id="Group_4" data-name="Group 4" transform="translate(670.816 2822.51)">
          <rect id="Rectangle_5" data-name="Rectangle 5" width="30.497" height="8.462" transform="translate(0)" fill="#fff"/>
          <rect id="Rectangle_6" data-name="Rectangle 6" width="21.038" height="8.462" transform="translate(0 11.285)" fill="#fff"/>
          <rect id="Rectangle_7" data-name="Rectangle 7" width="10.635" height="8.462" transform="translate(0 22.569)" fill="#fff"/>
        </g>
      </g>
    </g>
  </g>
</svg>
