<svg xmlns="http://www.w3.org/2000/svg" width="570.793" height="738.358" viewBox="0 0 570.793 738.358">
  <g id="Group_10" data-name="Group 10" transform="translate(-326.413 -2670.6)">
    <g id="Group_52" data-name="Group 52" transform="translate(-54.993 63)">
      <path id="Path_121" data-name="Path 121" d="M571.643,186.314c-21.375-30.544-14.321-74.143-1.965-108.878,4.138-11.628,8.839-23.926,6.693-36.577-2.62-15.465-14.939-27.053-27.742-33.364-23.341-11.5-50.913-9.666-71.791,4.827-18.017,12.509-30.7,33.3-49.067,45.209C397.033,77.46,357.127,68.556,322.915,53.34c-24.2-10.763-50.716-24.625-74.3-14.686-16.6,6.994-27.774,24.8-33.654,43.826-2.839,9.188-4.826,19.161-10.483,26.354-3.363,4.276-7.808,7.255-12.377,9.746-41.707,22.743-95.356,8.529-135.791,33.9-27.3,17.136-44.29,50.392-51.349,85.354s-5.312,71.869-2.5,108.144c2,25.78,5.159,53.327,20.043,73.586,15.741,21.424,42.122,29.942,65.714,26.581s44.738-17.022,63.247-33.285c23.133-20.328,44.432-45.839,73.222-53.549,19.607-5.254,40.436-1.535,60.818.108,34.069,2.741,68.019-.415,101.76-3.98,32.3-3.411,64.824-7.221,95.415-18.4,21.648-7.915,38.81-22.874,59.19-33.1,13.284-6.664,27.9-8.21,40.4-16.819,15.429-10.6,29.374-29.39,24.848-51.934C602.841,213.765,582.989,202.524,571.643,186.314Z" transform="translate(381.406 3204.412) rotate(-79)" fill="#00beff" opacity="0.118"/>
      <g id="Group_11" data-name="Group 11" transform="translate(508.31 2833.626)">
        <g id="Rectangle_17" data-name="Rectangle 17" transform="translate(0 241.531)" fill="#fff" stroke="#3f3d56" stroke-width="1.5">
          <rect width="90.074" height="112.092" rx="5" stroke="none"/>
          <rect x="0.75" y="0.75" width="88.574" height="110.592" rx="4.25" fill="none"/>
        </g>
        <g id="undraw_Process_re_gws7" transform="translate(14.76 0)">
          <g id="Rectangle_16" data-name="Rectangle 16" transform="translate(119.35 126.771)" fill="#fff" stroke="#3f3d56" stroke-width="1.5">
            <rect width="90.074" height="112.092" rx="5" stroke="none"/>
            <rect x="0.75" y="0.75" width="88.574" height="110.592" rx="4.25" fill="none"/>
          </g>
          <g id="Rectangle_15" data-name="Rectangle 15" transform="translate(248.79 238.195)" fill="#fff" stroke="#3f3d56" stroke-width="1.5">
            <rect width="90.074" height="112.092" rx="5" stroke="none"/>
            <rect x="0.75" y="0.75" width="88.574" height="110.592" rx="4.25" fill="none"/>
          </g>
          <rect id="Rectangle_12" data-name="Rectangle 12" width="0.985" height="64.345" transform="translate(231.164 177.936) rotate(-46.407)" fill="#00beff"/>
          <path id="Path_214" data-name="Path 214" d="M494.973,143.982l-.984.06.3,4.847-4.857-.058-.011.985,5.915.07Z" transform="translate(-216.452 72.797)" fill="#00beff"/>
          <path id="Path_215" data-name="Path 215" d="M423.659,76.277l-.011.985-4.856-.058.3,4.847-.985.06-.359-5.9Z" transform="translate(-187.012 100.635)" fill="#00beff"/>
          <circle id="Ellipse_48" data-name="Ellipse 48" cx="5.417" cy="5.417" r="5.417" transform="translate(249.39 194.346)" fill="#00beff"/>
          <g id="Group_8" data-name="Group 8" transform="translate(45.747 176.841)">
            <rect id="Rectangle_13" data-name="Rectangle 13" width="64.345" height="0.985" transform="translate(0.433 44.749) rotate(-43.593)" fill="#00beff"/>
            <path id="Path_216" data-name="Path 216" d="M103.815,149.886l5.915-.07-.011-.985-4.856.058.3-4.847-.984-.06Z" transform="translate(-103.815 -104.044)" fill="#00beff"/>
            <path id="Path_217" data-name="Path 217" d="M181.4,76.206l-.36,5.9-.984-.06.3-4.847-4.856.058-.011-.985Z" transform="translate(-133.255 -76.206)" fill="#00beff"/>
            <circle id="Ellipse_49" data-name="Ellipse 49" cx="5.417" cy="5.417" r="5.417" transform="translate(18.658 17.504)" fill="#00beff"/>
          </g>
          <path id="Path_219" data-name="Path 219" d="M574.372,201.468H556.378a2.218,2.218,0,0,1-2.216-2.216V178.017a2.218,2.218,0,0,1,2.216-2.216h17.994a2.218,2.218,0,0,1,2.216,2.216v21.234A2.219,2.219,0,0,1,574.372,201.468Z" transform="translate(-419.351 -19.823)" fill="#f7af2b"/>
          <path id="Path_220" data-name="Path 220" d="M633.708,218.182H615.714a2.218,2.218,0,0,1-2.216-2.216V194.732a2.218,2.218,0,0,1,2.216-2.216h17.994a2.218,2.218,0,0,1,2.216,2.216v21.234A2.218,2.218,0,0,1,633.708,218.182Z" transform="translate(-443.722 -26.688)" fill="#ccc"/>
          <path id="Path_221" data-name="Path 221" d="M586.072,269.161H568.078a2.218,2.218,0,0,1-2.216-2.216V245.71a2.218,2.218,0,0,1,2.216-2.216h17.994a2.218,2.218,0,0,1,2.216,2.216v21.234A2.218,2.218,0,0,1,586.072,269.161Z" transform="translate(-424.156 -47.627)" fill="#e34949"/>
          <path id="Path_223" data-name="Path 223" d="M826.793,351.572h-28.07a1.97,1.97,0,0,1,0-3.94h28.07a1.97,1.97,0,1,1,0,3.94Z" transform="translate(-518.993 -90.401)" fill="#3f3d56"/>
          <path id="Path_224" data-name="Path 224" d="M830.97,383.329H775.323a1.97,1.97,0,0,1,0-3.94H830.97a1.97,1.97,0,0,1,0,3.94Z" transform="translate(-509.382 -103.445)" fill="#ccc"/>
          <path id="Path_225" data-name="Path 225" d="M830.97,400.879H775.323a1.97,1.97,0,0,1,0-3.94H830.97a1.97,1.97,0,0,1,0,3.94Z" transform="translate(-509.382 -110.653)" fill="#ccc"/>
          <path id="Path_226" data-name="Path 226" d="M830.97,418.429H775.323a1.97,1.97,0,0,1,0-3.94H830.97a1.97,1.97,0,0,1,0,3.94Z" transform="translate(-509.382 -117.862)" fill="#ccc"/>
          <path id="Path_227" data-name="Path 227" d="M830.97,435.979H775.323a1.97,1.97,0,1,1,0-3.94H830.97a1.97,1.97,0,0,1,0,3.94Z" transform="translate(-509.382 -125.07)" fill="#ccc"/>
          <path id="Path_228" data-name="Path 228" d="M830.97,453.529H775.323a1.97,1.97,0,0,1,0-3.94H830.97a1.97,1.97,0,0,1,0,3.94Z" transform="translate(-509.382 -132.279)" fill="#ccc"/>
          <path id="Path_229" data-name="Path 229" d="M830.97,471.079H775.323a1.97,1.97,0,0,1,0-3.94H830.97a1.97,1.97,0,0,1,0,3.94Z" transform="translate(-509.382 -139.487)" fill="#ccc"/>
          <path id="Path_231" data-name="Path 231" d="M404.912,354.147H380.29a1.97,1.97,0,1,1,0-3.94h24.623a1.97,1.97,0,1,1,0,3.94Z" transform="translate(-347.125 -91.458)" fill="#3f3d56"/>
          <path id="Path_232" data-name="Path 232" d="M404.912,371.7H380.29a1.97,1.97,0,1,1,0-3.94h24.623a1.97,1.97,0,1,1,0,3.94Z" transform="translate(-347.125 -98.667)" fill="#3f3d56"/>
          <path id="Path_233" data-name="Path 233" d="M346.135,366.545H328.141a2.218,2.218,0,0,1-2.216-2.216V343.095a2.218,2.218,0,0,1,2.216-2.216h17.994a2.219,2.219,0,0,1,2.216,2.216v21.234a2.218,2.218,0,0,1-2.216,2.216Z" transform="translate(-325.604 -87.627)" fill="#f7af2b"/>
          <path id="Path_234" data-name="Path 234" d="M383,407.632H327.35a1.97,1.97,0,1,1,0-3.94H383a1.97,1.97,0,1,1,0,3.94Z" transform="translate(-325.38 -113.427)" fill="#ccc"/>
          <path id="Path_235" data-name="Path 235" d="M383,425.182H327.35a1.97,1.97,0,1,1,0-3.94H383a1.97,1.97,0,0,1,0,3.94Z" transform="translate(-325.38 -120.636)" fill="#ccc"/>
          <path id="Path_236" data-name="Path 236" d="M383,442.732H327.35a1.97,1.97,0,1,1,0-3.94H383a1.97,1.97,0,1,1,0,3.94Z" transform="translate(-325.38 -127.844)" fill="#ccc"/>
          <path id="Path_237" data-name="Path 237" d="M383,460.282H327.35a1.97,1.97,0,1,1,0-3.94H383a1.97,1.97,0,0,1,0,3.94Z" transform="translate(-325.38 -135.053)" fill="#ccc"/>
          <path id="Path_238" data-name="Path 238" d="M383,477.832H327.35a1.97,1.97,0,1,1,0-3.94H383a1.97,1.97,0,1,1,0,3.94Z" transform="translate(-325.38 -142.261)" fill="#ccc"/>
          <g id="Group_54" data-name="Group 54" transform="translate(230 13.256)">
            <path id="Path_239" data-name="Path 239" d="M497.9,591.372V570.138a2.218,2.218,0,0,1,2.216-2.216h17.994a2.219,2.219,0,0,1,2.216,2.216v21.234a2.218,2.218,0,0,1-2.216,2.216H500.111a2.218,2.218,0,0,1-2.216-2.216Z" transform="translate(-396.239 -180.883)" fill="#e6e6e6"/>
            <path id="Path_240" data-name="Path 240" d="M508.9,579.372V558.138a2.218,2.218,0,0,1,2.216-2.216h17.994a2.218,2.218,0,0,1,2.216,2.216v21.234a2.219,2.219,0,0,1-2.216,2.216H511.111A2.218,2.218,0,0,1,508.9,579.372Z" transform="translate(-400.758 -175.954)" fill="#f7af2b"/>
            <g id="Group_7" data-name="Group 7" transform="translate(124.514 273.03)">
              <path id="Path_97" data-name="Path 97" d="M942.247,560.432a5.674,5.674,0,0,0,2.919-3.774,5.834,5.834,0,0,0-.938-4.727l12.908-73.525-12.045-.163-8.963,72.707a5.85,5.85,0,0,0-1.032,7.539A5.477,5.477,0,0,0,942.247,560.432Z" transform="translate(-883.978 -412.422)" fill="#ffb8b8"/>
              <path id="Path_98" data-name="Path 98" d="M750.979,462.891l-4.573,22.356.572,50.007h8.574l4-48.83,6.287-20.591Z" transform="translate(-730.094 -318.366)" fill="#ffb8b8"/>
              <path id="Path_99" data-name="Path 99" d="M800.553,465.742,795.98,488.1l.572,50.007h8.574l4-48.829,6.287-20.591Z" transform="translate(-751.331 -319.541)" fill="#ffb8b8"/>
              <path id="Path_100" data-name="Path 100" d="M8.51,0H22.025V8.758L0,8.76H0A8.639,8.639,0,0,1,8.51,0Z" transform="translate(5.382 216.34) rotate(-0.144)" fill="#002028"/>
              <path id="Path_101" data-name="Path 101" d="M8.51,0H22.025V8.758L0,8.76H0A8.639,8.639,0,0,1,8.51,0Z" transform="translate(33.929 217.286) rotate(-0.144)" fill="#002028"/>
              <ellipse id="Ellipse_27" data-name="Ellipse 27" cx="14.039" cy="14.45" rx="14.039" ry="14.45" transform="translate(27.709 5.988)" fill="#ffb8b8"/>
              <path id="Path_102" data-name="Path 102" d="M935.653,450.163c-4.271-6.9-17.682-23.258-37.638-13.868a8.773,8.773,0,0,0-4.9,8.607c.966,13.119,2.184,46.544-8.21,66.544,0,0,30.294,9.413,46.871.588,0,0-5.716-39.417,0-47.065a31.931,31.931,0,0,0,4.58-8.075,7.775,7.775,0,0,0-.706-6.732Z" transform="translate(-862.879 -393.985)" fill="#053440"/>
              <path id="Path_103" data-name="Path 103" d="M960.049,461.02l5.609,2.406a2.187,2.187,0,0,1,1.306,1.928l.515,12.728L954.9,476.9Z" transform="translate(-892.865 -405.332)" fill="#053440"/>
              <path id="Path_104" data-name="Path 104" d="M880.986,564.02S868.411,588.141,870.7,610.5l17.719,2.942,12.577-31.181-2.859,31.769,18.291.588s12-45.889,8-50.007Z" transform="translate(-856.672 -447.735)" fill="#002028"/>
              <path id="Path_105" data-name="Path 105" d="M852.809,525.055a5.535,5.535,0,0,0,3.9-2.678,5.848,5.848,0,0,0,.508-4.8l25.509-49.5L871.3,464.148,849.791,514.1a5.78,5.78,0,0,0-3.217,6.856A5.568,5.568,0,0,0,852.809,525.055Z" transform="translate(-846.354 -406.618)" fill="#ffb8b8"/>
              <path id="Path_106" data-name="Path 106" d="M901.349,446.142l-4.725-2.175s-4.006-2.557-7.557,3.068-7.387,17.951-7.387,17.951L897.1,469.45Z" transform="translate(-861.496 -398.073)" fill="#053440"/>
              <path id="Path_107" data-name="Path 107" d="M911.364,393.759c.5-1.8.359-4.239-1.338-4.92a5.9,5.9,0,0,0-2.814.025,7.356,7.356,0,0,1-5.19-1.47,15.364,15.364,0,0,1-3.869-5.382l-1.558-3a13.226,13.226,0,0,1-.883-1.957,7.875,7.875,0,0,1,2-7.7,10.679,10.679,0,0,1,7.409-2.99,19.515,19.515,0,0,1,7.917,1.746,34.973,34.973,0,0,1,11.805,8.163c2.191,2.306,4.184,5.311,3.727,8.5-.356,2.482-2.115,4.472-3.792,6.295l-6.085,6.611a8.965,8.965,0,0,1-3.734,2.839c-1.5.45-3.443-.211-3.853-1.767A18.916,18.916,0,0,1,911.364,393.759Z" transform="translate(-867.367 -366.365)" fill="#002028"/>
            </g>
          </g>
          <g id="Group_9" data-name="Group 9" transform="matrix(0.695, -0.719, 0.719, 0.695, 128.899, 79.323)">
            <path id="Path_216-2" data-name="Path 216" d="M0,5.9l5.915-.07L5.9,4.848l-4.856.058L1.345.06.361,0Z" transform="translate(0 39.556)" fill="#00beff"/>
            <g id="Group_55" data-name="Group 55">
              <rect id="Rectangle_13-2" data-name="Rectangle 13" width="64.345" height="0.985" transform="translate(0.433 44.368) rotate(-43.593)" fill="#00beff"/>
              <circle id="Ellipse_49-2" data-name="Ellipse 49" cx="5.417" cy="5.417" r="5.417" transform="translate(18.658 17.123)" fill="#00beff"/>
            </g>
            <g id="Group_56" data-name="Group 56" transform="translate(0 0)">
              <rect id="Rectangle_13-3" data-name="Rectangle 13" width="64.345" height="0.985" transform="translate(0.433 44.368) rotate(-43.593)" fill="#00beff"/>
              <circle id="Ellipse_49-3" data-name="Ellipse 49" cx="5.417" cy="5.417" r="5.417" transform="translate(18.658 17.123)" fill="#00beff"/>
            </g>
          </g>
          <g id="Group_57" data-name="Group 57" transform="matrix(0.695, -0.719, 0.719, 0.695, 128.899, -69.677)">
            <path id="Path_216-3" data-name="Path 216" d="M0,5.9l5.915-.07L5.9,4.848l-4.856.058L1.345.06.361,0Z" transform="translate(0 39.556)" fill="#00beff"/>
            <g id="Group_55-2" data-name="Group 55">
              <rect id="Rectangle_13-4" data-name="Rectangle 13" width="64.345" height="0.985" transform="translate(0.433 44.368) rotate(-43.593)" fill="#00beff"/>
              <circle id="Ellipse_49-4" data-name="Ellipse 49" cx="5.417" cy="5.417" r="5.417" transform="translate(18.658 17.123)" fill="#00beff"/>
            </g>
            <g id="Group_56-2" data-name="Group 56" transform="translate(0 0)">
              <rect id="Rectangle_13-5" data-name="Rectangle 13" width="64.345" height="0.985" transform="translate(0.433 44.368) rotate(-43.593)" fill="#00beff"/>
              <circle id="Ellipse_49-5" data-name="Ellipse 49" cx="5.417" cy="5.417" r="5.417" transform="translate(18.658 17.123)" fill="#00beff"/>
            </g>
          </g>
        </g>
        <g id="Group_58" data-name="Group 58" transform="translate(-452.214 -274.959)">
          <path id="Path_1227" data-name="Path 1227" d="M787.9,328.391a2.969,2.969,0,0,0-2.966,2.966v20.762a2.969,2.969,0,0,0,2.966,2.966H894.077a2.969,2.969,0,0,0,2.966-2.966V331.357a2.969,2.969,0,0,0-2.966-2.966Z" transform="translate(-211.19 -192.184)" fill="#f2f2f2"/>
          <circle id="Ellipse_250" data-name="Ellipse 250" cx="6.525" cy="6.525" r="6.525" transform="translate(585.01 143.325)" fill="#ccc"/>
          <path id="Path_1228" data-name="Path 1228" d="M863.23,346.616a2.669,2.669,0,0,0,0,5.339H900.6a2.669,2.669,0,0,0,0-5.339Z" transform="translate(-241.957 -199.598)" fill="#ccc"/>
        </g>
        <g id="Group_59" data-name="Group 59" transform="translate(-452.214 -304.711)">
          <path id="Path_1227-2" data-name="Path 1227" d="M787.9,328.391a2.969,2.969,0,0,0-2.966,2.966v20.762a2.969,2.969,0,0,0,2.966,2.966H894.077a2.969,2.969,0,0,0,2.966-2.966V331.357a2.969,2.969,0,0,0-2.966-2.966Z" transform="translate(-211.19 -192.184)" fill="#f2f2f2"/>
          <circle id="Ellipse_250-2" data-name="Ellipse 250" cx="6.525" cy="6.525" r="6.525" transform="translate(585.01 143.325)" fill="#ccc"/>
          <path id="Path_1228-2" data-name="Path 1228" d="M863.23,346.616a2.669,2.669,0,0,0,0,5.339H900.6a2.669,2.669,0,0,0,0-5.339Z" transform="translate(-241.957 -199.598)" fill="#ccc"/>
        </g>
        <g id="Group_60" data-name="Group 60" transform="translate(-452.214 -334.463)">
          <path id="Path_1227-3" data-name="Path 1227" d="M787.9,328.391a2.969,2.969,0,0,0-2.966,2.966v20.762a2.969,2.969,0,0,0,2.966,2.966H894.077a2.969,2.969,0,0,0,2.966-2.966V331.357a2.969,2.969,0,0,0-2.966-2.966Z" transform="translate(-211.19 -192.184)" fill="#f2f2f2"/>
          <circle id="Ellipse_250-3" data-name="Ellipse 250" cx="6.525" cy="6.525" r="6.525" transform="translate(585.01 143.325)" fill="#ccc"/>
          <path id="Path_1228-3" data-name="Path 1228" d="M863.23,346.616a2.669,2.669,0,0,0,0,5.339H900.6a2.669,2.669,0,0,0,0-5.339Z" transform="translate(-241.957 -199.598)" fill="#ccc"/>
        </g>
      </g>
      <g id="Group_53" data-name="Group 53" transform="translate(0 -1)">
        <ellipse id="Ellipse_31" data-name="Ellipse 31" cx="32.895" cy="32.897" rx="32.895" ry="32.897" transform="translate(652.16 2803.775)" fill="#00beff"/>
        <g id="Group_4" data-name="Group 4" transform="translate(670.816 2822.51)">
          <rect id="Rectangle_5" data-name="Rectangle 5" width="30.497" height="8.462" transform="translate(0)" fill="#fff"/>
          <rect id="Rectangle_6" data-name="Rectangle 6" width="21.038" height="8.462" transform="translate(0 11.285)" fill="#fff"/>
          <rect id="Rectangle_7" data-name="Rectangle 7" width="10.635" height="8.462" transform="translate(0 22.569)" fill="#fff"/>
        </g>
      </g>
    </g>
  </g>
</svg>
