<svg xmlns="http://www.w3.org/2000/svg" width="765" height="530.314" viewBox="0 0 765 530.314">
  <g id="undraw_data_reports_706v" transform="translate(-58.5)">
    <rect id="Rectangle_282" data-name="Rectangle 282" width="250.713" height="64.775" rx="10" transform="translate(364.288)" fill="#fff"/>
    <rect id="Rectangle_281" data-name="Rectangle 281" width="250.713" height="64.775" rx="10" transform="translate(540.287 117.232)" fill="#fff"/>
    <rect id="Rectangle_280" data-name="Rectangle 280" width="490.213" height="222" rx="10" transform="translate(333.287 237.732)" fill="#fff"/>
    <path id="Path_1390" data-name="Path 1390" d="M344.468,315.845l-47.076-12.839q18.856-17.793,16.405-33.524h30.671Z" transform="translate(-188.25 -180.384)" fill="#9f616a"/>
    <path id="Path_1391" data-name="Path 1391" d="M161.211,496.376l-15.206,2.139L127.687,330.184,98.443,497.8l-15.692.713V285.961h97Z" fill="#2f2e41"/>
    <path id="Path_1392" data-name="Path 1392" d="M278.9,710.693h0a10.7,10.7,0,0,0,10.607-7.816l1.111-16.575-2.239-11.755c-5.908-4.855-11.88-4.754-17.912,0l-1.924,24.622A10.7,10.7,0,0,0,278.9,710.693Z" transform="translate(-188.25 -180.384)" fill="#2f2e41"/>
    <path id="Path_1393" data-name="Path 1393" d="M341.666,710.693h0a10.7,10.7,0,0,0,10.607-7.816l1.111-16.575-2.239-11.755c-5.908-4.855-11.88-4.754-17.912,0l-1.924,24.622a10.7,10.7,0,0,0,10.357,11.524Z" transform="translate(-188.25 -180.384)" fill="#2f2e41"/>
    <circle id="Ellipse_307" data-name="Ellipse 307" cx="27.104" cy="27.104" r="27.104" transform="translate(122.694 57.001)" fill="#9f616a"/>
    <path id="Path_1394" data-name="Path 1394" d="M372.286,469.911H268.861c13.4-62.124,13.367-112.158,2.69-152.623a10.813,10.813,0,0,1,6.576-12.853l27.825-10.7c8.354,10.788,20.142,15.5,38.517,8.559l14.581,2.991a14.982,14.982,0,0,1,11.957,15.665c-1.073,15.826-.65,31.772-1.573,45.538C366.573,409.115,365.339,442.347,372.286,469.911Z" transform="translate(-188.25 -180.384)" fill="#053440"/>
    <path id="Path_1395" data-name="Path 1395" d="M323.783,228.826s15.692-17.832,34.237-.713l4.993,1.427-3.566,2.853s18.545,8.559,17.118,26.391c0,0-2.853-.713-4.28,0s-2.14,8.559-2.14,8.559-2.14-5.706-2.853-6.419-10.7,7.846-27.1-4.993c0,0-4.993,12.839-10.7,11.412s-13.552-.713-17.118,8.559C312.371,275.9,293.113,234.532,323.783,228.826Z" transform="translate(-188.25 -180.384)" fill="#2f2e41"/>
    <path id="Path_1396" data-name="Path 1396" d="M377.278,454.219l-9.156,12.272a12.027,12.027,0,0,0,2.594,16.939h0a12.027,12.027,0,0,0,18.921-7.847l2.619-16.371L397.25,388.6l-3.566-35.664-22.825,8.559,6.419,30.671Z" transform="translate(-188.25 -180.384)" fill="#9f616a"/>
    <path id="Path_1397" data-name="Path 1397" d="M368.006,370.053l27.818-12.839L394.4,347.108a41.488,41.488,0,0,0-26.489-38.682l-8.461-3.281Z" transform="translate(-188.25 -180.384)" fill="#053440"/>
    <path id="Path_1398" data-name="Path 1398" d="M266.722,451.366l9.156,12.272a12.027,12.027,0,0,1-2.594,16.939h0a12.027,12.027,0,0,1-18.921-7.847l-2.619-16.371-4.993-70.614,3.566-35.664,22.825,8.559-6.419,30.671Z" transform="translate(-188.25 -180.384)" fill="#9f616a"/>
    <path id="Path_1399" data-name="Path 1399" d="M275.994,367.2l-27.818-12.839,1.427-10.106a41.488,41.488,0,0,1,26.489-38.682l8.461-3.281Z" transform="translate(-188.25 -180.384)" fill="#053440"/>
    <path id="Path_1401" data-name="Path 1401" d="M547.75,443.616a4.5,4.5,0,0,0,0,9h63a4.5,4.5,0,1,0,0-9Z" transform="translate(-188.25 -180.384)" fill="#e6e6e6"/>
    <path id="Path_1402" data-name="Path 1402" d="M979.04,474.911v83.45H554.21V514.423c2.942-1.889,5.9-3.769,8.888-5.588,12.754-7.8,26.405-15.1,41.283-17.809a62.321,62.321,0,0,1,21.313-.266c7.466,1.233,14.611,3.8,21.686,6.386,6.977,2.554,13.971,5.188,21.268,6.67a62.272,62.272,0,0,0,21.57.426c13.66-2.049,26.494-7.539,39.275-12.505,12.86-4.993,26.112-9.712,40.03-10.333,13.74-.621,27.312,2.625,40.35,6.652,26.583,8.2,53.726,20.372,81.873,12.027,28.583-8.461,54.872-32.887,86.548-25.641a1.193,1.193,0,0,1,.747.47Z" transform="translate(-188.25 -180.384)" fill="#e6e6e6"/>
    <path id="Path_1403" data-name="Path 1403" d="M979.04,476.366a1.283,1.283,0,0,1-1.455.639,47.367,47.367,0,0,0-11.512-1.189c-31.157.55-55.113,25.632-85.578,29.383-27.468,3.379-53.321-9.978-79.148-16.958-13.419-3.628-27.255-5.552-41.064-3.086-13.7,2.439-26.563,8.044-39.476,13.02-12.435,4.789-25.357,9.242-38.82,9.463-14.8.248-28.133-5.854-41.862-10.5-7.14-2.421-14.466-4.337-22.031-4.523a66.646,66.646,0,0,0-21.712,3.361c-14.59,4.639-27.734,12.9-40.532,21.117a1.137,1.137,0,0,1-.754.2,1.374,1.374,0,0,1-.585-2.5l.585-.372c2.936-1.889,5.889-3.769,8.869-5.588,12.727-7.8,26.35-15.1,41.2-17.809a62.062,62.062,0,0,1,21.268-.266c7.45,1.233,14.581,3.8,21.641,6.386,6.962,2.554,13.942,5.188,21.224,6.67a62.013,62.013,0,0,0,21.525.426c13.632-2.049,26.439-7.539,39.193-12.505,12.834-4.993,26.057-9.712,39.947-10.333,13.712-.621,27.255,2.625,40.266,6.652,26.528,8.2,53.614,20.372,81.7,12.027,28.523-8.461,54.758-32.887,86.367-25.641a1.19,1.19,0,0,1,.745.47A1.366,1.366,0,0,1,979.04,476.366Z" transform="translate(-188.25 -180.384)" fill="#0cbeff"/>
    <circle id="Ellipse_308" data-name="Ellipse 308" cx="6.208" cy="6.208" r="6.208" transform="translate(418.287 305.251)" fill="#0cbeff"/>
    <circle id="Ellipse_309" data-name="Ellipse 309" cx="6.208" cy="6.208" r="6.208" transform="translate(575.271 297.268)" fill="#0cbeff"/>
    <circle id="Ellipse_310" data-name="Ellipse 310" cx="6.208" cy="6.208" r="6.208" transform="translate(766.844 289.286)" fill="#0cbeff"/>
    <path id="Path_1404" data-name="Path 1404" d="M609.25,593.616a4.5,4.5,0,0,0,0,9h63a4.5,4.5,0,1,0,0-9Z" transform="translate(-188.25 -180.384)" fill="#e6e6e6"/>
    <circle id="Ellipse_311" data-name="Ellipse 311" cx="17" cy="17" r="17" transform="translate(363.5 400.233)" fill="#0cbeff"/>
    <path id="Path_1405" data-name="Path 1405" d="M761.25,593.616a4.5,4.5,0,0,0,0,9h63a4.5,4.5,0,1,0,0-9Z" transform="translate(-188.25 -180.384)" fill="#e6e6e6"/>
    <circle id="Ellipse_312" data-name="Ellipse 312" cx="17" cy="17" r="17" transform="translate(515.5 400.233)" fill="#0cbeff"/>
    <path id="Path_1406" data-name="Path 1406" d="M913.25,593.616a4.5,4.5,0,0,0,0,9h63a4.5,4.5,0,1,0,0-9Z" transform="translate(-188.25 -180.384)" fill="#e6e6e6"/>
    <circle id="Ellipse_313" data-name="Ellipse 313" cx="17" cy="17" r="17" transform="translate(667.5 400.233)" fill="#0cbeff"/>
    <path id="Path_1407" data-name="Path 1407" d="M789.929,328.391a5.006,5.006,0,0,0-5,5v35a5.006,5.006,0,0,0,5,5h179a5.006,5.006,0,0,0,5-5v-35a5.006,5.006,0,0,0-5-5Z" transform="translate(-188.25 -180.384)" fill="#0cbeff"/>
    <circle id="Ellipse_314" data-name="Ellipse 314" cx="11" cy="11" r="11" transform="translate(615.679 160.007)" fill="#fff"/>
    <path id="Path_1408" data-name="Path 1408" d="M865.061,346.616a4.5,4.5,0,0,0,0,9h63a4.5,4.5,0,0,0,0-9Z" transform="translate(-188.25 -180.384)" fill="#fff"/>
    <path id="Path_1409" data-name="Path 1409" d="M613.929,209.391a5.006,5.006,0,0,0-5,5v35a5.006,5.006,0,0,0,5,5h179a5.006,5.006,0,0,0,5-5v-35a5.006,5.006,0,0,0-5-5Z" transform="translate(-188.25 -180.384)" fill="#0cbeff"/>
    <circle id="Ellipse_315" data-name="Ellipse 315" cx="11" cy="11" r="11" transform="translate(439.679 41.007)" fill="#fff"/>
    <path id="Path_1410" data-name="Path 1410" d="M689.061,227.616a4.5,4.5,0,0,0,0,9h63a4.5,4.5,0,0,0,0-9Z" transform="translate(-188.25 -180.384)" fill="#fff"/>
  </g>
</svg>
