<svg xmlns="http://www.w3.org/2000/svg" width="705.484" height="570.32" viewBox="0 0 705.484 570.32">
  <g id="Group_29" data-name="Group 29" transform="translate(-482.693 -3018.201)">
    <path id="Path_1074" data-name="Path 1074" d="M208.525,141.55c-3.78,4.612-5.235,11.1-6.863,17.191-13.106,49.125-45.4,88.639-82.181,116.863-15.575,11.955-34.538,27.988-31.13,49.423,1.835,11.512,9.885,19.986,15.865,29.361,12.547,19.632,16.617,46.317,10.637,69.818-6.8,26.74-25.812,51.691-19.928,78.729,3.628,16.643,15.948,28.488,27.792,38.668q27.716,23.807,57.2,44.6c13.175,9.292,27.191,18.335,42.546,19.514,13.52,1.04,26.764-4.126,39.6-9.223,11.216-4.459,22.715-9.1,31.772-18.03,5.911-5.832,10.623-13.356,17.19-18.127,15.424-11.206,35.234-4.105,52.921.694a183.366,183.366,0,0,0,126.107-11.609c60.915-28.779,107.345-89.215,166.929-121.641,25.619-13.946,53.486-22.6,77.208-40.561a144.708,144.708,0,0,0,33.938-36.92c17.935-27.815,27.633-63.279,24.832-97.994s-18.493-68.168-43.139-87.765c-26.384-20.977-59.708-24.9-89.728-37.489-30.985-13.023-58.563-35.395-89.252-49.34A181.7,181.7,0,0,0,413.351,81.26c-33.42,16.99-67.282,56.629-104.5,59.638C282.332,142.979,229.232,116.294,208.525,141.55Z" transform="translate(394.745 2982.663)" fill="#beeefe"/>
    <g id="undraw_message_sent_1030" transform="translate(354.408 3018.184)">
      <path id="Path_1046" data-name="Path 1046" d="M760.971,431.488l7.149-1.236c.686-.12,1.367-.267,2.052-.391a58.688,58.688,0,0,1,37.473-108.188l-9.371,22.3,22.2-19.385a1.012,1.012,0,0,1,.152.051,58.692,58.692,0,0,1,35.86,74.859c-.371,1.057-.813,2.067-1.238,3.088a70.166,70.166,0,0,0,17.183-11.509c9.927-9.512,15.365-22.638,21.443-38.81,12.041-32.046,23.634-64.557,34.764-97.138a58.666,58.666,0,0,1-27.428-71.045c.6-1.694,1.287-3.326,2.02-4.928.183-.4.368-.8.559-1.195.744-1.536,1.53-3.041,2.392-4.486.141-.237.3-.458.443-.693q1.126-1.827,2.375-3.546c.31-.43.619-.859.94-1.279.943-1.234,1.921-2.434,2.951-3.58.344-.383.71-.742,1.063-1.115q1.187-1.253,2.44-2.43c.44-.413.876-.829,1.328-1.228.116-.1.224-.214.341-.315l.016.023a58.651,58.651,0,0,1,75.041-1.686l-12.194,29.017,21.949-19.155a58.366,58.366,0,0,1,2.169,69.124l.061.02c-.24.352-.512.675-.758,1.021q-.694.974-1.421,1.913c-.624.8-1.271,1.579-1.932,2.344-.5.578-.991,1.16-1.511,1.716-.76.813-1.556,1.583-2.358,2.348-.468.447-.915.916-1.4,1.346q-1.893,1.691-3.916,3.208c-.473.354-.972.667-1.455,1.006-.947.666-1.9,1.323-2.882,1.93-.61.377-1.236.722-1.859,1.076-.9.514-1.81,1.011-2.737,1.476-.657.329-1.319.642-1.988.947-.952.434-1.916.836-2.889,1.219-.654.257-1.3.517-1.967.75-1.093.385-2.2.72-3.318,1.04-.563.162-1.117.347-1.686.492-1.674.427-3.366.79-5.078,1.069-.322.053-.65.072-.973.119-1.419.207-2.846.373-4.284.475-.618.044-1.24.05-1.861.074-1.162.045-2.326.068-3.5.043-.682-.014-1.364-.05-2.048-.088q-1.709-.1-3.421-.3c-.675-.078-1.348-.156-2.023-.258-1.223-.186-2.444-.428-3.666-.694-.08-.017-.161-.028-.241-.046q-7.047,20.618-14.354,41.148a58.652,58.652,0,0,1,85.047,7.01l-20.292,22.44,27.474-10.967a58.49,58.49,0,0,1,2.348,44.68,57.575,57.575,0,0,1-7.455,14.424A58.668,58.668,0,0,1,910.7,353.855c-.516,1.379-1.015,2.775-1.532,4.153-5.363,14.267-12.036,32.022-25.436,44.858-9.083,8.7-20.259,14.221-30.981,18.888q-10.473,4.558-21.225,8.428a58.822,58.822,0,0,1-26.266,8.371c-11.31,3.142-22.762,5.764-34.322,7.789l-7.208,1.242c-6.478,1.11-13.12,2.252-19.712,3.568.949.282,1.9.55,2.844.883a58.71,58.71,0,0,1,39.193,57.119l-45.187,13.87,40.889,6.493a58.719,58.719,0,0,1-97.841,17.364q.622,2.086,1.25,4.165c.83,2.755,1.653,5.494,2.444,8.207,10.76,36.971,6.129,66.053-13.041,81.886l-10.4-12.592c18.657-15.412,12.869-47.17,7.761-64.732-.776-2.664-1.587-5.355-2.4-8.061-7.008-23.281-14.952-49.669-4.663-73.918C680.37,445.289,725.061,437.636,760.971,431.488Z" transform="translate(-193.742 -144.859)" fill="#94d6eb"/>
      <path id="Path_1047" data-name="Path 1047" d="M689.981,675.324h-316.6a39.147,39.147,0,0,1-39.147-39.147V491.125a15.509,15.509,0,0,1,4.839-11.255L506.838,320.838a36.108,36.108,0,0,1,49.681,0L716.479,472.466a40.538,40.538,0,0,1,12.65,29.42V636.177A39.147,39.147,0,0,1,689.981,675.324Z" transform="translate(-135.995 -174.301)" fill="#3f3d56"/>
      <path id="Path_1048" data-name="Path 1048" d="M240.954,387.992H632.562v158.18a23.638,23.638,0,0,1-23.638,23.638H264.592a23.638,23.638,0,0,1-23.638-23.638V387.992Z" transform="translate(-42.72 -68.786)" opacity="0.1"/>
      <path id="Path_1049" data-name="Path 1049" d="M333.73,521.351" transform="translate(-135.907 -211.606)" fill="none" stroke="#3f3d56" stroke-miterlimit="10" stroke-width="1"/>
      <rect id="Rectangle_226" data-name="Rectangle 226" width="291.238" height="291.238" rx="26.181" transform="translate(249.653 194.566)" fill="#20befd"/>
      <path id="Path_1050" data-name="Path 1050" d="M594.692,395.942V556H303.454V395.942l145.619,70.382Z" transform="translate(-53.801 -70.196)" opacity="0.1"/>
      <path id="Path_1051" data-name="Path 1051" d="M531.179,617.754,344.594,527.571a7.57,7.57,0,0,0-10.865,6.816V689.549a23.638,23.638,0,0,0,23.638,23.638H704.99a23.638,23.638,0,0,0,23.638-23.638v-152.5a9.238,9.238,0,0,0-13.258-8.317Z" transform="translate(-135.907 -212.575)" fill="#3f3d56"/>
      <rect id="Rectangle_227" data-name="Rectangle 227" width="81.448" height="11.518" transform="translate(274.746 221.304)" fill="#f2f2f2"/>
      <rect id="Rectangle_228" data-name="Rectangle 228" width="241.875" height="6.582" transform="translate(268.164 263.262)" fill="#f2f2f2"/>
      <rect id="Rectangle_229" data-name="Rectangle 229" width="241.875" height="6.582" transform="translate(268.164 285.475)" fill="#f2f2f2"/>
      <rect id="Rectangle_230" data-name="Rectangle 230" width="241.875" height="6.582" transform="translate(268.164 307.688)" fill="#f2f2f2"/>
      <path id="Path_1058" data-name="Path 1058" d="M811.773,304.66c-.494,4.405-3.854,7.954-5.1,12.208-1.874,6.4,1.366,13.275,5.8,18.262A40.444,40.444,0,0,0,840.636,348.5a12.011,12.011,0,0,0,4.657-.508,9.968,9.968,0,0,0,3.543-2.421c3.338-3.352,5.13-8,5.844-12.671a67.464,67.464,0,0,0,.157-14.162,8,8,0,0,0-.523-2.856,7.318,7.318,0,0,0-1.838-2.26,42.839,42.839,0,0,0-7.89-5.731,9.057,9.057,0,0,1-3.306-2.53,8.175,8.175,0,0,1-1.022-3.029l-.872-4.442a8.729,8.729,0,0,0-1.28-3.6c-1.54-2.077-4.485-2.36-7.069-2.461l-9.465-.371c-2.944-.115-6.824-.96-9.7-.382-2.684.54-1.792,3.013-1.3,5.265A38.067,38.067,0,0,1,811.773,304.66Z" transform="translate(-219.661 -170.745)" fill="#a0616a"/>
      <path id="Path_1059" data-name="Path 1059" d="M811.773,304.66c-.494,4.405-3.854,7.954-5.1,12.208-1.874,6.4,1.366,13.275,5.8,18.262A40.444,40.444,0,0,0,840.636,348.5a12.011,12.011,0,0,0,4.657-.508,9.968,9.968,0,0,0,3.543-2.421c3.338-3.352,5.13-8,5.844-12.671a67.464,67.464,0,0,0,.157-14.162,8,8,0,0,0-.523-2.856,7.318,7.318,0,0,0-1.838-2.26,42.839,42.839,0,0,0-7.89-5.731,9.057,9.057,0,0,1-3.306-2.53,8.175,8.175,0,0,1-1.022-3.029l-.872-4.442a8.729,8.729,0,0,0-1.28-3.6c-1.54-2.077-4.485-2.36-7.069-2.461l-9.465-.371c-2.944-.115-6.824-.96-9.7-.382-2.684.54-1.792,3.013-1.3,5.265A38.067,38.067,0,0,1,811.773,304.66Z" transform="translate(-219.661 -170.745)" opacity="0.1"/>
      <path id="Path_1060" data-name="Path 1060" d="M875.565,543.941q-2.012,22.055-4.023,44.1c-1.05,11.568-2.12,23.183-4.179,34.6-.711,3.935-1.544,7.85-2.533,11.73-2.75,10.775-6.739,21.307-8.026,32.353-.041.318-.074.643-.108.969a28.123,28.123,0,0,1-1.375,7.179c-.643,1.686-1.632,3.224-2.33,4.89-1.388,3.332-1.571,7.016-1.741,10.626A45.811,45.811,0,0,0,835.477,685c-2.675-.4-5.655-.684-7.477-2.682-2.018-2.208-1.795-5.588-1.456-8.554q1.595-13.816,3.183-27.619a71.984,71.984,0,0,1,2.011-11.73c.366-1.28.806-2.54,1.253-3.8.616-1.734,1.239-3.468,1.707-5.249a63.215,63.215,0,0,0,1.409-8.744c1.09-9.265,2.4-18.51,3.556-27.768l.061-.488c1.727-14.033,3.041-28.134,2.662-42.269-.054-2.093-.142-4.185-.278-6.285-.19-3.041-.467-4.653,2.052-6.556,2.784-2.1,6.448-3.569,9.631-4.944,1.714-.745,20.582-7.443,21.023-5.974a36.769,36.769,0,0,1,1.382,9.631A107.157,107.157,0,0,1,875.565,543.941Z" transform="translate(-223.241 -211.745)" fill="#605d82"/>
      <path id="Path_1061" data-name="Path 1061" d="M868.8,636.921c-.711,3.935-1.544,7.85-2.533,11.73-2.75,10.775-6.739,21.307-8.026,32.353-.041.318-.074.643-.108.969-8.412-12.015-15.5-24.937-23.7-37.081.616-1.734,1.239-3.468,1.707-5.249a63.217,63.217,0,0,0,1.409-8.744c1.09-9.265,2.4-18.51,3.556-27.768l.061-.488a28.761,28.761,0,0,0,2.052,5.7c5.513,11.2,18.611,16.864,25.018,27.585Q868.526,636.423,868.8,636.921Z" transform="translate(-224.678 -226.019)" opacity="0.1"/>
      <path id="Path_1062" data-name="Path 1062" d="M793.236,512.83c.278,8.985,1.716,17.888,3.151,26.762l2.961,18.308c1.621,10.02,3.308,20.245,8.05,29.219,3.547,6.714,8.658,12.442,13.281,18.466,11.366,14.807,19.9,31.581,30.682,46.822,3.133,4.43,7.61,9.221,12.957,8.3,3.509-.607,6.057-3.528,8.816-5.781,3.252-2.656,7.171-4.6,9.729-7.927s3.06-8.861-.406-11.23a18.286,18.286,0,0,0-3.967-1.623c-5.374-2.044-8.852-7.291-11.065-12.6s-3.554-11.011-6.5-15.946c-6.406-10.721-19.507-16.383-25.021-27.589-3.089-6.276-3.383-13.51-3.619-20.5l-.6-17.822a13.014,13.014,0,0,1,.675-5.758c2.109-4.744,8.478-5.186,13.635-5.787a46.642,46.642,0,0,0,16.709-5.272c2.97-1.6,5.872-3.649,7.461-6.627,1.45-2.717,1.65-5.9,1.82-8.979l1.785-32.3c.154-2.779.294-5.652-.686-8.257-2.459-6.541-10.719-8.678-17.7-8.366-12.991.581-24.983,6.169-37.231,9.943a94.645,94.645,0,0,1-9.229,2.407c-2.749.552-6.076.323-8.7,1.207-4.663,1.572-4.544,11.768-5.205,16a134.68,134.68,0,0,0-1.781,24.932Z" transform="translate(-217.369 -200.43)" fill="#605d82"/>
      <path id="Path_1063" data-name="Path 1063" d="M876.942,701.464a8.257,8.257,0,0,1,1.818,4.447,151.872,151.872,0,0,1,2.572,26.9,4.393,4.393,0,0,0,.484,2.437,3.062,3.062,0,0,0,1.265,1.017c3.311,1.578,7.154-.621,9.912-3.038,5.114-4.48,9.442-10.493,9.732-17.286a40.145,40.145,0,0,1,.183-5.242c.449-2.557,1.943-4.785,3.258-7.024a59.277,59.277,0,0,0,5.385-12.071c.5-1.582.838-3.575-.4-4.679a4.508,4.508,0,0,0-1.474-.766L894.72,680.6c-1.3-.481-4.521,7.8-5.033,8.708-1.252,2.215-2.5,3.473-5.009,3.984-2.564.522-5.616-.227-8.009,1.052C872.623,696.511,874.65,699.153,876.942,701.464Z" transform="translate(-231.757 -239.837)" fill="#535070"/>
      <path id="Path_1064" data-name="Path 1064" d="M845.78,711.622a4.588,4.588,0,0,0-1.138-1.443,5.149,5.149,0,0,0-2.3-.78c-2.847-.483-6.222-.8-8.187,1.315-1.842,1.984-1.526,5.216-3.066,7.443-.488.7-1.148,1.286-1.571,2.031a7.66,7.66,0,0,0-.689,3.644c-.08,3.451-.159,6.909.079,10.353.2,2.886.686,5.91,2.491,8.171,2.9,3.629,8.121,4.151,12.759,4.386l3.756.191a7.331,7.331,0,0,0,3.078-.282,5.067,5.067,0,0,0,2.655-2.921c1.955-4.859-1.141-10.095-3.048-14.973C848.41,723.149,848.8,716.923,845.78,711.622Z" transform="translate(-223.672 -244.883)" fill="#535070"/>
      <path id="Path_1065" data-name="Path 1065" d="M808.883,271.714a3.1,3.1,0,0,1,.211-1.448c.55-.973,1.987-.708,3.07-.435,4.358,1.1,8.949.1,13.436.361s9.541,2.5,10.443,6.9a32.763,32.763,0,0,0,8.284-8.511c1.245-1.863,2.331-4,2.161-6.233-.245-3.223-2.949-5.634-5.453-7.678l-7.465-6.094a11.249,11.249,0,0,0-3.342-2.125c-1.724-.589-3.6-.308-5.425-.307-5.434,0-11.227-2.469-16.06.015a17.337,17.337,0,0,0-5,4.55l-6.662,7.886a4.214,4.214,0,0,0-1.065,1.806,8.02,8.02,0,0,0,.477,2.879c.315,1.762-.444,3.642.139,5.334.969,2.809,4.379,3.206,6.464,4.817.777.6,1.995,2.634,2.921,2.609C807.685,276,808.84,273.012,808.883,271.714Z" transform="translate(-217.86 -162.62)" fill="#3f3d56"/>
      <circle id="Ellipse_227" data-name="Ellipse 227" cx="21.334" cy="21.334" r="21.334" transform="translate(580.994 89.672)" fill="#a0616a"/>
      <path id="Path_1066" data-name="Path 1066" d="M820.417,331.572a10.335,10.335,0,0,0-10.061-6.924,3.068,3.068,0,0,1-1.856-.235,2.559,2.559,0,0,1-.763-.954,37.263,37.263,0,0,1-3.111-7.354c-.34-1.129-.806-2.46-1.948-2.754a2.632,2.632,0,0,0-2.483,1.08,21.884,21.884,0,0,1-1.775,2.231c-2.683,2.4-7.439.212-10.287,2.414-.465.36-.849.82-1.338,1.147a6.246,6.246,0,0,1-1.566.672,150.243,150.243,0,0,0-16.146,6.324c1.894,11.408,3.835,23.015,8.276,33.694,2.113,5.082,4.508,10.058,6.2,15.3,3.749,11.6,3.916,24.018,3.958,36.212.029,8.346-.013,16.869-2.713,24.766a23.37,23.37,0,0,0-1.525,5.44,5.637,5.637,0,0,0,1.909,5.071,6.531,6.531,0,0,0,2.946,1.035c4.678.687,9.4-.559,14-1.625,12.347-2.859,24.94-4.5,37.509-6.128l21.061-2.735a12.227,12.227,0,0,0,4.357-1.126c3.854-2.11,4.22-7.907,1.827-11.592-1.147-1.767-2.766-3.216-3.73-5.089s-1.046-4.492.614-5.789c3.376-2.639,2.369-7.534,2.53-11.816q.675-17.959-.183-35.931A71.554,71.554,0,0,1,866,359.45a65.993,65.993,0,0,1,2.323-12.435l6.4-25.2c-1.672-2.642-4.873-4.318-7.905-5.079s-6.191-.985-9.177-1.91c-6.118-1.9-11.564-6.707-17.954-6.258a3.26,3.26,0,0,0-1.391.34c-1.441.816-1.213,2.893-1.3,4.547-.2,3.658-2.895,6.716-5.866,8.86s-6.365,3.707-9.094,6.152A4.059,4.059,0,0,0,820.417,331.572Z" transform="translate(-213.093 -173.876)" fill="#f7af2b"/>
      <path id="Path_1067" data-name="Path 1067" d="M726.287,363.886a25.19,25.19,0,0,1-4.487,2.309,14.751,14.751,0,0,0-4.3,2.086,6.736,6.736,0,0,0-1.495,1.847,8.213,8.213,0,0,0,7.573,12.237,16.487,16.487,0,0,0,5.6-1.67l15.047-6.52c2.547-1.1,5.3-2.4,6.5-4.9a1.138,1.138,0,0,0,.147-.777,1.286,1.286,0,0,0-.618-.65,33.621,33.621,0,0,1-8.762-8.262c-.617-.838-1.373-2.817-2.245-3.32C736.065,354.433,728.836,362.231,726.287,363.886Z" transform="translate(-203.494 -182.289)" fill="#a0616a"/>
      <path id="Path_1068" data-name="Path 1068" d="M916.517,359.084l5.548,6.337c1.191,1.36,2.383,2.723,3.469,4.169a48.656,48.656,0,0,1,6.354,11.97c1.206,3.164,2.207,6.535,1.785,9.895a24.22,24.22,0,0,1-1.388,5.032,62.636,62.636,0,0,1-3.77,9.079,51.728,51.728,0,0,1-4.242,6.357,148.437,148.437,0,0,1-14.063,16.086c-1.9,1.878-2.692,4.913-3.517,7.451-1.523,4.681-5.146,8.327-8.65,11.784a24.054,24.054,0,0,1-3.714,3.2,12.1,12.1,0,0,1-6.76,1.925,7.418,7.418,0,0,1-3.045-.63c-2.4-1.139-3.617-3.911-3.866-6.554a13.94,13.94,0,0,1,1.167-7.01c3.183-7.052,11.358-10.108,17.137-15.253,3.388-3.017,5.979-6.807,8.535-10.556a36.492,36.492,0,0,0,4.317-7.566c1.29-3.443.788-7.52,1.915-11.02.477-1.479,1.324-2.815,1.836-4.283a5,5,0,0,0-.255-4.479,6.509,6.509,0,0,0-2.512-1.839c-3.691-1.874-7.826-4.285-8.532-8.364a8.96,8.96,0,0,1,1.653-6.388,26.613,26.613,0,0,1,4.655-4.879C912.188,362.117,914.9,360.511,916.517,359.084Z" transform="translate(-232.864 -182.837)" fill="#a0616a"/>
      <path id="Path_1069" data-name="Path 1069" d="M718.887,375.129c-.979-1.979-2.2-4-4.181-4.981a7.7,7.7,0,0,0-6.077-.026,22.849,22.849,0,0,0-5.333,3.225l-4.782,3.525a11.773,11.773,0,0,0-2.839,2.62,11.062,11.062,0,0,0-1.479,4.057,29,29,0,0,0-.752,10.034c.759,5.392,4.01,10.1,7.588,14.2,2.236,2.565,5,5.153,8.4,5.263a3.851,3.851,0,0,0,3.711-1.867,4.657,4.657,0,0,0,.331-1.664c.367-6.015-1.784-11.889-4.293-17.368a11.138,11.138,0,0,1-1.384-4.667,1.281,1.281,0,0,1,.2-.782,1.32,1.32,0,0,1,.816-.4c3.434-.679,9.349,1.988,11.758-1.825C722.137,382.007,720,377.371,718.887,375.129Z" transform="translate(-199.657 -184.686)" fill="#a0616a"/>
      <path id="Path_1070" data-name="Path 1070" d="M807.523,263.554a3.1,3.1,0,0,1,.211-1.448c.55-.973,1.987-.708,3.07-.435,4.358,1.1,8.949.1,13.436.361s9.541,2.5,10.443,6.9a32.763,32.763,0,0,0,8.284-8.511c1.245-1.863,2.331-4,2.161-6.233-.245-3.223-2.949-5.634-5.453-7.678l-7.465-6.094a11.248,11.248,0,0,0-3.342-2.125c-1.724-.589-3.6-.308-5.425-.307-5.434,0-11.227-2.469-16.06.015a17.335,17.335,0,0,0-5,4.55l-6.662,7.886a4.212,4.212,0,0,0-1.065,1.806,8.02,8.02,0,0,0,.477,2.879c.315,1.762-.444,3.642.139,5.334.969,2.809,4.379,3.206,6.464,4.817.777.6,1.995,2.634,2.921,2.609C806.325,267.837,807.48,264.852,807.523,263.554Z" transform="translate(-217.618 -161.174)" fill="#3f3d56"/>
      <path id="Path_1071" data-name="Path 1071" d="M752.771,338.835a8.672,8.672,0,0,0-2.233,2.079c-.782,1.183-.941,2.676-1.613,3.924-1.438,2.672-4.8,3.622-6.9,5.814a2.172,2.172,0,0,0-.663,1.137,2.535,2.535,0,0,0,.564,1.637l10.117,15.9c3.368.3,6.6-1.814,9.969-1.534,1.258.1,2.546.539,3.752.167a10.764,10.764,0,0,0,2.408-1.473c2.01-1.271,4.688-1.419,6.375-3.1,1.619-1.609,1.825-4.128,1.806-6.41a25.769,25.769,0,0,0-.6-5.9c-1.489-6.1-6.158-10.789-9.085-16.2-1.425-2.633-2.2-4.174-5.216-2.366C758.419,334.342,755.624,336.749,752.771,338.835Z" transform="translate(-208.178 -177.99)" fill="#f7af2b"/>
      <path id="Path_1072" data-name="Path 1072" d="M900.825,329.431a23.668,23.668,0,0,1,5.089,4.458c1.541,1.987,2.414,4.419,3.894,6.452,1.435,1.97,3.388,3.5,5.016,5.311a41.016,41.016,0,0,1,5.782,9.421,140.748,140.748,0,0,1-13.086,14.79,4.221,4.221,0,0,1-1.987,1.306,3.206,3.206,0,0,1-2.809-1.145c-.729-.764-1.245-1.707-1.942-2.5a10.005,10.005,0,0,0-6.185-2.991,42.472,42.472,0,0,0-7.008-.1,2.77,2.77,0,0,1-1.5-.252,2.514,2.514,0,0,1-.817-.937c-2.739-4.661-1.858-10.513-.892-15.832l2.217-12.205a27.392,27.392,0,0,1,1.846-6.783c.84-1.795,2.718-4.839,5.027-4.3C895.8,324.668,898.866,328.023,900.825,329.431Z" transform="translate(-233.368 -176.628)" fill="#f7af2b"/>
      <ellipse id="Ellipse_228" data-name="Ellipse 228" cx="33.731" cy="33.792" rx="33.731" ry="33.792" transform="translate(227.852 165.36)" fill="#239617"/>
      <path id="Path_1073" data-name="Path 1073" d="M402.542,338.851a40.313,40.313,0,1,0,40.313,40.313A40.313,40.313,0,0,0,402.542,338.851Zm-8.276,61.806L373.606,380,379.4,374.2l14.885,14.885L425.7,357.67l5.795,5.795-37.231,37.192Z" transform="translate(-140.96 -179.25)" fill="#a9d59f"/>
    </g>
  </g>
</svg>
