<svg id="undraw_teaching_re_g7e3" xmlns="http://www.w3.org/2000/svg" width="729.326" height="554.629" viewBox="0 0 729.326 554.629">
  <path id="Path_1411" data-name="Path 1411" d="M757.765,579.763H352.83a13.625,13.625,0,0,1-13.609-13.609V236.431a13.625,13.625,0,0,1,13.609-13.609H757.765a13.625,13.625,0,0,1,13.609,13.609V566.154A13.625,13.625,0,0,1,757.765,579.763Z" transform="translate(-224.025 -172.066)" fill="#e6e6e6"/>
  <path id="Path_1412" data-name="Path 1412" d="M362.011,232.509A13.124,13.124,0,0,0,348.9,245.618V556.975a13.124,13.124,0,0,0,13.109,13.108H639.174A122.66,122.66,0,0,0,761.695,447.562V245.618a13.124,13.124,0,0,0-13.109-13.109Z" transform="translate(-224.025 -172.066)" fill="#fff"/>
  <path id="Path_1413" data-name="Path 1413" d="M683.925,372.54H610.5a5.782,5.782,0,0,1-5.776-5.776V330.219a5.782,5.782,0,0,1,5.776-5.776h73.424a5.782,5.782,0,0,1,5.776,5.776c4.543,12.932,5.189,25.221,0,36.545a5.782,5.782,0,0,1-5.776,5.776Z" transform="translate(-224.025 -172.066)" fill="#e6e6e6"/>
  <path id="Path_1414" data-name="Path 1414" d="M675.226,369.008H612.845a4.913,4.913,0,0,1-4.907-4.907V333.052a4.913,4.913,0,0,1,4.907-4.907h62.382a4.913,4.913,0,0,1,4.907,4.907c4.21,11.058,4.887,21.521,0,31.049a4.913,4.913,0,0,1-4.907,4.907Z" transform="translate(-224.025 -172.066)" fill="#fff"/>
  <path id="Path_1415" data-name="Path 1415" d="M671.862,391.683H622.4a5.488,5.488,0,0,1-.02-10.975h49.482a5.488,5.488,0,1,1,0,10.975Z" transform="translate(-224.025 -172.066)" fill="#e6e6e6"/>
  <path id="Path_1416" data-name="Path 1416" d="M638.606,336.528a2.153,2.153,0,0,0-2.146,2.149v23.261a2.145,2.145,0,0,0,3.208,1.864L660.2,352.1a2.144,2.144,0,0,0-.01-3.733l-20.53-11.555a2.142,2.142,0,0,0-1.053-.278Z" transform="translate(-224.025 -172.066)" fill="#e6e6e6"/>
  <path id="Path_1418" data-name="Path 1418" d="M687.995,340.212a7.1,7.1,0,0,0,9.517,5.28l29.275,34.056,3.706-12.572-29.023-31.157a7.136,7.136,0,0,0-13.475,4.393Z" transform="translate(-224.025 -172.066)" fill="#ffb8b8"/>
  <path id="Path_1419" data-name="Path 1419" d="M581.955,545.239h-9.688l-4.609-37.369h14.3Z" fill="#ffb6b6"/>
  <path id="Path_1420" data-name="Path 1420" d="M805.721,714.141l-10.344-4.207-.3-.122-5.711,4.329A12.161,12.161,0,0,0,777.211,726.3v.4h31.237V714.141Z" transform="translate(-224.025 -172.066)" fill="#2f2e41"/>
  <path id="Path_1421" data-name="Path 1421" d="M651.067,545.239h-9.688L636.77,507.87h14.3Z" fill="#ffb6b6"/>
  <path id="Path_1422" data-name="Path 1422" d="M874.833,714.141l-10.344-4.207-.3-.122-5.711,4.329A12.161,12.161,0,0,0,846.323,726.3v.4H877.56V714.141Z" transform="translate(-224.025 -172.066)" fill="#2f2e41"/>
  <path id="Path_1423" data-name="Path 1423" d="M852.227,494.155s12.152,12.642,12.152,23.029-3.038,24.65,0,27.772,6.835,6.919,2.278,11.476-6.835,6.835-3.8,9.873,1.519,56.2,1.519,56.2l15.949,71.39H860.234l-25.475-71.391-6.835-59.239-22.105,56.96,2.441,74.282-21.006-.613-8.7-78.985s12.911-75.134,10.633-77.06,0-5.813,0-5.813l6.076-28.77Z" transform="translate(-224.025 -172.066)" fill="#2f2e41"/>
  <path id="Path_1424" data-name="Path 1424" d="M828.435,404.522s4.132-16.282-14.9-20.95-73.449-10.665-73.449-10.665l-27.5-29.18-9.318,13.532,30.827,38.308,73.043,15Z" transform="translate(-224.025 -172.066)" fill="#043340"/>
  <path id="Path_1425" data-name="Path 1425" d="M707.794,356.262a12.889,12.889,0,0,0,1.978-3.665l3.944-9.69-1.024-.043a10.23,10.23,0,0,0-12.1,9.316,6.661,6.661,0,0,0,.644,3.621,3.947,3.947,0,0,0,2.891,2.12A4.364,4.364,0,0,0,707.794,356.262Z" transform="translate(-224.025 -172.066)" fill="#e6e6e6"/>
  <path id="Path_1426" data-name="Path 1426" d="M791.388,507.149l-2.278,16.516s4.557,4.894,6.835,4.282,10.633-4.173,10.633-4.173,9.873,5.4,15.189,6.008,33.417-3.059,34.176-4.894,9.587-9.019,9.587-9.019l-3.511-20.955Z" transform="translate(-224.025 -172.066)" fill="#e6e6e6"/>
  <path id="Path_1427" data-name="Path 1427" d="M865.383,449.369s-1.929,15.926-.41,17.392-1.519,10.686-4.557,16.762,2.278,6.835,2.278,11.392,2.278,21.265,2.278,21.265S841.43,517.7,837.632,513.9s-9.873-.759-18.227,7.595-26.5,1.519-30.3-2.278,2.954-17.468,5.233-20.118-2.195.418-4.473-7.982,2.195-7.595,5.992-11.392,0-10.633-3.038-17.468-.759-57.72-.759-69.871,16.708-13.671,16.708-13.671l6.615-8.316,4.861-6.114,9.524-.38.251-.008,9.212-.372,4.473,5.21,9.873,11.5,11.392,2.278c9.114,3.038,6.835,22.025,6.835,22.025Z" transform="translate(-224.025 -172.066)" fill="#043340"/>
  <circle id="Ellipse_316" data-name="Ellipse 316" cx="19.522" cy="19.522" r="19.522" transform="translate(585.755 149.5)" fill="#ffb6b6"/>
  <path id="Path_1428" data-name="Path 1428" d="M851.938,334.521c-5.37-3.293-4.682-11.9-9.855-14.91a18.424,18.424,0,0,0-17.032-.715c-3.644-1.559-8.01-.315-10.925,2.5s-4.493,6.968-4.959,11.145a41.707,41.707,0,0,0,.894,12.526l.869-4.949,15.39-3.364-4.087,3.672a27.956,27.956,0,0,0,20.437-3.2c6.7,3,5.486,9.749-.4,18.7C844.551,359.729,858.056,338.273,851.938,334.521Z" transform="translate(-224.025 -172.066)" fill="#2f2e41"/>
  <path id="Path_1429" data-name="Path 1429" d="M843.708,368.736a1.534,1.534,0,0,1-.137.1,10.228,10.228,0,0,1-5.324,1.443,9.414,9.414,0,0,1-6.782-2.127c-.995-.942-4.952,1.048-7.549,2.149a11.459,11.459,0,0,1-8.529.1l4.861-6.114,8.011-1.776h2l8.976,1.017Z" transform="translate(-224.025 -172.066)" fill="#e6e6e6"/>
  <path id="Path_1431" data-name="Path 1431" d="M425.383,155.694h-2V12.651H502.04v2H425.383Z" fill="#0cbeff"/>
  <path id="Path_1432" data-name="Path 1432" d="M787.237,172.066h-53a13,13,0,0,0,0,26h53a13,13,0,0,0,0-26Z" transform="translate(-224.025 -172.066)" fill="#0cbeff"/>
  <circle id="Ellipse_317" data-name="Ellipse 317" cx="11.946" cy="11.946" r="11.946" transform="translate(411.277 144.889)" fill="#0cbeff"/>
  <path id="Path_1433" data-name="Path 1433" d="M503.3,373.788,555.7,361.661l15.042-3.481c1.882-.435,1.1-3.332-.782-2.9l-52.406,12.127-15.043,3.481c-1.882.435-1.1,3.332.782,2.9Z" transform="translate(-224.025 -172.066)" fill="#f2f2f2"/>
  <path id="Path_1434" data-name="Path 1434" d="M557.413,342.206l28.055,12.905a9.289,9.289,0,0,1,2.655,1.437c.774.758.211,1.488-.421,2.149a63.261,63.261,0,0,1-5.971,4.929l-11.952,9.717c-1.5,1.22.617,3.348,2.1,2.14l10.41-8.463,5.205-4.232c1.475-1.2,3.27-2.422,3.862-4.332,1.245-4.013-3.668-5.608-6.4-6.864l-12.217-5.62-13.8-6.349c-1.74-.8-3.281,1.776-1.528,2.583Z" transform="translate(-224.025 -172.066)" fill="#f2f2f2"/>
  <path id="Path_1435" data-name="Path 1435" d="M944.566,440.449c-5-3.389-11.07-4.648-17-5.075a182.409,182.409,0,0,0-20.252.024q-10.51.416-20.977,1.521t-20.817,2.9a153.823,153.823,0,0,0-18.331,4.012,49.2,49.2,0,0,0-15.852,7.655,28.072,28.072,0,0,0-9.315,12.325,22.891,22.891,0,0,0-.9,14.456,17.234,17.234,0,0,0,3.408,6.331,23.746,23.746,0,0,0,6.349,5.026c4.958,2.831,10.575,4.533,15.06,8.158a21.291,21.291,0,0,1,3.215,3.2,5.836,5.836,0,0,0,2.583,2.032,5.275,5.275,0,0,0,5.668-1.459,19.2,19.2,0,0,0,2.231-3.966L862,493.02a6.382,6.382,0,0,1,.591-1.141c.177-.211-.14,0-.079-.051.033-.031.1-.03.14-.054a3.431,3.431,0,0,1,.611-.234q3.282-1.252,6.594-2.425c8.149-2.9,16.4-5.581,24.774-7.75a119.858,119.858,0,0,1,13.1-2.74c5.716-.814,11.518-.72,17.26-1.276,6.182-.6,12.56-1.85,17.862-5.254a23.193,23.193,0,0,0,9.6-11.493,16.081,16.081,0,0,0,.8-7.116C952.56,448.052,949.01,443.462,944.566,440.449Z" transform="translate(-224.025 -172.066)" fill="#e6e6e6"/>
  <path id="Path_1436" data-name="Path 1436" d="M934.337,443.5c-4.517-3.062-10-4.2-15.367-4.586a164.827,164.827,0,0,0-18.3.021q-9.5.376-18.956,1.375t-18.811,2.62a138.993,138.993,0,0,0-16.565,3.626,44.456,44.456,0,0,0-14.325,6.918,25.368,25.368,0,0,0-8.418,11.138,20.686,20.686,0,0,0-.813,13.063,15.574,15.574,0,0,0,3.079,5.721,21.455,21.455,0,0,0,5.737,4.542c4.48,2.559,9.557,4.1,13.609,7.372a19.241,19.241,0,0,1,2.906,2.889,5.273,5.273,0,0,0,2.334,1.836,4.767,4.767,0,0,0,5.122-1.319,17.342,17.342,0,0,0,2.016-3.584l2.138-4.124a5.766,5.766,0,0,1,.534-1.031c.16-.191-.126,0-.072-.046.03-.028.092-.027.126-.049a3.094,3.094,0,0,1,.552-.212q2.966-1.131,5.959-2.191c7.364-2.625,14.817-5.044,22.388-7A108.34,108.34,0,0,1,901.044,478c5.165-.736,10.409-.65,15.6-1.153,5.586-.541,11.351-1.672,16.141-4.748a20.959,20.959,0,0,0,8.677-10.386,14.532,14.532,0,0,0,.724-6.43C941.561,450.373,938.352,446.226,934.337,443.5Z" transform="translate(-224.025 -172.066)" fill="#fff"/>
  <path id="Path_1437" data-name="Path 1437" d="M924.877,449.033l-73.6,13.575a1.628,1.628,0,1,1-.6-3.2l.01,0,73.6-13.575a1.628,1.628,0,0,1,.591,3.2Z" transform="translate(-224.025 -172.066)" fill="#e6e6e6"/>
  <path id="Path_1438" data-name="Path 1438" d="M926.69,458.862l-73.6,13.575a1.628,1.628,0,0,1-.6-3.2l.01,0,73.6-13.575a1.628,1.628,0,0,1,.591,3.2Z" transform="translate(-224.025 -172.066)" fill="#e6e6e6"/>
  <path id="Path_1439" data-name="Path 1439" d="M863.479,480.684l-8.577,1.582a1.628,1.628,0,0,1-.591-3.2l8.577-1.582a1.628,1.628,0,0,1,.591,3.2Z" transform="translate(-224.025 -172.066)" fill="#e6e6e6"/>
  <circle id="Ellipse_318" data-name="Ellipse 318" cx="6.921" cy="6.921" r="6.921" transform="matrix(0.983, -0.181, 0.181, 0.983, 623.921, 337.122)" fill="#d1d3d4"/>
  <path id="Path_1440" data-name="Path 1440" d="M476.366,370.688H413.5a11.021,11.021,0,0,1-11.008-11.008V318.248A11.021,11.021,0,0,1,413.5,307.24h62.866a11.021,11.021,0,0,1,11.008,11.008v41.433a11.021,11.021,0,0,1-11.008,11.008Z" transform="translate(-224.025 -172.066)" fill="#e6e6e6"/>
  <path id="Path_1441" data-name="Path 1441" d="M469.457,368.456H414.744a9.592,9.592,0,0,1-9.58-9.58V322.816a9.592,9.592,0,0,1,9.58-9.58h54.713a9.592,9.592,0,0,1,9.58,9.58v36.06a9.592,9.592,0,0,1-9.58,9.58Z" transform="translate(-224.025 -172.066)" fill="#fff"/>
  <path id="Path_1442" data-name="Path 1442" d="M485.221,408.017H404.555a1.882,1.882,0,0,1,0-3.764h80.666a1.882,1.882,0,0,1,0,3.764Z" transform="translate(-224.025 -172.066)" fill="#e6e6e6"/>
  <path id="Path_1443" data-name="Path 1443" d="M485.221,397.261H404.555a1.882,1.882,0,1,1,0-3.764h80.666a1.882,1.882,0,0,1,0,3.764Z" transform="translate(-224.025 -172.066)" fill="#e6e6e6"/>
  <path id="Path_1444" data-name="Path 1444" d="M485.221,418.772H404.555a1.882,1.882,0,1,1,0-3.764h80.666a1.882,1.882,0,0,1,0,3.764Z" transform="translate(-224.025 -172.066)" fill="#e6e6e6"/>
  <path id="Path_1445" data-name="Path 1445" d="M485.221,429.527H404.555a1.882,1.882,0,1,1,0-3.764h80.666a1.882,1.882,0,0,1,0,3.764Z" transform="translate(-224.025 -172.066)" fill="#e6e6e6"/>
  <path id="Path_1446" data-name="Path 1446" d="M485.221,440.283H404.555a1.882,1.882,0,1,1,0-3.764h80.666a1.882,1.882,0,0,1,0,3.764Z" transform="translate(-224.025 -172.066)" fill="#e6e6e6"/>
  <path id="Path_1447" data-name="Path 1447" d="M485.221,451.038H404.555a1.882,1.882,0,1,1,0-3.764h80.666a1.882,1.882,0,0,1,0,3.764Z" transform="translate(-224.025 -172.066)" fill="#e6e6e6"/>
  <path id="Path_1448" data-name="Path 1448" d="M216.83,254.306h2v77.043H74.173v-2H216.83Z" fill="#0cbeff"/>
  <path id="Path_1449" data-name="Path 1449" d="M237.025,516.066h53a13,13,0,1,0,0-26h-53a13,13,0,0,0,0,26Z" transform="translate(-224.025 -172.066)" fill="#0cbeff"/>
  <circle id="Ellipse_319" data-name="Ellipse 319" cx="11.946" cy="11.946" r="11.946" transform="translate(207.277 236.22)" fill="#0cbeff"/>
  <path id="Path_1450" data-name="Path 1450" d="M504.992,423.551c17.539,3.728,13.077,4.455,30.616,8.183l15.1,3.21c1.889.4,2.406-2.554.516-2.956-17.539-3.728-13.077-4.455-30.616-8.183l-15.1-3.21c-1.889-.4-2.407,2.554-.516,2.956Z" transform="translate(-224.025 -172.066)" fill="#f2f2f2"/>
  <path id="Path_1451" data-name="Path 1451" d="M545.388,414.829l19.961,23.563a9.289,9.289,0,0,1,1.8,2.425c.381,1.015-.439,1.437-1.291,1.769a63.252,63.252,0,0,1-7.5,1.94l-14.941,3.748c-1.876.471-.858,3.295,1,2.829l13.013-3.265,6.507-1.632c1.843-.462,3.987-.812,5.332-2.292,2.826-3.109-.951-6.633-2.894-8.927l-8.693-10.261-9.819-11.591c-1.238-1.461-3.724.222-2.477,1.694Z" transform="translate(-224.025 -172.066)" fill="#f2f2f2"/>
  <circle id="Ellipse_320" data-name="Ellipse 320" cx="27.78" cy="27.78" r="27.78" transform="translate(356.872 289.915)" fill="#e6e6e6"/>
  <circle id="Ellipse_321" data-name="Ellipse 321" cx="21.119" cy="21.119" r="21.119" transform="translate(360.825 299.694)" fill="#fff"/>
  <path id="Path_1452" data-name="Path 1452" d="M602.18,507.338a3.089,3.089,0,0,1-2.472-1.236L592.13,496a3.09,3.09,0,0,1,4.942-3.71l0,0,4.958,6.611,12.735-19.1a3.09,3.09,0,1,1,5.142,3.428l-15.158,22.736a3.091,3.091,0,0,1-2.485,1.375Z" transform="translate(-224.025 -172.066)" fill="#e6e6e6"/>
  <path id="Path_1453" data-name="Path 1453" d="M868.075,518.379a7.1,7.1,0,0,0,1.794-10.734l22.306-38.978-13.088.711-19.658,37.772a7.136,7.136,0,0,0,8.646,11.23Z" transform="translate(-224.025 -172.066)" fill="#ffb8b8"/>
  <path id="Path_1454" data-name="Path 1454" d="M842.951,381.753s23.624-7.595,29.7,10.633,26.5,67.593,26.5,67.593l-21.944,44.809-9.873-10.633,10.552-31.138-30.379-45.568Z" transform="translate(-224.025 -172.066)" fill="#043340"/>
  <path id="Path_1455" data-name="Path 1455" d="M877.961,500.212a12.89,12.89,0,0,0-2.671-3.2l-7.538-7.255-.419.935a10.23,10.23,0,0,0,4.168,14.687,6.661,6.661,0,0,0,3.6.744,3.947,3.947,0,0,0,3.041-1.9A4.364,4.364,0,0,0,877.961,500.212Z" transform="translate(-224.025 -172.066)" fill="#e6e6e6"/>
  <path id="Path_1456" data-name="Path 1456" d="M384.412,355.068h-2v77.043h67.657v-2H384.412Z" fill="#0cbeff"/>
  <path id="Path_1457" data-name="Path 1457" d="M748.267,603.828a13.012,13.012,0,0,0-13-13h-53a13,13,0,0,0,0,26h53a13.012,13.012,0,0,0,13-13Z" transform="translate(-224.025 -172.066)" fill="#0cbeff"/>
  <circle id="Ellipse_322" data-name="Ellipse 322" cx="11.946" cy="11.946" r="11.946" transform="translate(370.073 336.982)" fill="#0cbeff"/>
</svg>
