<svg xmlns="http://www.w3.org/2000/svg" width="45" height="45" viewBox="0 0 45 45">
  <g id="Group_72" data-name="Group 72" transform="translate(-664 -3176)">
    <rect id="Rectangle_274" data-name="Rectangle 274" width="45" height="45" transform="translate(664 3176)" fill="#fff"/>
    <g id="trak_dark_2" transform="translate(671.8 3178.646)">
      <path id="Path_1328" data-name="Path 1328" d="M25.6,32.2a2.1,2.1,0,0,1-.5-1.5V23h4.2V16.1H25.1v-8H16.7v8.1h-4V23h4.1v7.4c0,3.3.8,5.7,2.4,7.1A10.294,10.294,0,0,0,26,39.7h3.4V32.6H27.2A2.155,2.155,0,0,1,25.6,32.2Z" fill="#54bdf9"/>
      <rect id="Rectangle_272" data-name="Rectangle 272" width="8.4" height="8.1" transform="translate(8.4)" fill="#54bdf9"/>
      <rect id="Rectangle_273" data-name="Rectangle 273" width="8.4" height="8.1" transform="translate(0 8.1)" fill="#54bdf9"/>
    </g>
  </g>
</svg>
