<svg xmlns="http://www.w3.org/2000/svg" xmlns:xlink="http://www.w3.org/1999/xlink" width="706.014" height="537.162" viewBox="0 0 706.014 537.162">
  <defs>
    <linearGradient id="linear-gradient" x1="0.5" y1="1" x2="0.5" gradientUnits="objectBoundingBox">
      <stop offset="0" stop-color="gray" stop-opacity="0.251"/>
      <stop offset="0.54" stop-color="gray" stop-opacity="0.122"/>
      <stop offset="1" stop-color="gray" stop-opacity="0.102"/>
    </linearGradient>
    <linearGradient id="linear-gradient-2" x1="0.63" y1="0.974" x2="0.63" y2="-0.017" xlink:href="#linear-gradient"/>
    <linearGradient id="linear-gradient-3" x1="0.5" y1="1" x2="0.5" y2="0" xlink:href="#linear-gradient"/>
  </defs>
  <g id="undraw_electric_car_b7hl" transform="translate(0.002 0.022)">
    <path id="Path_812" data-name="Path 812" d="M207.563,140.49c-3.75,4.551-5.194,10.949-6.809,16.963-13,48.475-45.04,87.465-81.526,115.316-15.451,11.8-34.262,27.618-30.882,48.769,1.82,11.359,9.806,19.721,15.739,28.973,12.447,19.372,16.484,45.7,10.552,68.894-6.747,26.386-25.606,51.007-19.769,77.687,3.6,16.423,15.821,28.11,27.57,38.156q27.495,23.492,56.741,44.013c13.07,9.169,26.975,18.092,42.207,19.256,13.412,1.026,26.55-4.072,39.285-9.1,11.126-4.4,22.534-8.978,31.518-17.791,5.864-5.755,10.538-13.179,17.052-17.887,15.3-11.058,34.953-4.051,52.5.684a182.79,182.79,0,0,0,125.1-11.455c60.429-28.4,106.489-88.033,165.6-120.031,25.414-13.761,53.06-22.3,76.592-40.024A143.078,143.078,0,0,0,762.7,346.481c17.791-27.447,27.413-62.441,24.634-96.7s-18.346-67.265-42.8-86.6c-26.174-20.7-59.232-24.566-89.012-36.992-30.738-12.851-58.1-34.926-88.54-48.687A181.11,181.11,0,0,0,410.754,81c-33.154,16.765-66.745,55.879-103.669,58.849C280.781,141.9,228.1,115.568,207.563,140.49Z" transform="translate(-87.95 -61.51)" fill="#beeefe"/>
    <path id="Path_813" data-name="Path 813" d="M954.27,358.758s-9.963-33.838,1.868-58.739a53.443,53.443,0,0,0,4.325-33.53,89.882,89.882,0,0,0-4.749-15.739" transform="translate(-360.222 -121.263)" fill="none" stroke="#239617" stroke-miterlimit="10" stroke-width="2"/>
    <path id="Path_814" data-name="Path 814" d="M962.045,224.031c0,4.147-7.527,16.17-7.527,16.17s-7.527-12.023-7.527-16.17a7.527,7.527,0,1,1,15.013,0Z" transform="translate(-359.155 -110.275)" fill="#6c63ff"/>
    <path id="Path_815" data-name="Path 815" d="M980.116,256.171c-2.251,3.483-15.116,9.5-15.116,9.5s.233-14.172,2.484-17.655a7.527,7.527,0,0,1,12.6,8.164Z" transform="translate(-364.848 -119.451)" fill="#6c63ff"/>
    <path id="Path_816" data-name="Path 816" d="M978.091,312.236c-3.7,1.868-17.791.575-17.791.575s7.356-12.119,11.058-13.987a7.527,7.527,0,0,1,6.761,13.405Z" transform="translate(-363.364 -136.258)" fill="#6c63ff"/>
    <path id="Path_817" data-name="Path 817" d="M967.87,355.922c-3.332,2.463-17.47,3.579-17.47,3.579s5.2-13.186,8.54-15.656a7.527,7.527,0,0,1,8.9,12.071Z" transform="translate(-360.238 -150.308)" fill="#6c63ff"/>
    <path id="Path_818" data-name="Path 818" d="M940.763,270.24c2.977,2.888,16.833,5.885,16.833,5.885s-3.422-13.761-6.371-16.656a7.527,7.527,0,1,0-10.463,10.771Z" transform="translate(-356.349 -123.221)" fill="#6c63ff"/>
    <path id="Path_819" data-name="Path 819" d="M928.812,320.676c3.7,1.868,17.791.575,17.791.575s-7.356-12.119-11.058-13.987a7.527,7.527,0,0,0-6.761,13.405Z" transform="translate(-352.261 -138.923)" fill="#6c63ff"/>
    <path id="Path_820" data-name="Path 820" d="M924.456,371.556c3.332,2.463,17.47,3.579,17.47,3.579s-5.2-13.186-8.54-15.656a7.527,7.527,0,1,0-8.9,12.071Z" transform="translate(-350.916 -154.993)" fill="#6c63ff"/>
    <path id="Path_821" data-name="Path 821" d="M962.045,224.031c0,4.147-7.527,16.17-7.527,16.17s-7.527-12.023-7.527-16.17a7.527,7.527,0,1,1,15.013,0Z" transform="translate(-359.155 -110.275)" fill="#a9d59f"/>
    <path id="Path_822" data-name="Path 822" d="M980.116,256.171c-2.251,3.483-15.116,9.5-15.116,9.5s.233-14.172,2.484-17.655a7.527,7.527,0,0,1,12.6,8.164Z" transform="translate(-364.848 -119.451)" fill="#a9d59f"/>
    <path id="Path_823" data-name="Path 823" d="M978.091,312.236c-3.7,1.868-17.791.575-17.791.575s7.356-12.119,11.058-13.987a7.527,7.527,0,0,1,6.761,13.405Z" transform="translate(-363.364 -136.258)" fill="#a9d59f"/>
    <path id="Path_824" data-name="Path 824" d="M967.87,355.922c-3.332,2.463-17.47,3.579-17.47,3.579s5.2-13.186,8.54-15.656a7.527,7.527,0,0,1,8.9,12.071Z" transform="translate(-360.238 -150.308)" fill="#a9d59f" opacity="0.983"/>
    <path id="Path_825" data-name="Path 825" d="M940.763,270.24c2.977,2.888,16.833,5.885,16.833,5.885s-3.422-13.761-6.371-16.656a7.527,7.527,0,1,0-10.463,10.771Z" transform="translate(-356.349 -123.221)" fill="#a9d59f"/>
    <path id="Path_826" data-name="Path 826" d="M928.812,320.676c3.7,1.868,17.791.575,17.791.575s-7.356-12.119-11.058-13.987a7.527,7.527,0,0,0-6.761,13.405Z" transform="translate(-352.261 -138.923)" fill="#a9d59f"/>
    <path id="Path_827" data-name="Path 827" d="M924.456,371.556c3.332,2.463,17.47,3.579,17.47,3.579s-5.2-13.186-8.54-15.656a7.527,7.527,0,1,0-8.9,12.071Z" transform="translate(-350.916 -154.993)" fill="#6c63ff" opacity="0.1"/>
    <path id="Path_828" data-name="Path 828" d="M1015.27,437.758s-9.963-33.838,1.868-58.739a53.441,53.441,0,0,0,4.325-33.53,89.871,89.871,0,0,0-4.749-15.739" transform="translate(-379.48 -146.204)" fill="none" stroke="#239617" stroke-miterlimit="10" stroke-width="2"/>
    <path id="Path_829" data-name="Path 829" d="M1023.045,303.031c0,4.147-7.527,16.17-7.527,16.17s-7.527-12.023-7.527-16.17a7.527,7.527,0,1,1,15.013,0Z" transform="translate(-378.414 -135.217)" fill="#6c63ff"/>
    <path id="Path_830" data-name="Path 830" d="M1041.128,334.76c-2.251,3.483-15.089,9.491-15.089,9.491s.233-14.172,2.484-17.655a7.527,7.527,0,1,1,12.6,8.164Z" transform="translate(-384.119 -143.981)" fill="#6c63ff"/>
    <path id="Path_831" data-name="Path 831" d="M1039.092,391.007c-3.7,1.868-17.792.575-17.792.575s7.356-12.119,11.058-13.987A7.527,7.527,0,1,1,1039.119,391Z" transform="translate(-382.623 -160.97)" fill="#6c63ff"/>
    <path id="Path_832" data-name="Path 832" d="M1028.87,434.922c-3.333,2.463-17.47,3.579-17.47,3.579s5.2-13.186,8.54-15.656a7.527,7.527,0,0,1,8.9,12.071Z" transform="translate(-379.497 -175.25)" fill="#6c63ff"/>
    <path id="Path_833" data-name="Path 833" d="M1002.119,349.585c2.977,2.888,16.833,5.885,16.833,5.885s-3.421-13.761-6.371-16.656a7.527,7.527,0,0,0-10.463,10.771Z" transform="translate(-375.964 -148.508)" fill="#6c63ff"/>
    <path id="Path_834" data-name="Path 834" d="M989.812,399.676c3.7,1.868,17.791.575,17.791.575s-7.356-12.119-11.058-13.987a7.527,7.527,0,0,0-6.761,13.405Z" transform="translate(-371.519 -163.864)" fill="#6c63ff"/>
    <path id="Path_835" data-name="Path 835" d="M985.456,450.556c3.332,2.463,17.47,3.579,17.47,3.579s-5.2-13.186-8.54-15.656a7.527,7.527,0,1,0-8.9,12.071Z" transform="translate(-370.175 -179.935)" fill="#6c63ff"/>
    <path id="Path_836" data-name="Path 836" d="M1023.045,303.031c0,4.147-7.527,16.17-7.527,16.17s-7.527-12.023-7.527-16.17a7.527,7.527,0,1,1,15.013,0Z" transform="translate(-378.414 -135.217)" fill="#a9d59f"/>
    <path id="Path_837" data-name="Path 837" d="M1041.128,334.76c-2.251,3.483-15.089,9.491-15.089,9.491s.233-14.172,2.484-17.655a7.527,7.527,0,1,1,12.6,8.164Z" transform="translate(-384.119 -143.981)" fill="#a9d59f"/>
    <path id="Path_838" data-name="Path 838" d="M1039.092,391.007c-3.7,1.868-17.792.575-17.792.575s7.356-12.119,11.058-13.987A7.527,7.527,0,1,1,1039.119,391Z" transform="translate(-382.623 -160.97)" fill="#6c63ff" opacity="0.1"/>
    <path id="Path_839" data-name="Path 839" d="M1028.87,434.922c-3.333,2.463-17.47,3.579-17.47,3.579s5.2-13.186,8.54-15.656a7.527,7.527,0,0,1,8.9,12.071Z" transform="translate(-379.497 -175.25)" fill="#6c63ff" opacity="0.1"/>
    <path id="Path_840" data-name="Path 840" d="M1002.119,349.585c2.977,2.888,16.833,5.885,16.833,5.885s-3.421-13.761-6.371-16.656a7.527,7.527,0,0,0-10.463,10.771Z" transform="translate(-375.964 -148.508)" fill="#a9d59f"/>
    <path id="Path_841" data-name="Path 841" d="M989.812,399.676c3.7,1.868,17.791.575,17.791.575s-7.356-12.119-11.058-13.987a7.527,7.527,0,0,0-6.761,13.405Z" transform="translate(-371.519 -163.864)" fill="#6c63ff" opacity="0.1"/>
    <path id="Path_842" data-name="Path 842" d="M985.456,450.556c3.332,2.463,17.47,3.579,17.47,3.579s-5.2-13.186-8.54-15.656a7.527,7.527,0,1,0-8.9,12.071Z" transform="translate(-370.175 -179.935)" fill="#6c63ff" opacity="0.1"/>
    <ellipse id="Ellipse_196" data-name="Ellipse 196" cx="338.133" cy="54.428" rx="338.133" ry="54.428" transform="matrix(0.995, -0.097, 0.097, 0.995, 22.372, 329.165)" fill="#94d6eb"/>
    <path id="Path_843" data-name="Path 843" d="M764.988,460.494c12.652-25.934,10.039-68.148,8.69-82.477-.294-3.134-.527-4.934-.527-4.934s-11.154-1.759-7.041-15.26c2.012-6.61-5.132-10.264-12.933-12.269a91.091,91.091,0,0,0-17-2.4l-108.042-6.672h0c-14.815-23.512-43.965-19.735-43.965-19.735s-26-2.7-44.437-2.983a49.619,49.619,0,0,0-9.142-6.384,30.11,30.11,0,0,0-6.2-2.826,17.566,17.566,0,0,0-15.52,2.908,8.253,8.253,0,0,0-2.525,2.936,8.04,8.04,0,0,0-.513,1.649,29.493,29.493,0,0,0-.684,2.936,5.057,5.057,0,0,1-.684,1.334c-.739,1.047-2.012,1.834-2.176,3.1a2.063,2.063,0,0,0,0,.219,2.3,2.3,0,0,0-.267.78,2.812,2.812,0,0,0,.349,1.622,2.6,2.6,0,0,0,.137.233,19.31,19.31,0,0,0-2.21,4.243,7.085,7.085,0,0,0-.732.458l-.205.151v.417l-.116.089-.253,6.74.144.109a19.954,19.954,0,0,0,9.279,15.574c.089.431.171.869.253,1.327a36.172,36.172,0,0,1,.506,6.692h-.116c-3.216-1.369-8.718.643-13.446,2.99H434.355a191.966,191.966,0,0,1,26.564-27.289V320.263c-10.442-.52-102.178,43.548-122.289,53.278l-.89.431-103.361,3.2a159.277,159.277,0,0,0-49.269,7.117,140.2,140.2,0,0,0-61.7,39.415c-12.208,13.4-17.559,24.47-17.559,24.47l.116.931-.116.24.164.144,2.785,21.979,1.916,15.123c-13.316,8.608,3.935,12.057,3.935,12.057,16.423,14.083,42.843,13.5,42.843,13.5,6.453,8.807,25.236,7.63,25.236,7.63h98.6a238.892,238.892,0,0,1,6.159-26.824c4.208,30.307,28.124,53.525,56.987,53.525a53.288,53.288,0,0,0,6.4-.39,53.275,53.275,0,0,0,6.4.39c29.2,0,53.326-23.765,57.124-54.579h4.824a107.535,107.535,0,0,1-4.674,20.248C503.187,486.326,668.107,474,668.107,474q1.026-9.751,2.251-18.811c6.795,16.868,22.2,28.644,40.127,28.644a40.485,40.485,0,0,0,4.872-.3,40.488,40.488,0,0,0,4.872.3c21.288,0,39-16.608,43-38.628a100.65,100.65,0,0,1,.9,11.722c-.76,3.736-1.423,6.124-1.512,6.46q.8-1.464,1.519-3v1.218c-.164.684-.281,1.068-.315,1.2l.3-.561v.9A26.715,26.715,0,0,1,764.988,460.494Z" transform="translate(-93.547 -138.032)" fill="url(#linear-gradient)"/>
    <rect id="Rectangle_223" data-name="Rectangle 223" width="203.164" height="81.957" transform="translate(457.937 229.277)" fill="#6f7d95"/>
    <path id="Path_844" data-name="Path 844" d="M593.73,277.913l28.856,64.644,57.145-3.462,2.306-26.55,1.731-31.169-80.8-5.775Z" transform="translate(-187.45 -87.018)" fill="#4b5c7a"/>
    <path id="Path_845" data-name="Path 845" d="M681.68,334.331s10.949-10.387,24.244-12.7,57.719,2.306,57.719,2.306l6.35,10.949L768.8,340.1Z" transform="translate(-275.4 -143.436)" fill="#ff4d52"/>
    <rect id="Rectangle_224" data-name="Rectangle 224" width="204.896" height="60.026" transform="translate(310.179 224.083)" fill="#4b5c7a"/>
    <path id="Path_846" data-name="Path 846" d="M718.229,403.874c5.413-18.1-5.378-29.992-5.378-29.992L694.963,361.4a.828.828,0,0,1-.055.123,23.266,23.266,0,0,1-4.865-9.429c-.055-.219-.1-.445-.157-.684a19.257,19.257,0,0,0,4.243-4.345,10.485,10.485,0,0,0,4.708-7.527,37.535,37.535,0,0,0,4.441-8.985,15.956,15.956,0,0,0,.452-1.567,8.212,8.212,0,0,0,.452-3.072,8.4,8.4,0,0,0-1.136-3.285c-3.011-5.474-8.43-9.286-13.925-12.392a29.628,29.628,0,0,0-6.1-2.778,17.278,17.278,0,0,0-15.26,2.86,8.115,8.115,0,0,0-2.484,2.888,7.917,7.917,0,0,0-.506,1.622,29,29,0,0,0-.65,2.888,4.975,4.975,0,0,1-.643,1.307c-.732,1.026-1.978,1.8-2.142,3.052a2.016,2.016,0,0,0,0,.219,2.257,2.257,0,0,0-.26.766,2.736,2.736,0,0,0,.342,1.594,2.578,2.578,0,0,0,.137.233,19,19,0,0,0-2.176,4.174,6.964,6.964,0,0,0-.725.452l-.2.144v.411l-.116.089-.253,6.631.137.109a19.618,19.618,0,0,0,9.121,15.321c.089.424.171.855.246,1.307a35.124,35.124,0,0,1,.493,7.233,2.458,2.458,0,0,1,0-.63c-4.947-2.238-15.739,3.948-20.084,6.685h0A8.244,8.244,0,0,0,646.173,368l-.075.055h0c-2.99,2.422-8.9,9.156-13.583,26.461-6.5,24.148-5.823,29.623-10.559,35.22s-9.436,45.033-9.436,45.033l9.532,2.566,1.218-3.914c11.332,10.333,43.062,15.307,43.062,15.307l.972-3.018c4.865,1.752,13-.91,13-.91,11.893-4.2,16.348-14.863,24.976-28.925S718.229,403.874,718.229,403.874Zm-47.968,72.76L692.226,408.5c1.991,10.579-6.795,27.241-7.575,38.135C684.165,453.642,676.008,467.567,670.26,476.634Z" transform="translate(-253.565 -138.953)" fill="url(#linear-gradient-2)"/>
    <path id="Path_847" data-name="Path 847" d="M730.685,343.849s3.825,14.568-7.527,17.107-3.873-6.549-3.873-6.549l10.949-10.668Z" transform="translate(-286.509 -150.621)" fill="#472727"/>
    <path id="Path_848" data-name="Path 848" d="M652.126,394.64s-8.444,3.421-14.651,26.468-5.591,28.247-10.059,33.605-9.046,42.953-9.046,42.953l8.937,2.409,7.78-25.127,21.4-66.376Z" transform="translate(-255.412 -166.691)" fill="#dde0e4"/>
    <path id="Path_849" data-name="Path 849" d="M652.126,394.64s-8.444,3.421-14.651,26.468-5.591,28.247-10.059,33.605-9.046,42.953-9.046,42.953l8.937,2.409,7.78-25.127,21.4-66.376Z" transform="translate(-255.412 -166.691)" opacity="0.05"/>
    <path id="Path_850" data-name="Path 850" d="M722.058,378.054s-35.35,17.969-30.177,6.248a29.166,29.166,0,0,0,1.718-16.423,35.076,35.076,0,0,0-2.224-7.951s24.032-19.009,22.622-3.49a29.7,29.7,0,0,0,.684,9.977C716.762,374.646,722.058,378.054,722.058,378.054Z" transform="translate(-278.457 -152.705)" fill="#db8b8b"/>
    <path id="Path_851" data-name="Path 851" d="M714.674,366.445a18.476,18.476,0,0,1-16.423,3.421,18.687,18.687,0,0,1-4.687-1.978,35.078,35.078,0,0,0-2.224-7.951s24.032-19.009,22.622-3.49a29.7,29.7,0,0,0,.712,10Z" transform="translate(-278.449 -152.708)" opacity="0.1"/>
    <circle id="Ellipse_197" data-name="Ellipse 197" cx="18.503" cy="18.503" r="18.503" transform="translate(402.218 211.429) rotate(-74.93)" fill="#db8b8b"/>
    <path id="Path_852" data-name="Path 852" d="M692.308,330.038a4.414,4.414,0,0,1-6.159-1.622,2.656,2.656,0,0,1-.315-1.519c.157-1.191,1.334-1.93,2.053-2.915,1.115-1.594.9-3.777,1.711-5.55a7.8,7.8,0,0,1,2.34-2.737,16.088,16.088,0,0,1,14.336-2.792,27.325,27.325,0,0,1,5.707,2.621c5.146,2.936,10.216,6.528,13,11.749a8.019,8.019,0,0,1,1.054,3.127,8.9,8.9,0,0,1-.616,3.49,36.378,36.378,0,0,1-4.263,8.67,6.679,6.679,0,0,0-2.217-1.786,2.286,2.286,0,0,0-2.628.486c-.6.76-.958,2.21-1.861,1.868-.589-.219-.582-1.033-.554-1.663a9.5,9.5,0,0,0-3.374-7.164,28.246,28.246,0,0,0-6.939-4.263c-1.759-.862-4.106-2.84-6.035-3.189C695.155,326.4,694.026,328.977,692.308,330.038Z" transform="translate(-276.708 -140.689)" opacity="0.1"/>
    <path id="Path_853" data-name="Path 853" d="M692.678,328.668a4.414,4.414,0,0,1-6.159-1.622,2.655,2.655,0,0,1-.315-1.519c.157-1.191,1.334-1.93,2.053-2.915,1.115-1.594.9-3.777,1.711-5.55a7.8,7.8,0,0,1,2.34-2.737,16.088,16.088,0,0,1,14.336-2.792,27.329,27.329,0,0,1,5.707,2.621c5.146,2.936,10.216,6.528,13,11.749a8.02,8.02,0,0,1,1.054,3.127,8.9,8.9,0,0,1-.616,3.49,36.376,36.376,0,0,1-4.263,8.67,6.678,6.678,0,0,0-2.217-1.786,2.285,2.285,0,0,0-2.628.486c-.6.76-.958,2.21-1.861,1.868-.588-.219-.582-1.033-.554-1.663a9.5,9.5,0,0,0-3.374-7.164,28.246,28.246,0,0,0-6.939-4.263c-1.759-.862-4.106-2.84-6.035-3.189C695.525,325.027,694.4,327.607,692.678,328.668Z" transform="translate(-276.825 -140.257)" fill="#472727"/>
    <path id="Path_854" data-name="Path 854" d="M684.074,391.326s14.637-2.867,15.273-5.214l16.738,11.818s10.073,11.284,4.92,28.555c0,0-4.195,36.192-12.351,49.624s-12.844,30.834-24.018,34.9c0,0-10.743-6.925-14.288-6.843,0,0,18.2-26.366,18.975-36.746s9.094-26.3,7.274-36.37L671.962,507.62s-39.689-6.159-43.712-19.331c0,0,3.421-5.139,2.785-10.346s14.972-44.383,14.972-44.383l7.472-40.852s14.781-10.326,20.665-7.643C674.118,385.024,673.05,390.122,684.074,391.326Z" transform="translate(-258.531 -163.527)" fill="#dde0e4"/>
    <g id="Group_28" data-name="Group 28" transform="translate(406.267 191.633)" opacity="0.1">
      <path id="Path_855" data-name="Path 855" d="M706.267,345.969h0c-3.613-4.927-10.5-.883-11.633-.178l-1.772-.178c-1.547-1.683-6.289-6.159-10.743-2.867l-.192.144-.267,6.316.192.151a13.193,13.193,0,0,0,4.3,2.2,6.494,6.494,0,0,0,3.038.151,5.242,5.242,0,0,0,3.5-2.737l.924.062.684-.13a5.207,5.207,0,0,0,2.463,3.517c3.059,1.731,7.527,0,7.712-.034l.233-.089,1.642-6.111Zm-2.32,5.556c-.91.308-4.345,1.321-6.651,0a4.421,4.421,0,0,1-2.053-3.326l-.082-.5-1.5.308-1.505-.055-.144.287a4.441,4.441,0,0,1-3,2.518c-2.58.554-5.563-1.444-6.343-2.012l.226-5.337c3.873-2.607,8.143,1.622,9.375,3l.13.144,2.5.246.151-.1c.068-.041,6.275-4.208,9.813-.855a4.577,4.577,0,0,1,.486.527Z" transform="translate(-681.66 -341.569)"/>
      <path id="Path_856" data-name="Path 856" d="M728.166,351.121l-11.633-.965-.958-.185.431-1.615a4.585,4.585,0,0,0-.486-.527l1.41.137,9.518.931Z" transform="translate(-692.35 -343.545)"/>
    </g>
    <path id="Path_857" data-name="Path 857" d="M706.447,345.329h0c-3.613-4.927-10.5-.883-11.633-.178l-1.772-.178c-1.547-1.683-6.289-6.159-10.743-2.867l-.192.144-.267,6.316.192.151a13.193,13.193,0,0,0,4.3,2.2,6.494,6.494,0,0,0,3.038.151,5.242,5.242,0,0,0,3.5-2.737l.924.062.684-.13a5.207,5.207,0,0,0,2.463,3.517c3.059,1.731,7.527,0,7.712-.034l.233-.089,1.642-6.111Zm-2.32,5.556c-.91.308-4.345,1.321-6.651,0a4.421,4.421,0,0,1-2.053-3.326l-.082-.5-1.5.308-1.485-.1-.144.287a4.441,4.441,0,0,1-2.99,2.546c-2.58.554-5.563-1.444-6.343-2.012l.226-5.337c3.873-2.607,8.143,1.622,9.375,3l.13.144,2.5.246.151-.1c.068-.041,6.275-4.208,9.813-.855a4.577,4.577,0,0,1,.486.527Z" transform="translate(-275.45 -149.733)" fill="#472727"/>
    <path id="Path_858" data-name="Path 858" d="M728.344,350.481l-11.592-.965-.958-.185.431-1.615a4.579,4.579,0,0,0-.486-.527l1.41.137,9.518.931Z" transform="translate(-286.153 -151.71)" fill="#472727"/>
    <rect id="Rectangle_225" data-name="Rectangle 225" width="203.164" height="81.957" transform="translate(159.534 270.833)" fill="#6f7d95"/>
    <ellipse id="Ellipse_198" data-name="Ellipse 198" cx="56.693" cy="62.044" rx="56.693" ry="62.044" transform="translate(195.821 282.377)" fill="#4b5c7a"/>
    <ellipse id="Ellipse_199" data-name="Ellipse 199" cx="56.693" cy="62.044" rx="56.693" ry="62.044" transform="translate(195.821 282.377)" opacity="0.05"/>
    <ellipse id="Ellipse_200" data-name="Ellipse 200" cx="56.693" cy="62.044" rx="56.693" ry="62.044" transform="translate(208.419 282.377)" fill="#4b5c7a"/>
    <circle id="Ellipse_201" data-name="Ellipse 201" cx="25.195" cy="25.195" r="25.195" transform="translate(238.658 319.541)" opacity="0.05"/>
    <circle id="Ellipse_202" data-name="Ellipse 202" cx="7.561" cy="7.561" r="7.561" transform="translate(256.292 337.175)" fill="none" stroke="#6f7d95" stroke-miterlimit="10" stroke-width="2"/>
    <circle id="Ellipse_203" data-name="Ellipse 203" cx="1.889" cy="1.889" r="1.889" transform="translate(261.964 329.62)" fill="#6f7d95"/>
    <circle id="Ellipse_204" data-name="Ellipse 204" cx="1.889" cy="1.889" r="1.889" transform="matrix(0.766, -0.643, 0.643, 0.766, 271.526, 334.921)" fill="#6f7d95"/>
    <circle id="Ellipse_205" data-name="Ellipse 205" cx="1.889" cy="1.889" r="1.889" transform="translate(275.865 346.952) rotate(-80)" fill="#6f7d95"/>
    <circle id="Ellipse_206" data-name="Ellipse 206" cx="1.889" cy="1.889" r="1.889" transform="translate(270.074 354.286) rotate(-30)" fill="#6f7d95"/>
    <circle id="Ellipse_207" data-name="Ellipse 207" cx="1.889" cy="1.889" r="1.889" transform="matrix(0.342, -0.94, 0.94, 0.342, 259.456, 358.117)" fill="#6f7d95"/>
    <circle id="Ellipse_208" data-name="Ellipse 208" cx="1.889" cy="1.889" r="1.889" transform="matrix(0.94, -0.342, 0.342, 0.94, 250.985, 348.896)" fill="#6f7d95"/>
    <circle id="Ellipse_209" data-name="Ellipse 209" cx="1.889" cy="1.889" r="1.889" transform="translate(250.72 339.747) rotate(-60)" fill="#6f7d95"/>
    <path id="Path_859" data-name="Path 859" d="M1046.794,468.835c-1.937,13.371-7.322,28.008-7.322,28.008q.055-1.369.068-2.7v-3.421c-.684-36.856-20.768-59.594-33.722-70.481A72.8,72.8,0,0,0,995,412.6h35.206s13.85,28.282,16.738,42.131C1047.779,458.618,1047.546,463.634,1046.794,468.835Z" transform="translate(-374.319 -172.361)" fill="#ff4d52"/>
    <path id="Path_860" data-name="Path 860" d="M1046.794,468.835c-1.937,13.371-7.322,28.008-7.322,28.008q.055-1.369.068-2.7v-3.421c-.684-36.856-20.768-59.594-33.722-70.481A72.8,72.8,0,0,0,995,412.6h35.206s13.85,28.282,16.738,42.131C1047.779,458.618,1047.546,463.634,1046.794,468.835Z" transform="translate(-374.319 -172.361)" opacity="0.05"/>
    <ellipse id="Ellipse_210" data-name="Ellipse 210" cx="43.117" cy="47.188" rx="43.117" ry="47.188" transform="translate(569.332 250.483)" fill="#4b5c7a"/>
    <ellipse id="Ellipse_211" data-name="Ellipse 211" cx="43.117" cy="47.188" rx="43.117" ry="47.188" transform="translate(569.332 250.483)" opacity="0.05"/>
    <ellipse id="Ellipse_212" data-name="Ellipse 212" cx="43.117" cy="47.188" rx="43.117" ry="47.188" transform="translate(578.912 250.483)" fill="#4b5c7a"/>
    <circle id="Ellipse_213" data-name="Ellipse 213" cx="19.16" cy="19.16" r="19.16" transform="translate(601.911 278.75)" opacity="0.05"/>
    <circle id="Ellipse_214" data-name="Ellipse 214" cx="5.748" cy="5.748" r="5.748" transform="translate(615.323 292.162)" fill="none" stroke="#6f7d95" stroke-miterlimit="10" stroke-width="2"/>
    <circle id="Ellipse_215" data-name="Ellipse 215" cx="1.437" cy="1.437" r="1.437" transform="translate(619.634 286.414)" fill="#6f7d95"/>
    <circle id="Ellipse_216" data-name="Ellipse 216" cx="1.437" cy="1.437" r="1.437" transform="matrix(0.766, -0.643, 0.643, 0.766, 626.909, 290.444)" fill="#6f7d95"/>
    <circle id="Ellipse_217" data-name="Ellipse 217" cx="1.437" cy="1.437" r="1.437" transform="translate(630.205 299.601) rotate(-80)" fill="#6f7d95"/>
    <circle id="Ellipse_218" data-name="Ellipse 218" cx="1.437" cy="1.437" r="1.437" transform="translate(625.808 305.177) rotate(-30)" fill="#6f7d95"/>
    <circle id="Ellipse_219" data-name="Ellipse 219" cx="1.437" cy="1.437" r="1.437" transform="matrix(0.342, -0.94, 0.94, 0.342, 617.729, 308.091)" fill="#6f7d95"/>
    <circle id="Ellipse_220" data-name="Ellipse 220" cx="1.437" cy="1.437" r="1.437" transform="matrix(0.94, -0.342, 0.342, 0.94, 611.283, 301.07)" fill="#6f7d95"/>
    <circle id="Ellipse_221" data-name="Ellipse 221" cx="1.437" cy="1.437" r="1.437" transform="translate(611.09 294.113) rotate(-60)" fill="#6f7d95"/>
    <path id="Path_861" data-name="Path 861" d="M119.214,555.222,114,514.24h61.757L207.5,542.522,191.92,578.884S129.054,568.5,119.214,555.222Z" transform="translate(-96.175 -204.45)" fill="#ff4d52"/>
    <path id="Path_862" data-name="Path 862" d="M207.537,542.525l-15.581,36.363S129.07,568.5,119.23,555.225L119,553.439l-4.79-37.9-.048-.376-.116-.917h61.757Z" transform="translate(-96.191 -204.454)" opacity="0.05"/>
    <path id="Path_863" data-name="Path 863" d="M567.082,330.368v13.275s-31.915,26-39.511,50.534a30.916,30.916,0,0,0-1.471,12.379c2.888,27.125-83.1-21.938-83.1-21.938l3.825-1.861C466.594,373.225,556.81,329.848,567.082,330.368Z" transform="translate(-200.045 -146.398)" fill="#7597ce"/>
    <path id="Path_864" data-name="Path 864" d="M730.342,396.257s29.89-14.685,34.686-25.551c.643-1.458,1.252-2.929,1.964-4.359,2.963-5.96,9.19-19.94,6.056-26.653-4.037-8.656,9.813,1.156,9.813,1.156l-8.081,40.968-19.625,10.949-25.394,3.49" transform="translate(-290.579 -148.217)" fill="#ff4d52"/>
    <path id="Path_865" data-name="Path 865" d="M730.342,396.257s29.89-14.685,34.686-25.551c.643-1.458,1.252-2.929,1.964-4.359,2.963-5.96,9.19-19.94,6.056-26.653-4.037-8.656,9.813,1.156,9.813,1.156l-8.081,40.968-19.625,10.949-25.394,3.49" transform="translate(-290.579 -148.217)" opacity="0.05"/>
    <path id="Path_866" data-name="Path 866" d="M207.528,542.528l-15.581,36.363s-62.886-10.387-72.726-23.663l-.226-1.786c.253-.171.52-.349.8-.52,0,0,19.044,15.006,62.338,18.476,0,0,26-20.782-16.163-43.863,0,0-36.678,1.15-51.787-11.982l-.164-.137.116-.24q.151-.294.486-.917h61.155Z" transform="translate(-96.181 -204.457)" opacity="0.05"/>
    <path id="Path_867" data-name="Path 867" d="M526.1,430.723c2.888,27.132-83.1-21.931-83.1-21.931l3.825-1.861c2.532,2.7,12.639,11.79,32.846,10.8,13-.636,32.743-.055,47.934.609a30.917,30.917,0,0,0-1.505,12.379Z" transform="translate(-200.045 -170.571)" opacity="0.05"/>
    <path id="Path_868" data-name="Path 868" d="M524.264,457.31v81.957H486.519c2.491-19.064,1.054-46.853-23.156-62.783a58.561,58.561,0,0,0-61.107-1.82c-15.869,9.06-33.612,27.481-44.889,64.6H321.1V457.31Z" transform="translate(-161.559 -186.477)" opacity="0.05"/>
    <path id="Path_869" data-name="Path 869" d="M1046.794,468.835c-1.423,9.046-3.709,17.833-7.247,25.319q-.684,1.512-1.492,2.949c.089-.335.739-2.676,1.492-6.357,3.668-17.928,9.943-67.539-32.1-70.372-.547-.034-1.088-.068-1.629-.089A72.8,72.8,0,0,0,995,412.6h35.206s13.85,28.282,16.738,42.131C1047.779,458.618,1047.546,463.634,1046.794,468.835Z" transform="translate(-374.319 -172.361)" opacity="0.05"/>
    <path id="Path_870" data-name="Path 870" d="M760.982,476.7c.547-1.978,20.05-73.307-30.608-76.722-51.369-3.462-57.719,35.207-63.488,87.732,0,0-162.176,12.119-249.34,37.519,0,0,20.925-57.343-18.476-83.278a58.561,58.561,0,0,0-61.107-1.82c-19.434,11.1-41.693,36.267-51.431,92.6H189.555s-18.476,1.156-24.819-7.527c0,0-26,.575-42.131-13.275,0,0-17.312-3.463-3.462-12.119,0,0,19.625,15.006,62.913,18.476,0,0,26-20.782-16.163-43.863,0,0-36.951,1.156-51.944-12.119,0,0,5.262-10.887,17.271-24.059a137.883,137.883,0,0,1,60.648-38.779,157.07,157.07,0,0,1,48.482-6.993l101.87-3.175s9.84,12.7,33.475,11.544,69.838,1.731,69.838,1.731h.458l95.061-4.3a60.471,60.471,0,0,0,8.081-1.711c13.782-3.743,39.921-15.1,35.207-46.8L733.829,359a89.586,89.586,0,0,1,16.717,2.361c7.678,1.971,14.7,5.57,12.721,12.071-4.037,13.275,6.925,15.006,6.925,15.006s.233,1.772.52,4.852C772.081,407.808,774.77,451.465,760.982,476.7Z" transform="translate(-96.103 -152.522)" fill="#ff4d52"/>
    <path id="Path_871" data-name="Path 871" d="M343.857,442.55s-62.338.575-103.327,36.951h23.088s64.644-16.738,80.226-30.013Z" transform="translate(-136.122 -181.817)" opacity="0.05"/>
    <path id="Path_872" data-name="Path 872" d="M343.007,441.7s-62.338.575-103.327,36.951h23.088s64.644-16.738,80.226-30.013Z" transform="translate(-135.854 -181.548)" fill="#ffec9f"/>
    <path id="Path_873" data-name="Path 873" d="M200.761,423.25v15.513l-52.512,24.244-8.129-.979a137.883,137.883,0,0,1,60.641-38.779Z" transform="translate(-104.421 -175.723)" opacity="0.05"/>
    <path id="Path_874" data-name="Path 874" d="M199.908,422.41v15.513L147.389,462.16l-8.129-.979a137.883,137.883,0,0,1,60.648-38.772Z" transform="translate(-104.15 -175.458)" fill="#ffec9f"/>
    <path id="Path_875" data-name="Path 875" d="M322.319,525.21s-28.282,17.312-31.169,55.427h16.163s6.35-41.557,24.819-55.427Z" transform="translate(-152.104 -207.914)" fill="none"/>
    <path id="Path_876" data-name="Path 876" d="M322.319,525.21s-28.282,17.312-31.169,55.427h16.163s6.35-41.557,24.819-55.427Z" transform="translate(-152.104 -207.914)" opacity="0.05"/>
    <path id="Path_877" data-name="Path 877" d="M753.69,487.221,607.081,504.533s-9.7-61.723-7.9-85.734l95.061-4.3a60.477,60.477,0,0,0,8.075-1.69v5.727l71.569-17.312S786.008,419.107,753.69,487.221Z" transform="translate(-249.283 -168.768)" fill="none"/>
    <path id="Path_878" data-name="Path 878" d="M753.69,487.221,607.081,504.533s-9.7-61.723-7.9-85.734l95.061-4.3a60.477,60.477,0,0,0,8.075-1.69v5.727l71.569-17.312S786.008,419.107,753.69,487.221Z" transform="translate(-249.283 -168.768)" opacity="0.05"/>
    <path id="Path_879" data-name="Path 879" d="M801.46,325.2s31.169-4.037,45.019,22.513L801.9,345.994Z" transform="translate(-313.216 -144.698)" fill="#ff4d52"/>
    <path id="Path_880" data-name="Path 880" d="M863.88,368.3c-1.225,3.839-.3,8.061,6.8,10.983,5.905,2.436,12.83-.383,14.849-6.439,1.177-3.531.37-7.527-5.994-10.777S866.022,361.591,863.88,368.3Z" transform="translate(-332.779 -155.977)" fill="none"/>
    <path id="Path_881" data-name="Path 881" d="M863.88,368.3c-1.225,3.839-.3,8.061,6.8,10.983,5.905,2.436,12.83-.383,14.849-6.439,1.177-3.531.37-7.527-5.994-10.777S866.022,361.591,863.88,368.3Z" transform="translate(-332.779 -155.977)" opacity="0.05"/>
    <path id="Path_882" data-name="Path 882" d="M115.63,526.88s36.993,19.16,63.543,11.907" transform="translate(-96.69 -208.441)" fill="none" stroke="#ff4d52" stroke-miterlimit="10" stroke-width="1"/>
    <path id="Path_883" data-name="Path 883" d="M117.54,542s23.9,18.435,72.213,14.151" transform="translate(-97.293 -213.215)" fill="none" stroke="#ff4d52" stroke-miterlimit="10" stroke-width="1"/>
    <path id="Path_884" data-name="Path 884" d="M119.15,554.69s23.711,20.576,72.432,14.055" transform="translate(-97.801 -217.221)" fill="none" stroke="#ff4d52" stroke-miterlimit="10" stroke-width="1"/>
    <path id="Path_885" data-name="Path 885" d="M847.623,353.67s-19.283,16.649-36.883,24.176C810.74,377.846,837.468,382.6,847.623,353.67Z" transform="translate(-316.146 -153.756)" opacity="0.05"/>
    <path id="Path_886" data-name="Path 886" d="M566.1,423.825s91.5,8.643,126.128.561c0,0,1.848,1.225-9.176-3.716Z" transform="translate(-238.909 -174.909)" opacity="0.1"/>
    <path id="Path_887" data-name="Path 887" d="M1064.516,398.636c-5.7-3.743-14.74-11.51-13.508-20.152.616-4.332-2.45-8.382-6.658-11.783,7.678,1.971,14.7,5.57,12.721,12.071-4.037,13.275,6.925,15.006,6.925,15.006S1064.222,395.556,1064.516,398.636Z" transform="translate(-389.9 -157.87)" opacity="0.05"/>
    <path id="Path_888" data-name="Path 888" d="M349.7,411.409c.055-2.286,0-4.66-.171-6.843a11.669,11.669,0,0,0-.109-1.218,24.589,24.589,0,0,1,2.053,1.711l-1.129-59.423-6.227-31.128c0-22.075-11.886-28.3-11.886-28.3s-6.227-2.833-7.924-6.788-16.738-12.317-16.744-12.317a42.557,42.557,0,0,1-.137-4.332c0-.376,0-.766.034-1.156a18.681,18.681,0,0,0,6.48-23.731c.835,0,1.512-.349,1.827-1.588,1-3.921.034-9.826-2.238-12.96a12.719,12.719,0,0,0-1.635-1.813,28.051,28.051,0,0,0-2.224-2c-1.943-1.615-4.106-3.312-6.514-3.175a9.751,9.751,0,0,0-3.853,1.369q-9.026,4.749-18,9.58c-2.21,1.2-4.489,2.457-6.035,4.605a17.656,17.656,0,0,0-2.6,7.6,18.641,18.641,0,0,0-.253,5.563A7.192,7.192,0,0,0,274.6,249.5a4.886,4.886,0,0,0,.842.8c1.218.89,2.785,1.109,4.058,1.827a18.681,18.681,0,0,0,4.7,7.37c0,.349-.048.684-.075,1.067-.075.979-.192,2.053-.342,3.141h0s-4.181-.109-10.408,8.376-19.81,9.621-19.81,9.621-5.091-2.265-10.75,23.2-7.356,42.426-4.53,45.272a15.438,15.438,0,0,0,4.01,2.5,49.138,49.138,0,0,0,15.28,4.79,1.369,1.369,0,0,0,.335.541l.4,4.934h0c.342,10.415.739,31.306-1.369,35.939-2.833,6.227.568,10.189.568,10.189l.684-.048a5.2,5.2,0,0,0,.424.616l2.737-.185c-.2,11.633-.732,27.768-2.142,31.313-2.265,5.659,0,36.787,0,36.787l-3.962,56.029s-2.169,29.246-.137,32.634c-1.109,6.083-3.1,17.675-2.689,20.563.568,3.962,13.583,9.621,13.583,9.621s15.28,3.421,22.636,2.265c3.846-.6,5.372-3.2,5.385-5.474,4.988.8,11.482,1.567,15.554.938,7.356-1.129,6.227-9.621,2.265-9.053s-8.492-7.4-11.859-11.359c-1.711-2-3.134-5.57-4.106-8.629a3.161,3.161,0,0,0,1.861-.992c1.7-2.833,4.53-28.863,4.53-28.863l7.356-45.272s3.962-22.075,7.356-27.166c2.566-3.846,5.775-32.545,7.192-46.367h.164l.151-.486,2.128-6.87c1.136,2,4,3,7.329,3.421-.356,1.451-.65,2.634-.821,3.312-.849,3.421,11.523,9.053,14.507,6.227,1.252-1.184,1.9-5.474,2.053-10.168h.1ZM275.349,565.743c-.192,1.1-.383,2.251-.575,3.421-.431-1.369-.773-2.6-1.006-3.51C274.329,565.674,274.856,565.7,275.349,565.743Z" transform="translate(-134.989 -110.399)" fill="url(#linear-gradient-3)"/>
    <path id="Path_889" data-name="Path 889" d="M311.481,708.952s2.183,9.813,5.474,13.624,7.63,11.441,11.441,10.9,4.906,7.63-2.183,8.718-21.8-2.183-21.8-2.183-12.536-5.474-13.077-9.265,3.271-23.437,3.271-23.437Z" transform="translate(-152.146 -265.405)" fill="#53526b"/>
    <path id="Path_890" data-name="Path 890" d="M311.481,708.952s2.183,9.813,5.474,13.624,7.63,11.441,11.441,10.9,4.906,7.63-2.183,8.718-21.8-2.183-21.8-2.183-12.536-5.474-13.077-9.265,3.271-23.437,3.271-23.437Z" transform="translate(-152.146 -265.405)" opacity="0.05"/>
    <path id="Path_891" data-name="Path 891" d="M282.011,715.325s2.183,9.813,5.474,13.624,7.63,11.441,11.441,10.9,4.906,7.63-2.183,8.718-21.8-2.176-21.8-2.176-12.536-5.474-13.077-9.265,3.271-23.437,3.271-23.437Z" transform="translate(-142.842 -267.42)" fill="#53526b"/>
    <path id="Path_892" data-name="Path 892" d="M341.663,497.86s-4.359,46.867-7.63,51.773-7.082,26.16-7.082,26.16l-7.082,43.6s-2.737,25.072-4.359,27.8-21.849,1.553-21.849,1.553L306.21,504.4Z" transform="translate(-152.896 -199.279)" fill="#5f5d7e"/>
    <path id="Path_893" data-name="Path 893" d="M341.663,497.86s-4.359,46.867-7.63,51.773-7.082,26.16-7.082,26.16l-7.082,43.6s-2.737,25.072-4.359,27.8-21.849,1.553-21.849,1.553L306.21,504.4Z" transform="translate(-152.896 -199.279)" opacity="0.05"/>
    <path id="Path_894" data-name="Path 894" d="M341.14,465.21l-1.423,4.523-7.7,24.436-.151.465h-.041c-1.033.233-22.848,5.248-27.556,6.788a6.658,6.658,0,0,0-.746.281c-2.183,1.088-4.906,40.325-4.906,40.325s-1.635,37.061-2.737,39.784-5.474,58.849-8.177,57.22-22.342,0-22.342,0c-2.183-2.183,0-31.607,0-31.607l3.811-53.956s-2.183-29.972,0-35.425,2.183-41.96,2.183-41.96l44.636-6.911,4.311-.684Z" transform="translate(-143.656 -188.971)" fill="#5f5d7e"/>
    <path id="Path_895" data-name="Path 895" d="M357.9,471.132l-7.7,24.436-.185.479c-1.033.233-22.848,5.248-27.556,6.788h-.472l12.187-32.264.349-.931,3.962.253Z" transform="translate(-161.84 -190.37)" opacity="0.02"/>
    <path id="Path_896" data-name="Path 896" d="M297.324,305.93s20.166,21.8,32.7,3.811l11.989,8.177-2.183,12.536,7.082,94.828s-18.53-.547-31.607,3.811a20.282,20.282,0,0,1-21.254-4.906l2.183-83.38L291.33,315.2Z" transform="translate(-152.161 -138.684)" opacity="0.1"/>
    <path id="Path_897" data-name="Path 897" d="M297.327,303.54s20.166,21.8,32.7,3.811l11.989,8.177-2.183,12.536,7.089,94.856s-18.53-.547-31.607,3.811a20.282,20.282,0,0,1-21.254-4.906l2.183-83.38-4.906-25.613Z" transform="translate(-152.164 -137.929)" fill="#53526b"/>
    <path id="Path_898" data-name="Path 898" d="M361.42,468.39s0,14.172,3.271,20.166,22.342,2.737,22.342,2.737l-3.811-20.166Z" transform="translate(-174.289 -189.975)" fill="#d39999"/>
    <path id="Path_899" data-name="Path 899" d="M389.358,504.417c-2.874,2.737-14.787-2.737-13.966-5.994.575-2.306,2.587-10.559,3.729-15.239l.794-3.291s6.98-2.183,9.443,0c.9.794,1.526,3.921,1.82,7.7C391.684,494.153,391.185,502.686,389.358,504.417Z" transform="translate(-178.687 -193.3)" fill="#fdc2cc"/>
    <path id="Path_900" data-name="Path 900" d="M338.3,300.8,319.23,315.514s-28.336-1.635-21.254-15.26A50.8,50.8,0,0,0,303.45,281a40.265,40.265,0,0,0,0-7.452s26.16-23.95,22.889,3.271a61.767,61.767,0,0,0-.452,6.3C325.525,303.546,338.3,300.8,338.3,300.8Z" transform="translate(-153.9 -125.386)" fill="#fdc2cc"/>
    <path id="Path_901" data-name="Path 901" d="M329.353,276.821a61.75,61.75,0,0,0-.452,6.3,17.86,17.86,0,0,1-9.9,2.97c-4.879,0-8.471-4.749-11.715-7.9.363-4.523-.814-4.633-.814-4.633S332.623,249.566,329.353,276.821Z" transform="translate(-156.941 -125.382)" opacity="0.1"/>
    <circle id="Ellipse_222" data-name="Ellipse 222" cx="17.983" cy="17.983" r="17.983" transform="translate(144.076 123.643)" fill="#fdc2cc"/>
    <path id="Path_902" data-name="Path 902" d="M285.719,293.58s-3,.274-8.992,8.444-19.112,9.265-19.112,9.265-4.906-2.183-10.353,22.342-7.082,40.872-4.359,43.6,13.624,6.542,19.071,6.542c0,0,1.635,34.331-1.088,40.325s.547,9.813.547,9.813l23.95-1.635s8.177-10.353,9.813-28.336,7.082-69.215,4.359-75.21-14.712-21.254-14.172-22.889S285.719,293.58,285.719,293.58Z" transform="translate(-136.463 -134.785)" opacity="0.1"/>
    <path id="Path_903" data-name="Path 903" d="M285.193,293.34s-4.03-.109-10.025,8.068-19.071,9.265-19.071,9.265-4.906-2.183-10.353,22.342-7.082,40.872-4.345,43.575,13.624,6.542,19.071,6.542c0,0,1.635,34.331-1.088,40.325s.547,9.813.547,9.813l23.95-1.635s8.177-10.353,9.813-28.336,7.082-69.215,4.359-75.21-14.712-21.254-14.172-22.889S285.193,293.34,285.193,293.34Z" transform="translate(-135.985 -134.709)" fill="#f7af2b"/>
    <path id="Path_904" data-name="Path 904" d="M285,387.922s27.269-31.272,23.437-9.813c-2.737,15.26-13.077,23.437-17.983,25.072S285,387.922,285,387.922Z" transform="translate(-150.162 -159.097)" fill="#fdc2cc"/>
    <path id="Path_905" data-name="Path 905" d="M392.917,487.591c-2.607-1.991-7.527-5.091-12.057-4.407l.794-3.291s6.98-2.183,9.443,0C392,480.686,392.623,483.813,392.917,487.591Z" transform="translate(-180.427 -193.3)" opacity="0.1"/>
    <path id="Path_906" data-name="Path 906" d="M338.327,298.36s13.9,8.992,15.533,12.81,7.63,6.542,7.63,6.542,11.441,5.994,11.441,27.248l5.994,29.972-27.262,38.142s-3.271-38.149-4.906-47.414-3.811-26.687-3.811-26.687-8.177-10.353-7.082-13.077S338.327,298.36,338.327,298.36Z" transform="translate(-166.189 -136.294)" opacity="0.1"/>
    <path id="Path_907" data-name="Path 907" d="M338.538,298.12S353.031,306.188,354.66,310s7.637,6.514,7.637,6.514,11.441,5.994,11.441,27.248l5.994,29.972,1.088,57.22s-9.813-9.265-16.895-4.906-11.441-14.172-11.441-14.172-3.271-38.149-4.906-47.414-3.811-26.687-3.811-26.687-8.177-10.312-7.082-13.049S338.538,298.12,338.538,298.12Z" transform="translate(-166.447 -136.218)" fill="#f7af2b"/>
    <path id="Path_908" data-name="Path 908" d="M329.788,233.672a17.791,17.791,0,0,0-3.175-3.134c-1.875-1.56-3.948-3.189-6.275-3.052a9.388,9.388,0,0,0-3.709,1.327q-8.69,4.578-17.333,9.252c-2.128,1.15-4.325,2.368-5.81,4.434a17.094,17.094,0,0,0-2.5,7.322,17.95,17.95,0,0,0-.246,5.351,6.713,6.713,0,0,0,2.368,4.5c1.553,1.129,3.681,1.136,4.982,2.614a14.562,14.562,0,0,1,1.615,3.093c.534,1.04,1.458,2.053,2.511,1.868a2.637,2.637,0,0,0,1.841-2.429,14.746,14.746,0,0,0-.2-3.421,8.1,8.1,0,0,1,1.245-5.755c.821-1.04,2-1.67,2.792-2.737,1.9-2.573,1.033-6.843,3.12-9.258a4.948,4.948,0,0,1,4.79-1.369,20.479,20.479,0,0,1,4.79,2.053,35.58,35.58,0,0,0,6.562,2.532c1.9.52,4.106,1.765,4.756-.766C332.9,242.376,331.943,236.69,329.788,233.672Z" transform="translate(-151.942 -113.916)" opacity="0.1"/>
    <path id="Path_909" data-name="Path 909" d="M328.988,232.872a17.791,17.791,0,0,0-3.175-3.134c-1.875-1.56-3.948-3.189-6.275-3.052a9.388,9.388,0,0,0-3.709,1.328c-5.789,3.052-10.6.164-17.333,9.252-1.437,1.943-4.325,2.368-5.81,4.434a17.094,17.094,0,0,0-2.5,7.322,17.948,17.948,0,0,0-.246,5.351,6.713,6.713,0,0,0,2.368,4.5c1.553,1.129,3.681,1.136,4.982,2.614a14.562,14.562,0,0,1,1.615,3.093c.534,1.04,1.458,2.053,2.511,1.868a2.637,2.637,0,0,0,1.841-2.429,14.746,14.746,0,0,0-.2-3.421,8.1,8.1,0,0,1,1.245-5.755c.821-1.04,2-1.67,2.792-2.737,1.9-2.573,1.033-6.843,3.12-9.258a4.947,4.947,0,0,1,4.79-1.369,20.479,20.479,0,0,1,4.79,2.053,35.583,35.583,0,0,0,6.562,2.532c1.9.52,4.106,1.765,4.756-.766C332.108,241.576,331.177,235.89,328.988,232.872Z" transform="translate(-151.69 -113.663)" fill="#865a61"/>
    <path id="Path_910" data-name="Path 910" d="M268.1,353.71s-.547,20.166-3.271,22.889,1.635,5.994,1.635,5.994l10.9-2.737s-2.737,17.983,8.718,15.807c0,0-7.63,7.082-15.26,8.177s-7.1-1.629-7.1-1.629L252.28,388.588Z" transform="translate(-139.832 -153.769)" fill="#f7af2b"/>
    <path id="Path_911" data-name="Path 911" d="M273.5,357.29s-7.267,18.53-1.813,26.16l11.989-2.737s-10.9,3.271-9.265-3.271S273.5,357.29,273.5,357.29Z" transform="translate(-145.317 -154.899)" opacity="0.1"/>
    <path id="Path_912" data-name="Path 912" d="M269.43,423.183S285.237,424.271,289.6,421a41.742,41.742,0,0,1-19.673,8.211Z" transform="translate(-145.246 -175.013)" opacity="0.1"/>
    <path id="Path_913" data-name="Path 913" d="M369,373.22s8.177,25.072,7.63,28.884-1.635,45.779-1.635,45.779l-1.635-.547.547-45.779Z" transform="translate(-176.682 -159.928)" opacity="0.1"/>
    <path id="Path_914" data-name="Path 914" d="M871.243,476.83s11.975,23.505,2.217,36.363.89,47.9.89,47.9" transform="translate(-334.647 -192.639)" fill="none" stroke="#239617" stroke-miterlimit="10" stroke-width="1"/>
    <path id="Path_915" data-name="Path 915" d="M874.231,462.351c0,4.53-3.326,8.211-3.326,8.211s-3.326-3.675-3.326-8.211,3.326-8.211,3.326-8.211S874.231,457.821,874.231,462.351Z" transform="translate(-334.091 -185.476)" fill="#a9d59f"/>
    <path id="Path_916" data-name="Path 916" d="M878.4,476.83s-11.975,23.505-2.217,36.363-.89,47.9-.89,47.9" transform="translate(-335.599 -192.639)" fill="none" stroke="#239617" stroke-miterlimit="10" stroke-width="1"/>
    <path id="Path_917" data-name="Path 917" d="M876,462.351c0,4.53,3.326,8.211,3.326,8.211s3.326-3.675,3.326-8.211-3.326-8.211-3.326-8.211S876,457.821,876,462.351Z" transform="translate(-336.749 -185.476)" fill="#6c63ff"/>
    <path id="Path_918" data-name="Path 918" d="M876,462.351c0,4.53,3.326,8.211,3.326,8.211s3.326-3.675,3.326-8.211-3.326-8.211-3.326-8.211S876,457.821,876,462.351Z" transform="translate(-336.749 -185.476)" fill="#a9d59f"/>
    <path id="Path_919" data-name="Path 919" d="M887.443,476.83s11.975,23.505,2.217,36.363.89,47.9.89,47.9" transform="translate(-339.762 -192.639)" fill="none" stroke="#239617" stroke-miterlimit="10" stroke-width="1"/>
    <path id="Path_920" data-name="Path 920" d="M890.431,462.351c0,4.53-3.326,8.211-3.326,8.211s-3.326-3.675-3.326-8.211,3.326-8.211,3.326-8.211S890.431,457.821,890.431,462.351Z" transform="translate(-339.206 -185.476)" fill="#a9d59f"/>
    <path id="Path_921" data-name="Path 921" d="M887.048,489.871c-3.141,3.264-8.088,3.606-8.088,3.606s.151-4.954,3.291-8.211,8.088-3.606,8.088-3.606S890.189,486.607,887.048,489.871Z" transform="translate(-337.684 -194.164)" fill="#ffefef" opacity="0"/>
    <path id="Path_922" data-name="Path 922" d="M887.5,513.568c-3.141,3.264-8.088,3.606-8.088,3.606s.151-4.954,3.292-8.211,8.061-3.613,8.061-3.613S890.639,510.3,887.5,513.568Z" transform="translate(-337.826 -201.644)" fill="#ffefef" opacity="0"/>
    <path id="Path_923" data-name="Path 923" d="M862.7,528.537c2.97,3.421,2.867,8.376,2.867,8.376s-4.92-.6-7.89-4.017-2.867-8.376-2.867-8.376S859.73,525.115,862.7,528.537Z" transform="translate(-330.059 -207.696)" fill="#ffefef" opacity="0"/>
    <path id="Path_924" data-name="Path 924" d="M866.367,479.007c3.777,2.5,5,7.308,5,7.308s-4.906.739-8.677-1.738-5-7.308-5-7.308S862.589,476.5,866.367,479.007Z" transform="translate(-330.968 -192.743)" fill="#6c63ff"/>
    <path id="Path_925" data-name="Path 925" d="M866.367,479.007c3.777,2.5,5,7.308,5,7.308s-4.906.739-8.677-1.738-5-7.308-5-7.308S862.589,476.5,866.367,479.007Z" transform="translate(-330.968 -192.743)" fill="#a9d59f"/>
    <path id="Path_926" data-name="Path 926" d="M894.6,476.83s-11.975,23.505-2.217,36.363-.89,47.9-.89,47.9" transform="translate(-340.713 -192.639)" fill="none" stroke="#239617" stroke-miterlimit="10" stroke-width="1"/>
    <path id="Path_927" data-name="Path 927" d="M892.21,462.351c0,4.53,3.326,8.211,3.326,8.211s3.326-3.675,3.326-8.211-3.326-8.211-3.326-8.211S892.21,457.821,892.21,462.351Z" transform="translate(-341.867 -185.476)" fill="#6c63ff"/>
    <path id="Path_928" data-name="Path 928" d="M892.21,462.351c0,4.53,3.326,8.211,3.326,8.211s3.326-3.675,3.326-8.211-3.326-8.211-3.326-8.211S892.21,457.821,892.21,462.351Z" transform="translate(-341.867 -185.476)" fill="#a9d59f"/>
    <path id="Path_929" data-name="Path 929" d="M892.031,492.55c-3.182,3.23-3.421,8.211-3.421,8.211s4.947-.281,8.129-3.51,3.421-8.211,3.421-8.211S895.206,489.321,892.031,492.55Z" transform="translate(-340.73 -196.494)" fill="#6c63ff"/>
    <path id="Path_930" data-name="Path 930" d="M892.031,492.55c-3.182,3.23-3.421,8.211-3.421,8.211s4.947-.281,8.129-3.51,3.421-8.211,3.421-8.211S895.206,489.321,892.031,492.55Z" transform="translate(-340.73 -196.494)" fill="#a9d59f"/>
    <path id="Path_931" data-name="Path 931" d="M901.141,525.38c-3.182,3.23-3.421,8.211-3.421,8.211s4.947-.281,8.129-3.51,3.421-8.211,3.421-8.211S904.323,522.137,901.141,525.38Z" transform="translate(-343.607 -206.859)" fill="#a9d59f"/>
    <path id="Path_932" data-name="Path 932" d="M889.31,514.4s7.206-11.359,17.326-11.633" transform="translate(-340.951 -200.829)" fill="none" stroke="#239617" stroke-miterlimit="10" stroke-width="1"/>
    <path id="Path_933" data-name="Path 933" d="M873.116,504.373s-7.206-11.359-17.326-11.633" transform="translate(-330.369 -197.662)" fill="none" stroke="#239617" stroke-miterlimit="10" stroke-width="1"/>
    <path id="Path_934" data-name="Path 934" d="M879.74,528.073s7.206-11.359,17.326-11.633" transform="translate(-337.93 -205.145)" fill="none" stroke="#239617" stroke-miterlimit="10" stroke-width="1"/>
    <circle id="Ellipse_223" data-name="Ellipse 223" cx="1.868" cy="1.868" r="1.868" transform="translate(563.481 300.011)" fill="#a9d59f"/>
    <circle id="Ellipse_224" data-name="Ellipse 224" cx="1.868" cy="1.868" r="1.868" transform="translate(523.724 293.305)" fill="#a9d59f"/>
    <path id="Path_935" data-name="Path 935" d="M879.5,533.543s-7.206-11.359-17.326-11.633" transform="translate(-332.383 -206.872)" fill="none" stroke="#239617" stroke-miterlimit="10" stroke-width="1"/>
    <circle id="Ellipse_225" data-name="Ellipse 225" cx="1.868" cy="1.868" r="1.868" transform="translate(528.09 313.266)" fill="#a9d59f"/>
    <circle id="Ellipse_226" data-name="Ellipse 226" cx="1.868" cy="1.868" r="1.868" transform="translate(557.405 309.523)" fill="#a9d59f"/>
    <path id="Path_936" data-name="Path 936" d="M914.245,572.131s-17.367-3.476-22-8.109-25.476-12.714-27.789-6.946-31.265,25.5-11.6,28.966,46.319,4.633,52.108,2.313S914.245,572.131,914.245,572.131Z" transform="translate(-327.293 -217.343)" fill="#a8a8a8"/>
    <path id="Path_937" data-name="Path 937" d="M852.856,591.716c19.687,3.476,46.319,4.633,52.108,2.313,4.407-1.766,7.472-10.264,8.684-14.178l.582.123s-3.476,13.9-9.265,16.211-32.422,1.156-52.108-2.313c-5.68-1.006-7.308-3.36-6.692-6.336C846.663,589.471,848.641,590.97,852.856,591.716Z" transform="translate(-327.291 -225.164)" opacity="0.2"/>
    <path id="Path_938" data-name="Path 938" d="M193.992,664.66s5.734,7.527-2.648,18.818-15.294,20.878-12.5,27.946c0,0,12.646-21.028,22.937-21.322S205.31,677.306,193.992,664.66Z" transform="translate(-116.449 -251.94)" fill="#a9d59f"/>
    <path id="Path_939" data-name="Path 939" d="M194.141,664.66a9.285,9.285,0,0,1,1.17,2.354c10.045,11.8,15.39,22.807,5.741,23.088-8.992.26-19.776,16.334-22.362,20.4a8.711,8.711,0,0,0,.308.924S191.644,690.4,201.935,690.1,205.459,677.306,194.141,664.66Z" transform="translate(-116.599 -251.94)" opacity="0.1"/>
    <path id="Path_940" data-name="Path 940" d="M216.219,677.846c0,2.641-.294,4.79-.684,4.79s-.684-2.142-.684-4.79.37-1.369.732-1.369S216.219,675.211,216.219,677.846Z" transform="translate(-128.015 -255.573)" fill="#ffd037"/>
    <path id="Path_941" data-name="Path 941" d="M220.1,682.4c-2.32,1.266-4.338,2.053-4.509,1.7s1.56-1.608,3.88-2.867,1.4-.342,1.581,0S222.424,681.13,220.1,682.4Z" transform="translate(-128.246 -256.969)" fill="#ffd037"/>
    <path id="Path_942" data-name="Path 942" d="M151.063,664.66s-5.734,7.527,2.648,18.818,15.294,20.878,12.5,27.939c0,0-12.646-21.028-22.937-21.322S139.745,677.306,151.063,664.66Z" transform="translate(-103.814 -251.94)" fill="#a9d59f"/>
    <path id="Path_943" data-name="Path 943" d="M151.063,664.66a9.286,9.286,0,0,0-1.17,2.354c-10.045,11.8-15.39,22.807-5.741,23.088,8.992.26,19.776,16.334,22.362,20.4a8.71,8.71,0,0,1-.308.924S153.561,690.4,143.269,690.1,139.745,677.306,151.063,664.66Z" transform="translate(-103.814 -251.94)" opacity="0.1"/>
    <path id="Path_944" data-name="Path 944" d="M141.42,677.846c0,2.641.294,4.79.684,4.79s.684-2.142.684-4.79-.37-1.369-.732-1.369S141.42,675.211,141.42,677.846Z" transform="translate(-104.832 -255.573)" fill="#ffd037"/>
    <path id="Path_945" data-name="Path 945" d="M135.427,682.4c2.32,1.266,4.338,2.053,4.509,1.7s-1.56-1.608-3.88-2.867-1.4-.342-1.581,0S133.108,681.13,135.427,682.4Z" transform="translate(-102.493 -256.969)" fill="#ffd037"/>
    <path id="Path_946" data-name="Path 946" d="M144.09,727.554s16.033-.493,20.864-3.935,24.634-7.527,25.859-2.053,24.094,27.447,5.994,27.59-42.056-2.819-46.88-5.755S144.09,727.554,144.09,727.554Z" transform="translate(-105.675 -269.063)" fill="#a8a8a8"/>
    <path id="Path_947" data-name="Path 947" d="M197.139,751.251c-18.1.144-42.056-2.819-46.88-5.755-3.675-2.238-5.139-10.264-5.625-13.966H144.1s1.013,12.933,5.837,15.869,28.781,5.905,46.88,5.755c5.228-.041,7.028-1.9,6.932-4.653C203.017,750.184,201.026,751.217,197.139,751.251Z" transform="translate(-105.678 -273.052)" opacity="0.2"/>
  </g>
</svg>
