<svg xmlns="http://www.w3.org/2000/svg" width="940.992" height="664.618" viewBox="0 0 940.992 664.618">
  <g id="Group_15" data-name="Group 15" transform="translate(-268 -1098)">
    <g id="Group_5" data-name="Group 5" transform="translate(32.259 946.968)">
      <path id="Path_121" data-name="Path 121" d="M916.834,379.85c-32.423,37.844-21.724,91.862-2.981,134.9,6.277,14.407,13.408,29.643,10.153,45.317-3.975,19.161-22.66,33.518-42.081,41.337-35.4,14.251-77.229,11.976-108.9-5.981-27.329-15.5-46.568-41.253-74.428-56.013-46.627-24.691-107.16-13.659-159.054,5.192-36.714,13.335-76.93,30.51-112.708,18.2-25.175-8.665-42.13-30.722-51.05-54.3-4.307-11.384-7.321-23.74-15.9-32.652-5.1-5.3-11.843-8.989-18.775-12.075-63.265-28.178-144.644-10.567-205.979-42.007-41.409-21.235-67.183-62.438-77.89-105.755s-8.058-89.044-3.793-133.988c3.031-31.941,7.826-66.071,30.4-91.171,23.877-26.544,63.894-37.1,99.681-32.933s67.862,21.09,95.937,41.239c35.09,25.186,67.4,56.793,111.07,66.346,29.741,6.509,61.337,1.9,92.253-.134,51.679-3.4,103.176.514,154.358,4.931,49,4.227,98.33,8.946,144.733,22.8,32.837,9.806,58.87,28.34,89.784,41.007,20.151,8.256,42.322,10.172,61.286,20.839,23.4,13.138,44.556,36.413,37.691,64.345C964.157,345.839,934.044,359.766,916.834,379.85Z" transform="translate(1228.415 759.614) rotate(178)" fill="#00beff" opacity="0.254"/>
      <line id="Line_3" data-name="Line 3" y2="32" transform="translate(667.5 304.5)" fill="none" stroke="#707070" stroke-width="1"/>
      <g id="undraw_Usability_testing_re_uu1g" transform="translate(268 182)">
        <rect id="Rectangle_62" data-name="Rectangle 62" width="751.606" height="356.65" transform="translate(61.138 20.606)" fill="#e6e6e6"/>
        <path id="Rectangle_75" data-name="Rectangle 75" d="M0,0H708.622V297.564H0Z" transform="translate(80.392 51.189)" fill="#fff"/>
        <rect id="Rectangle_80" data-name="Rectangle 80" width="751.606" height="31.93" transform="translate(60.817)" fill="#00beff"/>
        <circle id="Ellipse_90" data-name="Ellipse 90" cx="5.918" cy="5.918" r="5.918" transform="translate(78.627 8.851)" fill="#fff"/>
        <circle id="Ellipse_91" data-name="Ellipse 91" cx="5.918" cy="5.918" r="5.918" transform="translate(101.091 8.851)" fill="#fff"/>
        <circle id="Ellipse_92" data-name="Ellipse 92" cx="5.918" cy="5.918" r="5.918" transform="translate(123.555 8.851)" fill="#fff"/>
        <path id="Path_142" data-name="Path 142" d="M237.734,374.365a3.106,3.106,0,1,0,0,6.211H408.14a3.106,3.106,0,1,0,0-6.211Z" transform="translate(-113.662 -131.731)" fill="#e6e6e6"/>
        <path id="Path_143" data-name="Path 143" d="M237.734,393a3.106,3.106,0,1,0,0,6.211h87a3.106,3.106,0,1,0,0-6.211Z" transform="translate(-113.662 -131.731)" fill="#e6e6e6"/>
        <path id="Path_154" data-name="Path 154" d="M408.355,428.181H343.623a3.166,3.166,0,0,1-3.162-3.162V414.648a3.166,3.166,0,0,1,3.162-3.162h64.731a3.166,3.166,0,0,1,3.162,3.162v10.371a3.166,3.166,0,0,1-3.162,3.162Z" transform="translate(-113.662 -131.731)" fill="#e34949"/>
        <path id="Path_143-2" data-name="Path 143" d="M520.517,259.277c-1.171,0-2.12,1.814-2.12,4.052s.949,4.052,2.12,4.052H640.882c1.171,0,2.12-1.814,2.12-4.052s-.949-4.052-2.12-4.052Z" transform="translate(15.204 -41.409)" fill="#e6e6e6"/>
        <path id="Path_142-2" data-name="Path 142" d="M520.946,283.042c-1.408,0-2.549,1.814-2.549,4.052s1.141,4.052,2.549,4.052H734.1c1.408,0,2.549-1.814,2.549-4.052s-1.141-4.052-2.549-4.052Z" transform="translate(15.204 -42.688)" fill="#e6e6e6"/>
        <path id="Path_143-3" data-name="Path 143" d="M521.3,307.358c-1.6,0-2.9,1.814-2.9,4.052s1.3,4.052,2.9,4.052H685.914c1.6,0,2.9-1.814,2.9-4.052s-1.3-4.052-2.9-4.052Z" transform="translate(15.204 -44.517)" fill="#e6e6e6"/>
        <path id="Path_154-2" data-name="Path 154" d="M862.355,359.948H797.623a3.166,3.166,0,0,1-3.162-3.162V346.414a3.166,3.166,0,0,1,3.162-3.162h64.731a3.166,3.166,0,0,1,3.162,3.162v10.371a3.166,3.166,0,0,1-3.162,3.162Z" transform="translate(-113.662 -131.731)" fill="#f7af2b"/>
        <line id="Line_11" data-name="Line 11" x2="0.057" y2="19" transform="translate(466.443 122.5)" fill="none" stroke="#00beff" stroke-width="1"/>
        <line id="Line_12" data-name="Line 12" x2="0.057" y2="19" transform="translate(676.443 122.5)" fill="none" stroke="#00beff" stroke-width="1"/>
        <line id="Line_15" data-name="Line 15" x2="0.057" y2="19" transform="translate(198.443 122.5)" fill="none" stroke="#00beff" stroke-width="1"/>
        <line id="Line_16" data-name="Line 16" x2="0.057" y2="19" transform="translate(282.443 122.5)" fill="none" stroke="#00beff" stroke-width="1"/>
        <line id="Line_18" data-name="Line 18" y2="18" transform="translate(240.443 141.5)" fill="none" stroke="#00beff" stroke-width="1"/>
        <path id="Path_143-4" data-name="Path 143" d="M520.729,259.277c-1.287,0-2.331,1.814-2.331,4.052s1.044,4.052,2.331,4.052H653.084c1.287,0,2.331-1.814,2.331-4.052s-1.044-4.052-2.331-4.052Z" transform="translate(-172.796 -41.409)" fill="#e6e6e6"/>
        <path id="Path_142-3" data-name="Path 142" d="M519.131,283.042c-.405,0-.734,1.814-.734,4.052s.328,4.052.734,4.052H580.48c.405,0,.734-1.814.734-4.052s-.328-4.052-.734-4.052Z" transform="translate(-172.796 -42.293)" fill="#e6e6e6"/>
        <path id="Path_143-5" data-name="Path 143" d="M520.4,307.358c-1.1,0-2,1.814-2,4.052s.9,4.052,2,4.052H633.921c1.1,0,2-1.814,2-4.052s-.9-4.052-2-4.052Z" transform="translate(-172.796 -43.727)" fill="#e6e6e6"/>
        <path id="Path_143-6" data-name="Path 143" d="M520.9,307.358c-1.383,0-2.5,1.814-2.5,4.052s1.121,4.052,2.5,4.052H663.09c1.383,0,2.5-1.814,2.5-4.052s-1.121-4.052-2.5-4.052Z" transform="translate(15.204 -22.031)" fill="#e6e6e6"/>
        <path id="Path_143-7" data-name="Path 143" d="M522.238,307.358a4.058,4.058,0,0,0,0,8.1H740.3a4.058,4.058,0,0,0,0-8.1Z" transform="translate(15.204 0.455)" fill="#e6e6e6"/>
        <line id="Line_22" data-name="Line 22" y2="18" transform="translate(374.443 141.5)" fill="none" stroke="#00beff" stroke-width="1"/>
        <line id="Line_26" data-name="Line 26" x2="0.057" y2="19" transform="translate(292.443 122.5)" fill="none" stroke="#00beff" stroke-width="1"/>
        <line id="Line_27" data-name="Line 27" x2="0.057" y2="19" transform="translate(456.443 122.5)" fill="none" stroke="#00beff" stroke-width="1"/>
        <g id="Group_4" data-name="Group 4">
          <g id="Group_6" data-name="Group 6">
            <path id="Path_155" data-name="Path 155" d="M321.537,239.351c-6.911.025-12.5,10.25-12.489,22.838.014,12.553,5.6,22.723,12.489,22.748H911.495c6.911-.025,12.5-10.25,12.489-22.838-.014-12.553-5.6-22.723-12.489-22.748Z" transform="translate(-181.813 -161.589)" fill="#e4e4e4"/>
          </g>
          <text id="KMHH351EMKU00TEST" transform="translate(196.918 111)" fill="#707070" font-size="27" font-family="OpenSans-Light, Open Sans" font-weight="300" letter-spacing="0.44em"><tspan x="0" y="0">KMHH351EMKU00TEST</tspan></text>
        </g>
      </g>
      <line id="Line_4" data-name="Line 4" x2="45" transform="translate(463.5 341.5)" fill="none" stroke="#00beff" stroke-width="1"/>
      <line id="Line_5" data-name="Line 5" y1="73" transform="translate(463.5 341.5)" fill="none" stroke="#707070" stroke-width="1"/>
      <line id="Line_8" data-name="Line 8" x1="0.029" y1="18" transform="translate(839.471 323.5)" fill="none" stroke="#00beff" stroke-width="1"/>
      <line id="Line_9" data-name="Line 9" x1="210.057" transform="translate(734.443 323.5)" fill="none" stroke="#00beff" stroke-width="1"/>
      <line id="Line_13" data-name="Line 13" x1="23" transform="translate(839.5 341.5)" fill="none" stroke="#00beff" stroke-width="1"/>
      <line id="Line_14" data-name="Line 14" y1="51" transform="translate(862.471 341.5)" fill="none" stroke="#00beff" stroke-width="1"/>
      <line id="Line_17" data-name="Line 17" x2="84" transform="translate(466.5 323.5)" fill="none" stroke="#00beff" stroke-width="1"/>
      <line id="Line_21" data-name="Line 21" x2="164" transform="translate(560.5 323.5)" fill="none" stroke="#00beff" stroke-width="1"/>
      <line id="Line_23" data-name="Line 23" x2="39" transform="translate(642.5 341.5)" fill="none" stroke="#00beff" stroke-width="1"/>
      <line id="Line_24" data-name="Line 24" y1="73" transform="translate(463.5 341.5)" fill="none" stroke="#00beff" stroke-width="1"/>
      <line id="Line_25" data-name="Line 25" y1="52" transform="translate(681.5 341.5)" fill="none" stroke="#00beff" stroke-width="1"/>
      <circle id="Ellipse_5" data-name="Ellipse 5" cx="4.5" cy="4.5" r="4.5" transform="translate(677 387)" fill="#00beff"/>
      <circle id="Ellipse_6" data-name="Ellipse 6" cx="4.5" cy="4.5" r="4.5" transform="translate(459 410)" fill="#00beff"/>
      <circle id="Ellipse_7" data-name="Ellipse 7" cx="4.5" cy="4.5" r="4.5" transform="translate(858 387)" fill="#00beff"/>
      <g id="Group_13" data-name="Group 13" transform="translate(280.545 403.255)">
        <path id="Path_88" data-name="Path 88" d="M209.093,596.168l12.683-1.481.484-51.054-18.719,2.186Z" transform="translate(-29.457 -196.212)" fill="#a0616a"/>
        <path id="Path_89" data-name="Path 89" d="M0,.132,40.13,0l-.052,15.944-24.625.08A15.6,15.6,0,0,1,0,.132Z" transform="translate(218.132 407.871) rotate(173.526)" fill="#002028"/>
        <path id="Path_90" data-name="Path 90" d="M89.081,595.239h12.765l6.069-50.672H89.079Z" transform="translate(-39.875 -196.099)" fill="#a0616a"/>
        <path id="Path_91" data-name="Path 91" d="M0,0H40.115V15.952H15.5A15.73,15.73,0,0,1,0,0Z" transform="translate(86.583 411.338) rotate(179.997)" fill="#002028"/>
        <path id="Path_92" data-name="Path 92" d="M309.422,537.91l7.288,24.4,39.562,88.117,10.411,83.581-23.946,1.072-14.576-77.154L278.188,602.2,234.461,747.937l-19.781-2.143s16.658-188.6,39.562-207.884C254.243,537.91,291.723,519.691,309.422,537.91Z" transform="translate(-168.638 -365.371)" fill="#002028"/>
        <ellipse id="Ellipse_26" data-name="Ellipse 26" cx="25.571" cy="26.319" rx="25.571" ry="26.319" transform="translate(82.885 14.623)" fill="#a0616a"/>
        <path id="Path_93" data-name="Path 93" d="M309.733,552.5s3.123-109.3-40.6-101.8-25.507,113.051-25.507,113.051,9.37,19.288,32.274-2.143S309.733,552.5,309.733,552.5Z" transform="translate(-166.347 -375.142)" fill="#f7af2b"/>
        <path id="Path_94" data-name="Path 94" d="M390.937,462.123a10.446,10.446,0,0,1-7.466,4.9,10.277,10.277,0,0,1-8.448-2.746l-32.753,18.16,1.715-19.82,30.84-14.21A10.3,10.3,0,0,1,388.8,447.9a11.054,11.054,0,0,1,2.14,14.225Z" transform="translate(-157.027 -375.74)" fill="#a0616a"/>
        <path id="Path_96" data-name="Path 96" d="M277.892,451.967a1.1,1.1,0,0,0,.347-.9,1.091,1.091,0,0,0-.5-.828,15.52,15.52,0,0,1,1.433-26.831c7.518-3.689,17.705-.819,23.263-7.909a13.6,13.6,0,0,0,2.4-10.8c-1.2-6.7-6.09-11.669-11.567-15.077a41.078,41.078,0,0,0-44.48.6,43.777,43.777,0,0,0-19.12,41.34c.707,6.445,2.639,13.671-1.084,18.9-3.276,4.605-9.462,5.468-14.895,6.613-11.653,2.454-22.9,8.116-30.8,17.261s-12.127,21.976-9.743,33.97,11.95,22.535,23.707,24.395c9.57,1.513,19.451-2.67,26.478-9.524S234.8,507.06,237.6,497.521c3.324-11.32,4.637-23.521,10.641-33.606,5.877-9.869,18.536-16.943,28.459-11.8a1.041,1.041,0,0,0,1.194-.147Z" transform="translate(-172.478 -383.371)" fill="#002028"/>
        <path id="Path_95" data-name="Path 95" d="M273.062,464.069l53.166,9.249,47.647-23.148,7.234,15.92-52.159,34.192s-55.219,3.86-67.987-11.127c-4.787-5.62-5.335-10.736-4.148-14.933a14.321,14.321,0,0,1,16.246-10.15Z" transform="translate(-164.85 -375.163)" fill="#f7af2b"/>
      </g>
    </g>
    <g id="Group_14" data-name="Group 14" transform="translate(1045.942 1343.438)">
      <path id="Path_97" data-name="Path 97" d="M949.154,630.656a10.522,10.522,0,0,0,5.413-7,10.819,10.819,0,0,0-1.74-8.765l23.937-136.346-22.337-.3L937.8,613.071a10.849,10.849,0,0,0-1.914,13.981A10.157,10.157,0,0,0,949.154,630.656Z" transform="translate(-841.1 -356.185)" fill="#ffb8b8"/>
      <path id="Path_98" data-name="Path 98" d="M754.886,462.891l-8.48,41.457,1.06,92.734h15.9l7.42-90.552,11.658-38.184Z" transform="translate(-716.156 -194.884)" fill="#ffb8b8"/>
      <path id="Path_99" data-name="Path 99" d="M804.461,465.742,795.98,507.2l1.06,92.733h15.9l7.42-90.55L832.019,471.2Z" transform="translate(-713.183 -194.625)" fill="#ffb8b8"/>
      <path id="Path_100" data-name="Path 100" d="M15.781,0H40.843V16.241L0,16.244H0A16.021,16.021,0,0,1,15.781,0Z" transform="translate(9.98 401.183) rotate(-0.144)" fill="#002028"/>
      <path id="Path_101" data-name="Path 101" d="M15.781,0H40.843V16.241L0,16.244H0A16.021,16.021,0,0,1,15.781,0Z" transform="translate(62.918 402.936) rotate(-0.144)" fill="#002028"/>
      <ellipse id="Ellipse_27" data-name="Ellipse 27" cx="26.034" cy="26.796" rx="26.034" ry="26.796" transform="translate(51.384 11.104)" fill="#ffb8b8"/>
      <path id="Path_102" data-name="Path 102" d="M979.009,464.435c-7.921-12.792-32.79-43.131-69.8-25.717a16.268,16.268,0,0,0-9.08,15.961c1.791,24.328,4.05,86.311-15.225,123.4,0,0,56.178,17.456,86.918,1.091,0,0-10.6-73.1,0-87.278a59.224,59.224,0,0,0,8.493-14.975,14.417,14.417,0,0,0-1.309-12.483Z" transform="translate(-844.057 -360.259)" fill="#053440"/>
      <path id="Path_103" data-name="Path 103" d="M964.445,461.02l10.4,4.461a4.054,4.054,0,0,1,2.422,3.575l.955,23.6-23.32-2.182Z" transform="translate(-839.858 -357.752)" fill="#053440"/>
      <path id="Path_104" data-name="Path 104" d="M890.015,564.02s-23.319,44.73-19.08,86.187l32.858,5.455,23.323-57.822-5.3,58.913,33.919,1.091s22.26-85.1,14.837-92.733Z" transform="translate(-844.925 -348.381)" fill="#002028"/>
      <path id="Path_105" data-name="Path 105" d="M858.325,577.094a10.265,10.265,0,0,0,7.229-4.967,10.845,10.845,0,0,0,.942-8.893l47.3-91.785-21.182-7.3-39.89,92.638A10.718,10.718,0,0,0,846.76,569.5,10.325,10.325,0,0,0,858.325,577.094Z" transform="translate(891.429 -456.031) rotate(120)" fill="#ffb8b8"/>
      <path id="Path_106" data-name="Path 106" d="M918.154,448.5l-8.762-4.034s-7.429-4.742-14.013,5.688-12.3,30.565-12.3,30.565l27.186,11,1.931-10.583Z" transform="translate(386.027 -870.111) rotate(82)" fill="#053440"/>
      <path id="Path_107" data-name="Path 107" d="M925.015,417.165c.935-3.341.665-7.86-2.481-9.124-1.64-.658-3.469-.139-5.219.046a13.642,13.642,0,0,1-9.625-2.726c-3.255-2.491-5.265-6.3-7.174-9.98l-2.889-5.57a24.534,24.534,0,0,1-1.638-3.629c-1.607-4.917.137-10.61,3.709-14.272a19.8,19.8,0,0,1,13.74-5.545,36.19,36.19,0,0,1,14.682,3.237A64.858,64.858,0,0,1,950.01,384.74c4.062,4.277,7.76,9.849,6.911,15.765-.661,4.6-3.922,8.293-7.033,11.673l-11.283,12.259c-2,2.171-4.133,4.431-6.924,5.266s-6.384-.392-7.145-3.277C924.538,426.423,924.08,420.505,925.015,417.165Z" transform="translate(-843.426 -366.365)" fill="#002028"/>
    </g>
  </g>
</svg>
